<?xml version="1.0" encoding="UTF-8" standalone="no"?>
<!DOCTYPE svg PUBLIC "-//W3C//DTD SVG 1.1//EN"
 "http://www.w3.org/Graphics/SVG/1.1/DTD/svg11.dtd">
<!-- Generated by graphviz version 2.43.0 (0)
 -->
<!-- Title: mkr::threadsafe_list&lt; T &gt; Pages: 1 -->
<svg width="254pt" height="326pt"
 viewBox="0.00 0.00 254.00 326.00" xmlns="http://www.w3.org/2000/svg" xmlns:xlink="http://www.w3.org/1999/xlink">
<g id="graph0" class="graph" transform="scale(1 1) rotate(0) translate(4 322)">
<title>mkr::threadsafe_list&lt; T &gt;</title>
<polygon fill="white" stroke="transparent" points="-4,4 -4,-322 250,-322 250,4 -4,4"/>
<!-- Node1 -->
<g id="node1" class="node">
<title>Node1</title>
<g id="a_node1"><a xlink:title=" ">
<polygon fill="#bfbfbf" stroke="black" points="0,-0.5 0,-211.5 143,-211.5 143,-0.5 0,-0.5"/>
<text text-anchor="middle" x="71.5" y="-199.5" font-family="Helvetica,sans-Serif" font-size="10.00">mkr::threadsafe_list&lt; T &gt;</text>
<polyline fill="none" stroke="black" points="0,-192.5 143,-192.5 "/>
<text text-anchor="middle" x="71.5" y="-180.5" font-family="Helvetica,sans-Serif" font-size="10.00"> </text>
<polyline fill="none" stroke="black" points="0,-173.5 143,-173.5 "/>
<text text-anchor="start" x="8" y="-161.5" font-family="Helvetica,sans-Serif" font-size="10.00">+ threadsafe_list()</text>
<text text-anchor="start" x="8" y="-150.5" font-family="Helvetica,sans-Serif" font-size="10.00">+ threadsafe_list()</text>
<text text-anchor="start" x="8" y="-139.5" font-family="Helvetica,sans-Serif" font-size="10.00">+ threadsafe_list()</text>
<text text-anchor="start" x="8" y="-128.5" font-family="Helvetica,sans-Serif" font-size="10.00">+ ~threadsafe_list()</text>
<text text-anchor="start" x="8" y="-117.5" font-family="Helvetica,sans-Serif" font-size="10.00">+ operator=()</text>
<text text-anchor="start" x="8" y="-106.5" font-family="Helvetica,sans-Serif" font-size="10.00">+ operator=()</text>
<text text-anchor="start" x="8" y="-95.5" font-family="Helvetica,sans-Serif" font-size="10.00">+ match_any()</text>
<text text-anchor="start" x="8" y="-84.5" font-family="Helvetica,sans-Serif" font-size="10.00">+ push_front()</text>
<text text-anchor="start" x="8" y="-73.5" font-family="Helvetica,sans-Serif" font-size="10.00">+ remove_if()</text>
<text text-anchor="start" x="8" y="-62.5" font-family="Helvetica,sans-Serif" font-size="10.00">+ write_each()</text>
<text text-anchor="start" x="8" y="-51.5" font-family="Helvetica,sans-Serif" font-size="10.00">+ read_and_map_first_if()</text>
<text text-anchor="start" x="8" y="-40.5" font-family="Helvetica,sans-Serif" font-size="10.00">+ write_and_map_if()</text>
<text text-anchor="start" x="8" y="-29.5" font-family="Helvetica,sans-Serif" font-size="10.00">+ empty()</text>
<text text-anchor="start" x="8" y="-18.5" font-family="Helvetica,sans-Serif" font-size="10.00">+ size()</text>
<text text-anchor="start" x="8" y="-7.5" font-family="Helvetica,sans-Serif" font-size="10.00">&#45; do_push_front()</text>
</a>
</g>
</g>
<!-- Node1&#45;&gt;Node1 -->
<g id="edge2" class="edge">
<title>Node1&#45;&gt;Node1</title>
<path fill="none" stroke="#404040" d="M143.13,-127.09C153.79,-123.81 161,-116.78 161,-106 161,-99.43 158.32,-94.26 153.82,-90.47"/>
<polygon fill="none" stroke="#404040" points="153.77,-90.45 146.6,-91.23 143.13,-84.91 150.29,-84.13 153.77,-90.45"/>
<text text-anchor="middle" x="203.5" y="-103.5" font-family="Helvetica,sans-Serif" font-size="10.00"> &#45;num_elements_</text>
</g>
<!-- Node2 -->
<g id="node2" class="node">
<title>Node2</title>
<g id="a_node2"><a xlink:href="classmkr_1_1container.html" target="_top" xlink:title=" ">
<polygon fill="white" stroke="black" points="27,-249.5 27,-317.5 116,-317.5 116,-249.5 27,-249.5"/>
<text text-anchor="middle" x="71.5" y="-305.5" font-family="Helvetica,sans-Serif" font-size="10.00">mkr::container</text>
<polyline fill="none" stroke="black" points="27,-298.5 116,-298.5 "/>
<text text-anchor="middle" x="71.5" y="-286.5" font-family="Helvetica,sans-Serif" font-size="10.00"> </text>
<polyline fill="none" stroke="black" points="27,-279.5 116,-279.5 "/>
<text text-anchor="start" x="35" y="-267.5" font-family="Helvetica,sans-Serif" font-size="10.00">+ container()</text>
<text text-anchor="start" x="35" y="-256.5" font-family="Helvetica,sans-Serif" font-size="10.00">+ ~container()</text>
</a>
</g>
</g>
<!-- Node2&#45;&gt;Node1 -->
<g id="edge1" class="edge">
<title>Node2&#45;&gt;Node1</title>
<path fill="none" stroke="midnightblue" d="M71.5,-239.39C71.5,-230.76 71.5,-221.35 71.5,-211.65"/>
<polygon fill="none" stroke="midnightblue" points="68,-239.49 71.5,-249.49 75,-239.49 68,-239.49"/>
</g>
</g>
</svg>
