<?xml version="1.0" encoding="UTF-8" standalone="no"?>
<!DOCTYPE svg PUBLIC "-//W3C//DTD SVG 1.1//EN"
 "http://www.w3.org/Graphics/SVG/1.1/DTD/svg11.dtd">
<!-- Generated by graphviz version 2.43.0 (0)
 -->
<!-- Title: mkr::threadsafe_hashtable&lt; K, V, N &gt; Pages: 1 -->
<!--zoomable 1833 -->

<svg id="main" version="1.1" xmlns="http://www.w3.org/2000/svg" xmlns:xlink="http://www.w3.org/1999/xlink" xml:space="preserve" onload="init(evt)">
<style type="text/css"><![CDATA[
.node, .edge {opacity: 0.7;}
.node.selected, .edge.selected {opacity: 1;}
.edge:hover path { stroke: red; }
.edge:hover polygon { stroke: red; fill: red; }
]]></style>

<defs>
  <circle id="rim" cx="0" cy="0" r="7"/>
  <circle id="rim2" cx="0" cy="0" r="3.5"/>
  <g id="zoomPlus">
    <use xlink:href="#rim" fill="#404040"><set attributeName="fill" to="#808080" begin="zoomplus.mouseover" end="zoomplus.mouseout"/></use>
    <path d="M-4,0h8M0,-4v8" fill="none" stroke="white" stroke-width="1.5" pointer-events="none"/>
  </g>
  <g id="zoomMin">
    <use xlink:href="#rim" fill="#404040"><set attributeName="fill" to="#808080" begin="zoomminus.mouseover" end="zoomminus.mouseout"/></use>
    <path d="M-4,0h8" fill="none" stroke="white" stroke-width="1.5" pointer-events="none"/>
  </g>
  <g id="arrowUp" transform="translate(30 24)">
    <use xlink:href="#rim"/>
    <path pointer-events="none" fill="none" stroke="white" stroke-width="1.5" d="M0,-3.0v7 M-2.5,-0.5L0,-3.0L2.5,-0.5"/>
  </g>
  <g id="arrowRight" transform="rotate(90) translate(36 -43)">
    <use xlink:href="#rim"/>
    <path pointer-events="none" fill="none" stroke="white" stroke-width="1.5" d="M0,-3.0v7 M-2.5,-0.5L0,-3.0L2.5,-0.5"/>
  </g>
  <g id="arrowDown" transform="rotate(180) translate(-30 -48)">
    <use xlink:href="#rim"/>
    <path pointer-events="none" fill="none" stroke="white" stroke-width="1.5" d="M0,-3.0v7 M-2.5,-0.5L0,-3.0L2.5,-0.5"/>
  </g>
  <g id="arrowLeft" transform="rotate(270) translate(-36 17)">
    <use xlink:href="#rim"/>
    <path pointer-events="none" fill="none" stroke="white" stroke-width="1.5" d="M0,-3.0v7 M-2.5,-0.5L0,-3.0L2.5,-0.5"/>
  </g>
  <g id="resetDef">
    <use xlink:href="#rim2" fill="#404040"><set attributeName="fill" to="#808080" begin="reset.mouseover" end="reset.mouseout"/></use>
  </g>
</defs>
<script type="application/ecmascript">
var viewWidth = 612;
var viewHeight = 1833;
var sectionId = 'dynsection-1';
</script>
<script type="application/ecmascript" xlink:href="svg.min.js"/>
<svg id="graph" class="graph">
<g id="viewport">
<title>mkr::threadsafe_hashtable&lt; K, V, N &gt;</title>
<!-- Node1 -->
<g id="Node000001" class="node">
<title>Node1</title>
<g id="a_Node000001"><a xlink:title=" ">
<polygon fill="#999999" stroke="transparent" points="505,-495 362,-495 362,0 505,0 505,-495"/>
<text text-anchor="start" x="368" y="-482.5" font-family="Helvetica,sans-Serif" font-size="10.00">mkr::threadsafe_hashtable</text>
<text text-anchor="start" x="406" y="-471.5" font-family="Helvetica,sans-Serif" font-size="10.00">&lt; K, V, N &gt;</text>
<text text-anchor="start" x="432" y="-456.5" font-family="Helvetica,sans-Serif" font-size="10.00"> </text>
<text text-anchor="start" x="366.5" y="-441.5" font-family="Helvetica,sans-Serif" font-size="10.00">+</text>
<text text-anchor="start" x="379.5" y="-441.5" font-family="Helvetica,sans-Serif" font-size="10.00">threadsafe_hashtable()</text>
<text text-anchor="start" x="366.5" y="-426.5" font-family="Helvetica,sans-Serif" font-size="10.00">+</text>
<text text-anchor="start" x="379.5" y="-426.5" font-family="Helvetica,sans-Serif" font-size="10.00">threadsafe_hashtable()</text>
<text text-anchor="start" x="366.5" y="-411.5" font-family="Helvetica,sans-Serif" font-size="10.00">+</text>
<text text-anchor="start" x="379.5" y="-411.5" font-family="Helvetica,sans-Serif" font-size="10.00">threadsafe_hashtable()</text>
<text text-anchor="start" x="366.5" y="-396.5" font-family="Helvetica,sans-Serif" font-size="10.00">+</text>
<text text-anchor="start" x="379.5" y="-396.5" font-family="Helvetica,sans-Serif" font-size="10.00">~threadsafe_hashtable()</text>
<text text-anchor="start" x="366.5" y="-381.5" font-family="Helvetica,sans-Serif" font-size="10.00">+</text>
<text text-anchor="start" x="379.5" y="-381.5" font-family="Helvetica,sans-Serif" font-size="10.00">operator=()</text>
<text text-anchor="start" x="366.5" y="-366.5" font-family="Helvetica,sans-Serif" font-size="10.00">+</text>
<text text-anchor="start" x="379.5" y="-366.5" font-family="Helvetica,sans-Serif" font-size="10.00">operator=()</text>
<text text-anchor="start" x="366.5" y="-351.5" font-family="Helvetica,sans-Serif" font-size="10.00">+</text>
<text text-anchor="start" x="379.5" y="-351.5" font-family="Helvetica,sans-Serif" font-size="10.00">insert()</text>
<text text-anchor="start" x="366.5" y="-336.5" font-family="Helvetica,sans-Serif" font-size="10.00">+</text>
<text text-anchor="start" x="379.5" y="-336.5" font-family="Helvetica,sans-Serif" font-size="10.00">insert()</text>
<text text-anchor="start" x="366.5" y="-321.5" font-family="Helvetica,sans-Serif" font-size="10.00">+</text>
<text text-anchor="start" x="379.5" y="-321.5" font-family="Helvetica,sans-Serif" font-size="10.00">replace()</text>
<text text-anchor="start" x="366.5" y="-306.5" font-family="Helvetica,sans-Serif" font-size="10.00">+</text>
<text text-anchor="start" x="379.5" y="-306.5" font-family="Helvetica,sans-Serif" font-size="10.00">replace()</text>
<text text-anchor="start" x="366.5" y="-291.5" font-family="Helvetica,sans-Serif" font-size="10.00">+</text>
<text text-anchor="start" x="379.5" y="-291.5" font-family="Helvetica,sans-Serif" font-size="10.00">insert_or_replace()</text>
<text text-anchor="start" x="366.5" y="-276.5" font-family="Helvetica,sans-Serif" font-size="10.00">+</text>
<text text-anchor="start" x="379.5" y="-276.5" font-family="Helvetica,sans-Serif" font-size="10.00">insert_or_replace()</text>
<text text-anchor="start" x="366.5" y="-261.5" font-family="Helvetica,sans-Serif" font-size="10.00">+</text>
<text text-anchor="start" x="379.5" y="-261.5" font-family="Helvetica,sans-Serif" font-size="10.00">remove()</text>
<text text-anchor="start" x="366.5" y="-246.5" font-family="Helvetica,sans-Serif" font-size="10.00">+</text>
<text text-anchor="start" x="379.5" y="-246.5" font-family="Helvetica,sans-Serif" font-size="10.00">get()</text>
<text text-anchor="start" x="366.5" y="-231.5" font-family="Helvetica,sans-Serif" font-size="10.00">+</text>
<text text-anchor="start" x="379.5" y="-231.5" font-family="Helvetica,sans-Serif" font-size="10.00">get()</text>
<text text-anchor="start" x="366.5" y="-216.5" font-family="Helvetica,sans-Serif" font-size="10.00">+</text>
<text text-anchor="start" x="379.5" y="-216.5" font-family="Helvetica,sans-Serif" font-size="10.00">get_or_insert()</text>
<text text-anchor="start" x="366.5" y="-201.5" font-family="Helvetica,sans-Serif" font-size="10.00">+</text>
<text text-anchor="start" x="379.5" y="-201.5" font-family="Helvetica,sans-Serif" font-size="10.00">write_and_map()</text>
<text text-anchor="start" x="366.5" y="-186.5" font-family="Helvetica,sans-Serif" font-size="10.00">+</text>
<text text-anchor="start" x="379.5" y="-186.5" font-family="Helvetica,sans-Serif" font-size="10.00">read_and_map()</text>
<text text-anchor="start" x="366.5" y="-171.5" font-family="Helvetica,sans-Serif" font-size="10.00">+</text>
<text text-anchor="start" x="379.5" y="-171.5" font-family="Helvetica,sans-Serif" font-size="10.00">write_each()</text>
<text text-anchor="start" x="366.5" y="-156.5" font-family="Helvetica,sans-Serif" font-size="10.00">+</text>
<text text-anchor="start" x="379.5" y="-156.5" font-family="Helvetica,sans-Serif" font-size="10.00">read_each()</text>
<text text-anchor="start" x="366.5" y="-141.5" font-family="Helvetica,sans-Serif" font-size="10.00">+</text>
<text text-anchor="start" x="379.5" y="-141.5" font-family="Helvetica,sans-Serif" font-size="10.00">has()</text>
<text text-anchor="start" x="366.5" y="-126.5" font-family="Helvetica,sans-Serif" font-size="10.00">+</text>
<text text-anchor="start" x="379.5" y="-126.5" font-family="Helvetica,sans-Serif" font-size="10.00">clear()</text>
<text text-anchor="start" x="366.5" y="-111.5" font-family="Helvetica,sans-Serif" font-size="10.00">+</text>
<text text-anchor="start" x="379.5" y="-111.5" font-family="Helvetica,sans-Serif" font-size="10.00">empty()</text>
<text text-anchor="start" x="366.5" y="-96.5" font-family="Helvetica,sans-Serif" font-size="10.00">+</text>
<text text-anchor="start" x="379.5" y="-96.5" font-family="Helvetica,sans-Serif" font-size="10.00">size()</text>
<text text-anchor="start" x="369" y="-81.5" font-family="Helvetica,sans-Serif" font-size="10.00">&#45;</text>
<text text-anchor="start" x="379.5" y="-81.5" font-family="Helvetica,sans-Serif" font-size="10.00">get_bucket()</text>
<text text-anchor="start" x="369" y="-66.5" font-family="Helvetica,sans-Serif" font-size="10.00">&#45;</text>
<text text-anchor="start" x="379.5" y="-66.5" font-family="Helvetica,sans-Serif" font-size="10.00">get_bucket()</text>
<text text-anchor="start" x="369" y="-51.5" font-family="Helvetica,sans-Serif" font-size="10.00">&#45;</text>
<text text-anchor="start" x="379.5" y="-51.5" font-family="Helvetica,sans-Serif" font-size="10.00">do_insert()</text>
<text text-anchor="start" x="369" y="-36.5" font-family="Helvetica,sans-Serif" font-size="10.00">&#45;</text>
<text text-anchor="start" x="379.5" y="-36.5" font-family="Helvetica,sans-Serif" font-size="10.00">do_replace()</text>
<text text-anchor="start" x="369" y="-21.5" font-family="Helvetica,sans-Serif" font-size="10.00">&#45;</text>
<text text-anchor="start" x="379.5" y="-21.5" font-family="Helvetica,sans-Serif" font-size="10.00">do_insert_or_replace()</text>
<text text-anchor="start" x="369" y="-6.5" font-family="Helvetica,sans-Serif" font-size="10.00">&#45;</text>
<text text-anchor="start" x="379.5" y="-6.5" font-family="Helvetica,sans-Serif" font-size="10.00">do_copy_construct()</text>
<polygon fill="#666666" stroke="#666666" points="362.5,-466.5 362.5,-466.5 505.5,-466.5 505.5,-466.5 362.5,-466.5"/>
<polygon fill="#666666" stroke="#666666" points="362.5,-451.5 362.5,-451.5 505.5,-451.5 505.5,-451.5 362.5,-451.5"/>
<polygon fill="none" stroke="#666666" points="362,0 362,-495 505,-495 505,0 362,0"/>
</a>
</g>
</g>
<!-- Node2 -->
<g id="Node000002" class="node">
<title>Node2</title>
<g id="a_Node000002"><a xlink:href="classmkr_1_1container.html" target="_top" xlink:title=" ">
<polygon fill="white" stroke="transparent" points="83,-1718 0,-1718 0,-1654 83,-1654 83,-1718"/>
<text text-anchor="start" x="6" y="-1706" font-family="Helvetica,sans-Serif" font-size="10.00">mkr::container</text>
<text text-anchor="start" x="40" y="-1691" font-family="Helvetica,sans-Serif" font-size="10.00"> </text>
<text text-anchor="start" x="4.5" y="-1676" font-family="Helvetica,sans-Serif" font-size="10.00">+</text>
<text text-anchor="start" x="17.5" y="-1676" font-family="Helvetica,sans-Serif" font-size="10.00">container()</text>
<text text-anchor="start" x="4.5" y="-1661" font-family="Helvetica,sans-Serif" font-size="10.00">+</text>
<text text-anchor="start" x="17.5" y="-1661" font-family="Helvetica,sans-Serif" font-size="10.00">~container()</text>
<polygon fill="#666666" stroke="#666666" points="0.5,-1701 0.5,-1701 83.5,-1701 83.5,-1701 0.5,-1701"/>
<polygon fill="#666666" stroke="#666666" points="0.5,-1686 0.5,-1686 83.5,-1686 83.5,-1686 0.5,-1686"/>
<polygon fill="none" stroke="#666666" points="0,-1654 0,-1718 83,-1718 83,-1654 0,-1654"/>
</a>
</g>
</g>
<!-- Node2&#45;&gt;Node1 -->
<g id="edge1_Node000001_Node000002" class="edge">
<title>Node2&#45;&gt;Node1</title>
<g id="a_edge1_Node000001_Node000002"><a xlink:title=" ">
<path fill="none" stroke="#63b8ff" d="M32.78,-1643.49C21.57,-1586.35 3.5,-1480.1 3.5,-1388.5 3.5,-1388.5 3.5,-1388.5 3.5,-571 3.5,-394.17 239.12,-302.42 361.53,-266.68"/>
<polygon fill="none" stroke="#63b8ff" points="29.41,-1644.45 34.79,-1653.58 36.27,-1643.08 29.41,-1644.45"/>
</a>
</g>
</g>
<!-- Node5 -->
<g id="Node000005" class="node">
<title>Node5</title>
<g id="a_Node000005"><a xlink:href="classmkr_1_1threadsafe__list.html" target="_top" xlink:title=" ">
<polygon fill="white" stroke="transparent" points="236,-1110 83,-1110 83,-649 236,-649 236,-1110"/>
<text text-anchor="start" x="88.5" y="-1097.5" font-family="Helvetica,sans-Serif" font-size="10.00">mkr::threadsafe_list</text>
<text text-anchor="start" x="88.5" y="-1086.5" font-family="Helvetica,sans-Serif" font-size="10.00">&lt; mkr::threadsafe_hashtable</text>
<text text-anchor="start" x="141.5" y="-1075.5" font-family="Helvetica,sans-Serif" font-size="10.00">::pair &gt;</text>
<text text-anchor="start" x="158" y="-1060.5" font-family="Helvetica,sans-Serif" font-size="10.00"> </text>
<text text-anchor="start" x="90.5" y="-1045.5" font-family="Helvetica,sans-Serif" font-size="10.00">+</text>
<text text-anchor="start" x="106.5" y="-1045.5" font-family="Helvetica,sans-Serif" font-size="10.00">threadsafe_list()</text>
<text text-anchor="start" x="90.5" y="-1030.5" font-family="Helvetica,sans-Serif" font-size="10.00">+</text>
<text text-anchor="start" x="106.5" y="-1030.5" font-family="Helvetica,sans-Serif" font-size="10.00">threadsafe_list()</text>
<text text-anchor="start" x="90.5" y="-1015.5" font-family="Helvetica,sans-Serif" font-size="10.00">+</text>
<text text-anchor="start" x="106.5" y="-1015.5" font-family="Helvetica,sans-Serif" font-size="10.00">threadsafe_list()</text>
<text text-anchor="start" x="90.5" y="-1000.5" font-family="Helvetica,sans-Serif" font-size="10.00">+</text>
<text text-anchor="start" x="106.5" y="-1000.5" font-family="Helvetica,sans-Serif" font-size="10.00">~threadsafe_list()</text>
<text text-anchor="start" x="90.5" y="-985.5" font-family="Helvetica,sans-Serif" font-size="10.00">+</text>
<text text-anchor="start" x="106.5" y="-985.5" font-family="Helvetica,sans-Serif" font-size="10.00">operator=()</text>
<text text-anchor="start" x="90.5" y="-970.5" font-family="Helvetica,sans-Serif" font-size="10.00">+</text>
<text text-anchor="start" x="106.5" y="-970.5" font-family="Helvetica,sans-Serif" font-size="10.00">operator=()</text>
<text text-anchor="start" x="90.5" y="-955.5" font-family="Helvetica,sans-Serif" font-size="10.00">+</text>
<text text-anchor="start" x="106.5" y="-955.5" font-family="Helvetica,sans-Serif" font-size="10.00">match_any()</text>
<text text-anchor="start" x="90.5" y="-940.5" font-family="Helvetica,sans-Serif" font-size="10.00">+</text>
<text text-anchor="start" x="106.5" y="-940.5" font-family="Helvetica,sans-Serif" font-size="10.00">match_none()</text>
<text text-anchor="start" x="90.5" y="-925.5" font-family="Helvetica,sans-Serif" font-size="10.00">+</text>
<text text-anchor="start" x="106.5" y="-925.5" font-family="Helvetica,sans-Serif" font-size="10.00">push_front()</text>
<text text-anchor="start" x="90.5" y="-910.5" font-family="Helvetica,sans-Serif" font-size="10.00">+</text>
<text text-anchor="start" x="106.5" y="-910.5" font-family="Helvetica,sans-Serif" font-size="10.00">push_front()</text>
<text text-anchor="start" x="90.5" y="-895.5" font-family="Helvetica,sans-Serif" font-size="10.00">+</text>
<text text-anchor="start" x="106.5" y="-895.5" font-family="Helvetica,sans-Serif" font-size="10.00">remove_if()</text>
<text text-anchor="start" x="90.5" y="-880.5" font-family="Helvetica,sans-Serif" font-size="10.00">+</text>
<text text-anchor="start" x="106.5" y="-880.5" font-family="Helvetica,sans-Serif" font-size="10.00">replace_if()</text>
<text text-anchor="start" x="90.5" y="-865.5" font-family="Helvetica,sans-Serif" font-size="10.00">+</text>
<text text-anchor="start" x="106.5" y="-865.5" font-family="Helvetica,sans-Serif" font-size="10.00">write_each()</text>
<text text-anchor="start" x="90.5" y="-850.5" font-family="Helvetica,sans-Serif" font-size="10.00">+</text>
<text text-anchor="start" x="106.5" y="-850.5" font-family="Helvetica,sans-Serif" font-size="10.00">read_each()</text>
<text text-anchor="start" x="90.5" y="-835.5" font-family="Helvetica,sans-Serif" font-size="10.00">+</text>
<text text-anchor="start" x="106.5" y="-835.5" font-family="Helvetica,sans-Serif" font-size="10.00">find_first_if()</text>
<text text-anchor="start" x="90.5" y="-820.5" font-family="Helvetica,sans-Serif" font-size="10.00">+</text>
<text text-anchor="start" x="106.5" y="-820.5" font-family="Helvetica,sans-Serif" font-size="10.00">find_first_if()</text>
<text text-anchor="start" x="90.5" y="-805.5" font-family="Helvetica,sans-Serif" font-size="10.00">+</text>
<text text-anchor="start" x="106.5" y="-805.5" font-family="Helvetica,sans-Serif" font-size="10.00">write_and_map_first_if()</text>
<text text-anchor="start" x="90.5" y="-790.5" font-family="Helvetica,sans-Serif" font-size="10.00">+</text>
<text text-anchor="start" x="106.5" y="-790.5" font-family="Helvetica,sans-Serif" font-size="10.00">read_and_map_first_if()</text>
<text text-anchor="start" x="90.5" y="-775.5" font-family="Helvetica,sans-Serif" font-size="10.00">+</text>
<text text-anchor="start" x="106.5" y="-775.5" font-family="Helvetica,sans-Serif" font-size="10.00">write_and_map_if()</text>
<text text-anchor="start" x="90.5" y="-760.5" font-family="Helvetica,sans-Serif" font-size="10.00">+</text>
<text text-anchor="start" x="106.5" y="-760.5" font-family="Helvetica,sans-Serif" font-size="10.00">read_and_map_if()</text>
<text text-anchor="start" x="90.5" y="-745.5" font-family="Helvetica,sans-Serif" font-size="10.00">+</text>
<text text-anchor="start" x="106.5" y="-745.5" font-family="Helvetica,sans-Serif" font-size="10.00">write_and_map_each()</text>
<text text-anchor="start" x="90.5" y="-730.5" font-family="Helvetica,sans-Serif" font-size="10.00">+</text>
<text text-anchor="start" x="106.5" y="-730.5" font-family="Helvetica,sans-Serif" font-size="10.00">read_and_map_each()</text>
<text text-anchor="start" x="90.5" y="-715.5" font-family="Helvetica,sans-Serif" font-size="10.00">+</text>
<text text-anchor="start" x="106.5" y="-715.5" font-family="Helvetica,sans-Serif" font-size="10.00">clear()</text>
<text text-anchor="start" x="90.5" y="-700.5" font-family="Helvetica,sans-Serif" font-size="10.00">+</text>
<text text-anchor="start" x="106.5" y="-700.5" font-family="Helvetica,sans-Serif" font-size="10.00">empty()</text>
<text text-anchor="start" x="90.5" y="-685.5" font-family="Helvetica,sans-Serif" font-size="10.00">+</text>
<text text-anchor="start" x="106.5" y="-685.5" font-family="Helvetica,sans-Serif" font-size="10.00">size()</text>
<text text-anchor="start" x="93" y="-670.5" font-family="Helvetica,sans-Serif" font-size="10.00">&#45;</text>
<text text-anchor="start" x="106.5" y="-670.5" font-family="Helvetica,sans-Serif" font-size="10.00">do_push_front()</text>
<text text-anchor="start" x="93" y="-655.5" font-family="Helvetica,sans-Serif" font-size="10.00">&#45;</text>
<text text-anchor="start" x="106.5" y="-655.5" font-family="Helvetica,sans-Serif" font-size="10.00">do_copy_constructor()</text>
<polygon fill="#666666" stroke="#666666" points="83.5,-1070.5 83.5,-1070.5 236.5,-1070.5 236.5,-1070.5 83.5,-1070.5"/>
<polygon fill="#666666" stroke="#666666" points="83.5,-1055.5 83.5,-1055.5 236.5,-1055.5 236.5,-1055.5 83.5,-1055.5"/>
<polygon fill="none" stroke="#666666" points="83,-649 83,-1110 236,-1110 236,-649 83,-649"/>
</a>
</g>
</g>
<!-- Node2&#45;&gt;Node5 -->
<g id="edge5_Node000005_Node000002" class="edge">
<title>Node2&#45;&gt;Node5</title>
<g id="a_edge5_Node000005_Node000002"><a xlink:title=" ">
<path fill="none" stroke="#63b8ff" d="M39.08,-1643.63C34.79,-1555.37 29.12,-1342.4 61.5,-1168 66.79,-1139.48 74.34,-1109.95 82.92,-1081.15"/>
<polygon fill="none" stroke="#63b8ff" points="35.59,-1643.96 39.59,-1653.77 42.58,-1643.6 35.59,-1643.96"/>
</a>
</g>
</g>
<!-- Node10 -->
<g id="Node000010" class="node">
<title>Node10</title>
<g id="a_Node000010"><a xlink:href="classmkr_1_1threadsafe__list.html" target="_top" xlink:title=" ">
<polygon fill="white" stroke="transparent" points="284.5,-1607 144.5,-1607 144.5,-1168 284.5,-1168 284.5,-1607"/>
<text text-anchor="start" x="151" y="-1594.5" font-family="Helvetica,sans-Serif" font-size="10.00">mkr::threadsafe_list&lt; T &gt;</text>
<text text-anchor="start" x="212.5" y="-1579.5" font-family="Helvetica,sans-Serif" font-size="10.00"> </text>
<text text-anchor="start" x="148.5" y="-1564.5" font-family="Helvetica,sans-Serif" font-size="10.00">+</text>
<text text-anchor="start" x="161.5" y="-1564.5" font-family="Helvetica,sans-Serif" font-size="10.00">threadsafe_list()</text>
<text text-anchor="start" x="148.5" y="-1549.5" font-family="Helvetica,sans-Serif" font-size="10.00">+</text>
<text text-anchor="start" x="161.5" y="-1549.5" font-family="Helvetica,sans-Serif" font-size="10.00">threadsafe_list()</text>
<text text-anchor="start" x="148.5" y="-1534.5" font-family="Helvetica,sans-Serif" font-size="10.00">+</text>
<text text-anchor="start" x="161.5" y="-1534.5" font-family="Helvetica,sans-Serif" font-size="10.00">threadsafe_list()</text>
<text text-anchor="start" x="148.5" y="-1519.5" font-family="Helvetica,sans-Serif" font-size="10.00">+</text>
<text text-anchor="start" x="161.5" y="-1519.5" font-family="Helvetica,sans-Serif" font-size="10.00">~threadsafe_list()</text>
<text text-anchor="start" x="148.5" y="-1504.5" font-family="Helvetica,sans-Serif" font-size="10.00">+</text>
<text text-anchor="start" x="161.5" y="-1504.5" font-family="Helvetica,sans-Serif" font-size="10.00">operator=()</text>
<text text-anchor="start" x="148.5" y="-1489.5" font-family="Helvetica,sans-Serif" font-size="10.00">+</text>
<text text-anchor="start" x="161.5" y="-1489.5" font-family="Helvetica,sans-Serif" font-size="10.00">operator=()</text>
<text text-anchor="start" x="148.5" y="-1474.5" font-family="Helvetica,sans-Serif" font-size="10.00">+</text>
<text text-anchor="start" x="161.5" y="-1474.5" font-family="Helvetica,sans-Serif" font-size="10.00">match_any()</text>
<text text-anchor="start" x="148.5" y="-1459.5" font-family="Helvetica,sans-Serif" font-size="10.00">+</text>
<text text-anchor="start" x="161.5" y="-1459.5" font-family="Helvetica,sans-Serif" font-size="10.00">match_none()</text>
<text text-anchor="start" x="148.5" y="-1444.5" font-family="Helvetica,sans-Serif" font-size="10.00">+</text>
<text text-anchor="start" x="161.5" y="-1444.5" font-family="Helvetica,sans-Serif" font-size="10.00">push_front()</text>
<text text-anchor="start" x="148.5" y="-1429.5" font-family="Helvetica,sans-Serif" font-size="10.00">+</text>
<text text-anchor="start" x="161.5" y="-1429.5" font-family="Helvetica,sans-Serif" font-size="10.00">push_front()</text>
<text text-anchor="start" x="148.5" y="-1414.5" font-family="Helvetica,sans-Serif" font-size="10.00">+</text>
<text text-anchor="start" x="161.5" y="-1414.5" font-family="Helvetica,sans-Serif" font-size="10.00">remove_if()</text>
<text text-anchor="start" x="148.5" y="-1399.5" font-family="Helvetica,sans-Serif" font-size="10.00">+</text>
<text text-anchor="start" x="161.5" y="-1399.5" font-family="Helvetica,sans-Serif" font-size="10.00">replace_if()</text>
<text text-anchor="start" x="148.5" y="-1384.5" font-family="Helvetica,sans-Serif" font-size="10.00">+</text>
<text text-anchor="start" x="161.5" y="-1384.5" font-family="Helvetica,sans-Serif" font-size="10.00">write_each()</text>
<text text-anchor="start" x="148.5" y="-1369.5" font-family="Helvetica,sans-Serif" font-size="10.00">+</text>
<text text-anchor="start" x="161.5" y="-1369.5" font-family="Helvetica,sans-Serif" font-size="10.00">read_each()</text>
<text text-anchor="start" x="148.5" y="-1354.5" font-family="Helvetica,sans-Serif" font-size="10.00">+</text>
<text text-anchor="start" x="161.5" y="-1354.5" font-family="Helvetica,sans-Serif" font-size="10.00">find_first_if()</text>
<text text-anchor="start" x="148.5" y="-1339.5" font-family="Helvetica,sans-Serif" font-size="10.00">+</text>
<text text-anchor="start" x="161.5" y="-1339.5" font-family="Helvetica,sans-Serif" font-size="10.00">find_first_if()</text>
<text text-anchor="start" x="148.5" y="-1324.5" font-family="Helvetica,sans-Serif" font-size="10.00">+</text>
<text text-anchor="start" x="161.5" y="-1324.5" font-family="Helvetica,sans-Serif" font-size="10.00">write_and_map_first_if()</text>
<text text-anchor="start" x="148.5" y="-1309.5" font-family="Helvetica,sans-Serif" font-size="10.00">+</text>
<text text-anchor="start" x="161.5" y="-1309.5" font-family="Helvetica,sans-Serif" font-size="10.00">read_and_map_first_if()</text>
<text text-anchor="start" x="148.5" y="-1294.5" font-family="Helvetica,sans-Serif" font-size="10.00">+</text>
<text text-anchor="start" x="161.5" y="-1294.5" font-family="Helvetica,sans-Serif" font-size="10.00">write_and_map_if()</text>
<text text-anchor="start" x="148.5" y="-1279.5" font-family="Helvetica,sans-Serif" font-size="10.00">+</text>
<text text-anchor="start" x="161.5" y="-1279.5" font-family="Helvetica,sans-Serif" font-size="10.00">read_and_map_if()</text>
<text text-anchor="start" x="148.5" y="-1264.5" font-family="Helvetica,sans-Serif" font-size="10.00">+</text>
<text text-anchor="start" x="161.5" y="-1264.5" font-family="Helvetica,sans-Serif" font-size="10.00">write_and_map_each()</text>
<text text-anchor="start" x="148.5" y="-1249.5" font-family="Helvetica,sans-Serif" font-size="10.00">+</text>
<text text-anchor="start" x="161.5" y="-1249.5" font-family="Helvetica,sans-Serif" font-size="10.00">read_and_map_each()</text>
<text text-anchor="start" x="148.5" y="-1234.5" font-family="Helvetica,sans-Serif" font-size="10.00">+</text>
<text text-anchor="start" x="161.5" y="-1234.5" font-family="Helvetica,sans-Serif" font-size="10.00">clear()</text>
<text text-anchor="start" x="148.5" y="-1219.5" font-family="Helvetica,sans-Serif" font-size="10.00">+</text>
<text text-anchor="start" x="161.5" y="-1219.5" font-family="Helvetica,sans-Serif" font-size="10.00">empty()</text>
<text text-anchor="start" x="148.5" y="-1204.5" font-family="Helvetica,sans-Serif" font-size="10.00">+</text>
<text text-anchor="start" x="161.5" y="-1204.5" font-family="Helvetica,sans-Serif" font-size="10.00">size()</text>
<text text-anchor="start" x="151" y="-1189.5" font-family="Helvetica,sans-Serif" font-size="10.00">&#45;</text>
<text text-anchor="start" x="161.5" y="-1189.5" font-family="Helvetica,sans-Serif" font-size="10.00">do_push_front()</text>
<text text-anchor="start" x="151" y="-1174.5" font-family="Helvetica,sans-Serif" font-size="10.00">&#45;</text>
<text text-anchor="start" x="161.5" y="-1174.5" font-family="Helvetica,sans-Serif" font-size="10.00">do_copy_constructor()</text>
<polygon fill="#666666" stroke="#666666" points="144.5,-1589.5 144.5,-1589.5 284.5,-1589.5 284.5,-1589.5 144.5,-1589.5"/>
<polygon fill="#666666" stroke="#666666" points="144.5,-1574.5 144.5,-1574.5 284.5,-1574.5 284.5,-1574.5 144.5,-1574.5"/>
<polygon fill="none" stroke="#666666" points="144.5,-1168 144.5,-1607 284.5,-1607 284.5,-1168 144.5,-1168"/>
</a>
</g>
</g>
<!-- Node2&#45;&gt;Node10 -->
<g id="edge12_Node000010_Node000002" class="edge">
<title>Node2&#45;&gt;Node10</title>
<g id="a_edge12_Node000010_Node000002"><a xlink:title=" ">
<path fill="none" stroke="#63b8ff" d="M90.98,-1649.06C105.16,-1636.93 119.69,-1622.5 130.5,-1607 135.38,-1600 140.03,-1592.68 144.45,-1585.13"/>
<polygon fill="none" stroke="#63b8ff" points="88.62,-1646.47 83.16,-1655.55 93.09,-1651.85 88.62,-1646.47"/>
</a>
</g>
</g>
<!-- Node3 -->
<g id="Node000003" class="node">
<title>Node3</title>
<g id="a_Node000003"><a xlink:href="structmkr_1_1threadsafe__hashtable_1_1bucket.html" target="_top" xlink:title=" ">
<polygon fill="white" stroke="transparent" points="603.5,-602 461.5,-602 461.5,-542 603.5,-542 603.5,-602"/>
<text text-anchor="start" x="466.5" y="-590" font-family="Helvetica,sans-Serif" font-size="10.00">mkr::threadsafe_hashtable</text>
<text text-anchor="start" x="485.5" y="-579" font-family="Helvetica,sans-Serif" font-size="10.00">&lt; K, V, N &gt;::bucket</text>
<text text-anchor="start" x="530.5" y="-564" font-family="Helvetica,sans-Serif" font-size="10.00"> </text>
<text text-anchor="start" x="530.5" y="-549" font-family="Helvetica,sans-Serif" font-size="10.00"> </text>
<polygon fill="#666666" stroke="#666666" points="461.5,-574 461.5,-574 603.5,-574 603.5,-574 461.5,-574"/>
<polygon fill="#666666" stroke="#666666" points="461.5,-559 461.5,-559 603.5,-559 603.5,-559 461.5,-559"/>
<polygon fill="none" stroke="#666666" points="461.5,-542 461.5,-602 603.5,-602 603.5,-542 461.5,-542"/>
</a>
</g>
</g>
<!-- Node3&#45;&gt;Node1 -->
<g id="edge2_Node000001_Node000003" class="edge">
<title>Node3&#45;&gt;Node1</title>
<g id="a_edge2_Node000001_Node000003"><a xlink:title=" ">
<path fill="none" stroke="#63b8ff" d="M523.54,-541.81C519.52,-528.72 514.38,-511.96 508.59,-493.11"/>
<polygon fill="none" stroke="#63b8ff" points="508.53,-492.92 502.95,-488.36 505.01,-481.45 510.6,-486.01 508.53,-492.92"/>
</a>
</g>
<text text-anchor="middle" x="540.5" y="-516" font-family="Helvetica,sans-Serif" font-size="10.00" fill="grey"> &#45;buckets_</text>
</g>
<!-- Node4 -->
<g id="Node000004" class="node">
<title>Node4</title>
<g id="a_Node000004"><a xlink:title=" ">
<polygon fill="white" stroke="transparent" points="539.5,-1819.5 425.5,-1819.5 425.5,-1770.5 539.5,-1770.5 539.5,-1819.5"/>
<text text-anchor="start" x="430.5" y="-1807" font-family="Helvetica,sans-Serif" font-size="10.00">shared_timed_mutex</text>
<text text-anchor="start" x="480.5" y="-1792" font-family="Helvetica,sans-Serif" font-size="10.00"> </text>
<text text-anchor="start" x="480.5" y="-1777" font-family="Helvetica,sans-Serif" font-size="10.00"> </text>
<polygon fill="#666666" stroke="#666666" points="425.5,-1802 425.5,-1802 539.5,-1802 539.5,-1802 425.5,-1802"/>
<polygon fill="#666666" stroke="#666666" points="425.5,-1787 425.5,-1787 539.5,-1787 539.5,-1787 425.5,-1787"/>
<polygon fill="none" stroke="#666666" points="425.5,-1770.5 425.5,-1819.5 539.5,-1819.5 539.5,-1770.5 425.5,-1770.5"/>
</a>
</g>
</g>
<!-- Node4&#45;&gt;Node3 -->
<g id="edge3_Node000003_Node000004" class="edge">
<title>Node4&#45;&gt;Node3</title>
<g id="a_edge3_Node000003_Node000004"><a xlink:title=" ">
<path fill="none" stroke="#63b8ff" d="M506.7,-1770.45C524.82,-1750.21 546.5,-1719.25 546.5,-1687 546.5,-1687 546.5,-1687 546.5,-878.5 546.5,-783.78 539.7,-672.7 535.58,-614.08"/>
<polygon fill="none" stroke="#63b8ff" points="535.57,-614.01 531.16,-608.31 534.72,-602.04 539.14,-607.74 535.57,-614.01"/>
</a>
</g>
<text text-anchor="middle" x="571" y="-1385" font-family="Helvetica,sans-Serif" font-size="10.00" fill="grey"> +mutex_</text>
</g>
<!-- Node6 -->
<g id="Node000006" class="node">
<title>Node6</title>
<g id="a_Node000006"><a xlink:href="structmkr_1_1threadsafe__list_1_1node.html" target="_top" xlink:title=" ">
<polygon fill="white" stroke="transparent" points="215,-1716 106,-1716 106,-1656 215,-1656 215,-1716"/>
<text text-anchor="start" x="111.5" y="-1704" font-family="Helvetica,sans-Serif" font-size="10.00">mkr::threadsafe_list</text>
<text text-anchor="start" x="131.5" y="-1693" font-family="Helvetica,sans-Serif" font-size="10.00">&lt; T &gt;::node</text>
<text text-anchor="start" x="159" y="-1678" font-family="Helvetica,sans-Serif" font-size="10.00"> </text>
<text text-anchor="start" x="159" y="-1663" font-family="Helvetica,sans-Serif" font-size="10.00"> </text>
<polygon fill="#666666" stroke="#666666" points="106.5,-1688 106.5,-1688 215.5,-1688 215.5,-1688 106.5,-1688"/>
<polygon fill="#666666" stroke="#666666" points="106.5,-1673 106.5,-1673 215.5,-1673 215.5,-1673 106.5,-1673"/>
<polygon fill="none" stroke="#666666" points="106,-1656 106,-1716 215,-1716 215,-1656 106,-1656"/>
</a>
</g>
</g>
<!-- Node4&#45;&gt;Node6 -->
<g id="edge7_Node000006_Node000004" class="edge">
<title>Node4&#45;&gt;Node6</title>
<g id="a_edge7_Node000006_Node000004"><a xlink:title=" ">
<path fill="none" stroke="#63b8ff" d="M425.3,-1774.99C369.68,-1756.51 285.23,-1728.45 226.72,-1709.01"/>
<polygon fill="none" stroke="#63b8ff" points="226.4,-1708.9 219.45,-1710.8 215.02,-1705.12 221.97,-1703.21 226.4,-1708.9"/>
</a>
</g>
<text text-anchor="middle" x="365" y="-1739" font-family="Helvetica,sans-Serif" font-size="10.00" fill="grey"> +mutex_</text>
</g>
<!-- Node5&#45;&gt;Node3 -->
<g id="edge4_Node000003_Node000005" class="edge">
<title>Node5&#45;&gt;Node3</title>
<g id="a_edge4_Node000003_Node000005"><a xlink:title=" ">
<path fill="none" stroke="#63b8ff" d="M236.1,-802.12C284.5,-755.57 349.42,-696.17 411.5,-649 430.25,-634.75 451.74,-620.62 471.35,-608.48"/>
<polygon fill="none" stroke="#63b8ff" points="471.48,-608.4 474.51,-601.85 481.71,-602.13 478.68,-608.68 471.48,-608.4"/>
</a>
</g>
<text text-anchor="middle" x="465.5" y="-623" font-family="Helvetica,sans-Serif" font-size="10.00" fill="grey"> +list_</text>
</g>
<!-- Node6&#45;&gt;Node5 -->
<g id="edge6_Node000005_Node000006" class="edge">
<title>Node6&#45;&gt;Node5</title>
<g id="a_edge6_Node000005_Node000006"><a xlink:title=" ">
<path fill="none" stroke="#63b8ff" d="M129.45,-1655.72C117.32,-1642.2 104.83,-1625.13 98.5,-1607 34.21,-1422.79 78.14,-1362.05 98.5,-1168 100.08,-1152.94 102.11,-1137.5 104.48,-1121.98"/>
<polygon fill="none" stroke="#63b8ff" points="104.48,-1121.96 101.46,-1115.41 106.34,-1110.1 109.36,-1116.65 104.48,-1121.96"/>
</a>
</g>
<text text-anchor="middle" x="117" y="-1385" font-family="Helvetica,sans-Serif" font-size="10.00" fill="grey"> &#45;head_</text>
</g>
<!-- Node6&#45;&gt;Node10 -->
<g id="edge13_Node000010_Node000006" class="edge">
<title>Node6&#45;&gt;Node10</title>
<g id="a_edge13_Node000010_Node000006"><a xlink:title=" ">
<path fill="none" stroke="#63b8ff" d="M159.79,-1655.93C159.87,-1646.08 160.3,-1635.03 161.5,-1625 161.73,-1623.08 161.97,-1621.15 162.21,-1619.22"/>
<polygon fill="none" stroke="#63b8ff" points="162.22,-1619.17 159.06,-1612.68 163.83,-1607.27 166.99,-1613.76 162.22,-1619.17"/>
</a>
</g>
<text text-anchor="middle" x="180" y="-1628" font-family="Helvetica,sans-Serif" font-size="10.00" fill="grey"> &#45;head_</text>
</g>
<!-- Node7 -->
<g id="Node000007" class="node">
<title>Node7</title>
<g id="a_Node000007"><a xlink:title=" ">
<polygon fill="white" stroke="transparent" points="270,-1819.5 179,-1819.5 179,-1770.5 270,-1770.5 270,-1819.5"/>
<text text-anchor="start" x="184.5" y="-1807" font-family="Helvetica,sans-Serif" font-size="10.00">shared_ptr&lt; T &gt;</text>
<text text-anchor="start" x="223" y="-1792" font-family="Helvetica,sans-Serif" font-size="10.00"> </text>
<text text-anchor="start" x="223" y="-1777" font-family="Helvetica,sans-Serif" font-size="10.00"> </text>
<polygon fill="#666666" stroke="#666666" points="179.5,-1802 179.5,-1802 270.5,-1802 270.5,-1802 179.5,-1802"/>
<polygon fill="#666666" stroke="#666666" points="179.5,-1787 179.5,-1787 270.5,-1787 270.5,-1787 179.5,-1787"/>
<polygon fill="none" stroke="#666666" points="179,-1770.5 179,-1819.5 270,-1819.5 270,-1770.5 179,-1770.5"/>
</a>
</g>
</g>
<!-- Node7&#45;&gt;Node6 -->
<g id="edge8_Node000006_Node000007" class="edge">
<title>Node7&#45;&gt;Node6</title>
<g id="a_edge8_Node000006_Node000007"><a xlink:title=" ">
<path fill="none" stroke="#63b8ff" d="M210.3,-1770.25C202.59,-1757.37 192.87,-1741.12 184.06,-1726.4"/>
<polygon fill="none" stroke="#63b8ff" points="184.02,-1726.32 177.5,-1723.22 177.86,-1716.02 184.37,-1719.11 184.02,-1726.32"/>
</a>
</g>
<text text-anchor="middle" x="217.5" y="-1739" font-family="Helvetica,sans-Serif" font-size="10.00" fill="grey"> +value_</text>
</g>
<!-- Node8 -->
<g id="Node000008" class="node">
<title>Node8</title>
<g id="a_Node000008"><a xlink:title=" ">
<polygon fill="white" stroke="transparent" points="160.5,-1825 8.5,-1825 8.5,-1765 160.5,-1765 160.5,-1825"/>
<text text-anchor="start" x="13.5" y="-1813" font-family="Helvetica,sans-Serif" font-size="10.00">unique_ptr&lt; mkr::threadsafe</text>
<text text-anchor="start" x="53.5" y="-1802" font-family="Helvetica,sans-Serif" font-size="10.00">_list::node &gt;</text>
<text text-anchor="start" x="82.5" y="-1787" font-family="Helvetica,sans-Serif" font-size="10.00"> </text>
<text text-anchor="start" x="82.5" y="-1772" font-family="Helvetica,sans-Serif" font-size="10.00"> </text>
<polygon fill="#666666" stroke="#666666" points="8.5,-1797 8.5,-1797 160.5,-1797 160.5,-1797 8.5,-1797"/>
<polygon fill="#666666" stroke="#666666" points="8.5,-1782 8.5,-1782 160.5,-1782 160.5,-1782 8.5,-1782"/>
<polygon fill="none" stroke="#666666" points="8.5,-1765 8.5,-1825 160.5,-1825 160.5,-1765 8.5,-1765"/>
</a>
</g>
</g>
<!-- Node8&#45;&gt;Node6 -->
<g id="edge9_Node000006_Node000008" class="edge">
<title>Node8&#45;&gt;Node6</title>
<g id="a_edge9_Node000006_Node000008"><a xlink:title=" ">
<path fill="none" stroke="#63b8ff" d="M105.27,-1764.76C113.73,-1752.85 123.64,-1738.9 132.71,-1726.13"/>
<polygon fill="none" stroke="#63b8ff" points="132.81,-1725.99 133.02,-1718.78 139.76,-1716.2 139.54,-1723.41 132.81,-1725.99"/>
</a>
</g>
<text text-anchor="middle" x="145" y="-1739" font-family="Helvetica,sans-Serif" font-size="10.00" fill="grey"> +next_</text>
</g>
<!-- Node9 -->
<g id="Node000009" class="node">
<title>Node9</title>
<g id="a_Node000009"><a xlink:title=" ">
<polygon fill="white" stroke="transparent" points="359.5,-1710.5 281.5,-1710.5 281.5,-1661.5 359.5,-1661.5 359.5,-1710.5"/>
<text text-anchor="start" x="286.5" y="-1698" font-family="Helvetica,sans-Serif" font-size="10.00">atomic_size_t</text>
<text text-anchor="start" x="318.5" y="-1683" font-family="Helvetica,sans-Serif" font-size="10.00"> </text>
<text text-anchor="start" x="318.5" y="-1668" font-family="Helvetica,sans-Serif" font-size="10.00"> </text>
<polygon fill="#666666" stroke="#666666" points="281.5,-1693 281.5,-1693 359.5,-1693 359.5,-1693 281.5,-1693"/>
<polygon fill="#666666" stroke="#666666" points="281.5,-1678 281.5,-1678 359.5,-1678 359.5,-1678 281.5,-1678"/>
<polygon fill="none" stroke="#666666" points="281.5,-1661.5 281.5,-1710.5 359.5,-1710.5 359.5,-1661.5 281.5,-1661.5"/>
</a>
</g>
</g>
<!-- Node9&#45;&gt;Node1 -->
<g id="edge15_Node000001_Node000009" class="edge">
<title>Node9&#45;&gt;Node1</title>
<g id="a_edge15_Node000001_Node000009"><a xlink:title=" ">
<path fill="none" stroke="#63b8ff" d="M359.97,-1662.75C379.86,-1649.32 402.3,-1630.29 414.5,-1607 459.72,-1520.65 433.5,-1485.98 433.5,-1388.5 433.5,-1388.5 433.5,-1388.5 433.5,-571 433.5,-550.21 433.5,-528.67 433.5,-507.04"/>
<polygon fill="none" stroke="#63b8ff" points="433.5,-507.01 429.5,-501.01 433.5,-495.01 437.5,-501.01 433.5,-507.01"/>
</a>
</g>
<text text-anchor="middle" x="476" y="-877" font-family="Helvetica,sans-Serif" font-size="10.00" fill="grey"> &#45;num_elements_</text>
</g>
<!-- Node9&#45;&gt;Node5 -->
<g id="edge10_Node000005_Node000009" class="edge">
<title>Node9&#45;&gt;Node5</title>
<g id="a_edge10_Node000005_Node000009"><a xlink:title=" ">
<path fill="none" stroke="#63b8ff" d="M321.48,-1661.44C325.1,-1568.88 335.99,-1230.36 306.5,-1128 292.88,-1080.74 268.01,-1033.24 242.55,-992.67"/>
<polygon fill="none" stroke="#63b8ff" points="242.52,-992.63 235.93,-989.72 236.07,-982.51 242.67,-985.42 242.52,-992.63"/>
</a>
</g>
<text text-anchor="middle" x="368" y="-1385" font-family="Helvetica,sans-Serif" font-size="10.00" fill="grey"> &#45;num_elements_</text>
</g>
<!-- Node9&#45;&gt;Node10 -->
<g id="edge14_Node000010_Node000009" class="edge">
<title>Node9&#45;&gt;Node10</title>
<g id="a_edge14_Node000010_Node000009"><a xlink:title=" ">
<path fill="none" stroke="#63b8ff" d="M281.43,-1676.17C259.88,-1669.11 234.84,-1656.83 221.5,-1636 217.88,-1630.34 214.67,-1624.46 211.84,-1618.39"/>
<polygon fill="none" stroke="#63b8ff" points="211.82,-1618.33 205.8,-1614.36 207.15,-1607.28 213.17,-1611.25 211.82,-1618.33"/>
</a>
</g>
<text text-anchor="middle" x="264" y="-1628" font-family="Helvetica,sans-Serif" font-size="10.00" fill="grey"> &#45;num_elements_</text>
</g>
<!-- Node10&#45;&gt;Node5 -->
<g id="edge11_Node000005_Node000010" class="edge">
<title>Node10&#45;&gt;Node5</title>
<g id="a_edge11_Node000005_Node000010"><a xlink:title=" ">
<path fill="none" stroke="orange" d="M161.43,-1157.72C161.1,-1155.14 160.79,-1152.56 160.5,-1150 159.01,-1136.98 157.83,-1123.59 156.92,-1110.06"/>
<polygon fill="orange" stroke="orange" points="157.98,-1158.3 162.77,-1167.75 164.91,-1157.37 157.98,-1158.3"/>
</a>
</g>
<text text-anchor="start" x="160.5" y="-1142" font-family="Helvetica,sans-Serif" font-size="10.00" fill="grey"> &lt; mkr::threadsafe_hashtable</text>
<text text-anchor="middle" x="233.5" y="-1131" font-family="Helvetica,sans-Serif" font-size="10.00" fill="grey">::pair &gt;</text>
</g>
</g>
</svg>

<g id="navigator" transform="translate(0 0)" fill="#404254">
  <rect fill="#f2f5e9" fill-opacity="0.5" stroke="#606060" stroke-width=".5" x="0" y="0" width="60" height="60"/>
  <use id="zoomplus" xlink:href="#zoomPlus" x="17" y="9" onmousedown="handleZoom(evt,'in')"/>
  <use id="zoomminus" xlink:href="#zoomMin" x="42" y="9" onmousedown="handleZoom(evt,'out')"/>
  <use id="reset" xlink:href="#resetDef" x="30" y="36" onmousedown="handleReset()"/>
   <use id="arrowup" xlink:href="#arrowUp" x="0" y="0" onmousedown="handlePan(0,-1)"/>
  <use id="arrowright" xlink:href="#arrowRight" x="0" y="0" onmousedown="handlePan(1,0)"/>
  <use id="arrowdown" xlink:href="#arrowDown" x="0" y="0" onmousedown="handlePan(0,1)"/>
  <use id="arrowleft" xlink:href="#arrowLeft" x="0" y="0" onmousedown="handlePan(-1,0)"/>
</g>
<svg viewBox="0 0 15 15" width="100%" height="30px" preserveAspectRatio="xMaxYMin meet">
 <g id="arrow_out" transform="scale(0.3 0.3)">
  <a xlink:href="classmkr_1_1threadsafe__hashtable__coll__graph_org.svg" target="_base">
   <rect id="button" ry="5" rx="5" y="6" x="6" height="38" width="38"
        fill="#f2f5e9" fill-opacity="0.5" stroke="#606060" stroke-width="1.0"/>
   <path id="arrow"
     d="M 11.500037,31.436501 C 11.940474,20.09759 22.043105,11.32322 32.158766,21.979434 L 37.068811,17.246167 C 37.068811,17.246167 37.088388,32 37.088388,32 L 22.160133,31.978069 C 22.160133,31.978069 26.997745,27.140456 26.997745,27.140456 C 18.528582,18.264221 13.291696,25.230495 11.500037,31.436501 z"
     style="fill:#404040;"/>
  </a>
 </g>
</svg>

<style type='text/css'>
<![CDATA[
[data-mouse-over-selected='false'] { opacity: 0.7; }
[data-mouse-over-selected='true']  { opacity: 1.0; }
]]>
</style>
<script type="application/ecmascript"><![CDATA[
document.addEventListener('DOMContentLoaded', (event) => {
  highlightEdges();
  highlightAdjacentNodes();
});
]]></script>
</svg>
