<?xml version="1.0" encoding="UTF-8" standalone="no"?>
<!DOCTYPE svg PUBLIC "-//W3C//DTD SVG 1.1//EN"
 "http://www.w3.org/Graphics/SVG/1.1/DTD/svg11.dtd">
<!-- Generated by graphviz version 2.43.0 (0)
 -->
<!-- Title: mkr::threadsafe_queue&lt; T &gt; Pages: 1 -->
<!--zoomable 541 -->

<svg id="main" version="1.1" xmlns="http://www.w3.org/2000/svg" xmlns:xlink="http://www.w3.org/1999/xlink" xml:space="preserve" onload="init(evt)">
<style type="text/css"><![CDATA[
.node, .edge {opacity: 0.7;}
.node.selected, .edge.selected {opacity: 1;}
.edge:hover path { stroke: red; }
.edge:hover polygon { stroke: red; fill: red; }
]]></style>

<defs>
  <circle id="rim" cx="0" cy="0" r="7"/>
  <circle id="rim2" cx="0" cy="0" r="3.5"/>
  <g id="zoomPlus">
    <use xlink:href="#rim" fill="#404040"><set attributeName="fill" to="#808080" begin="zoomplus.mouseover" end="zoomplus.mouseout"/></use>
    <path d="M-4,0h8M0,-4v8" fill="none" stroke="white" stroke-width="1.5" pointer-events="none"/>
  </g>
  <g id="zoomMin">
    <use xlink:href="#rim" fill="#404040"><set attributeName="fill" to="#808080" begin="zoomminus.mouseover" end="zoomminus.mouseout"/></use>
    <path d="M-4,0h8" fill="none" stroke="white" stroke-width="1.5" pointer-events="none"/>
  </g>
  <g id="arrowUp" transform="translate(30 24)">
    <use xlink:href="#rim"/>
    <path pointer-events="none" fill="none" stroke="white" stroke-width="1.5" d="M0,-3.0v7 M-2.5,-0.5L0,-3.0L2.5,-0.5"/>
  </g>
  <g id="arrowRight" transform="rotate(90) translate(36 -43)">
    <use xlink:href="#rim"/>
    <path pointer-events="none" fill="none" stroke="white" stroke-width="1.5" d="M0,-3.0v7 M-2.5,-0.5L0,-3.0L2.5,-0.5"/>
  </g>
  <g id="arrowDown" transform="rotate(180) translate(-30 -48)">
    <use xlink:href="#rim"/>
    <path pointer-events="none" fill="none" stroke="white" stroke-width="1.5" d="M0,-3.0v7 M-2.5,-0.5L0,-3.0L2.5,-0.5"/>
  </g>
  <g id="arrowLeft" transform="rotate(270) translate(-36 17)">
    <use xlink:href="#rim"/>
    <path pointer-events="none" fill="none" stroke="white" stroke-width="1.5" d="M0,-3.0v7 M-2.5,-0.5L0,-3.0L2.5,-0.5"/>
  </g>
  <g id="resetDef">
    <use xlink:href="#rim2" fill="#404040"><set attributeName="fill" to="#808080" begin="reset.mouseover" end="reset.mouseout"/></use>
  </g>
</defs>
<script type="application/ecmascript">
var viewWidth = 639;
var viewHeight = 541;
var sectionId = 'dynsection-1';
</script>
<script type="application/ecmascript" xlink:href="svg.min.js"/>
<svg id="graph" class="graph">
<g id="viewport">
<title>mkr::threadsafe_queue&lt; T &gt;</title>
<!-- Node1 -->
<g id="Node000001" class="node">
<title>Node1</title>
<g id="a_Node000001"><a xlink:title=" ">
<polygon fill="#999999" stroke="transparent" points="382.5,-304 230.5,-304 230.5,0 382.5,0 382.5,-304"/>
<text text-anchor="start" x="235.5" y="-292" font-family="Helvetica,sans-Serif" font-size="10.00">mkr::threadsafe_queue&lt; T &gt;</text>
<text text-anchor="start" x="304.5" y="-277" font-family="Helvetica,sans-Serif" font-size="10.00"> </text>
<text text-anchor="start" x="241" y="-262" font-family="Helvetica,sans-Serif" font-size="10.00">+</text>
<text text-anchor="start" x="260.5" y="-262" font-family="Helvetica,sans-Serif" font-size="10.00">threadsafe_queue()</text>
<text text-anchor="start" x="241" y="-247" font-family="Helvetica,sans-Serif" font-size="10.00">+</text>
<text text-anchor="start" x="260.5" y="-247" font-family="Helvetica,sans-Serif" font-size="10.00">threadsafe_queue()</text>
<text text-anchor="start" x="241" y="-232" font-family="Helvetica,sans-Serif" font-size="10.00">+</text>
<text text-anchor="start" x="260.5" y="-232" font-family="Helvetica,sans-Serif" font-size="10.00">threadsafe_queue()</text>
<text text-anchor="start" x="241" y="-217" font-family="Helvetica,sans-Serif" font-size="10.00">+</text>
<text text-anchor="start" x="260.5" y="-217" font-family="Helvetica,sans-Serif" font-size="10.00">~threadsafe_queue()</text>
<text text-anchor="start" x="241" y="-202" font-family="Helvetica,sans-Serif" font-size="10.00">+</text>
<text text-anchor="start" x="260.5" y="-202" font-family="Helvetica,sans-Serif" font-size="10.00">operator=()</text>
<text text-anchor="start" x="241" y="-187" font-family="Helvetica,sans-Serif" font-size="10.00">+</text>
<text text-anchor="start" x="260.5" y="-187" font-family="Helvetica,sans-Serif" font-size="10.00">operator=()</text>
<text text-anchor="start" x="241" y="-172" font-family="Helvetica,sans-Serif" font-size="10.00">+</text>
<text text-anchor="start" x="260.5" y="-172" font-family="Helvetica,sans-Serif" font-size="10.00">push()</text>
<text text-anchor="start" x="241" y="-157" font-family="Helvetica,sans-Serif" font-size="10.00">+</text>
<text text-anchor="start" x="260.5" y="-157" font-family="Helvetica,sans-Serif" font-size="10.00">push()</text>
<text text-anchor="start" x="241" y="-142" font-family="Helvetica,sans-Serif" font-size="10.00">+</text>
<text text-anchor="start" x="260.5" y="-142" font-family="Helvetica,sans-Serif" font-size="10.00">try_pop()</text>
<text text-anchor="start" x="241" y="-127" font-family="Helvetica,sans-Serif" font-size="10.00">+</text>
<text text-anchor="start" x="260.5" y="-127" font-family="Helvetica,sans-Serif" font-size="10.00">wait_and_pop()</text>
<text text-anchor="start" x="241" y="-112" font-family="Helvetica,sans-Serif" font-size="10.00">+</text>
<text text-anchor="start" x="260.5" y="-112" font-family="Helvetica,sans-Serif" font-size="10.00">clear()</text>
<text text-anchor="start" x="241" y="-97" font-family="Helvetica,sans-Serif" font-size="10.00">+</text>
<text text-anchor="start" x="260.5" y="-97" font-family="Helvetica,sans-Serif" font-size="10.00">empty()</text>
<text text-anchor="start" x="241" y="-82" font-family="Helvetica,sans-Serif" font-size="10.00">+</text>
<text text-anchor="start" x="260.5" y="-82" font-family="Helvetica,sans-Serif" font-size="10.00">size()</text>
<text text-anchor="start" x="243.5" y="-67" font-family="Helvetica,sans-Serif" font-size="10.00">&#45;</text>
<text text-anchor="start" x="260.5" y="-67" font-family="Helvetica,sans-Serif" font-size="10.00">get_tail()</text>
<text text-anchor="start" x="243.5" y="-52" font-family="Helvetica,sans-Serif" font-size="10.00">&#45;</text>
<text text-anchor="start" x="260.5" y="-52" font-family="Helvetica,sans-Serif" font-size="10.00">get_tail()</text>
<text text-anchor="start" x="243.5" y="-37" font-family="Helvetica,sans-Serif" font-size="10.00">&#45;</text>
<text text-anchor="start" x="260.5" y="-37" font-family="Helvetica,sans-Serif" font-size="10.00">do_push()</text>
<text text-anchor="start" x="243.5" y="-22" font-family="Helvetica,sans-Serif" font-size="10.00">&#45;</text>
<text text-anchor="start" x="260.5" y="-22" font-family="Helvetica,sans-Serif" font-size="10.00">do_pop()</text>
<text text-anchor="start" x="243.5" y="-7" font-family="Helvetica,sans-Serif" font-size="10.00">&#45;</text>
<text text-anchor="start" x="260.5" y="-7" font-family="Helvetica,sans-Serif" font-size="10.00">do_copy_construct()</text>
<polygon fill="#666666" stroke="#666666" points="230.5,-287 230.5,-287 382.5,-287 382.5,-287 230.5,-287"/>
<polygon fill="#666666" stroke="#666666" points="230.5,-272 230.5,-272 382.5,-272 382.5,-272 230.5,-272"/>
<polygon fill="none" stroke="#666666" points="230.5,0 230.5,-304 382.5,-304 382.5,0 230.5,0"/>
</a>
</g>
</g>
<!-- Node2 -->
<g id="Node000002" class="node">
<title>Node2</title>
<g id="a_Node000002"><a xlink:href="classmkr_1_1container.html" target="_top" xlink:title=" ">
<polygon fill="white" stroke="transparent" points="83,-426 0,-426 0,-362 83,-362 83,-426"/>
<text text-anchor="start" x="6" y="-414" font-family="Helvetica,sans-Serif" font-size="10.00">mkr::container</text>
<text text-anchor="start" x="40" y="-399" font-family="Helvetica,sans-Serif" font-size="10.00"> </text>
<text text-anchor="start" x="4.5" y="-384" font-family="Helvetica,sans-Serif" font-size="10.00">+</text>
<text text-anchor="start" x="17.5" y="-384" font-family="Helvetica,sans-Serif" font-size="10.00">container()</text>
<text text-anchor="start" x="4.5" y="-369" font-family="Helvetica,sans-Serif" font-size="10.00">+</text>
<text text-anchor="start" x="17.5" y="-369" font-family="Helvetica,sans-Serif" font-size="10.00">~container()</text>
<polygon fill="#666666" stroke="#666666" points="0.5,-409 0.5,-409 83.5,-409 83.5,-409 0.5,-409"/>
<polygon fill="#666666" stroke="#666666" points="0.5,-394 0.5,-394 83.5,-394 83.5,-394 0.5,-394"/>
<polygon fill="none" stroke="#666666" points="0,-362 0,-426 83,-426 83,-362 0,-362"/>
</a>
</g>
</g>
<!-- Node2&#45;&gt;Node1 -->
<g id="edge1_Node000001_Node000002" class="edge">
<title>Node2&#45;&gt;Node1</title>
<g id="a_edge1_Node000001_Node000002"><a xlink:title=" ">
<path fill="none" stroke="#63b8ff" d="M83.46,-354.99C122.83,-319.34 182.64,-265.18 230.41,-221.91"/>
<polygon fill="none" stroke="#63b8ff" points="80.94,-352.56 75.87,-361.87 85.63,-357.75 80.94,-352.56"/>
</a>
</g>
</g>
<!-- Node3 -->
<g id="Node000003" class="node">
<title>Node3</title>
<g id="a_Node000003"><a xlink:title=" ">
<polygon fill="white" stroke="transparent" points="177.5,-418.5 101.5,-418.5 101.5,-369.5 177.5,-369.5 177.5,-418.5"/>
<text text-anchor="start" x="106.5" y="-406" font-family="Helvetica,sans-Serif" font-size="10.00">timed_mutex</text>
<text text-anchor="start" x="137.5" y="-391" font-family="Helvetica,sans-Serif" font-size="10.00"> </text>
<text text-anchor="start" x="137.5" y="-376" font-family="Helvetica,sans-Serif" font-size="10.00"> </text>
<polygon fill="#666666" stroke="#666666" points="101.5,-401 101.5,-401 177.5,-401 177.5,-401 101.5,-401"/>
<polygon fill="#666666" stroke="#666666" points="101.5,-386 101.5,-386 177.5,-386 177.5,-386 101.5,-386"/>
<polygon fill="none" stroke="#666666" points="101.5,-369.5 101.5,-418.5 177.5,-418.5 177.5,-369.5 101.5,-369.5"/>
</a>
</g>
</g>
<!-- Node3&#45;&gt;Node1 -->
<g id="edge2_Node000001_Node000003" class="edge">
<title>Node3&#45;&gt;Node1</title>
<g id="a_edge2_Node000001_Node000003"><a xlink:title=" ">
<path fill="none" stroke="#63b8ff" d="M156.12,-369.11C172.22,-345.98 197.88,-309.11 223.47,-272.32"/>
<polygon fill="none" stroke="#63b8ff" points="223.47,-272.32 223.62,-265.11 230.33,-262.47 230.18,-269.68 223.47,-272.32"/>
</a>
</g>
<text text-anchor="middle" x="226" y="-336" font-family="Helvetica,sans-Serif" font-size="10.00" fill="grey"> &#45;head_mutex_</text>
<text text-anchor="middle" x="226" y="-325" font-family="Helvetica,sans-Serif" font-size="10.00" fill="grey">&#45;tail_mutex_</text>
</g>
<!-- Node4 -->
<g id="Node000004" class="node">
<title>Node4</title>
<g id="a_Node000004"><a xlink:title=" ">
<polygon fill="white" stroke="transparent" points="319.5,-418.5 195.5,-418.5 195.5,-369.5 319.5,-369.5 319.5,-418.5"/>
<text text-anchor="start" x="200.5" y="-406" font-family="Helvetica,sans-Serif" font-size="10.00">condition_variable_any</text>
<text text-anchor="start" x="255.5" y="-391" font-family="Helvetica,sans-Serif" font-size="10.00"> </text>
<text text-anchor="start" x="255.5" y="-376" font-family="Helvetica,sans-Serif" font-size="10.00"> </text>
<polygon fill="#666666" stroke="#666666" points="195.5,-401 195.5,-401 319.5,-401 319.5,-401 195.5,-401"/>
<polygon fill="#666666" stroke="#666666" points="195.5,-386 195.5,-386 319.5,-386 319.5,-386 195.5,-386"/>
<polygon fill="none" stroke="#666666" points="195.5,-369.5 195.5,-418.5 319.5,-418.5 319.5,-369.5 195.5,-369.5"/>
</a>
</g>
</g>
<!-- Node4&#45;&gt;Node1 -->
<g id="edge3_Node000001_Node000004" class="edge">
<title>Node4&#45;&gt;Node1</title>
<g id="a_edge3_Node000001_Node000004"><a xlink:title=" ">
<path fill="none" stroke="#63b8ff" d="M262.38,-369.11C265.19,-355.32 269.01,-336.64 273.22,-316.01"/>
<polygon fill="none" stroke="#63b8ff" points="273.27,-315.77 270.55,-309.09 275.67,-304.01 278.39,-310.69 273.27,-315.77"/>
</a>
</g>
<text text-anchor="middle" x="290.5" y="-330.5" font-family="Helvetica,sans-Serif" font-size="10.00" fill="grey"> &#45;cond_</text>
</g>
<!-- Node5 -->
<g id="Node000005" class="node">
<title>Node5</title>
<g id="a_Node000005"><a xlink:title=" ">
<polygon fill="white" stroke="transparent" points="431.5,-533 279.5,-533 279.5,-473 431.5,-473 431.5,-533"/>
<text text-anchor="start" x="284.5" y="-521" font-family="Helvetica,sans-Serif" font-size="10.00">unique_ptr&lt; mkr::threadsafe</text>
<text text-anchor="start" x="317" y="-510" font-family="Helvetica,sans-Serif" font-size="10.00">_queue::node &gt;</text>
<text text-anchor="start" x="353.5" y="-495" font-family="Helvetica,sans-Serif" font-size="10.00"> </text>
<text text-anchor="start" x="353.5" y="-480" font-family="Helvetica,sans-Serif" font-size="10.00"> </text>
<polygon fill="#666666" stroke="#666666" points="279.5,-505 279.5,-505 431.5,-505 431.5,-505 279.5,-505"/>
<polygon fill="#666666" stroke="#666666" points="279.5,-490 279.5,-490 431.5,-490 431.5,-490 279.5,-490"/>
<polygon fill="none" stroke="#666666" points="279.5,-473 279.5,-533 431.5,-533 431.5,-473 279.5,-473"/>
</a>
</g>
</g>
<!-- Node5&#45;&gt;Node1 -->
<g id="edge4_Node000001_Node000005" class="edge">
<title>Node5&#45;&gt;Node1</title>
<g id="a_edge4_Node000001_Node000005"><a xlink:title=" ">
<path fill="none" stroke="#63b8ff" d="M351.41,-472.84C346.48,-437.75 337.81,-376.03 329.4,-316.11"/>
<polygon fill="none" stroke="#63b8ff" points="329.39,-316.04 324.6,-310.66 327.72,-304.16 332.52,-309.55 329.39,-316.04"/>
</a>
</g>
<text text-anchor="middle" x="362" y="-391.5" font-family="Helvetica,sans-Serif" font-size="10.00" fill="grey"> &#45;head_</text>
</g>
<!-- Node6 -->
<g id="Node000006" class="node">
<title>Node6</title>
<g id="a_Node000006"><a xlink:href="structmkr_1_1threadsafe__queue_1_1node.html" target="_top" xlink:title=" ">
<polygon fill="white" stroke="transparent" points="534.5,-424 410.5,-424 410.5,-364 534.5,-364 534.5,-424"/>
<text text-anchor="start" x="415.5" y="-412" font-family="Helvetica,sans-Serif" font-size="10.00">mkr::threadsafe_queue</text>
<text text-anchor="start" x="443" y="-401" font-family="Helvetica,sans-Serif" font-size="10.00">&lt; T &gt;::node</text>
<text text-anchor="start" x="470.5" y="-386" font-family="Helvetica,sans-Serif" font-size="10.00"> </text>
<text text-anchor="start" x="432.5" y="-371" font-family="Helvetica,sans-Serif" font-size="10.00">+</text>
<text text-anchor="start" x="463.5" y="-371" font-family="Helvetica,sans-Serif" font-size="10.00">copy()</text>
<polygon fill="#666666" stroke="#666666" points="410.5,-396 410.5,-396 534.5,-396 534.5,-396 410.5,-396"/>
<polygon fill="#666666" stroke="#666666" points="410.5,-381 410.5,-381 534.5,-381 534.5,-381 410.5,-381"/>
<polygon fill="none" stroke="#666666" points="410.5,-364 410.5,-424 534.5,-424 534.5,-364 410.5,-364"/>
</a>
</g>
</g>
<!-- Node5&#45;&gt;Node6 -->
<g id="edge7_Node000006_Node000005" class="edge">
<title>Node5&#45;&gt;Node6</title>
<g id="a_edge7_Node000006_Node000005"><a xlink:title=" ">
<path fill="none" stroke="#63b8ff" d="M387.47,-472.76C401.01,-460.38 416.96,-445.79 431.37,-432.62"/>
<polygon fill="none" stroke="#63b8ff" points="431.71,-432.3 433.44,-425.3 440.57,-424.2 438.84,-431.2 431.71,-432.3"/>
</a>
</g>
<text text-anchor="middle" x="437" y="-447" font-family="Helvetica,sans-Serif" font-size="10.00" fill="grey"> +next_</text>
</g>
<!-- Node6&#45;&gt;Node1 -->
<g id="edge5_Node000001_Node000006" class="edge">
<title>Node6&#45;&gt;Node1</title>
<g id="a_edge5_Node000001_Node000006"><a xlink:title=" ">
<path fill="none" stroke="#63b8ff" d="M452.15,-363.57C436.19,-340.5 412.85,-306.75 389.51,-273.01"/>
<polygon fill="none" stroke="#63b8ff" points="389.43,-272.89 382.72,-270.23 382.6,-263.02 389.3,-265.68 389.43,-272.89"/>
</a>
</g>
<text text-anchor="middle" x="450.5" y="-330.5" font-family="Helvetica,sans-Serif" font-size="10.00" fill="grey"> &#45;tail_</text>
</g>
<!-- Node7 -->
<g id="Node000007" class="node">
<title>Node7</title>
<g id="a_Node000007"><a xlink:title=" ">
<polygon fill="white" stroke="transparent" points="541,-527.5 450,-527.5 450,-478.5 541,-478.5 541,-527.5"/>
<text text-anchor="start" x="455.5" y="-515" font-family="Helvetica,sans-Serif" font-size="10.00">shared_ptr&lt; T &gt;</text>
<text text-anchor="start" x="494" y="-500" font-family="Helvetica,sans-Serif" font-size="10.00"> </text>
<text text-anchor="start" x="494" y="-485" font-family="Helvetica,sans-Serif" font-size="10.00"> </text>
<polygon fill="#666666" stroke="#666666" points="450.5,-510 450.5,-510 541.5,-510 541.5,-510 450.5,-510"/>
<polygon fill="#666666" stroke="#666666" points="450.5,-495 450.5,-495 541.5,-495 541.5,-495 450.5,-495"/>
<polygon fill="none" stroke="#666666" points="450,-478.5 450,-527.5 541,-527.5 541,-478.5 450,-478.5"/>
</a>
</g>
</g>
<!-- Node7&#45;&gt;Node6 -->
<g id="edge6_Node000006_Node000007" class="edge">
<title>Node7&#45;&gt;Node6</title>
<g id="a_edge6_Node000006_Node000007"><a xlink:title=" ">
<path fill="none" stroke="#63b8ff" d="M490.4,-478.25C487.73,-465.87 484.4,-450.37 481.34,-436.12"/>
<polygon fill="none" stroke="#63b8ff" points="481.26,-435.75 476.09,-430.72 478.74,-424.02 483.91,-429.04 481.26,-435.75"/>
</a>
</g>
<text text-anchor="middle" x="506.5" y="-447" font-family="Helvetica,sans-Serif" font-size="10.00" fill="grey"> +value_</text>
</g>
<!-- Node8 -->
<g id="Node000008" class="node">
<title>Node8</title>
<g id="a_Node000008"><a xlink:title=" ">
<polygon fill="white" stroke="transparent" points="630.5,-418.5 552.5,-418.5 552.5,-369.5 630.5,-369.5 630.5,-418.5"/>
<text text-anchor="start" x="557.5" y="-406" font-family="Helvetica,sans-Serif" font-size="10.00">atomic_size_t</text>
<text text-anchor="start" x="589.5" y="-391" font-family="Helvetica,sans-Serif" font-size="10.00"> </text>
<text text-anchor="start" x="589.5" y="-376" font-family="Helvetica,sans-Serif" font-size="10.00"> </text>
<polygon fill="#666666" stroke="#666666" points="552.5,-401 552.5,-401 630.5,-401 630.5,-401 552.5,-401"/>
<polygon fill="#666666" stroke="#666666" points="552.5,-386 552.5,-386 630.5,-386 630.5,-386 552.5,-386"/>
<polygon fill="none" stroke="#666666" points="552.5,-369.5 552.5,-418.5 630.5,-418.5 630.5,-369.5 552.5,-369.5"/>
</a>
</g>
</g>
<!-- Node8&#45;&gt;Node1 -->
<g id="edge8_Node000001_Node000008" class="edge">
<title>Node8&#45;&gt;Node1</title>
<g id="a_edge8_Node000001_Node000008"><a xlink:title=" ">
<path fill="none" stroke="#63b8ff" d="M563.39,-369.33C523.87,-336.05 450.17,-273.99 391.82,-224.85"/>
<polygon fill="none" stroke="#63b8ff" points="391.77,-224.81 384.6,-224 382.59,-217.08 389.76,-217.88 391.77,-224.81"/>
</a>
</g>
<text text-anchor="middle" x="572" y="-330.5" font-family="Helvetica,sans-Serif" font-size="10.00" fill="grey"> &#45;num_elements_</text>
</g>
</g>
</svg>

<g id="navigator" transform="translate(0 0)" fill="#404254">
  <rect fill="#f2f5e9" fill-opacity="0.5" stroke="#606060" stroke-width=".5" x="0" y="0" width="60" height="60"/>
  <use id="zoomplus" xlink:href="#zoomPlus" x="17" y="9" onmousedown="handleZoom(evt,'in')"/>
  <use id="zoomminus" xlink:href="#zoomMin" x="42" y="9" onmousedown="handleZoom(evt,'out')"/>
  <use id="reset" xlink:href="#resetDef" x="30" y="36" onmousedown="handleReset()"/>
   <use id="arrowup" xlink:href="#arrowUp" x="0" y="0" onmousedown="handlePan(0,-1)"/>
  <use id="arrowright" xlink:href="#arrowRight" x="0" y="0" onmousedown="handlePan(1,0)"/>
  <use id="arrowdown" xlink:href="#arrowDown" x="0" y="0" onmousedown="handlePan(0,1)"/>
  <use id="arrowleft" xlink:href="#arrowLeft" x="0" y="0" onmousedown="handlePan(-1,0)"/>
</g>
<svg viewBox="0 0 15 15" width="100%" height="30px" preserveAspectRatio="xMaxYMin meet">
 <g id="arrow_out" transform="scale(0.3 0.3)">
  <a xlink:href="classmkr_1_1threadsafe__queue__coll__graph_org.svg" target="_base">
   <rect id="button" ry="5" rx="5" y="6" x="6" height="38" width="38"
        fill="#f2f5e9" fill-opacity="0.5" stroke="#606060" stroke-width="1.0"/>
   <path id="arrow"
     d="M 11.500037,31.436501 C 11.940474,20.09759 22.043105,11.32322 32.158766,21.979434 L 37.068811,17.246167 C 37.068811,17.246167 37.088388,32 37.088388,32 L 22.160133,31.978069 C 22.160133,31.978069 26.997745,27.140456 26.997745,27.140456 C 18.528582,18.264221 13.291696,25.230495 11.500037,31.436501 z"
     style="fill:#404040;"/>
  </a>
 </g>
</svg>

<style type='text/css'>
<![CDATA[
[data-mouse-over-selected='false'] { opacity: 0.7; }
[data-mouse-over-selected='true']  { opacity: 1.0; }
]]>
</style>
<script type="application/ecmascript"><![CDATA[
document.addEventListener('DOMContentLoaded', (event) => {
  highlightEdges();
  highlightAdjacentNodes();
});
]]></script>
</svg>
