<?xml version="1.0" encoding="UTF-8" standalone="no"?>
<!DOCTYPE svg PUBLIC "-//W3C//DTD SVG 1.1//EN"
 "http://www.w3.org/Graphics/SVG/1.1/DTD/svg11.dtd">
<!-- Generated by graphviz version 2.43.0 (0)
 -->
<!-- Title: mkr::threadsafe_stack&lt; T &gt; Pages: 1 -->
<svg width="376pt" height="336pt"
 viewBox="0.00 0.00 375.50 336.00" xmlns="http://www.w3.org/2000/svg" xmlns:xlink="http://www.w3.org/1999/xlink">
<g id="graph0" class="graph" transform="scale(1 1) rotate(0) translate(4 332)">
<title>mkr::threadsafe_stack&lt; T &gt;</title>
<polygon fill="white" stroke="transparent" points="-4,4 -4,-332 371.5,-332 371.5,4 -4,4"/>
<!-- Node1 -->
<g id="node1" class="node">
<title>Node1</title>
<g id="a_node1"><a xlink:title=" ">
<polygon fill="#bfbfbf" stroke="black" points="108,-0.5 108,-211.5 263,-211.5 263,-0.5 108,-0.5"/>
<text text-anchor="middle" x="185.5" y="-199.5" font-family="Helvetica,sans-Serif" font-size="10.00">mkr::threadsafe_stack&lt; T &gt;</text>
<polyline fill="none" stroke="black" points="108,-192.5 263,-192.5 "/>
<text text-anchor="middle" x="185.5" y="-180.5" font-family="Helvetica,sans-Serif" font-size="10.00"> </text>
<polyline fill="none" stroke="black" points="108,-173.5 263,-173.5 "/>
<text text-anchor="start" x="116" y="-161.5" font-family="Helvetica,sans-Serif" font-size="10.00">+ threadsafe_stack()</text>
<text text-anchor="start" x="116" y="-150.5" font-family="Helvetica,sans-Serif" font-size="10.00">+ threadsafe_stack()</text>
<text text-anchor="start" x="116" y="-139.5" font-family="Helvetica,sans-Serif" font-size="10.00">+ threadsafe_stack()</text>
<text text-anchor="start" x="116" y="-128.5" font-family="Helvetica,sans-Serif" font-size="10.00">+ ~threadsafe_stack()</text>
<text text-anchor="start" x="116" y="-117.5" font-family="Helvetica,sans-Serif" font-size="10.00">+ operator=()</text>
<text text-anchor="start" x="116" y="-106.5" font-family="Helvetica,sans-Serif" font-size="10.00">+ operator=()</text>
<text text-anchor="start" x="116" y="-95.5" font-family="Helvetica,sans-Serif" font-size="10.00">+ push()</text>
<text text-anchor="start" x="116" y="-84.5" font-family="Helvetica,sans-Serif" font-size="10.00">+ push()</text>
<text text-anchor="start" x="116" y="-73.5" font-family="Helvetica,sans-Serif" font-size="10.00">+ wait_and_pop()</text>
<text text-anchor="start" x="116" y="-62.5" font-family="Helvetica,sans-Serif" font-size="10.00">+ try_pop()</text>
<text text-anchor="start" x="116" y="-51.5" font-family="Helvetica,sans-Serif" font-size="10.00">+ clear()</text>
<text text-anchor="start" x="116" y="-40.5" font-family="Helvetica,sans-Serif" font-size="10.00">+ empty()</text>
<text text-anchor="start" x="116" y="-29.5" font-family="Helvetica,sans-Serif" font-size="10.00">+ size()</text>
<text text-anchor="start" x="116" y="-18.5" font-family="Helvetica,sans-Serif" font-size="10.00">&#45; do_push()</text>
<text text-anchor="start" x="116" y="-7.5" font-family="Helvetica,sans-Serif" font-size="10.00">&#45; do_pop()</text>
</a>
</g>
</g>
<!-- Node1&#45;&gt;Node1 -->
<g id="edge2" class="edge">
<title>Node1&#45;&gt;Node1</title>
<path fill="none" stroke="#404040" d="M263.07,-127.42C273.81,-123.89 281,-116.75 281,-106 281,-99.45 278.33,-94.24 273.82,-90.37"/>
<polygon fill="none" stroke="#404040" points="273.63,-90.27 266.45,-90.95 263.07,-84.58 270.24,-83.91 273.63,-90.27"/>
<text text-anchor="middle" x="299" y="-103.5" font-family="Helvetica,sans-Serif" font-size="10.00"> &#45;cond_</text>
</g>
<!-- Node2 -->
<g id="node2" class="node">
<title>Node2</title>
<g id="a_node2"><a xlink:href="classmkr_1_1container.html" target="_top" xlink:title=" ">
<polygon fill="white" stroke="black" points="0,-259.5 0,-327.5 89,-327.5 89,-259.5 0,-259.5"/>
<text text-anchor="middle" x="44.5" y="-315.5" font-family="Helvetica,sans-Serif" font-size="10.00">mkr::container</text>
<polyline fill="none" stroke="black" points="0,-308.5 89,-308.5 "/>
<text text-anchor="middle" x="44.5" y="-296.5" font-family="Helvetica,sans-Serif" font-size="10.00"> </text>
<polyline fill="none" stroke="black" points="0,-289.5 89,-289.5 "/>
<text text-anchor="start" x="8" y="-277.5" font-family="Helvetica,sans-Serif" font-size="10.00">+ container()</text>
<text text-anchor="start" x="8" y="-266.5" font-family="Helvetica,sans-Serif" font-size="10.00">+ ~container()</text>
</a>
</g>
</g>
<!-- Node2&#45;&gt;Node1 -->
<g id="edge1" class="edge">
<title>Node2&#45;&gt;Node1</title>
<path fill="none" stroke="midnightblue" d="M75.83,-251.28C85.48,-238.58 96.57,-223.99 107.91,-209.08"/>
<polygon fill="none" stroke="midnightblue" points="72.97,-249.26 69.71,-259.34 78.55,-253.49 72.97,-249.26"/>
</g>
<!-- Node3 -->
<g id="node3" class="node">
<title>Node3</title>
<g id="a_node3"><a xlink:title=" ">
<polygon fill="white" stroke="#bfbfbf" points="106.5,-259.5 106.5,-327.5 264.5,-327.5 264.5,-259.5 106.5,-259.5"/>
<text text-anchor="start" x="114.5" y="-315.5" font-family="Helvetica,sans-Serif" font-size="10.00">unique_ptr&lt; mkr::threadsafe</text>
<text text-anchor="middle" x="185.5" y="-304.5" font-family="Helvetica,sans-Serif" font-size="10.00">_stack::node &gt;</text>
<polyline fill="none" stroke="#bfbfbf" points="106.5,-297.5 264.5,-297.5 "/>
<text text-anchor="middle" x="185.5" y="-285.5" font-family="Helvetica,sans-Serif" font-size="10.00"> </text>
<polyline fill="none" stroke="#bfbfbf" points="106.5,-278.5 264.5,-278.5 "/>
<text text-anchor="middle" x="185.5" y="-266.5" font-family="Helvetica,sans-Serif" font-size="10.00"> </text>
</a>
</g>
</g>
<!-- Node3&#45;&gt;Node1 -->
<g id="edge3" class="edge">
<title>Node3&#45;&gt;Node1</title>
<path fill="none" stroke="#404040" d="M185.5,-259.34C185.5,-248.99 185.5,-236.93 185.5,-224.21"/>
<polygon fill="none" stroke="#404040" points="185.5,-223.84 181.5,-217.84 185.5,-211.84 189.5,-217.84 185.5,-223.84"/>
<text text-anchor="middle" x="199.5" y="-233" font-family="Helvetica,sans-Serif" font-size="10.00"> &#45;top_</text>
</g>
<!-- Node4 -->
<g id="node4" class="node">
<title>Node4</title>
<g id="a_node4"><a xlink:title=" ">
<polygon fill="white" stroke="#bfbfbf" points="282.5,-265 282.5,-322 366.5,-322 366.5,-265 282.5,-265"/>
<text text-anchor="middle" x="324.5" y="-310" font-family="Helvetica,sans-Serif" font-size="10.00">atomic_size_t</text>
<polyline fill="none" stroke="#bfbfbf" points="282.5,-303 366.5,-303 "/>
<text text-anchor="middle" x="324.5" y="-291" font-family="Helvetica,sans-Serif" font-size="10.00"> </text>
<polyline fill="none" stroke="#bfbfbf" points="282.5,-284 366.5,-284 "/>
<text text-anchor="middle" x="324.5" y="-272" font-family="Helvetica,sans-Serif" font-size="10.00"> </text>
</a>
</g>
</g>
<!-- Node4&#45;&gt;Node1 -->
<g id="edge4" class="edge">
<title>Node4&#45;&gt;Node1</title>
<path fill="none" stroke="#404040" d="M303.69,-264.73C294.38,-252.31 282.74,-236.77 270.41,-220.31"/>
<polygon fill="none" stroke="#404040" points="270.28,-220.14 263.48,-217.74 263.08,-210.54 269.88,-212.94 270.28,-220.14"/>
<text text-anchor="middle" x="325" y="-233" font-family="Helvetica,sans-Serif" font-size="10.00"> &#45;num_elements_</text>
</g>
</g>
</svg>
