<?xml version="1.0" encoding="UTF-8" standalone="no"?>
<!DOCTYPE svg PUBLIC "-//W3C//DTD SVG 1.1//EN"
 "http://www.w3.org/Graphics/SVG/1.1/DTD/svg11.dtd">
<!-- Generated by graphviz version 2.43.0 (0)
 -->
<!-- Title: mkr::threadsafe_queue&lt; T &gt; Pages: 1 -->
<svg width="160pt" height="925pt"
 viewBox="0.00 0.00 160.00 925.00" xmlns="http://www.w3.org/2000/svg" xmlns:xlink="http://www.w3.org/1999/xlink">
<g id="graph0" class="graph" transform="scale(1 1) rotate(0) translate(4 921)">
<title>mkr::threadsafe_queue&lt; T &gt;</title>
<!-- Node1 -->
<g id="Node000001" class="node">
<title>Node1</title>
<g id="a_Node000001"><a xlink:title=" ">
<polygon fill="#999999" stroke="transparent" points="152,-816 0,-816 0,-437 152,-437 152,-816"/>
<text text-anchor="start" x="5" y="-803.5" font-family="Helvetica,sans-Serif" font-size="10.00">mkr::threadsafe_queue&lt; T &gt;</text>
<text text-anchor="start" x="13" y="-788.5" font-family="Helvetica,sans-Serif" font-size="10.00">&#45;</text>
<text text-anchor="start" x="30" y="-788.5" font-family="Helvetica,sans-Serif" font-size="10.00">head_mutex_</text>
<text text-anchor="start" x="13" y="-773.5" font-family="Helvetica,sans-Serif" font-size="10.00">&#45;</text>
<text text-anchor="start" x="30" y="-773.5" font-family="Helvetica,sans-Serif" font-size="10.00">tail_mutex_</text>
<text text-anchor="start" x="13" y="-758.5" font-family="Helvetica,sans-Serif" font-size="10.00">&#45;</text>
<text text-anchor="start" x="30" y="-758.5" font-family="Helvetica,sans-Serif" font-size="10.00">cond_</text>
<text text-anchor="start" x="13" y="-743.5" font-family="Helvetica,sans-Serif" font-size="10.00">&#45;</text>
<text text-anchor="start" x="30" y="-743.5" font-family="Helvetica,sans-Serif" font-size="10.00">head_</text>
<text text-anchor="start" x="13" y="-728.5" font-family="Helvetica,sans-Serif" font-size="10.00">&#45;</text>
<text text-anchor="start" x="30" y="-728.5" font-family="Helvetica,sans-Serif" font-size="10.00">tail_</text>
<text text-anchor="start" x="13" y="-713.5" font-family="Helvetica,sans-Serif" font-size="10.00">&#45;</text>
<text text-anchor="start" x="30" y="-713.5" font-family="Helvetica,sans-Serif" font-size="10.00">num_elements_</text>
<text text-anchor="start" x="10.5" y="-698.5" font-family="Helvetica,sans-Serif" font-size="10.00">+</text>
<text text-anchor="start" x="30" y="-698.5" font-family="Helvetica,sans-Serif" font-size="10.00">threadsafe_queue()</text>
<text text-anchor="start" x="10.5" y="-683.5" font-family="Helvetica,sans-Serif" font-size="10.00">+</text>
<text text-anchor="start" x="30" y="-683.5" font-family="Helvetica,sans-Serif" font-size="10.00">threadsafe_queue()</text>
<text text-anchor="start" x="10.5" y="-668.5" font-family="Helvetica,sans-Serif" font-size="10.00">+</text>
<text text-anchor="start" x="30" y="-668.5" font-family="Helvetica,sans-Serif" font-size="10.00">threadsafe_queue()</text>
<text text-anchor="start" x="10.5" y="-653.5" font-family="Helvetica,sans-Serif" font-size="10.00">+</text>
<text text-anchor="start" x="30" y="-653.5" font-family="Helvetica,sans-Serif" font-size="10.00">~threadsafe_queue()</text>
<text text-anchor="start" x="10.5" y="-638.5" font-family="Helvetica,sans-Serif" font-size="10.00">+</text>
<text text-anchor="start" x="30" y="-638.5" font-family="Helvetica,sans-Serif" font-size="10.00">operator=()</text>
<text text-anchor="start" x="10.5" y="-623.5" font-family="Helvetica,sans-Serif" font-size="10.00">+</text>
<text text-anchor="start" x="30" y="-623.5" font-family="Helvetica,sans-Serif" font-size="10.00">operator=()</text>
<text text-anchor="start" x="10.5" y="-608.5" font-family="Helvetica,sans-Serif" font-size="10.00">+</text>
<text text-anchor="start" x="30" y="-608.5" font-family="Helvetica,sans-Serif" font-size="10.00">push()</text>
<text text-anchor="start" x="10.5" y="-593.5" font-family="Helvetica,sans-Serif" font-size="10.00">+</text>
<text text-anchor="start" x="30" y="-593.5" font-family="Helvetica,sans-Serif" font-size="10.00">push()</text>
<text text-anchor="start" x="10.5" y="-578.5" font-family="Helvetica,sans-Serif" font-size="10.00">+</text>
<text text-anchor="start" x="30" y="-578.5" font-family="Helvetica,sans-Serif" font-size="10.00">try_pop()</text>
<text text-anchor="start" x="10.5" y="-563.5" font-family="Helvetica,sans-Serif" font-size="10.00">+</text>
<text text-anchor="start" x="30" y="-563.5" font-family="Helvetica,sans-Serif" font-size="10.00">wait_and_pop()</text>
<text text-anchor="start" x="10.5" y="-548.5" font-family="Helvetica,sans-Serif" font-size="10.00">+</text>
<text text-anchor="start" x="30" y="-548.5" font-family="Helvetica,sans-Serif" font-size="10.00">clear()</text>
<text text-anchor="start" x="10.5" y="-533.5" font-family="Helvetica,sans-Serif" font-size="10.00">+</text>
<text text-anchor="start" x="30" y="-533.5" font-family="Helvetica,sans-Serif" font-size="10.00">empty()</text>
<text text-anchor="start" x="10.5" y="-518.5" font-family="Helvetica,sans-Serif" font-size="10.00">+</text>
<text text-anchor="start" x="30" y="-518.5" font-family="Helvetica,sans-Serif" font-size="10.00">size()</text>
<text text-anchor="start" x="13" y="-503.5" font-family="Helvetica,sans-Serif" font-size="10.00">&#45;</text>
<text text-anchor="start" x="30" y="-503.5" font-family="Helvetica,sans-Serif" font-size="10.00">get_tail()</text>
<text text-anchor="start" x="13" y="-488.5" font-family="Helvetica,sans-Serif" font-size="10.00">&#45;</text>
<text text-anchor="start" x="30" y="-488.5" font-family="Helvetica,sans-Serif" font-size="10.00">get_tail()</text>
<text text-anchor="start" x="13" y="-473.5" font-family="Helvetica,sans-Serif" font-size="10.00">&#45;</text>
<text text-anchor="start" x="30" y="-473.5" font-family="Helvetica,sans-Serif" font-size="10.00">do_push()</text>
<text text-anchor="start" x="13" y="-458.5" font-family="Helvetica,sans-Serif" font-size="10.00">&#45;</text>
<text text-anchor="start" x="30" y="-458.5" font-family="Helvetica,sans-Serif" font-size="10.00">do_pop()</text>
<text text-anchor="start" x="13" y="-443.5" font-family="Helvetica,sans-Serif" font-size="10.00">&#45;</text>
<text text-anchor="start" x="30" y="-443.5" font-family="Helvetica,sans-Serif" font-size="10.00">do_copy_construct()</text>
<polygon fill="#666666" stroke="#666666" points="0,-798.5 0,-798.5 152,-798.5 152,-798.5 0,-798.5"/>
<polygon fill="#666666" stroke="#666666" points="0,-708.5 0,-708.5 28,-708.5 28,-708.5 0,-708.5"/>
<polygon fill="#666666" stroke="#666666" points="28,-708.5 28,-708.5 152,-708.5 152,-708.5 28,-708.5"/>
<polygon fill="none" stroke="#666666" points="0,-437 0,-816 152,-816 152,-437 0,-437"/>
</a>
</g>
</g>
<!-- Node3 -->
<g id="Node000003" class="node">
<title>Node3</title>
<g id="a_Node000003"><a xlink:href="classmkr_1_1threadsafe__queue.html" target="_top" xlink:title=" ">
<polygon fill="white" stroke="transparent" points="138.5,-390 13.5,-390 13.5,0 138.5,0 138.5,-390"/>
<text text-anchor="start" x="19.5" y="-378" font-family="Helvetica,sans-Serif" font-size="10.00">mkr::threadsafe_queue</text>
<text text-anchor="start" x="41.5" y="-367" font-family="Helvetica,sans-Serif" font-size="10.00">&lt; mkr::task &gt;</text>
<text text-anchor="start" x="20.5" y="-352" font-family="Helvetica,sans-Serif" font-size="10.00">&#45;</text>
<text text-anchor="start" x="31" y="-352" font-family="Helvetica,sans-Serif" font-size="10.00">head_mutex_</text>
<text text-anchor="start" x="20.5" y="-337" font-family="Helvetica,sans-Serif" font-size="10.00">&#45;</text>
<text text-anchor="start" x="31" y="-337" font-family="Helvetica,sans-Serif" font-size="10.00">tail_mutex_</text>
<text text-anchor="start" x="20.5" y="-322" font-family="Helvetica,sans-Serif" font-size="10.00">&#45;</text>
<text text-anchor="start" x="31" y="-322" font-family="Helvetica,sans-Serif" font-size="10.00">cond_</text>
<text text-anchor="start" x="20.5" y="-307" font-family="Helvetica,sans-Serif" font-size="10.00">&#45;</text>
<text text-anchor="start" x="31" y="-307" font-family="Helvetica,sans-Serif" font-size="10.00">head_</text>
<text text-anchor="start" x="20.5" y="-292" font-family="Helvetica,sans-Serif" font-size="10.00">&#45;</text>
<text text-anchor="start" x="31" y="-292" font-family="Helvetica,sans-Serif" font-size="10.00">tail_</text>
<text text-anchor="start" x="20.5" y="-277" font-family="Helvetica,sans-Serif" font-size="10.00">&#45;</text>
<text text-anchor="start" x="31" y="-277" font-family="Helvetica,sans-Serif" font-size="10.00">num_elements_</text>
<text text-anchor="start" x="18" y="-262" font-family="Helvetica,sans-Serif" font-size="10.00">+</text>
<text text-anchor="start" x="31" y="-262" font-family="Helvetica,sans-Serif" font-size="10.00">threadsafe_queue()</text>
<text text-anchor="start" x="18" y="-247" font-family="Helvetica,sans-Serif" font-size="10.00">+</text>
<text text-anchor="start" x="31" y="-247" font-family="Helvetica,sans-Serif" font-size="10.00">threadsafe_queue()</text>
<text text-anchor="start" x="18" y="-232" font-family="Helvetica,sans-Serif" font-size="10.00">+</text>
<text text-anchor="start" x="31" y="-232" font-family="Helvetica,sans-Serif" font-size="10.00">threadsafe_queue()</text>
<text text-anchor="start" x="18" y="-217" font-family="Helvetica,sans-Serif" font-size="10.00">+</text>
<text text-anchor="start" x="31" y="-217" font-family="Helvetica,sans-Serif" font-size="10.00">~threadsafe_queue()</text>
<text text-anchor="start" x="18" y="-202" font-family="Helvetica,sans-Serif" font-size="10.00">+</text>
<text text-anchor="start" x="31" y="-202" font-family="Helvetica,sans-Serif" font-size="10.00">operator=()</text>
<text text-anchor="start" x="18" y="-187" font-family="Helvetica,sans-Serif" font-size="10.00">+</text>
<text text-anchor="start" x="31" y="-187" font-family="Helvetica,sans-Serif" font-size="10.00">operator=()</text>
<text text-anchor="start" x="18" y="-172" font-family="Helvetica,sans-Serif" font-size="10.00">+</text>
<text text-anchor="start" x="31" y="-172" font-family="Helvetica,sans-Serif" font-size="10.00">push()</text>
<text text-anchor="start" x="18" y="-157" font-family="Helvetica,sans-Serif" font-size="10.00">+</text>
<text text-anchor="start" x="31" y="-157" font-family="Helvetica,sans-Serif" font-size="10.00">push()</text>
<text text-anchor="start" x="18" y="-142" font-family="Helvetica,sans-Serif" font-size="10.00">+</text>
<text text-anchor="start" x="31" y="-142" font-family="Helvetica,sans-Serif" font-size="10.00">try_pop()</text>
<text text-anchor="start" x="18" y="-127" font-family="Helvetica,sans-Serif" font-size="10.00">+</text>
<text text-anchor="start" x="31" y="-127" font-family="Helvetica,sans-Serif" font-size="10.00">wait_and_pop()</text>
<text text-anchor="start" x="18" y="-112" font-family="Helvetica,sans-Serif" font-size="10.00">+</text>
<text text-anchor="start" x="31" y="-112" font-family="Helvetica,sans-Serif" font-size="10.00">clear()</text>
<text text-anchor="start" x="18" y="-97" font-family="Helvetica,sans-Serif" font-size="10.00">+</text>
<text text-anchor="start" x="31" y="-97" font-family="Helvetica,sans-Serif" font-size="10.00">empty()</text>
<text text-anchor="start" x="18" y="-82" font-family="Helvetica,sans-Serif" font-size="10.00">+</text>
<text text-anchor="start" x="31" y="-82" font-family="Helvetica,sans-Serif" font-size="10.00">size()</text>
<text text-anchor="start" x="20.5" y="-67" font-family="Helvetica,sans-Serif" font-size="10.00">&#45;</text>
<text text-anchor="start" x="31" y="-67" font-family="Helvetica,sans-Serif" font-size="10.00">get_tail()</text>
<text text-anchor="start" x="20.5" y="-52" font-family="Helvetica,sans-Serif" font-size="10.00">&#45;</text>
<text text-anchor="start" x="31" y="-52" font-family="Helvetica,sans-Serif" font-size="10.00">get_tail()</text>
<text text-anchor="start" x="20.5" y="-37" font-family="Helvetica,sans-Serif" font-size="10.00">&#45;</text>
<text text-anchor="start" x="31" y="-37" font-family="Helvetica,sans-Serif" font-size="10.00">do_push()</text>
<text text-anchor="start" x="20.5" y="-22" font-family="Helvetica,sans-Serif" font-size="10.00">&#45;</text>
<text text-anchor="start" x="31" y="-22" font-family="Helvetica,sans-Serif" font-size="10.00">do_pop()</text>
<text text-anchor="start" x="20.5" y="-7" font-family="Helvetica,sans-Serif" font-size="10.00">&#45;</text>
<text text-anchor="start" x="31" y="-7" font-family="Helvetica,sans-Serif" font-size="10.00">do_copy_construct()</text>
<polygon fill="#666666" stroke="#666666" points="14,-362 14,-362 139,-362 139,-362 14,-362"/>
<polygon fill="#666666" stroke="#666666" points="14,-272 14,-272 29,-272 29,-272 14,-272"/>
<polygon fill="#666666" stroke="#666666" points="29,-272 29,-272 139,-272 139,-272 29,-272"/>
<polygon fill="none" stroke="#666666" points="13.5,0 13.5,-390 138.5,-390 138.5,0 13.5,0"/>
</a>
</g>
</g>
<!-- Node1&#45;&gt;Node3 -->
<g id="edge2_Node000001_Node000003" class="edge">
<title>Node1&#45;&gt;Node3</title>
<g id="a_edge2_Node000001_Node000003"><a xlink:title=" ">
<path fill="none" stroke="orange" d="M76,-426.66C76,-414.55 76,-402.38 76,-390.3"/>
<polygon fill="orange" stroke="orange" points="72.5,-426.8 76,-436.8 79.5,-426.8 72.5,-426.8"/>
</a>
</g>
<text text-anchor="middle" x="112.5" y="-411" font-family="Helvetica,sans-Serif" font-size="10.00" fill="grey"> &lt; mkr::task &gt;</text>
</g>
<!-- Node2 -->
<g id="Node000002" class="node">
<title>Node2</title>
<g id="a_Node000002"><a xlink:href="classmkr_1_1container.html" target="_top" xlink:title=" ">
<polygon fill="white" stroke="transparent" points="117.5,-917 34.5,-917 34.5,-853 117.5,-853 117.5,-917"/>
<text text-anchor="start" x="40.5" y="-905" font-family="Helvetica,sans-Serif" font-size="10.00">mkr::container</text>
<text text-anchor="start" x="74.5" y="-890" font-family="Helvetica,sans-Serif" font-size="10.00"> </text>
<text text-anchor="start" x="39" y="-875" font-family="Helvetica,sans-Serif" font-size="10.00">+</text>
<text text-anchor="start" x="52" y="-875" font-family="Helvetica,sans-Serif" font-size="10.00">container()</text>
<text text-anchor="start" x="39" y="-860" font-family="Helvetica,sans-Serif" font-size="10.00">+</text>
<text text-anchor="start" x="52" y="-860" font-family="Helvetica,sans-Serif" font-size="10.00">~container()</text>
<polygon fill="#666666" stroke="#666666" points="35,-900 35,-900 118,-900 118,-900 35,-900"/>
<polygon fill="#666666" stroke="#666666" points="35,-885 35,-885 118,-885 118,-885 35,-885"/>
<polygon fill="none" stroke="#666666" points="34.5,-853 34.5,-917 117.5,-917 117.5,-853 34.5,-853"/>
</a>
</g>
</g>
<!-- Node2&#45;&gt;Node1 -->
<g id="edge1_Node000001_Node000002" class="edge">
<title>Node2&#45;&gt;Node1</title>
<g id="a_edge1_Node000001_Node000002"><a xlink:title=" ">
<path fill="none" stroke="#63b8ff" d="M76,-842.67C76,-834.56 76,-825.57 76,-816"/>
<polygon fill="none" stroke="#63b8ff" points="72.5,-842.8 76,-852.8 79.5,-842.8 72.5,-842.8"/>
</a>
</g>
</g>
</g>
</svg>
