<?xml version="1.0" encoding="UTF-8" standalone="no"?>
<!DOCTYPE svg PUBLIC "-//W3C//DTD SVG 1.1//EN"
 "http://www.w3.org/Graphics/SVG/1.1/DTD/svg11.dtd">
<!-- Generated by graphviz version 2.43.0 (0)
 -->
<!-- Title: mkr::task::templated_wrapper&lt; Callable &gt; Pages: 1 -->
<svg width="147pt" height="270pt"
 viewBox="0.00 0.00 147.00 270.00" xmlns="http://www.w3.org/2000/svg" xmlns:xlink="http://www.w3.org/1999/xlink">
<g id="graph0" class="graph" transform="scale(1 1) rotate(0) translate(4 266)">
<title>mkr::task::templated_wrapper&lt; Callable &gt;</title>
<polygon fill="white" stroke="transparent" points="-4,4 -4,-266 143,-266 143,4 -4,4"/>
<!-- Node1 -->
<g id="node1" class="node">
<title>Node1</title>
<g id="a_node1"><a xlink:title=" ">
<polygon fill="#bfbfbf" stroke="black" points="0,-0.5 0,-134.5 139,-134.5 139,-0.5 0,-0.5"/>
<text text-anchor="start" x="8" y="-122.5" font-family="Helvetica,sans-Serif" font-size="10.00">mkr::task::templated</text>
<text text-anchor="middle" x="69.5" y="-111.5" font-family="Helvetica,sans-Serif" font-size="10.00">_wrapper&lt; Callable &gt;</text>
<polyline fill="none" stroke="black" points="0,-104.5 139,-104.5 "/>
<text text-anchor="start" x="8" y="-92.5" font-family="Helvetica,sans-Serif" font-size="10.00">&#45; func_</text>
<polyline fill="none" stroke="black" points="0,-85.5 139,-85.5 "/>
<text text-anchor="start" x="8" y="-73.5" font-family="Helvetica,sans-Serif" font-size="10.00">+ templated_wrapper()</text>
<text text-anchor="start" x="8" y="-62.5" font-family="Helvetica,sans-Serif" font-size="10.00">+ ~templated_wrapper()</text>
<text text-anchor="start" x="8" y="-51.5" font-family="Helvetica,sans-Serif" font-size="10.00">+ operator()()</text>
<text text-anchor="start" x="8" y="-40.5" font-family="Helvetica,sans-Serif" font-size="10.00">+ templated_wrapper()</text>
<text text-anchor="start" x="8" y="-29.5" font-family="Helvetica,sans-Serif" font-size="10.00">+ operator=()</text>
<text text-anchor="start" x="8" y="-18.5" font-family="Helvetica,sans-Serif" font-size="10.00">+ templated_wrapper()</text>
<text text-anchor="start" x="8" y="-7.5" font-family="Helvetica,sans-Serif" font-size="10.00">+ operator=()</text>
</a>
</g>
</g>
<!-- Node2 -->
<g id="node2" class="node">
<title>Node2</title>
<g id="a_node2"><a xlink:href="classmkr_1_1task_1_1wrapper__interface.html" target="_top" xlink:title=" ">
<polygon fill="white" stroke="black" points="3.5,-171.5 3.5,-261.5 135.5,-261.5 135.5,-171.5 3.5,-171.5"/>
<text text-anchor="start" x="11.5" y="-249.5" font-family="Helvetica,sans-Serif" font-size="10.00">mkr::task::wrapper</text>
<text text-anchor="middle" x="69.5" y="-238.5" font-family="Helvetica,sans-Serif" font-size="10.00">_interface</text>
<polyline fill="none" stroke="black" points="3.5,-231.5 135.5,-231.5 "/>
<text text-anchor="middle" x="69.5" y="-219.5" font-family="Helvetica,sans-Serif" font-size="10.00"> </text>
<polyline fill="none" stroke="black" points="3.5,-212.5 135.5,-212.5 "/>
<text text-anchor="start" x="11.5" y="-200.5" font-family="Helvetica,sans-Serif" font-size="10.00">+ wrapper_interface()</text>
<text text-anchor="start" x="11.5" y="-189.5" font-family="Helvetica,sans-Serif" font-size="10.00">+ ~wrapper_interface()</text>
<text text-anchor="start" x="11.5" y="-178.5" font-family="Helvetica,sans-Serif" font-size="10.00">+ operator()()</text>
</a>
</g>
</g>
<!-- Node2&#45;&gt;Node1 -->
<g id="edge1" class="edge">
<title>Node2&#45;&gt;Node1</title>
<path fill="none" stroke="midnightblue" d="M69.5,-161.37C69.5,-152.66 69.5,-143.55 69.5,-134.59"/>
<polygon fill="none" stroke="midnightblue" points="66,-161.4 69.5,-171.4 73,-161.4 66,-161.4"/>
</g>
</g>
</svg>
