<?xml version="1.0" encoding="UTF-8" standalone="no"?>
<!DOCTYPE svg PUBLIC "-//W3C//DTD SVG 1.1//EN"
 "http://www.w3.org/Graphics/SVG/1.1/DTD/svg11.dtd">
<!-- Generated by graphviz version 2.43.0 (0)
 -->
<!-- Title: mkr::container Pages: 1 -->
<!--zoomable 794 -->
<svg id="main" version="1.1" xmlns="http://www.w3.org/2000/svg" xmlns:xlink="http://www.w3.org/1999/xlink" xml:space="preserve" onload="init(evt)">
<style type="text/css"><![CDATA[
.edge:hover path { stroke: red; }
.edge:hover polygon { stroke: red; fill: red; }
]]></style>
<script type="text/javascript"><![CDATA[
var edges = document.getElementsByTagName('g');
if (edges && edges.length) {
  for (var i=0;i<edges.length;i++) {
    if (edges[i].id.substr(0,4)=='edge') {
      edges[i].setAttribute('class','edge');
    }
  }
}
]]></script>
        <defs>
                <circle id="rim" cx="0" cy="0" r="7"/>
                <circle id="rim2" cx="0" cy="0" r="3.5"/>
                <g id="zoomPlus">
                        <use xlink:href="#rim" fill="#404040">
                                <set attributeName="fill" to="#808080" begin="zoomplus.mouseover" end="zoomplus.mouseout"/>
                        </use>
                        <path d="M-4,0h8M0,-4v8" fill="none" stroke="white" stroke-width="1.5" pointer-events="none"/>
                </g>
                <g id="zoomMin">
                        <use xlink:href="#rim" fill="#404040">
                                <set attributeName="fill" to="#808080" begin="zoomminus.mouseover" end="zoomminus.mouseout"/>
                        </use>
                        <path d="M-4,0h8" fill="none" stroke="white" stroke-width="1.5" pointer-events="none"/>
                </g>
                <g id="dirArrow">
                        <path fill="none" stroke="white" stroke-width="1.5" d="M0,-3.0v7 M-2.5,-0.5L0,-3.0L2.5,-0.5"/>
                </g>
               <g id="resetDef">
                       <use xlink:href="#rim2" fill="#404040">
                               <set attributeName="fill" to="#808080" begin="reset.mouseover" end="reset.mouseout"/>
                       </use>
               </g>
        </defs>

<script type="text/javascript">
var viewWidth = 825;
var viewHeight = 794;
var sectionId = 'dynsection-0';
</script>
<script xlink:href="svgpan.js"/>
<svg id="graph" class="graph">
<g id="viewport">
<title>mkr::container</title>
<polygon fill="white" stroke="transparent" points="-4,4 -4,-790 821,-790 821,4 -4,4"/>
<!-- Node1 -->
<g id="node1" class="node">
<title>Node1</title>
<g id="a_node1"><a xlink:title=" ">
<polygon fill="#bfbfbf" stroke="black" points="375,-717.5 375,-785.5 464,-785.5 464,-717.5 375,-717.5"/>
<text text-anchor="middle" x="419.5" y="-773.5" font-family="Helvetica,sans-Serif" font-size="10.00">mkr::container</text>
<polyline fill="none" stroke="black" points="375,-766.5 464,-766.5 "/>
<text text-anchor="middle" x="419.5" y="-754.5" font-family="Helvetica,sans-Serif" font-size="10.00"> </text>
<polyline fill="none" stroke="black" points="375,-747.5 464,-747.5 "/>
<text text-anchor="start" x="383" y="-735.5" font-family="Helvetica,sans-Serif" font-size="10.00">+ container()</text>
<text text-anchor="start" x="383" y="-724.5" font-family="Helvetica,sans-Serif" font-size="10.00">+ ~container()</text>
</a>
</g>
</g>
<!-- Node2 -->
<g id="node2" class="node">
<title>Node2</title>
<g id="a_node2"><a xlink:href="classmkr_1_1threadsafe__hashtable.html" target="_top" xlink:title=" ">
<polygon fill="white" stroke="black" points="0,-0.5 0,-310.5 149,-310.5 149,-0.5 0,-0.5"/>
<text text-anchor="start" x="8" y="-298.5" font-family="Helvetica,sans-Serif" font-size="10.00">mkr::threadsafe_hashtable</text>
<text text-anchor="middle" x="74.5" y="-287.5" font-family="Helvetica,sans-Serif" font-size="10.00">&lt; std::thread::id, size_t &gt;</text>
<polyline fill="none" stroke="black" points="0,-280.5 149,-280.5 "/>
<text text-anchor="start" x="8" y="-268.5" font-family="Helvetica,sans-Serif" font-size="10.00">&#45; num_elements_</text>
<polyline fill="none" stroke="black" points="0,-261.5 149,-261.5 "/>
<text text-anchor="start" x="8" y="-249.5" font-family="Helvetica,sans-Serif" font-size="10.00">+ threadsafe_hashtable()</text>
<text text-anchor="start" x="8" y="-238.5" font-family="Helvetica,sans-Serif" font-size="10.00">+ threadsafe_hashtable()</text>
<text text-anchor="start" x="8" y="-227.5" font-family="Helvetica,sans-Serif" font-size="10.00">+ threadsafe_hashtable()</text>
<text text-anchor="start" x="8" y="-216.5" font-family="Helvetica,sans-Serif" font-size="10.00">+ ~threadsafe_hashtable()</text>
<text text-anchor="start" x="8" y="-205.5" font-family="Helvetica,sans-Serif" font-size="10.00">+ operator=()</text>
<text text-anchor="start" x="8" y="-194.5" font-family="Helvetica,sans-Serif" font-size="10.00">+ operator=()</text>
<text text-anchor="start" x="8" y="-183.5" font-family="Helvetica,sans-Serif" font-size="10.00">+ insert()</text>
<text text-anchor="start" x="8" y="-172.5" font-family="Helvetica,sans-Serif" font-size="10.00">+ insert()</text>
<text text-anchor="start" x="8" y="-161.5" font-family="Helvetica,sans-Serif" font-size="10.00">+ replace()</text>
<text text-anchor="start" x="8" y="-150.5" font-family="Helvetica,sans-Serif" font-size="10.00">+ replace()</text>
<text text-anchor="start" x="8" y="-139.5" font-family="Helvetica,sans-Serif" font-size="10.00">+ insert_or_replace()</text>
<text text-anchor="start" x="8" y="-128.5" font-family="Helvetica,sans-Serif" font-size="10.00">+ insert_or_replace()</text>
<text text-anchor="start" x="8" y="-117.5" font-family="Helvetica,sans-Serif" font-size="10.00">+ remove()</text>
<text text-anchor="start" x="8" y="-106.5" font-family="Helvetica,sans-Serif" font-size="10.00">+ get()</text>
<text text-anchor="start" x="8" y="-95.5" font-family="Helvetica,sans-Serif" font-size="10.00">+ get()</text>
<text text-anchor="start" x="8" y="-84.5" font-family="Helvetica,sans-Serif" font-size="10.00">+ get_or_insert()</text>
<text text-anchor="start" x="8" y="-73.5" font-family="Helvetica,sans-Serif" font-size="10.00">+ empty()</text>
<text text-anchor="start" x="8" y="-62.5" font-family="Helvetica,sans-Serif" font-size="10.00">+ size()</text>
<text text-anchor="start" x="8" y="-51.5" font-family="Helvetica,sans-Serif" font-size="10.00">&#45; get_bucket()</text>
<text text-anchor="start" x="8" y="-40.5" font-family="Helvetica,sans-Serif" font-size="10.00">&#45; get_bucket()</text>
<text text-anchor="start" x="8" y="-29.5" font-family="Helvetica,sans-Serif" font-size="10.00">&#45; do_insert()</text>
<text text-anchor="start" x="8" y="-18.5" font-family="Helvetica,sans-Serif" font-size="10.00">&#45; do_replace()</text>
<text text-anchor="start" x="8" y="-7.5" font-family="Helvetica,sans-Serif" font-size="10.00">&#45; do_insert_or_replace()</text>
</a>
</g>
</g>
<!-- Node1&#45;&gt;Node2 -->
<g id="edge1" class="edge">
<title>Node1&#45;&gt;Node2</title>
<path fill="none" stroke="midnightblue" d="M364.68,-747.58C276.15,-741.6 107.91,-724.53 71.5,-680 -11.49,-578.51 -0,-425.18 25.84,-310.65"/>
<polygon fill="none" stroke="midnightblue" points="364.61,-751.09 374.81,-748.24 365.06,-744.1 364.61,-751.09"/>
</g>
<!-- Node3 -->
<g id="node3" class="node">
<title>Node3</title>
<g id="a_node3"><a xlink:href="classmkr_1_1threadsafe__list.html" target="_top" xlink:title=" ">
<polygon fill="white" stroke="black" points="208,-39 208,-272 367,-272 367,-39 208,-39"/>
<text text-anchor="start" x="216" y="-260" font-family="Helvetica,sans-Serif" font-size="10.00">mkr::threadsafe_list</text>
<text text-anchor="start" x="216" y="-249" font-family="Helvetica,sans-Serif" font-size="10.00">&lt; mkr::threadsafe_hashtable</text>
<text text-anchor="middle" x="287.5" y="-238" font-family="Helvetica,sans-Serif" font-size="10.00">::pair &gt;</text>
<polyline fill="none" stroke="black" points="208,-231 367,-231 "/>
<text text-anchor="start" x="216" y="-219" font-family="Helvetica,sans-Serif" font-size="10.00">&#45; num_elements_</text>
<polyline fill="none" stroke="black" points="208,-212 367,-212 "/>
<text text-anchor="start" x="216" y="-200" font-family="Helvetica,sans-Serif" font-size="10.00">+ threadsafe_list()</text>
<text text-anchor="start" x="216" y="-189" font-family="Helvetica,sans-Serif" font-size="10.00">+ threadsafe_list()</text>
<text text-anchor="start" x="216" y="-178" font-family="Helvetica,sans-Serif" font-size="10.00">+ threadsafe_list()</text>
<text text-anchor="start" x="216" y="-167" font-family="Helvetica,sans-Serif" font-size="10.00">+ ~threadsafe_list()</text>
<text text-anchor="start" x="216" y="-156" font-family="Helvetica,sans-Serif" font-size="10.00">+ operator=()</text>
<text text-anchor="start" x="216" y="-145" font-family="Helvetica,sans-Serif" font-size="10.00">+ operator=()</text>
<text text-anchor="start" x="216" y="-134" font-family="Helvetica,sans-Serif" font-size="10.00">+ match_any()</text>
<text text-anchor="start" x="216" y="-123" font-family="Helvetica,sans-Serif" font-size="10.00">+ push_front()</text>
<text text-anchor="start" x="216" y="-112" font-family="Helvetica,sans-Serif" font-size="10.00">+ remove_if()</text>
<text text-anchor="start" x="216" y="-101" font-family="Helvetica,sans-Serif" font-size="10.00">+ write_each()</text>
<text text-anchor="start" x="216" y="-90" font-family="Helvetica,sans-Serif" font-size="10.00">+ read_and_map_first_if()</text>
<text text-anchor="start" x="216" y="-79" font-family="Helvetica,sans-Serif" font-size="10.00">+ write_and_map_if()</text>
<text text-anchor="start" x="216" y="-68" font-family="Helvetica,sans-Serif" font-size="10.00">+ empty()</text>
<text text-anchor="start" x="216" y="-57" font-family="Helvetica,sans-Serif" font-size="10.00">+ size()</text>
<text text-anchor="start" x="216" y="-46" font-family="Helvetica,sans-Serif" font-size="10.00">&#45; do_push_front()</text>
</a>
</g>
</g>
<!-- Node1&#45;&gt;Node3 -->
<g id="edge2" class="edge">
<title>Node1&#45;&gt;Node3</title>
<path fill="none" stroke="midnightblue" d="M421.11,-707.18C424.07,-614.17 428.16,-398.17 405.5,-329 402.89,-321.03 386.76,-296.29 367.22,-267.95"/>
<polygon fill="none" stroke="midnightblue" points="417.6,-707.27 420.77,-717.38 424.6,-707.5 417.6,-707.27"/>
</g>
<!-- Node4 -->
<g id="node4" class="node">
<title>Node4</title>
<g id="a_node4"><a xlink:href="classmkr_1_1threadsafe__queue.html" target="_top" xlink:title=" ">
<polygon fill="white" stroke="black" points="406,-11.5 406,-299.5 537,-299.5 537,-11.5 406,-11.5"/>
<text text-anchor="start" x="414" y="-287.5" font-family="Helvetica,sans-Serif" font-size="10.00">mkr::threadsafe_queue</text>
<text text-anchor="middle" x="471.5" y="-276.5" font-family="Helvetica,sans-Serif" font-size="10.00">&lt; mkr::task &gt;</text>
<polyline fill="none" stroke="black" points="406,-269.5 537,-269.5 "/>
<text text-anchor="start" x="414" y="-257.5" font-family="Helvetica,sans-Serif" font-size="10.00">&#45; tail_mutex_</text>
<text text-anchor="start" x="414" y="-246.5" font-family="Helvetica,sans-Serif" font-size="10.00">&#45; cond_</text>
<text text-anchor="start" x="414" y="-235.5" font-family="Helvetica,sans-Serif" font-size="10.00">&#45; head_</text>
<text text-anchor="start" x="414" y="-224.5" font-family="Helvetica,sans-Serif" font-size="10.00">&#45; tail_</text>
<text text-anchor="start" x="414" y="-213.5" font-family="Helvetica,sans-Serif" font-size="10.00">&#45; num_elements_</text>
<polyline fill="none" stroke="black" points="406,-206.5 537,-206.5 "/>
<text text-anchor="start" x="414" y="-194.5" font-family="Helvetica,sans-Serif" font-size="10.00">+ threadsafe_queue()</text>
<text text-anchor="start" x="414" y="-183.5" font-family="Helvetica,sans-Serif" font-size="10.00">+ threadsafe_queue()</text>
<text text-anchor="start" x="414" y="-172.5" font-family="Helvetica,sans-Serif" font-size="10.00">+ threadsafe_queue()</text>
<text text-anchor="start" x="414" y="-161.5" font-family="Helvetica,sans-Serif" font-size="10.00">+ ~threadsafe_queue()</text>
<text text-anchor="start" x="414" y="-150.5" font-family="Helvetica,sans-Serif" font-size="10.00">+ operator=()</text>
<text text-anchor="start" x="414" y="-139.5" font-family="Helvetica,sans-Serif" font-size="10.00">+ operator=()</text>
<text text-anchor="start" x="414" y="-128.5" font-family="Helvetica,sans-Serif" font-size="10.00">+ push()</text>
<text text-anchor="start" x="414" y="-117.5" font-family="Helvetica,sans-Serif" font-size="10.00">+ push()</text>
<text text-anchor="start" x="414" y="-106.5" font-family="Helvetica,sans-Serif" font-size="10.00">+ try_pop()</text>
<text text-anchor="start" x="414" y="-95.5" font-family="Helvetica,sans-Serif" font-size="10.00">+ wait_and_pop()</text>
<text text-anchor="start" x="414" y="-84.5" font-family="Helvetica,sans-Serif" font-size="10.00">+ clear()</text>
<text text-anchor="start" x="414" y="-73.5" font-family="Helvetica,sans-Serif" font-size="10.00">+ empty()</text>
<text text-anchor="start" x="414" y="-62.5" font-family="Helvetica,sans-Serif" font-size="10.00">+ size()</text>
<text text-anchor="start" x="414" y="-51.5" font-family="Helvetica,sans-Serif" font-size="10.00">&#45; get_tail()</text>
<text text-anchor="start" x="414" y="-40.5" font-family="Helvetica,sans-Serif" font-size="10.00">&#45; get_tail()</text>
<text text-anchor="start" x="414" y="-29.5" font-family="Helvetica,sans-Serif" font-size="10.00">&#45; do_push()</text>
<text text-anchor="start" x="414" y="-18.5" font-family="Helvetica,sans-Serif" font-size="10.00">&#45; do_pop()</text>
</a>
</g>
</g>
<!-- Node1&#45;&gt;Node4 -->
<g id="edge3" class="edge">
<title>Node1&#45;&gt;Node4</title>
<path fill="none" stroke="midnightblue" d="M431.83,-707.63C432.45,-704.72 433.02,-701.83 433.5,-699 456.23,-564.72 465.41,-409.52 469.09,-299.61"/>
<polygon fill="none" stroke="midnightblue" points="428.4,-706.93 429.5,-717.47 435.21,-708.54 428.4,-706.93"/>
</g>
<!-- Node5 -->
<g id="node5" class="node">
<title>Node5</title>
<g id="a_node5"><a xlink:href="classmkr_1_1threadsafe__hashtable.html" target="_top" xlink:title=" ">
<polygon fill="white" stroke="black" points="81,-369.5 81,-679.5 230,-679.5 230,-369.5 81,-369.5"/>
<text text-anchor="start" x="89" y="-667.5" font-family="Helvetica,sans-Serif" font-size="10.00">mkr::threadsafe_hashtable</text>
<text text-anchor="middle" x="155.5" y="-656.5" font-family="Helvetica,sans-Serif" font-size="10.00">&lt; K, V, N &gt;</text>
<polyline fill="none" stroke="black" points="81,-649.5 230,-649.5 "/>
<text text-anchor="start" x="89" y="-637.5" font-family="Helvetica,sans-Serif" font-size="10.00">&#45; num_elements_</text>
<polyline fill="none" stroke="black" points="81,-630.5 230,-630.5 "/>
<text text-anchor="start" x="89" y="-618.5" font-family="Helvetica,sans-Serif" font-size="10.00">+ threadsafe_hashtable()</text>
<text text-anchor="start" x="89" y="-607.5" font-family="Helvetica,sans-Serif" font-size="10.00">+ threadsafe_hashtable()</text>
<text text-anchor="start" x="89" y="-596.5" font-family="Helvetica,sans-Serif" font-size="10.00">+ threadsafe_hashtable()</text>
<text text-anchor="start" x="89" y="-585.5" font-family="Helvetica,sans-Serif" font-size="10.00">+ ~threadsafe_hashtable()</text>
<text text-anchor="start" x="89" y="-574.5" font-family="Helvetica,sans-Serif" font-size="10.00">+ operator=()</text>
<text text-anchor="start" x="89" y="-563.5" font-family="Helvetica,sans-Serif" font-size="10.00">+ operator=()</text>
<text text-anchor="start" x="89" y="-552.5" font-family="Helvetica,sans-Serif" font-size="10.00">+ insert()</text>
<text text-anchor="start" x="89" y="-541.5" font-family="Helvetica,sans-Serif" font-size="10.00">+ insert()</text>
<text text-anchor="start" x="89" y="-530.5" font-family="Helvetica,sans-Serif" font-size="10.00">+ replace()</text>
<text text-anchor="start" x="89" y="-519.5" font-family="Helvetica,sans-Serif" font-size="10.00">+ replace()</text>
<text text-anchor="start" x="89" y="-508.5" font-family="Helvetica,sans-Serif" font-size="10.00">+ insert_or_replace()</text>
<text text-anchor="start" x="89" y="-497.5" font-family="Helvetica,sans-Serif" font-size="10.00">+ insert_or_replace()</text>
<text text-anchor="start" x="89" y="-486.5" font-family="Helvetica,sans-Serif" font-size="10.00">+ remove()</text>
<text text-anchor="start" x="89" y="-475.5" font-family="Helvetica,sans-Serif" font-size="10.00">+ get()</text>
<text text-anchor="start" x="89" y="-464.5" font-family="Helvetica,sans-Serif" font-size="10.00">+ get()</text>
<text text-anchor="start" x="89" y="-453.5" font-family="Helvetica,sans-Serif" font-size="10.00">+ get_or_insert()</text>
<text text-anchor="start" x="89" y="-442.5" font-family="Helvetica,sans-Serif" font-size="10.00">+ empty()</text>
<text text-anchor="start" x="89" y="-431.5" font-family="Helvetica,sans-Serif" font-size="10.00">+ size()</text>
<text text-anchor="start" x="89" y="-420.5" font-family="Helvetica,sans-Serif" font-size="10.00">&#45; get_bucket()</text>
<text text-anchor="start" x="89" y="-409.5" font-family="Helvetica,sans-Serif" font-size="10.00">&#45; get_bucket()</text>
<text text-anchor="start" x="89" y="-398.5" font-family="Helvetica,sans-Serif" font-size="10.00">&#45; do_insert()</text>
<text text-anchor="start" x="89" y="-387.5" font-family="Helvetica,sans-Serif" font-size="10.00">&#45; do_replace()</text>
<text text-anchor="start" x="89" y="-376.5" font-family="Helvetica,sans-Serif" font-size="10.00">&#45; do_insert_or_replace()</text>
</a>
</g>
</g>
<!-- Node1&#45;&gt;Node5 -->
<g id="edge4" class="edge">
<title>Node1&#45;&gt;Node5</title>
<path fill="none" stroke="midnightblue" d="M364.6,-739.76C325.66,-729.8 274.2,-711.6 238.5,-680 235.65,-677.48 232.88,-674.83 230.19,-672.08"/>
<polygon fill="none" stroke="midnightblue" points="364.17,-743.26 374.71,-742.24 365.83,-736.46 364.17,-743.26"/>
</g>
<!-- Node6 -->
<g id="node6" class="node">
<title>Node6</title>
<g id="a_node6"><a xlink:href="classmkr_1_1threadsafe__list.html" target="_top" xlink:title=" ">
<polygon fill="white" stroke="black" points="248,-419 248,-630 391,-630 391,-419 248,-419"/>
<text text-anchor="middle" x="319.5" y="-618" font-family="Helvetica,sans-Serif" font-size="10.00">mkr::threadsafe_list&lt; T &gt;</text>
<polyline fill="none" stroke="black" points="248,-611 391,-611 "/>
<text text-anchor="start" x="256" y="-599" font-family="Helvetica,sans-Serif" font-size="10.00">&#45; num_elements_</text>
<polyline fill="none" stroke="black" points="248,-592 391,-592 "/>
<text text-anchor="start" x="256" y="-580" font-family="Helvetica,sans-Serif" font-size="10.00">+ threadsafe_list()</text>
<text text-anchor="start" x="256" y="-569" font-family="Helvetica,sans-Serif" font-size="10.00">+ threadsafe_list()</text>
<text text-anchor="start" x="256" y="-558" font-family="Helvetica,sans-Serif" font-size="10.00">+ threadsafe_list()</text>
<text text-anchor="start" x="256" y="-547" font-family="Helvetica,sans-Serif" font-size="10.00">+ ~threadsafe_list()</text>
<text text-anchor="start" x="256" y="-536" font-family="Helvetica,sans-Serif" font-size="10.00">+ operator=()</text>
<text text-anchor="start" x="256" y="-525" font-family="Helvetica,sans-Serif" font-size="10.00">+ operator=()</text>
<text text-anchor="start" x="256" y="-514" font-family="Helvetica,sans-Serif" font-size="10.00">+ match_any()</text>
<text text-anchor="start" x="256" y="-503" font-family="Helvetica,sans-Serif" font-size="10.00">+ push_front()</text>
<text text-anchor="start" x="256" y="-492" font-family="Helvetica,sans-Serif" font-size="10.00">+ remove_if()</text>
<text text-anchor="start" x="256" y="-481" font-family="Helvetica,sans-Serif" font-size="10.00">+ write_each()</text>
<text text-anchor="start" x="256" y="-470" font-family="Helvetica,sans-Serif" font-size="10.00">+ read_and_map_first_if()</text>
<text text-anchor="start" x="256" y="-459" font-family="Helvetica,sans-Serif" font-size="10.00">+ write_and_map_if()</text>
<text text-anchor="start" x="256" y="-448" font-family="Helvetica,sans-Serif" font-size="10.00">+ empty()</text>
<text text-anchor="start" x="256" y="-437" font-family="Helvetica,sans-Serif" font-size="10.00">+ size()</text>
<text text-anchor="start" x="256" y="-426" font-family="Helvetica,sans-Serif" font-size="10.00">&#45; do_push_front()</text>
</a>
</g>
</g>
<!-- Node1&#45;&gt;Node6 -->
<g id="edge6" class="edge">
<title>Node1&#45;&gt;Node6</title>
<path fill="none" stroke="midnightblue" d="M400.56,-707.88C390.72,-685.74 378.21,-657.6 365.99,-630.11"/>
<polygon fill="none" stroke="midnightblue" points="397.48,-709.58 404.74,-717.3 403.88,-706.74 397.48,-709.58"/>
</g>
<!-- Node7 -->
<g id="node7" class="node">
<title>Node7</title>
<g id="a_node7"><a xlink:href="classmkr_1_1threadsafe__queue.html" target="_top" xlink:title=" ">
<polygon fill="white" stroke="black" points="485.5,-386 485.5,-663 643.5,-663 643.5,-386 485.5,-386"/>
<text text-anchor="middle" x="564.5" y="-651" font-family="Helvetica,sans-Serif" font-size="10.00">mkr::threadsafe_queue&lt; T &gt;</text>
<polyline fill="none" stroke="black" points="485.5,-644 643.5,-644 "/>
<text text-anchor="start" x="493.5" y="-632" font-family="Helvetica,sans-Serif" font-size="10.00">&#45; tail_mutex_</text>
<text text-anchor="start" x="493.5" y="-621" font-family="Helvetica,sans-Serif" font-size="10.00">&#45; cond_</text>
<text text-anchor="start" x="493.5" y="-610" font-family="Helvetica,sans-Serif" font-size="10.00">&#45; head_</text>
<text text-anchor="start" x="493.5" y="-599" font-family="Helvetica,sans-Serif" font-size="10.00">&#45; tail_</text>
<text text-anchor="start" x="493.5" y="-588" font-family="Helvetica,sans-Serif" font-size="10.00">&#45; num_elements_</text>
<polyline fill="none" stroke="black" points="485.5,-581 643.5,-581 "/>
<text text-anchor="start" x="493.5" y="-569" font-family="Helvetica,sans-Serif" font-size="10.00">+ threadsafe_queue()</text>
<text text-anchor="start" x="493.5" y="-558" font-family="Helvetica,sans-Serif" font-size="10.00">+ threadsafe_queue()</text>
<text text-anchor="start" x="493.5" y="-547" font-family="Helvetica,sans-Serif" font-size="10.00">+ threadsafe_queue()</text>
<text text-anchor="start" x="493.5" y="-536" font-family="Helvetica,sans-Serif" font-size="10.00">+ ~threadsafe_queue()</text>
<text text-anchor="start" x="493.5" y="-525" font-family="Helvetica,sans-Serif" font-size="10.00">+ operator=()</text>
<text text-anchor="start" x="493.5" y="-514" font-family="Helvetica,sans-Serif" font-size="10.00">+ operator=()</text>
<text text-anchor="start" x="493.5" y="-503" font-family="Helvetica,sans-Serif" font-size="10.00">+ push()</text>
<text text-anchor="start" x="493.5" y="-492" font-family="Helvetica,sans-Serif" font-size="10.00">+ push()</text>
<text text-anchor="start" x="493.5" y="-481" font-family="Helvetica,sans-Serif" font-size="10.00">+ try_pop()</text>
<text text-anchor="start" x="493.5" y="-470" font-family="Helvetica,sans-Serif" font-size="10.00">+ wait_and_pop()</text>
<text text-anchor="start" x="493.5" y="-459" font-family="Helvetica,sans-Serif" font-size="10.00">+ clear()</text>
<text text-anchor="start" x="493.5" y="-448" font-family="Helvetica,sans-Serif" font-size="10.00">+ empty()</text>
<text text-anchor="start" x="493.5" y="-437" font-family="Helvetica,sans-Serif" font-size="10.00">+ size()</text>
<text text-anchor="start" x="493.5" y="-426" font-family="Helvetica,sans-Serif" font-size="10.00">&#45; get_tail()</text>
<text text-anchor="start" x="493.5" y="-415" font-family="Helvetica,sans-Serif" font-size="10.00">&#45; get_tail()</text>
<text text-anchor="start" x="493.5" y="-404" font-family="Helvetica,sans-Serif" font-size="10.00">&#45; do_push()</text>
<text text-anchor="start" x="493.5" y="-393" font-family="Helvetica,sans-Serif" font-size="10.00">&#45; do_pop()</text>
</a>
</g>
</g>
<!-- Node1&#45;&gt;Node7 -->
<g id="edge8" class="edge">
<title>Node1&#45;&gt;Node7</title>
<path fill="none" stroke="midnightblue" d="M462.68,-709.84C465.8,-706.29 468.78,-702.65 471.5,-699 479.88,-687.77 487.96,-675.69 495.63,-663.31"/>
<polygon fill="none" stroke="midnightblue" points="459.87,-707.73 455.71,-717.48 465.04,-712.45 459.87,-707.73"/>
</g>
<!-- Node8 -->
<g id="node8" class="node">
<title>Node8</title>
<g id="a_node8"><a xlink:href="classmkr_1_1threadsafe__stack.html" target="_top" xlink:title=" ">
<polygon fill="white" stroke="black" points="662,-408 662,-641 817,-641 817,-408 662,-408"/>
<text text-anchor="middle" x="739.5" y="-629" font-family="Helvetica,sans-Serif" font-size="10.00">mkr::threadsafe_stack&lt; T &gt;</text>
<polyline fill="none" stroke="black" points="662,-622 817,-622 "/>
<text text-anchor="start" x="670" y="-610" font-family="Helvetica,sans-Serif" font-size="10.00">&#45; cond_</text>
<text text-anchor="start" x="670" y="-599" font-family="Helvetica,sans-Serif" font-size="10.00">&#45; top_</text>
<text text-anchor="start" x="670" y="-588" font-family="Helvetica,sans-Serif" font-size="10.00">&#45; num_elements_</text>
<polyline fill="none" stroke="black" points="662,-581 817,-581 "/>
<text text-anchor="start" x="670" y="-569" font-family="Helvetica,sans-Serif" font-size="10.00">+ threadsafe_stack()</text>
<text text-anchor="start" x="670" y="-558" font-family="Helvetica,sans-Serif" font-size="10.00">+ threadsafe_stack()</text>
<text text-anchor="start" x="670" y="-547" font-family="Helvetica,sans-Serif" font-size="10.00">+ threadsafe_stack()</text>
<text text-anchor="start" x="670" y="-536" font-family="Helvetica,sans-Serif" font-size="10.00">+ ~threadsafe_stack()</text>
<text text-anchor="start" x="670" y="-525" font-family="Helvetica,sans-Serif" font-size="10.00">+ operator=()</text>
<text text-anchor="start" x="670" y="-514" font-family="Helvetica,sans-Serif" font-size="10.00">+ operator=()</text>
<text text-anchor="start" x="670" y="-503" font-family="Helvetica,sans-Serif" font-size="10.00">+ push()</text>
<text text-anchor="start" x="670" y="-492" font-family="Helvetica,sans-Serif" font-size="10.00">+ push()</text>
<text text-anchor="start" x="670" y="-481" font-family="Helvetica,sans-Serif" font-size="10.00">+ wait_and_pop()</text>
<text text-anchor="start" x="670" y="-470" font-family="Helvetica,sans-Serif" font-size="10.00">+ try_pop()</text>
<text text-anchor="start" x="670" y="-459" font-family="Helvetica,sans-Serif" font-size="10.00">+ clear()</text>
<text text-anchor="start" x="670" y="-448" font-family="Helvetica,sans-Serif" font-size="10.00">+ empty()</text>
<text text-anchor="start" x="670" y="-437" font-family="Helvetica,sans-Serif" font-size="10.00">+ size()</text>
<text text-anchor="start" x="670" y="-426" font-family="Helvetica,sans-Serif" font-size="10.00">&#45; do_push()</text>
<text text-anchor="start" x="670" y="-415" font-family="Helvetica,sans-Serif" font-size="10.00">&#45; do_pop()</text>
</a>
</g>
</g>
<!-- Node1&#45;&gt;Node8 -->
<g id="edge10" class="edge">
<title>Node1&#45;&gt;Node8</title>
<path fill="none" stroke="midnightblue" d="M474.61,-745.54C525.57,-738.45 600.99,-721.31 652.5,-680 665.95,-669.22 677.68,-655.76 687.79,-641.31"/>
<polygon fill="none" stroke="midnightblue" points="473.9,-742.11 464.44,-746.87 474.81,-749.05 473.9,-742.11"/>
</g>
<!-- Node5&#45;&gt;Node2 -->
<g id="edge5" class="edge">
<title>Node5&#45;&gt;Node2</title>
<path fill="none" stroke="orange" d="M119.28,-359.41C115.71,-343.22 112.09,-326.82 108.54,-310.74"/>
<polygon fill="orange" stroke="orange" points="115.93,-360.44 121.5,-369.45 122.76,-358.93 115.93,-360.44"/>
<text text-anchor="start" x="115.5" y="-343" font-family="Helvetica,sans-Serif" font-size="10.00"> &lt; std::thread::id,</text>
<text text-anchor="middle" x="158" y="-332" font-family="Helvetica,sans-Serif" font-size="10.00"> size_t &gt;</text>
</g>
<!-- Node6&#45;&gt;Node3 -->
<g id="edge7" class="edge">
<title>Node6&#45;&gt;Node3</title>
<path fill="none" stroke="orange" d="M273.75,-409.07C267.84,-389.96 262.73,-370.12 259.5,-351 255.19,-325.52 255.89,-298.09 259,-272.09"/>
<polygon fill="orange" stroke="orange" points="270.45,-410.22 276.81,-418.69 277.12,-408.09 270.45,-410.22"/>
<text text-anchor="start" x="259.5" y="-343" font-family="Helvetica,sans-Serif" font-size="10.00"> &lt; mkr::threadsafe_hashtable</text>
<text text-anchor="middle" x="332.5" y="-332" font-family="Helvetica,sans-Serif" font-size="10.00">::pair &gt;</text>
</g>
<!-- Node7&#45;&gt;Node4 -->
<g id="edge9" class="edge">
<title>Node7&#45;&gt;Node4</title>
<path fill="none" stroke="orange" d="M527.08,-375.84C520.71,-350.68 514.1,-324.6 507.75,-299.57"/>
<polygon fill="orange" stroke="orange" points="523.76,-376.96 529.61,-385.8 530.54,-375.25 523.76,-376.96"/>
<text text-anchor="middle" x="555" y="-337.5" font-family="Helvetica,sans-Serif" font-size="10.00"> &lt; mkr::task &gt;</text>
</g>
</g>
</svg>
        <g id="navigator" transform="translate(0 0)" fill="#404254">
                <rect fill="#f2f5e9" fill-opacity="0.5" stroke="#606060" stroke-width=".5" x="0" y="0" width="60" height="60"/>
                <use id="zoomplus" xlink:href="#zoomPlus" x="17" y="9" onmousedown="handleZoom(evt,'in')"/>
                <use id="zoomminus" xlink:href="#zoomMin" x="42" y="9" onmousedown="handleZoom(evt,'out')"/>
                <use id="reset" xlink:href="#resetDef" x="30" y="36" onmousedown="handleReset()"/>
                <g id="arrowUp" xlink:href="#dirArrow" transform="translate(30 24)" onmousedown="handlePan(0,-1)">
                  <use xlink:href="#rim" fill="#404040">
                        <set attributeName="fill" to="#808080" begin="arrowUp.mouseover" end="arrowUp.mouseout"/>
                  </use>
                  <path fill="none" stroke="white" stroke-width="1.5" d="M0,-3.0v7 M-2.5,-0.5L0,-3.0L2.5,-0.5"/>
                </g>
                <g id="arrowRight" xlink:href="#dirArrow" transform="rotate(90) translate(36 -43)" onmousedown="handlePan(1,0)">
                  <use xlink:href="#rim" fill="#404040">
                        <set attributeName="fill" to="#808080" begin="arrowRight.mouseover" end="arrowRight.mouseout"/>
                  </use>
                  <path fill="none" stroke="white" stroke-width="1.5" d="M0,-3.0v7 M-2.5,-0.5L0,-3.0L2.5,-0.5"/>
                </g>
                <g id="arrowDown" xlink:href="#dirArrow" transform="rotate(180) translate(-30 -48)" onmousedown="handlePan(0,1)">
                  <use xlink:href="#rim" fill="#404040">
                        <set attributeName="fill" to="#808080" begin="arrowDown.mouseover" end="arrowDown.mouseout"/>
                  </use>
                  <path fill="none" stroke="white" stroke-width="1.5" d="M0,-3.0v7 M-2.5,-0.5L0,-3.0L2.5,-0.5"/>
                </g>
                <g id="arrowLeft" xlink:href="#dirArrow" transform="rotate(270) translate(-36 17)" onmousedown="handlePan(-1,0)">
                  <use xlink:href="#rim" fill="#404040">
                        <set attributeName="fill" to="#808080" begin="arrowLeft.mouseover" end="arrowLeft.mouseout"/>
                  </use>
                  <path fill="none" stroke="white" stroke-width="1.5" d="M0,-3.0v7 M-2.5,-0.5L0,-3.0L2.5,-0.5"/>
                </g>
        </g>
        <svg viewBox="0 0 15 15" width="100%" height="30px" preserveAspectRatio="xMaxYMin meet">
         <g id="arrow_out" transform="scale(0.3 0.3)">
          <a xlink:href="classmkr_1_1container__inherit__graph_org.svg" target="_base">
           <rect id="button" ry="5" rx="5" y="6" x="6" height="38" width="38"
                fill="#f2f5e9" fill-opacity="0.5" stroke="#606060" stroke-width="1.0"/>
           <path id="arrow"
             d="M 11.500037,31.436501 C 11.940474,20.09759 22.043105,11.32322 32.158766,21.979434 L 37.068811,17.246167 C 37.068811,17.246167 37.088388,32 37.088388,32 L 22.160133,31.978069 C 22.160133,31.978069 26.997745,27.140456 26.997745,27.140456 C 18.528582,18.264221 13.291696,25.230495 11.500037,31.436501 z"
             style="fill:#404040;"/>
          </a>
         </g>
        </svg>
</svg>
