<?xml version="1.0" encoding="UTF-8" standalone="no"?>
<!DOCTYPE svg PUBLIC "-//W3C//DTD SVG 1.1//EN"
 "http://www.w3.org/Graphics/SVG/1.1/DTD/svg11.dtd">
<!-- Generated by graphviz version 2.43.0 (0)
 -->
<!-- Title: mkr::threadsafe_stack&lt; T &gt; Pages: 1 -->
<!--zoomable 393 -->

<svg id="main" version="1.1" xmlns="http://www.w3.org/2000/svg" xmlns:xlink="http://www.w3.org/1999/xlink" xml:space="preserve" onload="init(evt)">
<style type="text/css"><![CDATA[
.node, .edge {opacity: 0.7;}
.node.selected, .edge.selected {opacity: 1;}
.edge:hover path { stroke: red; }
.edge:hover polygon { stroke: red; fill: red; }
]]></style>

<defs>
  <circle id="rim" cx="0" cy="0" r="7"/>
  <circle id="rim2" cx="0" cy="0" r="3.5"/>
  <g id="zoomPlus">
    <use xlink:href="#rim" fill="#404040"><set attributeName="fill" to="#808080" begin="zoomplus.mouseover" end="zoomplus.mouseout"/></use>
    <path d="M-4,0h8M0,-4v8" fill="none" stroke="white" stroke-width="1.5" pointer-events="none"/>
  </g>
  <g id="zoomMin">
    <use xlink:href="#rim" fill="#404040"><set attributeName="fill" to="#808080" begin="zoomminus.mouseover" end="zoomminus.mouseout"/></use>
    <path d="M-4,0h8" fill="none" stroke="white" stroke-width="1.5" pointer-events="none"/>
  </g>
  <g id="arrowUp" transform="translate(30 24)">
    <use xlink:href="#rim"/>
    <path pointer-events="none" fill="none" stroke="white" stroke-width="1.5" d="M0,-3.0v7 M-2.5,-0.5L0,-3.0L2.5,-0.5"/>
  </g>
  <g id="arrowRight" transform="rotate(90) translate(36 -43)">
    <use xlink:href="#rim"/>
    <path pointer-events="none" fill="none" stroke="white" stroke-width="1.5" d="M0,-3.0v7 M-2.5,-0.5L0,-3.0L2.5,-0.5"/>
  </g>
  <g id="arrowDown" transform="rotate(180) translate(-30 -48)">
    <use xlink:href="#rim"/>
    <path pointer-events="none" fill="none" stroke="white" stroke-width="1.5" d="M0,-3.0v7 M-2.5,-0.5L0,-3.0L2.5,-0.5"/>
  </g>
  <g id="arrowLeft" transform="rotate(270) translate(-36 17)">
    <use xlink:href="#rim"/>
    <path pointer-events="none" fill="none" stroke="white" stroke-width="1.5" d="M0,-3.0v7 M-2.5,-0.5L0,-3.0L2.5,-0.5"/>
  </g>
  <g id="resetDef">
    <use xlink:href="#rim2" fill="#404040"><set attributeName="fill" to="#808080" begin="reset.mouseover" end="reset.mouseout"/></use>
  </g>
</defs>
<script type="application/ecmascript">
var viewWidth = 594;
var viewHeight = 393;
var sectionId = 'dynsection-1';
</script>
<script type="application/ecmascript" xlink:href="svg.min.js"/>
<svg id="graph" class="graph">
<g id="viewport">
<title>mkr::threadsafe_stack&lt; T &gt;</title>
<!-- Node1 -->
<g id="Node000001" class="node">
<title>Node1</title>
<g id="a_Node000001"><a xlink:title=" ">
<polygon fill="#999999" stroke="transparent" points="332,-274 183,-274 183,0 332,0 332,-274"/>
<text text-anchor="start" x="188.5" y="-262" font-family="Helvetica,sans-Serif" font-size="10.00">mkr::threadsafe_stack&lt; T &gt;</text>
<text text-anchor="start" x="256" y="-247" font-family="Helvetica,sans-Serif" font-size="10.00"> </text>
<text text-anchor="start" x="194.5" y="-232" font-family="Helvetica,sans-Serif" font-size="10.00">+</text>
<text text-anchor="start" x="214.5" y="-232" font-family="Helvetica,sans-Serif" font-size="10.00">threadsafe_stack()</text>
<text text-anchor="start" x="194.5" y="-217" font-family="Helvetica,sans-Serif" font-size="10.00">+</text>
<text text-anchor="start" x="214.5" y="-217" font-family="Helvetica,sans-Serif" font-size="10.00">threadsafe_stack()</text>
<text text-anchor="start" x="194.5" y="-202" font-family="Helvetica,sans-Serif" font-size="10.00">+</text>
<text text-anchor="start" x="214.5" y="-202" font-family="Helvetica,sans-Serif" font-size="10.00">threadsafe_stack()</text>
<text text-anchor="start" x="194.5" y="-187" font-family="Helvetica,sans-Serif" font-size="10.00">+</text>
<text text-anchor="start" x="214.5" y="-187" font-family="Helvetica,sans-Serif" font-size="10.00">~threadsafe_stack()</text>
<text text-anchor="start" x="194.5" y="-172" font-family="Helvetica,sans-Serif" font-size="10.00">+</text>
<text text-anchor="start" x="214.5" y="-172" font-family="Helvetica,sans-Serif" font-size="10.00">operator=()</text>
<text text-anchor="start" x="194.5" y="-157" font-family="Helvetica,sans-Serif" font-size="10.00">+</text>
<text text-anchor="start" x="214.5" y="-157" font-family="Helvetica,sans-Serif" font-size="10.00">operator=()</text>
<text text-anchor="start" x="194.5" y="-142" font-family="Helvetica,sans-Serif" font-size="10.00">+</text>
<text text-anchor="start" x="214.5" y="-142" font-family="Helvetica,sans-Serif" font-size="10.00">push()</text>
<text text-anchor="start" x="194.5" y="-127" font-family="Helvetica,sans-Serif" font-size="10.00">+</text>
<text text-anchor="start" x="214.5" y="-127" font-family="Helvetica,sans-Serif" font-size="10.00">push()</text>
<text text-anchor="start" x="194.5" y="-112" font-family="Helvetica,sans-Serif" font-size="10.00">+</text>
<text text-anchor="start" x="214.5" y="-112" font-family="Helvetica,sans-Serif" font-size="10.00">wait_and_pop()</text>
<text text-anchor="start" x="194.5" y="-97" font-family="Helvetica,sans-Serif" font-size="10.00">+</text>
<text text-anchor="start" x="214.5" y="-97" font-family="Helvetica,sans-Serif" font-size="10.00">try_pop()</text>
<text text-anchor="start" x="194.5" y="-82" font-family="Helvetica,sans-Serif" font-size="10.00">+</text>
<text text-anchor="start" x="214.5" y="-82" font-family="Helvetica,sans-Serif" font-size="10.00">clear()</text>
<text text-anchor="start" x="194.5" y="-67" font-family="Helvetica,sans-Serif" font-size="10.00">+</text>
<text text-anchor="start" x="214.5" y="-67" font-family="Helvetica,sans-Serif" font-size="10.00">empty()</text>
<text text-anchor="start" x="194.5" y="-52" font-family="Helvetica,sans-Serif" font-size="10.00">+</text>
<text text-anchor="start" x="214.5" y="-52" font-family="Helvetica,sans-Serif" font-size="10.00">size()</text>
<text text-anchor="start" x="197" y="-37" font-family="Helvetica,sans-Serif" font-size="10.00">&#45;</text>
<text text-anchor="start" x="214.5" y="-37" font-family="Helvetica,sans-Serif" font-size="10.00">do_push()</text>
<text text-anchor="start" x="197" y="-22" font-family="Helvetica,sans-Serif" font-size="10.00">&#45;</text>
<text text-anchor="start" x="214.5" y="-22" font-family="Helvetica,sans-Serif" font-size="10.00">do_pop()</text>
<text text-anchor="start" x="197" y="-7" font-family="Helvetica,sans-Serif" font-size="10.00">&#45;</text>
<text text-anchor="start" x="214.5" y="-7" font-family="Helvetica,sans-Serif" font-size="10.00">do_copy_construct()</text>
<polygon fill="#666666" stroke="#666666" points="183.5,-257 183.5,-257 332.5,-257 332.5,-257 183.5,-257"/>
<polygon fill="#666666" stroke="#666666" points="183.5,-242 183.5,-242 332.5,-242 332.5,-242 183.5,-242"/>
<polygon fill="none" stroke="#666666" points="183,0 183,-274 332,-274 332,0 183,0"/>
</a>
</g>
</g>
<!-- Node2 -->
<g id="Node000002" class="node">
<title>Node2</title>
<g id="a_Node000002"><a xlink:href="classmkr_1_1container.html" target="_top" xlink:title=" ">
<polygon fill="white" stroke="transparent" points="83,-385 0,-385 0,-321 83,-321 83,-385"/>
<text text-anchor="start" x="6" y="-373" font-family="Helvetica,sans-Serif" font-size="10.00">mkr::container</text>
<text text-anchor="start" x="40" y="-358" font-family="Helvetica,sans-Serif" font-size="10.00"> </text>
<text text-anchor="start" x="4.5" y="-343" font-family="Helvetica,sans-Serif" font-size="10.00">+</text>
<text text-anchor="start" x="17.5" y="-343" font-family="Helvetica,sans-Serif" font-size="10.00">container()</text>
<text text-anchor="start" x="4.5" y="-328" font-family="Helvetica,sans-Serif" font-size="10.00">+</text>
<text text-anchor="start" x="17.5" y="-328" font-family="Helvetica,sans-Serif" font-size="10.00">~container()</text>
<polygon fill="#666666" stroke="#666666" points="0.5,-368 0.5,-368 83.5,-368 83.5,-368 0.5,-368"/>
<polygon fill="#666666" stroke="#666666" points="0.5,-353 0.5,-353 83.5,-353 83.5,-353 0.5,-353"/>
<polygon fill="none" stroke="#666666" points="0,-321 0,-385 83,-385 83,-321 0,-321"/>
</a>
</g>
</g>
<!-- Node2&#45;&gt;Node1 -->
<g id="edge1_Node000001_Node000002" class="edge">
<title>Node2&#45;&gt;Node1</title>
<g id="a_edge1_Node000001_Node000002"><a xlink:title=" ">
<path fill="none" stroke="#63b8ff" d="M80.25,-313.61C108.67,-285.45 148.16,-246.33 182.65,-212.16"/>
<polygon fill="none" stroke="#63b8ff" points="77.55,-311.36 72.91,-320.88 82.48,-316.33 77.55,-311.36"/>
</a>
</g>
</g>
<!-- Node3 -->
<g id="Node000003" class="node">
<title>Node3</title>
<g id="a_Node000003"><a xlink:title=" ">
<polygon fill="white" stroke="transparent" points="177.5,-377.5 101.5,-377.5 101.5,-328.5 177.5,-328.5 177.5,-377.5"/>
<text text-anchor="start" x="106.5" y="-365" font-family="Helvetica,sans-Serif" font-size="10.00">timed_mutex</text>
<text text-anchor="start" x="137.5" y="-350" font-family="Helvetica,sans-Serif" font-size="10.00"> </text>
<text text-anchor="start" x="137.5" y="-335" font-family="Helvetica,sans-Serif" font-size="10.00"> </text>
<polygon fill="#666666" stroke="#666666" points="101.5,-360 101.5,-360 177.5,-360 177.5,-360 101.5,-360"/>
<polygon fill="#666666" stroke="#666666" points="101.5,-345 101.5,-345 177.5,-345 177.5,-345 101.5,-345"/>
<polygon fill="none" stroke="#666666" points="101.5,-328.5 101.5,-377.5 177.5,-377.5 177.5,-328.5 101.5,-328.5"/>
</a>
</g>
</g>
<!-- Node3&#45;&gt;Node1 -->
<g id="edge2_Node000001_Node000003" class="edge">
<title>Node3&#45;&gt;Node1</title>
<g id="a_edge2_Node000001_Node000003"><a xlink:title=" ">
<path fill="none" stroke="#63b8ff" d="M152.58,-328.28C159.14,-316.38 167.68,-300.9 177.06,-283.89"/>
<polygon fill="none" stroke="#63b8ff" points="177.2,-283.63 176.59,-276.44 182.99,-273.12 183.6,-280.31 177.2,-283.63"/>
</a>
</g>
<text text-anchor="middle" x="204" y="-295" font-family="Helvetica,sans-Serif" font-size="10.00" fill="grey"> &#45;top_mutex_</text>
</g>
<!-- Node4 -->
<g id="Node000004" class="node">
<title>Node4</title>
<g id="a_Node000004"><a xlink:title=" ">
<polygon fill="white" stroke="transparent" points="319.5,-377.5 195.5,-377.5 195.5,-328.5 319.5,-328.5 319.5,-377.5"/>
<text text-anchor="start" x="200.5" y="-365" font-family="Helvetica,sans-Serif" font-size="10.00">condition_variable_any</text>
<text text-anchor="start" x="255.5" y="-350" font-family="Helvetica,sans-Serif" font-size="10.00"> </text>
<text text-anchor="start" x="255.5" y="-335" font-family="Helvetica,sans-Serif" font-size="10.00"> </text>
<polygon fill="#666666" stroke="#666666" points="195.5,-360 195.5,-360 319.5,-360 319.5,-360 195.5,-360"/>
<polygon fill="#666666" stroke="#666666" points="195.5,-345 195.5,-345 319.5,-345 319.5,-345 195.5,-345"/>
<polygon fill="none" stroke="#666666" points="195.5,-328.5 195.5,-377.5 319.5,-377.5 319.5,-328.5 195.5,-328.5"/>
</a>
</g>
</g>
<!-- Node4&#45;&gt;Node1 -->
<g id="edge3_Node000001_Node000004" class="edge">
<title>Node4&#45;&gt;Node1</title>
<g id="a_edge3_Node000001_Node000004"><a xlink:title=" ">
<path fill="none" stroke="#63b8ff" d="M257.5,-328.28C257.5,-317.01 257.5,-302.51 257.5,-286.54"/>
<polygon fill="none" stroke="#63b8ff" points="257.5,-286.08 253.5,-280.08 257.5,-274.08 261.5,-280.08 257.5,-286.08"/>
</a>
</g>
<text text-anchor="middle" x="275.5" y="-295" font-family="Helvetica,sans-Serif" font-size="10.00" fill="grey"> &#45;cond_</text>
</g>
<!-- Node5 -->
<g id="Node000005" class="node">
<title>Node5</title>
<g id="a_Node000005"><a xlink:title=" ">
<polygon fill="white" stroke="transparent" points="489.5,-383 337.5,-383 337.5,-323 489.5,-323 489.5,-383"/>
<text text-anchor="start" x="342.5" y="-371" font-family="Helvetica,sans-Serif" font-size="10.00">unique_ptr&lt; mkr::threadsafe</text>
<text text-anchor="start" x="377" y="-360" font-family="Helvetica,sans-Serif" font-size="10.00">_stack::node &gt;</text>
<text text-anchor="start" x="411.5" y="-345" font-family="Helvetica,sans-Serif" font-size="10.00"> </text>
<text text-anchor="start" x="411.5" y="-330" font-family="Helvetica,sans-Serif" font-size="10.00"> </text>
<polygon fill="#666666" stroke="#666666" points="337.5,-355 337.5,-355 489.5,-355 489.5,-355 337.5,-355"/>
<polygon fill="#666666" stroke="#666666" points="337.5,-340 337.5,-340 489.5,-340 489.5,-340 337.5,-340"/>
<polygon fill="none" stroke="#666666" points="337.5,-323 337.5,-383 489.5,-383 489.5,-323 337.5,-323"/>
</a>
</g>
</g>
<!-- Node5&#45;&gt;Node1 -->
<g id="edge4_Node000001_Node000005" class="edge">
<title>Node5&#45;&gt;Node1</title>
<g id="a_edge4_Node000001_Node000005"><a xlink:title=" ">
<path fill="none" stroke="#63b8ff" d="M392.14,-322.69C378.16,-303.53 358.93,-277.14 339.37,-250.31"/>
<polygon fill="none" stroke="#63b8ff" points="339.23,-250.12 332.46,-247.63 332.16,-240.42 338.93,-242.91 339.23,-250.12"/>
</a>
</g>
<text text-anchor="middle" x="389.5" y="-295" font-family="Helvetica,sans-Serif" font-size="10.00" fill="grey"> &#45;top_</text>
</g>
<!-- Node6 -->
<g id="Node000006" class="node">
<title>Node6</title>
<g id="a_Node000006"><a xlink:title=" ">
<polygon fill="white" stroke="transparent" points="585.5,-377.5 507.5,-377.5 507.5,-328.5 585.5,-328.5 585.5,-377.5"/>
<text text-anchor="start" x="512.5" y="-365" font-family="Helvetica,sans-Serif" font-size="10.00">atomic_size_t</text>
<text text-anchor="start" x="544.5" y="-350" font-family="Helvetica,sans-Serif" font-size="10.00"> </text>
<text text-anchor="start" x="544.5" y="-335" font-family="Helvetica,sans-Serif" font-size="10.00"> </text>
<polygon fill="#666666" stroke="#666666" points="507.5,-360 507.5,-360 585.5,-360 585.5,-360 507.5,-360"/>
<polygon fill="#666666" stroke="#666666" points="507.5,-345 507.5,-345 585.5,-345 585.5,-345 507.5,-345"/>
<polygon fill="none" stroke="#666666" points="507.5,-328.5 507.5,-377.5 585.5,-377.5 585.5,-328.5 507.5,-328.5"/>
</a>
</g>
</g>
<!-- Node6&#45;&gt;Node1 -->
<g id="edge5_Node000001_Node000006" class="edge">
<title>Node6&#45;&gt;Node1</title>
<g id="a_edge5_Node000001_Node000006"><a xlink:title=" ">
<path fill="none" stroke="#63b8ff" d="M514.75,-328.49C473.51,-297.95 399.96,-243.49 342.04,-200.6"/>
<polygon fill="none" stroke="#63b8ff" points="341.79,-200.42 334.59,-200.06 332.15,-193.28 339.35,-193.63 341.79,-200.42"/>
</a>
</g>
<text text-anchor="middle" x="519" y="-295" font-family="Helvetica,sans-Serif" font-size="10.00" fill="grey"> &#45;num_elements_</text>
</g>
</g>
</svg>

<g id="navigator" transform="translate(0 0)" fill="#404254">
  <rect fill="#f2f5e9" fill-opacity="0.5" stroke="#606060" stroke-width=".5" x="0" y="0" width="60" height="60"/>
  <use id="zoomplus" xlink:href="#zoomPlus" x="17" y="9" onmousedown="handleZoom(evt,'in')"/>
  <use id="zoomminus" xlink:href="#zoomMin" x="42" y="9" onmousedown="handleZoom(evt,'out')"/>
  <use id="reset" xlink:href="#resetDef" x="30" y="36" onmousedown="handleReset()"/>
   <use id="arrowup" xlink:href="#arrowUp" x="0" y="0" onmousedown="handlePan(0,-1)"/>
  <use id="arrowright" xlink:href="#arrowRight" x="0" y="0" onmousedown="handlePan(1,0)"/>
  <use id="arrowdown" xlink:href="#arrowDown" x="0" y="0" onmousedown="handlePan(0,1)"/>
  <use id="arrowleft" xlink:href="#arrowLeft" x="0" y="0" onmousedown="handlePan(-1,0)"/>
</g>
<svg viewBox="0 0 15 15" width="100%" height="30px" preserveAspectRatio="xMaxYMin meet">
 <g id="arrow_out" transform="scale(0.3 0.3)">
  <a xlink:href="classmkr_1_1threadsafe__stack__coll__graph_org.svg" target="_base">
   <rect id="button" ry="5" rx="5" y="6" x="6" height="38" width="38"
        fill="#f2f5e9" fill-opacity="0.5" stroke="#606060" stroke-width="1.0"/>
   <path id="arrow"
     d="M 11.500037,31.436501 C 11.940474,20.09759 22.043105,11.32322 32.158766,21.979434 L 37.068811,17.246167 C 37.068811,17.246167 37.088388,32 37.088388,32 L 22.160133,31.978069 C 22.160133,31.978069 26.997745,27.140456 26.997745,27.140456 C 18.528582,18.264221 13.291696,25.230495 11.500037,31.436501 z"
     style="fill:#404040;"/>
  </a>
 </g>
</svg>

<style type='text/css'>
<![CDATA[
[data-mouse-over-selected='false'] { opacity: 0.7; }
[data-mouse-over-selected='true']  { opacity: 1.0; }
]]>
</style>
<script type="application/ecmascript"><![CDATA[
document.addEventListener('DOMContentLoaded', (event) => {
  highlightEdges();
  highlightAdjacentNodes();
});
]]></script>
</svg>
