<?xml version="1.0" encoding="UTF-8" standalone="no"?>
<!DOCTYPE svg PUBLIC "-//W3C//DTD SVG 1.1//EN"
 "http://www.w3.org/Graphics/SVG/1.1/DTD/svg11.dtd">
<!-- Generated by graphviz version 2.43.0 (0)
 -->
<!-- Title: mkr::is_greater_or_equal&lt; T &gt; Pages: 1 -->
<svg width="133pt" height="209pt"
 viewBox="0.00 0.00 133.00 209.00" xmlns="http://www.w3.org/2000/svg" xmlns:xlink="http://www.w3.org/1999/xlink">

<svg id="main" version="1.1" xmlns="http://www.w3.org/2000/svg" xmlns:xlink="http://www.w3.org/1999/xlink" xml:space="preserve" onload="init(evt)">
<style type="text/css"><![CDATA[
.node, .edge {opacity: 0.7;}
.node.selected, .edge.selected {opacity: 1;}
.edge:hover path { stroke: red; }
.edge:hover polygon { stroke: red; fill: red; }
]]></style>
<script type="application/ecmascript" xlink:href="svg.min.js"/>
<svg id="graph" class="graph">
<g id="graph0" class="graph" transform="scale(1 1) rotate(0) translate(4 205)">
<title>mkr::is_greater_or_equal&lt; T &gt;</title>
<!-- Node1 -->
<g id="Node000001" class="node">
<title>Node1</title>
<g id="a_Node000001"><a xlink:title=" ">
<polygon fill="#999999" stroke="transparent" points="125,-105 0,-105 0,0 125,0 125,-105"/>
<text text-anchor="start" x="18" y="-92.5" font-family="Helvetica,sans-Serif" font-size="10.00">mkr::is_greater_or</text>
<text text-anchor="start" x="32.5" y="-81.5" font-family="Helvetica,sans-Serif" font-size="10.00">_equal&lt; T &gt;</text>
<text text-anchor="start" x="61" y="-66.5" font-family="Helvetica,sans-Serif" font-size="10.00"> </text>
<text text-anchor="start" x="4.5" y="-51.5" font-family="Helvetica,sans-Serif" font-size="10.00">+</text>
<text text-anchor="start" x="17.5" y="-51.5" font-family="Helvetica,sans-Serif" font-size="10.00">is_greater_or_equal()</text>
<text text-anchor="start" x="4.5" y="-36.5" font-family="Helvetica,sans-Serif" font-size="10.00">+</text>
<text text-anchor="start" x="17.5" y="-36.5" font-family="Helvetica,sans-Serif" font-size="10.00">is_greater_or_equal()</text>
<text text-anchor="start" x="4.5" y="-21.5" font-family="Helvetica,sans-Serif" font-size="10.00">+</text>
<text text-anchor="start" x="17.5" y="-21.5" font-family="Helvetica,sans-Serif" font-size="10.00">operator()()</text>
<text text-anchor="start" x="4.5" y="-6.5" font-family="Helvetica,sans-Serif" font-size="10.00">+</text>
<text text-anchor="start" x="17.5" y="-6.5" font-family="Helvetica,sans-Serif" font-size="10.00">operator()()</text>
<polygon fill="#666666" stroke="#666666" points="0.5,-76.5 0.5,-76.5 125.5,-76.5 125.5,-76.5 0.5,-76.5"/>
<polygon fill="#666666" stroke="#666666" points="0.5,-61.5 0.5,-61.5 125.5,-61.5 125.5,-61.5 0.5,-61.5"/>
<polygon fill="none" stroke="#666666" points="0,0 0,-105 125,-105 125,0 0,0"/>
</a>
</g>
</g>
<!-- Node2 -->
<g id="Node000002" class="node">
<title>Node2</title>
<g id="a_Node000002"><a xlink:title=" ">
<polygon fill="white" stroke="transparent" points="85.5,-201 39.5,-201 39.5,-152 85.5,-152 85.5,-201"/>
<text text-anchor="start" x="44.5" y="-188.5" font-family="Helvetica,sans-Serif" font-size="10.00">const T</text>
<text text-anchor="start" x="60.5" y="-173.5" font-family="Helvetica,sans-Serif" font-size="10.00"> </text>
<text text-anchor="start" x="60.5" y="-158.5" font-family="Helvetica,sans-Serif" font-size="10.00"> </text>
<polygon fill="#666666" stroke="#666666" points="39.5,-183.5 39.5,-183.5 85.5,-183.5 85.5,-183.5 39.5,-183.5"/>
<polygon fill="#666666" stroke="#666666" points="39.5,-168.5 39.5,-168.5 85.5,-168.5 85.5,-168.5 39.5,-168.5"/>
<polygon fill="none" stroke="#666666" points="39.5,-152 39.5,-201 85.5,-201 85.5,-152 39.5,-152"/>
</a>
</g>
</g>
<!-- Node2&#45;&gt;Node1 -->
<g id="edge1_Node000001_Node000002" class="edge">
<title>Node2&#45;&gt;Node1</title>
<g id="a_edge1_Node000001_Node000002"><a xlink:title=" ">
<path fill="none" stroke="#63b8ff" d="M62.5,-151.98C62.5,-142.01 62.5,-129.85 62.5,-117.54"/>
<polygon fill="none" stroke="#63b8ff" points="62.5,-117.24 58.5,-111.24 62.5,-105.24 66.5,-111.24 62.5,-117.24"/>
</a>
</g>
<text text-anchor="middle" x="82" y="-126" font-family="Helvetica,sans-Serif" font-size="10.00" fill="grey"> &#45;value_</text>
</g>
</g>
</svg>
</svg>

<style type='text/css'>
<![CDATA[
[data-mouse-over-selected='false'] { opacity: 0.7; }
[data-mouse-over-selected='true']  { opacity: 1.0; }
]]>
</style>
<script type="application/ecmascript"><![CDATA[
document.addEventListener('DOMContentLoaded', (event) => {
  highlightEdges();
  highlightAdjacentNodes();
});
]]></script>
</svg>
