<?xml version="1.0" encoding="UTF-8" standalone="no"?>
<!DOCTYPE svg PUBLIC "-//W3C//DTD SVG 1.1//EN"
 "http://www.w3.org/Graphics/SVG/1.1/DTD/svg11.dtd">
<!-- Generated by graphviz version 2.43.0 (0)
 -->
<!-- Title: mkr::task::wrapper_interface Pages: 1 -->
<svg width="141pt" height="284pt"
 viewBox="0.00 0.00 141.00 284.00" xmlns="http://www.w3.org/2000/svg" xmlns:xlink="http://www.w3.org/1999/xlink">

<svg id="main" version="1.1" xmlns="http://www.w3.org/2000/svg" xmlns:xlink="http://www.w3.org/1999/xlink" xml:space="preserve" onload="init(evt)">
<style type="text/css"><![CDATA[
.node, .edge {opacity: 0.7;}
.node.selected, .edge.selected {opacity: 1;}
.edge:hover path { stroke: red; }
.edge:hover polygon { stroke: red; fill: red; }
]]></style>
<script type="application/ecmascript" xlink:href="svg.min.js"/>
<svg id="graph" class="graph">
<g id="graph0" class="graph" transform="scale(1 1) rotate(0) translate(4 280)">
<title>mkr::task::wrapper_interface</title>
<!-- Node1 -->
<g id="Node000001" class="node">
<title>Node1</title>
<g id="a_Node000001"><a xlink:title=" ">
<polygon fill="#999999" stroke="transparent" points="129.5,-276 3.5,-276 3.5,-186 129.5,-186 129.5,-276"/>
<text text-anchor="start" x="20" y="-264" font-family="Helvetica,sans-Serif" font-size="10.00">mkr::task::wrapper</text>
<text text-anchor="start" x="42" y="-253" font-family="Helvetica,sans-Serif" font-size="10.00">_interface</text>
<text text-anchor="start" x="64.5" y="-238" font-family="Helvetica,sans-Serif" font-size="10.00"> </text>
<text text-anchor="start" x="7.5" y="-223" font-family="Helvetica,sans-Serif" font-size="10.00">+</text>
<text text-anchor="start" x="20.5" y="-223" font-family="Helvetica,sans-Serif" font-size="10.00">wrapper_interface()</text>
<text text-anchor="start" x="7.5" y="-208" font-family="Helvetica,sans-Serif" font-size="10.00">+</text>
<text text-anchor="start" x="20.5" y="-208" font-family="Helvetica,sans-Serif" font-size="10.00">~wrapper_interface()</text>
<text text-anchor="start" x="7.5" y="-193" font-family="Helvetica,sans-Serif" font-size="10.00">+</text>
<text text-anchor="start" x="20.5" y="-193" font-family="Helvetica,sans-Serif" font-size="10.00">operator()()</text>
<polygon fill="#666666" stroke="#666666" points="3.5,-248 3.5,-248 129.5,-248 129.5,-248 3.5,-248"/>
<polygon fill="#666666" stroke="#666666" points="3.5,-233 3.5,-233 129.5,-233 129.5,-233 3.5,-233"/>
<polygon fill="none" stroke="#666666" points="3.5,-186 3.5,-276 129.5,-276 129.5,-186 3.5,-186"/>
</a>
</g>
</g>
<!-- Node2 -->
<g id="Node000002" class="node">
<title>Node2</title>
<g id="a_Node000002"><a xlink:href="classmkr_1_1task_1_1templated__wrapper.html" target="_top" xlink:title=" ">
<polygon fill="white" stroke="transparent" points="133,-150 0,-150 0,0 133,0 133,-150"/>
<text text-anchor="start" x="13" y="-138" font-family="Helvetica,sans-Serif" font-size="10.00">mkr::task::templated</text>
<text text-anchor="start" x="13" y="-127" font-family="Helvetica,sans-Serif" font-size="10.00">_wrapper&lt; Callable &gt;</text>
<text text-anchor="start" x="7" y="-112" font-family="Helvetica,sans-Serif" font-size="10.00">&#45;</text>
<text text-anchor="start" x="17.5" y="-112" font-family="Helvetica,sans-Serif" font-size="10.00">func_</text>
<text text-anchor="start" x="4.5" y="-97" font-family="Helvetica,sans-Serif" font-size="10.00">+</text>
<text text-anchor="start" x="17.5" y="-97" font-family="Helvetica,sans-Serif" font-size="10.00">templated_wrapper()</text>
<text text-anchor="start" x="4.5" y="-82" font-family="Helvetica,sans-Serif" font-size="10.00">+</text>
<text text-anchor="start" x="17.5" y="-82" font-family="Helvetica,sans-Serif" font-size="10.00">~templated_wrapper()</text>
<text text-anchor="start" x="4.5" y="-67" font-family="Helvetica,sans-Serif" font-size="10.00">+</text>
<text text-anchor="start" x="17.5" y="-67" font-family="Helvetica,sans-Serif" font-size="10.00">operator()()</text>
<text text-anchor="start" x="4.5" y="-52" font-family="Helvetica,sans-Serif" font-size="10.00">+</text>
<text text-anchor="start" x="17.5" y="-52" font-family="Helvetica,sans-Serif" font-size="10.00">templated_wrapper()</text>
<text text-anchor="start" x="4.5" y="-37" font-family="Helvetica,sans-Serif" font-size="10.00">+</text>
<text text-anchor="start" x="17.5" y="-37" font-family="Helvetica,sans-Serif" font-size="10.00">operator=()</text>
<text text-anchor="start" x="4.5" y="-22" font-family="Helvetica,sans-Serif" font-size="10.00">+</text>
<text text-anchor="start" x="17.5" y="-22" font-family="Helvetica,sans-Serif" font-size="10.00">templated_wrapper()</text>
<text text-anchor="start" x="4.5" y="-7" font-family="Helvetica,sans-Serif" font-size="10.00">+</text>
<text text-anchor="start" x="17.5" y="-7" font-family="Helvetica,sans-Serif" font-size="10.00">operator=()</text>
<polygon fill="#666666" stroke="#666666" points="0.5,-122 0.5,-122 133.5,-122 133.5,-122 0.5,-122"/>
<polygon fill="#666666" stroke="#666666" points="0.5,-107 0.5,-107 15.5,-107 15.5,-107 0.5,-107"/>
<polygon fill="#666666" stroke="#666666" points="15.5,-107 15.5,-107 133.5,-107 133.5,-107 15.5,-107"/>
<polygon fill="none" stroke="#666666" points="0,0 0,-150 133,-150 133,0 0,0"/>
</a>
</g>
</g>
<!-- Node1&#45;&gt;Node2 -->
<g id="edge1_Node000001_Node000002" class="edge">
<title>Node1&#45;&gt;Node2</title>
<g id="a_edge1_Node000001_Node000002"><a xlink:title=" ">
<path fill="none" stroke="#63b8ff" d="M66.5,-175.63C66.5,-167.35 66.5,-158.7 66.5,-150.09"/>
<polygon fill="none" stroke="#63b8ff" points="63,-175.87 66.5,-185.87 70,-175.87 63,-175.87"/>
</a>
</g>
</g>
</g>
</svg>
</svg>

<style type='text/css'>
<![CDATA[
[data-mouse-over-selected='false'] { opacity: 0.7; }
[data-mouse-over-selected='true']  { opacity: 1.0; }
]]>
</style>
<script type="application/ecmascript"><![CDATA[
document.addEventListener('DOMContentLoaded', (event) => {
  highlightEdges();
  highlightAdjacentNodes();
});
]]></script>
</svg>
