<?xml version="1.0" encoding="UTF-8" standalone="no"?>
<!DOCTYPE svg PUBLIC "-//W3C//DTD SVG 1.1//EN"
 "http://www.w3.org/Graphics/SVG/1.1/DTD/svg11.dtd">
<!-- Generated by graphviz version 2.43.0 (0)
 -->
<!-- Title: mkr::thread_pool Pages: 1 -->
<!--zoomable 1179 -->
<svg id="main" version="1.1" xmlns="http://www.w3.org/2000/svg" xmlns:xlink="http://www.w3.org/1999/xlink" xml:space="preserve" onload="init(evt)">
<style type="text/css"><![CDATA[
.edge:hover path { stroke: red; }
.edge:hover polygon { stroke: red; fill: red; }
]]></style>
<script type="text/javascript"><![CDATA[
var edges = document.getElementsByTagName('g');
if (edges && edges.length) {
  for (var i=0;i<edges.length;i++) {
    if (edges[i].id.substr(0,4)=='edge') {
      edges[i].setAttribute('class','edge');
    }
  }
}
]]></script>
        <defs>
                <circle id="rim" cx="0" cy="0" r="7"/>
                <circle id="rim2" cx="0" cy="0" r="3.5"/>
                <g id="zoomPlus">
                        <use xlink:href="#rim" fill="#404040">
                                <set attributeName="fill" to="#808080" begin="zoomplus.mouseover" end="zoomplus.mouseout"/>
                        </use>
                        <path d="M-4,0h8M0,-4v8" fill="none" stroke="white" stroke-width="1.5" pointer-events="none"/>
                </g>
                <g id="zoomMin">
                        <use xlink:href="#rim" fill="#404040">
                                <set attributeName="fill" to="#808080" begin="zoomminus.mouseover" end="zoomminus.mouseout"/>
                        </use>
                        <path d="M-4,0h8" fill="none" stroke="white" stroke-width="1.5" pointer-events="none"/>
                </g>
                <g id="dirArrow">
                        <path fill="none" stroke="white" stroke-width="1.5" d="M0,-3.0v7 M-2.5,-0.5L0,-3.0L2.5,-0.5"/>
                </g>
               <g id="resetDef">
                       <use xlink:href="#rim2" fill="#404040">
                               <set attributeName="fill" to="#808080" begin="reset.mouseover" end="reset.mouseout"/>
                       </use>
               </g>
        </defs>

<script type="text/javascript">
var viewWidth = 988;
var viewHeight = 1179;
var sectionId = 'dynsection-0';
</script>
<script xlink:href="svgpan.js"/>
<svg id="graph" class="graph">
<g id="viewport">
<title>mkr::thread_pool</title>
<polygon fill="white" stroke="transparent" points="-4,4 -4,-1175 983.5,-1175 983.5,4 -4,4"/>
<!-- Node1 -->
<g id="node1" class="node">
<title>Node1</title>
<g id="a_node1"><a xlink:title=" ">
<polygon fill="#bfbfbf" stroke="black" points="519,-0.5 519,-211.5 646,-211.5 646,-0.5 519,-0.5"/>
<text text-anchor="middle" x="582.5" y="-199.5" font-family="Helvetica,sans-Serif" font-size="10.00">mkr::thread_pool</text>
<polyline fill="none" stroke="black" points="519,-192.5 646,-192.5 "/>
<text text-anchor="middle" x="582.5" y="-180.5" font-family="Helvetica,sans-Serif" font-size="10.00"> </text>
<polyline fill="none" stroke="black" points="519,-173.5 646,-173.5 "/>
<text text-anchor="start" x="527" y="-161.5" font-family="Helvetica,sans-Serif" font-size="10.00">+ thread_pool()</text>
<text text-anchor="start" x="527" y="-150.5" font-family="Helvetica,sans-Serif" font-size="10.00">+ ~thread_pool()</text>
<text text-anchor="start" x="527" y="-139.5" font-family="Helvetica,sans-Serif" font-size="10.00">+ num_threads()</text>
<text text-anchor="start" x="527" y="-128.5" font-family="Helvetica,sans-Serif" font-size="10.00">+ run_pending_task()</text>
<text text-anchor="start" x="527" y="-117.5" font-family="Helvetica,sans-Serif" font-size="10.00">+ run_pending_tasks()</text>
<text text-anchor="start" x="527" y="-106.5" font-family="Helvetica,sans-Serif" font-size="10.00">+ submit()</text>
<text text-anchor="start" x="527" y="-95.5" font-family="Helvetica,sans-Serif" font-size="10.00">+ get_default_thread</text>
<text text-anchor="start" x="527" y="-84.5" font-family="Helvetica,sans-Serif" font-size="10.00">_pool()</text>
<text text-anchor="start" x="527" y="-73.5" font-family="Helvetica,sans-Serif" font-size="10.00">&#45; get_local_task()</text>
<text text-anchor="start" x="527" y="-62.5" font-family="Helvetica,sans-Serif" font-size="10.00">&#45; get_global_task()</text>
<text text-anchor="start" x="527" y="-51.5" font-family="Helvetica,sans-Serif" font-size="10.00">&#45; steal_task()</text>
<text text-anchor="start" x="527" y="-40.5" font-family="Helvetica,sans-Serif" font-size="10.00">&#45; run_local_task()</text>
<text text-anchor="start" x="527" y="-29.5" font-family="Helvetica,sans-Serif" font-size="10.00">&#45; run_global_task()</text>
<text text-anchor="start" x="527" y="-18.5" font-family="Helvetica,sans-Serif" font-size="10.00">&#45; run_stolen_task()</text>
<text text-anchor="start" x="527" y="-7.5" font-family="Helvetica,sans-Serif" font-size="10.00">&#45; worker_thread_func()</text>
</a>
</g>
</g>
<!-- Node2 -->
<g id="node2" class="node">
<title>Node2</title>
<g id="a_node2"><a xlink:title=" ">
<polygon fill="white" stroke="#bfbfbf" points="65.5,-386 65.5,-443 187.5,-443 187.5,-386 65.5,-386"/>
<text text-anchor="middle" x="126.5" y="-431" font-family="Helvetica,sans-Serif" font-size="10.00">vector&lt; std::thread &gt;</text>
<polyline fill="none" stroke="#bfbfbf" points="65.5,-424 187.5,-424 "/>
<text text-anchor="middle" x="126.5" y="-412" font-family="Helvetica,sans-Serif" font-size="10.00"> </text>
<polyline fill="none" stroke="#bfbfbf" points="65.5,-405 187.5,-405 "/>
<text text-anchor="middle" x="126.5" y="-393" font-family="Helvetica,sans-Serif" font-size="10.00"> </text>
</a>
</g>
</g>
<!-- Node2&#45;&gt;Node1 -->
<g id="edge1" class="edge">
<title>Node2&#45;&gt;Node1</title>
<path fill="none" stroke="#404040" d="M133.4,-385.92C142.96,-352.45 163.08,-295.92 197.5,-259 279.99,-170.53 420.46,-132.68 507,-117.14"/>
<polygon fill="none" stroke="#404040" points="507.01,-117.14 512.24,-112.17 518.84,-115.09 513.61,-120.06 507.01,-117.14"/>
<text text-anchor="middle" x="265.5" y="-233" font-family="Helvetica,sans-Serif" font-size="10.00"> &#45;worker_threads_</text>
</g>
<!-- Node3 -->
<g id="node3" class="node">
<title>Node3</title>
<g id="a_node3"><a xlink:href="classmkr_1_1threadsafe__queue.html" target="_top" xlink:title=" ">
<polygon fill="white" stroke="black" points="393,-292.5 393,-536.5 524,-536.5 524,-292.5 393,-292.5"/>
<text text-anchor="start" x="401" y="-524.5" font-family="Helvetica,sans-Serif" font-size="10.00">mkr::threadsafe_queue</text>
<text text-anchor="middle" x="458.5" y="-513.5" font-family="Helvetica,sans-Serif" font-size="10.00">&lt; mkr::task &gt;</text>
<polyline fill="none" stroke="black" points="393,-506.5 524,-506.5 "/>
<text text-anchor="middle" x="458.5" y="-494.5" font-family="Helvetica,sans-Serif" font-size="10.00"> </text>
<polyline fill="none" stroke="black" points="393,-487.5 524,-487.5 "/>
<text text-anchor="start" x="401" y="-475.5" font-family="Helvetica,sans-Serif" font-size="10.00">+ threadsafe_queue()</text>
<text text-anchor="start" x="401" y="-464.5" font-family="Helvetica,sans-Serif" font-size="10.00">+ threadsafe_queue()</text>
<text text-anchor="start" x="401" y="-453.5" font-family="Helvetica,sans-Serif" font-size="10.00">+ threadsafe_queue()</text>
<text text-anchor="start" x="401" y="-442.5" font-family="Helvetica,sans-Serif" font-size="10.00">+ ~threadsafe_queue()</text>
<text text-anchor="start" x="401" y="-431.5" font-family="Helvetica,sans-Serif" font-size="10.00">+ operator=()</text>
<text text-anchor="start" x="401" y="-420.5" font-family="Helvetica,sans-Serif" font-size="10.00">+ operator=()</text>
<text text-anchor="start" x="401" y="-409.5" font-family="Helvetica,sans-Serif" font-size="10.00">+ push()</text>
<text text-anchor="start" x="401" y="-398.5" font-family="Helvetica,sans-Serif" font-size="10.00">+ push()</text>
<text text-anchor="start" x="401" y="-387.5" font-family="Helvetica,sans-Serif" font-size="10.00">+ try_pop()</text>
<text text-anchor="start" x="401" y="-376.5" font-family="Helvetica,sans-Serif" font-size="10.00">+ wait_and_pop()</text>
<text text-anchor="start" x="401" y="-365.5" font-family="Helvetica,sans-Serif" font-size="10.00">+ clear()</text>
<text text-anchor="start" x="401" y="-354.5" font-family="Helvetica,sans-Serif" font-size="10.00">+ empty()</text>
<text text-anchor="start" x="401" y="-343.5" font-family="Helvetica,sans-Serif" font-size="10.00">+ size()</text>
<text text-anchor="start" x="401" y="-332.5" font-family="Helvetica,sans-Serif" font-size="10.00">&#45; get_tail()</text>
<text text-anchor="start" x="401" y="-321.5" font-family="Helvetica,sans-Serif" font-size="10.00">&#45; get_tail()</text>
<text text-anchor="start" x="401" y="-310.5" font-family="Helvetica,sans-Serif" font-size="10.00">&#45; do_push()</text>
<text text-anchor="start" x="401" y="-299.5" font-family="Helvetica,sans-Serif" font-size="10.00">&#45; do_pop()</text>
</a>
</g>
</g>
<!-- Node3&#45;&gt;Node1 -->
<g id="edge2" class="edge">
<title>Node3&#45;&gt;Node1</title>
<path fill="none" stroke="#404040" d="M456.52,-292.36C459.3,-270.99 464.23,-249.4 472.5,-230 481.41,-209.1 495.36,-189.34 510.36,-172.03"/>
<polygon fill="none" stroke="#404040" points="510.76,-171.59 511.8,-164.45 518.79,-162.67 517.75,-169.8 510.76,-171.59"/>
<text text-anchor="middle" x="524.5" y="-233" font-family="Helvetica,sans-Serif" font-size="10.00"> &#45;global_task_queue_</text>
</g>
<!-- Node4 -->
<g id="node4" class="node">
<title>Node4</title>
<g id="a_node4"><a xlink:href="classmkr_1_1container.html" target="_top" xlink:title=" ">
<polygon fill="white" stroke="black" points="243,-986.5 243,-1054.5 332,-1054.5 332,-986.5 243,-986.5"/>
<text text-anchor="middle" x="287.5" y="-1042.5" font-family="Helvetica,sans-Serif" font-size="10.00">mkr::container</text>
<polyline fill="none" stroke="black" points="243,-1035.5 332,-1035.5 "/>
<text text-anchor="middle" x="287.5" y="-1023.5" font-family="Helvetica,sans-Serif" font-size="10.00"> </text>
<polyline fill="none" stroke="black" points="243,-1016.5 332,-1016.5 "/>
<text text-anchor="start" x="251" y="-1004.5" font-family="Helvetica,sans-Serif" font-size="10.00">+ container()</text>
<text text-anchor="start" x="251" y="-993.5" font-family="Helvetica,sans-Serif" font-size="10.00">+ ~container()</text>
</a>
</g>
</g>
<!-- Node4&#45;&gt;Node3 -->
<g id="edge3" class="edge">
<title>Node4&#45;&gt;Node3</title>
<path fill="none" stroke="midnightblue" d="M298.67,-976.56C299.32,-973.67 299.94,-970.8 300.5,-968 330.57,-818.19 305.22,-773.63 351.5,-628 362.04,-594.83 377.23,-560.48 392.87,-529.32"/>
<polygon fill="none" stroke="midnightblue" points="295.25,-975.83 296.37,-986.37 302.07,-977.43 295.25,-975.83"/>
</g>
<!-- Node5 -->
<g id="node5" class="node">
<title>Node5</title>
<g id="a_node5"><a xlink:href="classmkr_1_1threadsafe__queue.html" target="_top" xlink:title=" ">
<polygon fill="white" stroke="black" points="467.5,-667 467.5,-900 625.5,-900 625.5,-667 467.5,-667"/>
<text text-anchor="middle" x="546.5" y="-888" font-family="Helvetica,sans-Serif" font-size="10.00">mkr::threadsafe_queue&lt; T &gt;</text>
<polyline fill="none" stroke="black" points="467.5,-881 625.5,-881 "/>
<text text-anchor="middle" x="546.5" y="-869" font-family="Helvetica,sans-Serif" font-size="10.00"> </text>
<polyline fill="none" stroke="black" points="467.5,-862 625.5,-862 "/>
<text text-anchor="start" x="475.5" y="-850" font-family="Helvetica,sans-Serif" font-size="10.00">+ threadsafe_queue()</text>
<text text-anchor="start" x="475.5" y="-839" font-family="Helvetica,sans-Serif" font-size="10.00">+ threadsafe_queue()</text>
<text text-anchor="start" x="475.5" y="-828" font-family="Helvetica,sans-Serif" font-size="10.00">+ threadsafe_queue()</text>
<text text-anchor="start" x="475.5" y="-817" font-family="Helvetica,sans-Serif" font-size="10.00">+ ~threadsafe_queue()</text>
<text text-anchor="start" x="475.5" y="-806" font-family="Helvetica,sans-Serif" font-size="10.00">+ operator=()</text>
<text text-anchor="start" x="475.5" y="-795" font-family="Helvetica,sans-Serif" font-size="10.00">+ operator=()</text>
<text text-anchor="start" x="475.5" y="-784" font-family="Helvetica,sans-Serif" font-size="10.00">+ push()</text>
<text text-anchor="start" x="475.5" y="-773" font-family="Helvetica,sans-Serif" font-size="10.00">+ push()</text>
<text text-anchor="start" x="475.5" y="-762" font-family="Helvetica,sans-Serif" font-size="10.00">+ try_pop()</text>
<text text-anchor="start" x="475.5" y="-751" font-family="Helvetica,sans-Serif" font-size="10.00">+ wait_and_pop()</text>
<text text-anchor="start" x="475.5" y="-740" font-family="Helvetica,sans-Serif" font-size="10.00">+ clear()</text>
<text text-anchor="start" x="475.5" y="-729" font-family="Helvetica,sans-Serif" font-size="10.00">+ empty()</text>
<text text-anchor="start" x="475.5" y="-718" font-family="Helvetica,sans-Serif" font-size="10.00">+ size()</text>
<text text-anchor="start" x="475.5" y="-707" font-family="Helvetica,sans-Serif" font-size="10.00">&#45; get_tail()</text>
<text text-anchor="start" x="475.5" y="-696" font-family="Helvetica,sans-Serif" font-size="10.00">&#45; get_tail()</text>
<text text-anchor="start" x="475.5" y="-685" font-family="Helvetica,sans-Serif" font-size="10.00">&#45; do_push()</text>
<text text-anchor="start" x="475.5" y="-674" font-family="Helvetica,sans-Serif" font-size="10.00">&#45; do_pop()</text>
</a>
</g>
</g>
<!-- Node4&#45;&gt;Node5 -->
<g id="edge5" class="edge">
<title>Node4&#45;&gt;Node5</title>
<path fill="none" stroke="midnightblue" d="M341.38,-989.29C343.45,-988.17 345.49,-987.07 347.5,-986 372.58,-972.62 378.45,-968.36 404.5,-957 425.77,-947.72 435.61,-953.78 453.5,-939 466.77,-928.03 478.64,-914.65 489.08,-900.39"/>
<polygon fill="none" stroke="midnightblue" points="339.39,-986.39 332.28,-994.25 342.74,-992.53 339.39,-986.39"/>
</g>
<!-- Node14 -->
<g id="node14" class="node">
<title>Node14</title>
<g id="a_node14"><a xlink:href="classmkr_1_1threadsafe__hashtable.html" target="_top" xlink:title=" ">
<polygon fill="white" stroke="black" points="206,-259.5 206,-569.5 355,-569.5 355,-259.5 206,-259.5"/>
<text text-anchor="start" x="214" y="-557.5" font-family="Helvetica,sans-Serif" font-size="10.00">mkr::threadsafe_hashtable</text>
<text text-anchor="middle" x="280.5" y="-546.5" font-family="Helvetica,sans-Serif" font-size="10.00">&lt; std::thread::id, size_t &gt;</text>
<polyline fill="none" stroke="black" points="206,-539.5 355,-539.5 "/>
<text text-anchor="middle" x="280.5" y="-527.5" font-family="Helvetica,sans-Serif" font-size="10.00"> </text>
<polyline fill="none" stroke="black" points="206,-520.5 355,-520.5 "/>
<text text-anchor="start" x="214" y="-508.5" font-family="Helvetica,sans-Serif" font-size="10.00">+ threadsafe_hashtable()</text>
<text text-anchor="start" x="214" y="-497.5" font-family="Helvetica,sans-Serif" font-size="10.00">+ threadsafe_hashtable()</text>
<text text-anchor="start" x="214" y="-486.5" font-family="Helvetica,sans-Serif" font-size="10.00">+ threadsafe_hashtable()</text>
<text text-anchor="start" x="214" y="-475.5" font-family="Helvetica,sans-Serif" font-size="10.00">+ ~threadsafe_hashtable()</text>
<text text-anchor="start" x="214" y="-464.5" font-family="Helvetica,sans-Serif" font-size="10.00">+ operator=()</text>
<text text-anchor="start" x="214" y="-453.5" font-family="Helvetica,sans-Serif" font-size="10.00">+ operator=()</text>
<text text-anchor="start" x="214" y="-442.5" font-family="Helvetica,sans-Serif" font-size="10.00">+ insert()</text>
<text text-anchor="start" x="214" y="-431.5" font-family="Helvetica,sans-Serif" font-size="10.00">+ insert()</text>
<text text-anchor="start" x="214" y="-420.5" font-family="Helvetica,sans-Serif" font-size="10.00">+ replace()</text>
<text text-anchor="start" x="214" y="-409.5" font-family="Helvetica,sans-Serif" font-size="10.00">+ replace()</text>
<text text-anchor="start" x="214" y="-398.5" font-family="Helvetica,sans-Serif" font-size="10.00">+ insert_or_replace()</text>
<text text-anchor="start" x="214" y="-387.5" font-family="Helvetica,sans-Serif" font-size="10.00">+ insert_or_replace()</text>
<text text-anchor="start" x="214" y="-376.5" font-family="Helvetica,sans-Serif" font-size="10.00">+ remove()</text>
<text text-anchor="start" x="214" y="-365.5" font-family="Helvetica,sans-Serif" font-size="10.00">+ get()</text>
<text text-anchor="start" x="214" y="-354.5" font-family="Helvetica,sans-Serif" font-size="10.00">+ get()</text>
<text text-anchor="start" x="214" y="-343.5" font-family="Helvetica,sans-Serif" font-size="10.00">+ get_or_insert()</text>
<text text-anchor="start" x="214" y="-332.5" font-family="Helvetica,sans-Serif" font-size="10.00">+ empty()</text>
<text text-anchor="start" x="214" y="-321.5" font-family="Helvetica,sans-Serif" font-size="10.00">+ size()</text>
<text text-anchor="start" x="214" y="-310.5" font-family="Helvetica,sans-Serif" font-size="10.00">&#45; get_bucket()</text>
<text text-anchor="start" x="214" y="-299.5" font-family="Helvetica,sans-Serif" font-size="10.00">&#45; get_bucket()</text>
<text text-anchor="start" x="214" y="-288.5" font-family="Helvetica,sans-Serif" font-size="10.00">&#45; do_insert()</text>
<text text-anchor="start" x="214" y="-277.5" font-family="Helvetica,sans-Serif" font-size="10.00">&#45; do_replace()</text>
<text text-anchor="start" x="214" y="-266.5" font-family="Helvetica,sans-Serif" font-size="10.00">&#45; do_insert_or_replace()</text>
</a>
</g>
</g>
<!-- Node4&#45;&gt;Node14 -->
<g id="edge22" class="edge">
<title>Node4&#45;&gt;Node14</title>
<path fill="none" stroke="midnightblue" d="M287,-975.99C286.02,-892.2 283.85,-704.75 282.29,-569.68"/>
<polygon fill="none" stroke="midnightblue" points="283.5,-976.21 287.11,-986.17 290.5,-976.13 283.5,-976.21"/>
</g>
<!-- Node15 -->
<g id="node15" class="node">
<title>Node15</title>
<g id="a_node15"><a xlink:href="classmkr_1_1threadsafe__hashtable.html" target="_top" xlink:title=" ">
<polygon fill="white" stroke="black" points="0,-628.5 0,-938.5 149,-938.5 149,-628.5 0,-628.5"/>
<text text-anchor="start" x="8" y="-926.5" font-family="Helvetica,sans-Serif" font-size="10.00">mkr::threadsafe_hashtable</text>
<text text-anchor="middle" x="74.5" y="-915.5" font-family="Helvetica,sans-Serif" font-size="10.00">&lt; K, V, N &gt;</text>
<polyline fill="none" stroke="black" points="0,-908.5 149,-908.5 "/>
<text text-anchor="middle" x="74.5" y="-896.5" font-family="Helvetica,sans-Serif" font-size="10.00"> </text>
<polyline fill="none" stroke="black" points="0,-889.5 149,-889.5 "/>
<text text-anchor="start" x="8" y="-877.5" font-family="Helvetica,sans-Serif" font-size="10.00">+ threadsafe_hashtable()</text>
<text text-anchor="start" x="8" y="-866.5" font-family="Helvetica,sans-Serif" font-size="10.00">+ threadsafe_hashtable()</text>
<text text-anchor="start" x="8" y="-855.5" font-family="Helvetica,sans-Serif" font-size="10.00">+ threadsafe_hashtable()</text>
<text text-anchor="start" x="8" y="-844.5" font-family="Helvetica,sans-Serif" font-size="10.00">+ ~threadsafe_hashtable()</text>
<text text-anchor="start" x="8" y="-833.5" font-family="Helvetica,sans-Serif" font-size="10.00">+ operator=()</text>
<text text-anchor="start" x="8" y="-822.5" font-family="Helvetica,sans-Serif" font-size="10.00">+ operator=()</text>
<text text-anchor="start" x="8" y="-811.5" font-family="Helvetica,sans-Serif" font-size="10.00">+ insert()</text>
<text text-anchor="start" x="8" y="-800.5" font-family="Helvetica,sans-Serif" font-size="10.00">+ insert()</text>
<text text-anchor="start" x="8" y="-789.5" font-family="Helvetica,sans-Serif" font-size="10.00">+ replace()</text>
<text text-anchor="start" x="8" y="-778.5" font-family="Helvetica,sans-Serif" font-size="10.00">+ replace()</text>
<text text-anchor="start" x="8" y="-767.5" font-family="Helvetica,sans-Serif" font-size="10.00">+ insert_or_replace()</text>
<text text-anchor="start" x="8" y="-756.5" font-family="Helvetica,sans-Serif" font-size="10.00">+ insert_or_replace()</text>
<text text-anchor="start" x="8" y="-745.5" font-family="Helvetica,sans-Serif" font-size="10.00">+ remove()</text>
<text text-anchor="start" x="8" y="-734.5" font-family="Helvetica,sans-Serif" font-size="10.00">+ get()</text>
<text text-anchor="start" x="8" y="-723.5" font-family="Helvetica,sans-Serif" font-size="10.00">+ get()</text>
<text text-anchor="start" x="8" y="-712.5" font-family="Helvetica,sans-Serif" font-size="10.00">+ get_or_insert()</text>
<text text-anchor="start" x="8" y="-701.5" font-family="Helvetica,sans-Serif" font-size="10.00">+ empty()</text>
<text text-anchor="start" x="8" y="-690.5" font-family="Helvetica,sans-Serif" font-size="10.00">+ size()</text>
<text text-anchor="start" x="8" y="-679.5" font-family="Helvetica,sans-Serif" font-size="10.00">&#45; get_bucket()</text>
<text text-anchor="start" x="8" y="-668.5" font-family="Helvetica,sans-Serif" font-size="10.00">&#45; get_bucket()</text>
<text text-anchor="start" x="8" y="-657.5" font-family="Helvetica,sans-Serif" font-size="10.00">&#45; do_insert()</text>
<text text-anchor="start" x="8" y="-646.5" font-family="Helvetica,sans-Serif" font-size="10.00">&#45; do_replace()</text>
<text text-anchor="start" x="8" y="-635.5" font-family="Helvetica,sans-Serif" font-size="10.00">&#45; do_insert_or_replace()</text>
</a>
</g>
</g>
<!-- Node4&#45;&gt;Node15 -->
<g id="edge24" class="edge">
<title>Node4&#45;&gt;Node15</title>
<path fill="none" stroke="midnightblue" d="M250.6,-978.79C222.72,-948.02 183.51,-904.77 149.17,-866.88"/>
<polygon fill="none" stroke="midnightblue" points="248.13,-981.27 257.43,-986.33 253.31,-976.57 248.13,-981.27"/>
</g>
<!-- Node5&#45;&gt;Node3 -->
<g id="edge4" class="edge">
<title>Node5&#45;&gt;Node3</title>
<path fill="none" stroke="#404040" d="M479.25,-666.97C471.13,-648.44 464.09,-629.08 459.5,-610 454.79,-590.45 452.23,-569.46 451.05,-548.77"/>
<polygon fill="none" stroke="#404040" points="451.05,-548.63 446.78,-542.81 450.52,-536.64 454.78,-542.46 451.05,-548.63"/>
<text text-anchor="middle" x="492" y="-596.5" font-family="Helvetica,sans-Serif" font-size="10.00"> &#45;tail_mutex_</text>
</g>
<!-- Node5&#45;&gt;Node3 -->
<g id="edge17" class="edge">
<title>Node5&#45;&gt;Node3</title>
<path fill="none" stroke="orange" d="M537,-656.79C533.92,-633.73 529.86,-610 524.5,-588 520.4,-571.18 515.09,-553.78 509.27,-536.79"/>
<polygon fill="orange" stroke="orange" points="533.56,-657.5 538.3,-666.98 540.5,-656.62 533.56,-657.5"/>
<text text-anchor="middle" x="565" y="-596.5" font-family="Helvetica,sans-Serif" font-size="10.00"> &lt; mkr::task &gt;</text>
</g>
<!-- Node5&#45;&gt;Node5 -->
<g id="edge6" class="edge">
<title>Node5&#45;&gt;Node5</title>
<path fill="none" stroke="#404040" d="M625.66,-813.11C636.37,-808.14 643.5,-798.28 643.5,-783.5 643.5,-774.03 640.57,-766.58 635.66,-761.14"/>
<polygon fill="none" stroke="#404040" points="635.38,-760.94 628.17,-760.65 625.66,-753.89 632.87,-754.18 635.38,-760.94"/>
<text text-anchor="middle" x="676" y="-781" font-family="Helvetica,sans-Serif" font-size="10.00"> &#45;tail_mutex_</text>
</g>
<!-- Node6 -->
<g id="node6" class="node">
<title>Node6</title>
<g id="a_node6"><a xlink:href="structmkr_1_1threadsafe__queue_1_1node.html" target="_top" xlink:title=" ">
<polygon fill="white" stroke="black" points="569.5,-986.5 569.5,-1054.5 699.5,-1054.5 699.5,-986.5 569.5,-986.5"/>
<text text-anchor="start" x="577.5" y="-1042.5" font-family="Helvetica,sans-Serif" font-size="10.00">mkr::threadsafe_queue</text>
<text text-anchor="middle" x="634.5" y="-1031.5" font-family="Helvetica,sans-Serif" font-size="10.00">&lt; T &gt;::node</text>
<polyline fill="none" stroke="black" points="569.5,-1024.5 699.5,-1024.5 "/>
<text text-anchor="middle" x="634.5" y="-1012.5" font-family="Helvetica,sans-Serif" font-size="10.00"> </text>
<polyline fill="none" stroke="black" points="569.5,-1005.5 699.5,-1005.5 "/>
<text text-anchor="start" x="577.5" y="-993.5" font-family="Helvetica,sans-Serif" font-size="10.00">+ copy()</text>
</a>
</g>
</g>
<!-- Node6&#45;&gt;Node3 -->
<g id="edge13" class="edge">
<title>Node6&#45;&gt;Node3</title>
<path fill="none" stroke="#404040" d="M699.5,-990.9C713.98,-983.18 726.3,-975.02 730.5,-968 769.32,-903.12 762.27,-688.93 717.5,-628 686.2,-585.4 656.09,-603.32 605.5,-588 573.93,-578.44 559.11,-590.79 533.5,-570 525.17,-563.24 517.71,-555.33 511.02,-546.73"/>
<polygon fill="none" stroke="#404040" points="510.84,-546.47 504.08,-543.95 503.81,-536.75 510.56,-539.26 510.84,-546.47"/>
<text text-anchor="middle" x="769.5" y="-781" font-family="Helvetica,sans-Serif" font-size="10.00"> &#45;tail_</text>
</g>
<!-- Node6&#45;&gt;Node5 -->
<g id="edge7" class="edge">
<title>Node6&#45;&gt;Node5</title>
<path fill="none" stroke="#404040" d="M622.08,-986.33C614.56,-966.26 604.45,-939.25 594.07,-911.53"/>
<polygon fill="none" stroke="#404040" points="593.98,-911.28 588.13,-907.06 589.77,-900.04 595.62,-904.26 593.98,-911.28"/>
<text text-anchor="middle" x="626.5" y="-960" font-family="Helvetica,sans-Serif" font-size="10.00"> &#45;tail_</text>
</g>
<!-- Node7 -->
<g id="node7" class="node">
<title>Node7</title>
<g id="a_node7"><a xlink:title=" ">
<polygon fill="white" stroke="#bfbfbf" points="543,-1108 543,-1165 640,-1165 640,-1108 543,-1108"/>
<text text-anchor="middle" x="591.5" y="-1153" font-family="Helvetica,sans-Serif" font-size="10.00">shared_ptr&lt; T &gt;</text>
<polyline fill="none" stroke="#bfbfbf" points="543,-1146 640,-1146 "/>
<text text-anchor="middle" x="591.5" y="-1134" font-family="Helvetica,sans-Serif" font-size="10.00"> </text>
<polyline fill="none" stroke="#bfbfbf" points="543,-1127 640,-1127 "/>
<text text-anchor="middle" x="591.5" y="-1115" font-family="Helvetica,sans-Serif" font-size="10.00"> </text>
</a>
</g>
</g>
<!-- Node7&#45;&gt;Node6 -->
<g id="edge8" class="edge">
<title>Node7&#45;&gt;Node6</title>
<path fill="none" stroke="#404040" d="M601.91,-1107.9C606.65,-1095.34 612.37,-1080.16 617.7,-1066.04"/>
<polygon fill="none" stroke="#404040" points="617.81,-1065.75 616.18,-1058.72 622.04,-1054.52 623.67,-1061.55 617.81,-1065.75"/>
<text text-anchor="middle" x="635.5" y="-1076" font-family="Helvetica,sans-Serif" font-size="10.00"> +value_</text>
</g>
<!-- Node8 -->
<g id="node8" class="node">
<title>Node8</title>
<g id="a_node8"><a xlink:title=" ">
<polygon fill="white" stroke="#bfbfbf" points="658.5,-1102.5 658.5,-1170.5 816.5,-1170.5 816.5,-1102.5 658.5,-1102.5"/>
<text text-anchor="start" x="666.5" y="-1158.5" font-family="Helvetica,sans-Serif" font-size="10.00">unique_ptr&lt; mkr::threadsafe</text>
<text text-anchor="middle" x="737.5" y="-1147.5" font-family="Helvetica,sans-Serif" font-size="10.00">_queue::node &gt;</text>
<polyline fill="none" stroke="#bfbfbf" points="658.5,-1140.5 816.5,-1140.5 "/>
<text text-anchor="middle" x="737.5" y="-1128.5" font-family="Helvetica,sans-Serif" font-size="10.00"> </text>
<polyline fill="none" stroke="#bfbfbf" points="658.5,-1121.5 816.5,-1121.5 "/>
<text text-anchor="middle" x="737.5" y="-1109.5" font-family="Helvetica,sans-Serif" font-size="10.00"> </text>
</a>
</g>
</g>
<!-- Node8&#45;&gt;Node3 -->
<g id="edge15" class="edge">
<title>Node8&#45;&gt;Node3</title>
<path fill="none" stroke="#404040" d="M810.06,-1102.46C828.54,-1090.31 846.09,-1074.61 856.5,-1055 904.7,-964.2 1084.9,-952.28 847.5,-628 815.29,-584 784.82,-599.44 731.5,-588 688.3,-578.73 569.85,-595.12 533.5,-570 524.03,-563.46 515.72,-555.38 508.42,-546.37"/>
<polygon fill="none" stroke="#404040" points="508.36,-546.29 501.56,-543.87 501.18,-536.67 507.97,-539.09 508.36,-546.29"/>
<text text-anchor="middle" x="961" y="-960" font-family="Helvetica,sans-Serif" font-size="10.00"> &#45;head_</text>
</g>
<!-- Node8&#45;&gt;Node5 -->
<g id="edge11" class="edge">
<title>Node8&#45;&gt;Node5</title>
<path fill="none" stroke="#404040" d="M658.36,-1105.34C655.37,-1104.21 652.41,-1103.1 649.5,-1102 593.57,-1080.92 557.59,-1104.1 523.5,-1055 507.31,-1031.68 511.45,-970.42 520.37,-912.09"/>
<polygon fill="none" stroke="#404040" points="520.39,-911.94 517.38,-905.39 522.27,-900.09 525.28,-906.64 520.39,-911.94"/>
<text text-anchor="middle" x="542" y="-1018" font-family="Helvetica,sans-Serif" font-size="10.00"> &#45;head_</text>
</g>
<!-- Node8&#45;&gt;Node6 -->
<g id="edge9" class="edge">
<title>Node8&#45;&gt;Node6</title>
<path fill="none" stroke="#404040" d="M707.43,-1102.22C696.54,-1090.16 684.09,-1076.38 672.59,-1063.66"/>
<polygon fill="none" stroke="#404040" points="672.47,-1063.53 665.48,-1061.76 664.43,-1054.62 671.42,-1056.39 672.47,-1063.53"/>
<text text-anchor="middle" x="708" y="-1076" font-family="Helvetica,sans-Serif" font-size="10.00"> +next_</text>
</g>
<!-- Node9 -->
<g id="node9" class="node">
<title>Node9</title>
<g id="a_node9"><a xlink:title=" ">
<polygon fill="white" stroke="#bfbfbf" points="356.5,-992 356.5,-1049 440.5,-1049 440.5,-992 356.5,-992"/>
<text text-anchor="middle" x="398.5" y="-1037" font-family="Helvetica,sans-Serif" font-size="10.00">atomic_size_t</text>
<polyline fill="none" stroke="#bfbfbf" points="356.5,-1030 440.5,-1030 "/>
<text text-anchor="middle" x="398.5" y="-1018" font-family="Helvetica,sans-Serif" font-size="10.00"> </text>
<polyline fill="none" stroke="#bfbfbf" points="356.5,-1011 440.5,-1011 "/>
<text text-anchor="middle" x="398.5" y="-999" font-family="Helvetica,sans-Serif" font-size="10.00"> </text>
</a>
</g>
</g>
<!-- Node9&#45;&gt;Node3 -->
<g id="edge14" class="edge">
<title>Node9&#45;&gt;Node3</title>
<path fill="none" stroke="#404040" d="M387.59,-991.67C382.17,-976.39 376.22,-956.94 373.5,-939 352.77,-802.34 347.36,-763.73 373.5,-628 378.61,-601.49 386.99,-574.08 396.55,-548.12"/>
<polygon fill="none" stroke="#404040" points="396.62,-547.92 395,-540.9 400.86,-536.7 402.49,-543.73 396.62,-547.92"/>
<text text-anchor="middle" x="416" y="-781" font-family="Helvetica,sans-Serif" font-size="10.00"> &#45;num_elements_</text>
</g>
<!-- Node9&#45;&gt;Node5 -->
<g id="edge10" class="edge">
<title>Node9&#45;&gt;Node5</title>
<path fill="none" stroke="#404040" d="M400.85,-991.9C403.08,-980.06 407.34,-966.74 415.5,-957 427.5,-942.67 439.65,-951.54 453.5,-939 463.1,-930.31 472.02,-920.4 480.23,-909.89"/>
<polygon fill="none" stroke="#404040" points="480.39,-909.69 480.78,-902.49 487.58,-900.09 487.18,-907.29 480.39,-909.69"/>
<text text-anchor="middle" x="458" y="-960" font-family="Helvetica,sans-Serif" font-size="10.00"> &#45;num_elements_</text>
</g>
<!-- Node10 -->
<g id="node10" class="node">
<title>Node10</title>
<g id="a_node10"><a xlink:title=" ">
<polygon fill="white" stroke="#bfbfbf" points="717.5,-992 717.5,-1049 847.5,-1049 847.5,-992 717.5,-992"/>
<text text-anchor="middle" x="782.5" y="-1037" font-family="Helvetica,sans-Serif" font-size="10.00">condition_variable_any</text>
<polyline fill="none" stroke="#bfbfbf" points="717.5,-1030 847.5,-1030 "/>
<text text-anchor="middle" x="782.5" y="-1018" font-family="Helvetica,sans-Serif" font-size="10.00"> </text>
<polyline fill="none" stroke="#bfbfbf" points="717.5,-1011 847.5,-1011 "/>
<text text-anchor="middle" x="782.5" y="-999" font-family="Helvetica,sans-Serif" font-size="10.00"> </text>
</a>
</g>
</g>
<!-- Node10&#45;&gt;Node3 -->
<g id="edge16" class="edge">
<title>Node10&#45;&gt;Node3</title>
<path fill="none" stroke="#404040" d="M786.88,-991.73C798.81,-912.25 828.23,-685.9 786.5,-628 753.63,-582.39 721.26,-600.71 666.5,-588 608.4,-574.51 581.81,-604.98 533.5,-570 524.27,-563.32 516.12,-555.18 508.94,-546.19"/>
<polygon fill="none" stroke="#404040" points="508.93,-546.17 502.15,-543.72 501.81,-536.52 508.59,-538.97 508.93,-546.17"/>
<text text-anchor="middle" x="825.5" y="-781" font-family="Helvetica,sans-Serif" font-size="10.00"> &#45;cond_</text>
</g>
<!-- Node10&#45;&gt;Node5 -->
<g id="edge12" class="edge">
<title>Node10&#45;&gt;Node5</title>
<path fill="none" stroke="#404040" d="M754.5,-991.62C724.92,-962.16 676.75,-914.2 634.21,-871.84"/>
<polygon fill="none" stroke="#404040" points="634.01,-871.64 626.94,-870.24 625.51,-863.17 632.58,-864.57 634.01,-871.64"/>
<text text-anchor="middle" x="742.5" y="-960" font-family="Helvetica,sans-Serif" font-size="10.00"> &#45;cond_</text>
</g>
<!-- Node11 -->
<g id="node11" class="node">
<title>Node11</title>
<g id="a_node11"><a xlink:title=" ">
<polygon fill="white" stroke="#bfbfbf" points="542.5,-386 542.5,-443 616.5,-443 616.5,-386 542.5,-386"/>
<text text-anchor="middle" x="579.5" y="-431" font-family="Helvetica,sans-Serif" font-size="10.00">const size_t</text>
<polyline fill="none" stroke="#bfbfbf" points="542.5,-424 616.5,-424 "/>
<text text-anchor="middle" x="579.5" y="-412" font-family="Helvetica,sans-Serif" font-size="10.00"> </text>
<polyline fill="none" stroke="#bfbfbf" points="542.5,-405 616.5,-405 "/>
<text text-anchor="middle" x="579.5" y="-393" font-family="Helvetica,sans-Serif" font-size="10.00"> </text>
</a>
</g>
</g>
<!-- Node11&#45;&gt;Node1 -->
<g id="edge18" class="edge">
<title>Node11&#45;&gt;Node1</title>
<path fill="none" stroke="#404040" d="M579.77,-385.76C580.13,-349.23 580.78,-282.71 581.36,-223.82"/>
<polygon fill="none" stroke="#404040" points="581.36,-223.77 577.42,-217.73 581.47,-211.77 585.42,-217.81 581.36,-223.77"/>
<text text-anchor="middle" x="618.5" y="-233" font-family="Helvetica,sans-Serif" font-size="10.00"> &#45;num_threads_</text>
</g>
<!-- Node12 -->
<g id="node12" class="node">
<title>Node12</title>
<g id="a_node12"><a xlink:title=" ">
<polygon fill="white" stroke="#bfbfbf" points="634.5,-375 634.5,-454 774.5,-454 774.5,-375 634.5,-375"/>
<text text-anchor="start" x="642.5" y="-442" font-family="Helvetica,sans-Serif" font-size="10.00">vector&lt; std::shared</text>
<text text-anchor="start" x="642.5" y="-431" font-family="Helvetica,sans-Serif" font-size="10.00">_ptr&lt; mkr::threadsafe</text>
<text text-anchor="middle" x="704.5" y="-420" font-family="Helvetica,sans-Serif" font-size="10.00">_stack&lt; mkr::task &gt; &gt; &gt;</text>
<polyline fill="none" stroke="#bfbfbf" points="634.5,-413 774.5,-413 "/>
<text text-anchor="middle" x="704.5" y="-401" font-family="Helvetica,sans-Serif" font-size="10.00"> </text>
<polyline fill="none" stroke="#bfbfbf" points="634.5,-394 774.5,-394 "/>
<text text-anchor="middle" x="704.5" y="-382" font-family="Helvetica,sans-Serif" font-size="10.00"> </text>
</a>
</g>
</g>
<!-- Node12&#45;&gt;Node1 -->
<g id="edge19" class="edge">
<title>Node12&#45;&gt;Node1</title>
<path fill="none" stroke="#404040" d="M699.02,-374.73C692.78,-336.77 680.73,-277.82 660.5,-230 657.82,-223.66 654.82,-217.28 651.61,-210.93"/>
<polygon fill="none" stroke="#404040" points="651.61,-210.93 645.28,-207.48 646.03,-200.3 652.36,-203.75 651.61,-210.93"/>
<text text-anchor="middle" x="715" y="-233" font-family="Helvetica,sans-Serif" font-size="10.00"> &#45;local_task_queues_</text>
</g>
<!-- Node13 -->
<g id="node13" class="node">
<title>Node13</title>
<g id="a_node13"><a xlink:title=" ">
<polygon fill="white" stroke="#bfbfbf" points="793,-386 793,-443 870,-443 870,-386 793,-386"/>
<text text-anchor="middle" x="831.5" y="-431" font-family="Helvetica,sans-Serif" font-size="10.00">atomic_bool</text>
<polyline fill="none" stroke="#bfbfbf" points="793,-424 870,-424 "/>
<text text-anchor="middle" x="831.5" y="-412" font-family="Helvetica,sans-Serif" font-size="10.00"> </text>
<polyline fill="none" stroke="#bfbfbf" points="793,-405 870,-405 "/>
<text text-anchor="middle" x="831.5" y="-393" font-family="Helvetica,sans-Serif" font-size="10.00"> </text>
</a>
</g>
</g>
<!-- Node13&#45;&gt;Node1 -->
<g id="edge20" class="edge">
<title>Node13&#45;&gt;Node1</title>
<path fill="none" stroke="#404040" d="M828.81,-385.76C823.71,-346.81 809.4,-275.58 770.5,-230 739.51,-193.68 695.17,-163.97 657.33,-142.85"/>
<polygon fill="none" stroke="#404040" points="656.87,-142.6 649.69,-143.24 646.33,-136.85 653.52,-136.22 656.87,-142.6"/>
<text text-anchor="middle" x="803.5" y="-233" font-family="Helvetica,sans-Serif" font-size="10.00"> &#45;end_flag_</text>
</g>
<!-- Node14&#45;&gt;Node1 -->
<g id="edge21" class="edge">
<title>Node14&#45;&gt;Node1</title>
<path fill="none" stroke="#404040" d="M328.37,-259.33C334.61,-248.86 341.62,-238.94 349.5,-230 391.6,-182.22 456.82,-150.03 507.56,-130.61"/>
<polygon fill="none" stroke="#404040" points="507.57,-130.61 511.79,-124.76 518.81,-126.42 514.59,-132.26 507.57,-130.61"/>
<text text-anchor="middle" x="407" y="-233" font-family="Helvetica,sans-Serif" font-size="10.00"> &#45;worker_index_lookup_</text>
</g>
<!-- Node15&#45;&gt;Node14 -->
<g id="edge23" class="edge">
<title>Node15&#45;&gt;Node14</title>
<path fill="none" stroke="#404040" d="M53.08,-628.31C56.87,-613.56 63.34,-599.75 73.5,-588 107.3,-548.89 145.85,-594.87 195.5,-569.11"/>
<polygon fill="none" stroke="#404040" points="195.7,-568.99 198.72,-562.44 205.93,-562.71 202.91,-569.26 195.7,-568.99"/>
<text text-anchor="middle" x="116" y="-596.5" font-family="Helvetica,sans-Serif" font-size="10.00"> &#45;num_elements_</text>
</g>
<!-- Node15&#45;&gt;Node14 -->
<g id="edge26" class="edge">
<title>Node15&#45;&gt;Node14</title>
<path fill="none" stroke="orange" d="M154.28,-630.67C163.09,-616.02 172.24,-601.57 181.5,-588 187.37,-579.4 190.65,-578.62 196.5,-570 199.67,-565.33 202.82,-560.52 205.94,-555.63"/>
<polygon fill="orange" stroke="orange" points="151.25,-628.93 149.14,-639.31 157.26,-632.51 151.25,-628.93"/>
<text text-anchor="start" x="181.5" y="-602" font-family="Helvetica,sans-Serif" font-size="10.00"> &lt; std::thread::id,</text>
<text text-anchor="middle" x="224" y="-591" font-family="Helvetica,sans-Serif" font-size="10.00"> size_t &gt;</text>
</g>
<!-- Node15&#45;&gt;Node15 -->
<g id="edge25" class="edge">
<title>Node15&#45;&gt;Node15</title>
<path fill="none" stroke="#404040" d="M149.26,-813.45C159.88,-808.61 167,-798.62 167,-783.5 167,-773.81 164.08,-766.23 159.19,-760.76"/>
<polygon fill="none" stroke="#404040" points="158.97,-760.61 151.76,-760.31 149.26,-753.55 156.47,-753.84 158.97,-760.61"/>
<text text-anchor="middle" x="209.5" y="-781" font-family="Helvetica,sans-Serif" font-size="10.00"> &#45;num_elements_</text>
</g>
<!-- Node16 -->
<g id="node16" class="node">
<title>Node16</title>
<g id="a_node16"><a xlink:title=" ">
<polygon fill="white" stroke="#bfbfbf" points="888,-386 888,-443 929,-443 929,-386 888,-386"/>
<text text-anchor="middle" x="908.5" y="-431" font-family="Helvetica,sans-Serif" font-size="10.00">latch</text>
<polyline fill="none" stroke="#bfbfbf" points="888,-424 929,-424 "/>
<text text-anchor="middle" x="908.5" y="-412" font-family="Helvetica,sans-Serif" font-size="10.00"> </text>
<polyline fill="none" stroke="#bfbfbf" points="888,-405 929,-405 "/>
<text text-anchor="middle" x="908.5" y="-393" font-family="Helvetica,sans-Serif" font-size="10.00"> </text>
</a>
</g>
</g>
<!-- Node16&#45;&gt;Node1 -->
<g id="edge27" class="edge">
<title>Node16&#45;&gt;Node1</title>
<path fill="none" stroke="#404040" d="M909.65,-385.94C909.68,-353 905.39,-297.5 879.5,-259 828.63,-183.34 728.04,-143.26 658.1,-123.61"/>
<polygon fill="none" stroke="#404040" points="657.87,-123.54 651.03,-125.83 646.29,-120.4 653.13,-118.11 657.87,-123.54"/>
<text text-anchor="middle" x="891.5" y="-233" font-family="Helvetica,sans-Serif" font-size="10.00"> &#45;start_flag_</text>
</g>
</g>
</svg>
        <g id="navigator" transform="translate(0 0)" fill="#404254">
                <rect fill="#f2f5e9" fill-opacity="0.5" stroke="#606060" stroke-width=".5" x="0" y="0" width="60" height="60"/>
                <use id="zoomplus" xlink:href="#zoomPlus" x="17" y="9" onmousedown="handleZoom(evt,'in')"/>
                <use id="zoomminus" xlink:href="#zoomMin" x="42" y="9" onmousedown="handleZoom(evt,'out')"/>
                <use id="reset" xlink:href="#resetDef" x="30" y="36" onmousedown="handleReset()"/>
                <g id="arrowUp" xlink:href="#dirArrow" transform="translate(30 24)" onmousedown="handlePan(0,-1)">
                  <use xlink:href="#rim" fill="#404040">
                        <set attributeName="fill" to="#808080" begin="arrowUp.mouseover" end="arrowUp.mouseout"/>
                  </use>
                  <path fill="none" stroke="white" stroke-width="1.5" d="M0,-3.0v7 M-2.5,-0.5L0,-3.0L2.5,-0.5"/>
                </g>
                <g id="arrowRight" xlink:href="#dirArrow" transform="rotate(90) translate(36 -43)" onmousedown="handlePan(1,0)">
                  <use xlink:href="#rim" fill="#404040">
                        <set attributeName="fill" to="#808080" begin="arrowRight.mouseover" end="arrowRight.mouseout"/>
                  </use>
                  <path fill="none" stroke="white" stroke-width="1.5" d="M0,-3.0v7 M-2.5,-0.5L0,-3.0L2.5,-0.5"/>
                </g>
                <g id="arrowDown" xlink:href="#dirArrow" transform="rotate(180) translate(-30 -48)" onmousedown="handlePan(0,1)">
                  <use xlink:href="#rim" fill="#404040">
                        <set attributeName="fill" to="#808080" begin="arrowDown.mouseover" end="arrowDown.mouseout"/>
                  </use>
                  <path fill="none" stroke="white" stroke-width="1.5" d="M0,-3.0v7 M-2.5,-0.5L0,-3.0L2.5,-0.5"/>
                </g>
                <g id="arrowLeft" xlink:href="#dirArrow" transform="rotate(270) translate(-36 17)" onmousedown="handlePan(-1,0)">
                  <use xlink:href="#rim" fill="#404040">
                        <set attributeName="fill" to="#808080" begin="arrowLeft.mouseover" end="arrowLeft.mouseout"/>
                  </use>
                  <path fill="none" stroke="white" stroke-width="1.5" d="M0,-3.0v7 M-2.5,-0.5L0,-3.0L2.5,-0.5"/>
                </g>
        </g>
        <svg viewBox="0 0 15 15" width="100%" height="30px" preserveAspectRatio="xMaxYMin meet">
         <g id="arrow_out" transform="scale(0.3 0.3)">
          <a xlink:href="classmkr_1_1thread__pool__coll__graph_org.svg" target="_base">
           <rect id="button" ry="5" rx="5" y="6" x="6" height="38" width="38"
                fill="#f2f5e9" fill-opacity="0.5" stroke="#606060" stroke-width="1.0"/>
           <path id="arrow"
             d="M 11.500037,31.436501 C 11.940474,20.09759 22.043105,11.32322 32.158766,21.979434 L 37.068811,17.246167 C 37.068811,17.246167 37.088388,32 37.088388,32 L 22.160133,31.978069 C 22.160133,31.978069 26.997745,27.140456 26.997745,27.140456 C 18.528582,18.264221 13.291696,25.230495 11.500037,31.436501 z"
             style="fill:#404040;"/>
          </a>
         </g>
        </svg>
</svg>
