<?xml version="1.0" encoding="UTF-8" standalone="no"?>
<!DOCTYPE svg PUBLIC "-//W3C//DTD SVG 1.1//EN"
 "http://www.w3.org/Graphics/SVG/1.1/DTD/svg11.dtd">
<!-- Generated by graphviz version 2.43.0 (0)
 -->
<!-- Title: mkr::task::templated_wrapper&lt; Callable &gt; Pages: 1 -->
<svg width="214pt" height="281pt"
 viewBox="0.00 0.00 214.00 281.00" xmlns="http://www.w3.org/2000/svg" xmlns:xlink="http://www.w3.org/1999/xlink">
<g id="graph0" class="graph" transform="scale(1 1) rotate(0) translate(4 277)">
<title>mkr::task::templated_wrapper&lt; Callable &gt;</title>
<polygon fill="white" stroke="transparent" points="-4,4 -4,-277 210,-277 210,4 -4,4"/>
<!-- Node1 -->
<g id="node1" class="node">
<title>Node1</title>
<g id="a_node1"><a xlink:title=" ">
<polygon fill="#bfbfbf" stroke="black" points="52.5,-0.5 52.5,-134.5 191.5,-134.5 191.5,-0.5 52.5,-0.5"/>
<text text-anchor="start" x="60.5" y="-122.5" font-family="Helvetica,sans-Serif" font-size="10.00">mkr::task::templated</text>
<text text-anchor="middle" x="122" y="-111.5" font-family="Helvetica,sans-Serif" font-size="10.00">_wrapper&lt; Callable &gt;</text>
<polyline fill="none" stroke="black" points="52.5,-104.5 191.5,-104.5 "/>
<text text-anchor="middle" x="122" y="-92.5" font-family="Helvetica,sans-Serif" font-size="10.00"> </text>
<polyline fill="none" stroke="black" points="52.5,-85.5 191.5,-85.5 "/>
<text text-anchor="start" x="60.5" y="-73.5" font-family="Helvetica,sans-Serif" font-size="10.00">+ templated_wrapper()</text>
<text text-anchor="start" x="60.5" y="-62.5" font-family="Helvetica,sans-Serif" font-size="10.00">+ ~templated_wrapper()</text>
<text text-anchor="start" x="60.5" y="-51.5" font-family="Helvetica,sans-Serif" font-size="10.00">+ operator()()</text>
<text text-anchor="start" x="60.5" y="-40.5" font-family="Helvetica,sans-Serif" font-size="10.00">+ templated_wrapper()</text>
<text text-anchor="start" x="60.5" y="-29.5" font-family="Helvetica,sans-Serif" font-size="10.00">+ operator=()</text>
<text text-anchor="start" x="60.5" y="-18.5" font-family="Helvetica,sans-Serif" font-size="10.00">+ templated_wrapper()</text>
<text text-anchor="start" x="60.5" y="-7.5" font-family="Helvetica,sans-Serif" font-size="10.00">+ operator=()</text>
</a>
</g>
</g>
<!-- Node2 -->
<g id="node2" class="node">
<title>Node2</title>
<g id="a_node2"><a xlink:href="classmkr_1_1task_1_1wrapper__interface.html" target="_top" xlink:title=" ">
<polygon fill="white" stroke="black" points="0,-182.5 0,-272.5 132,-272.5 132,-182.5 0,-182.5"/>
<text text-anchor="start" x="8" y="-260.5" font-family="Helvetica,sans-Serif" font-size="10.00">mkr::task::wrapper</text>
<text text-anchor="middle" x="66" y="-249.5" font-family="Helvetica,sans-Serif" font-size="10.00">_interface</text>
<polyline fill="none" stroke="black" points="0,-242.5 132,-242.5 "/>
<text text-anchor="middle" x="66" y="-230.5" font-family="Helvetica,sans-Serif" font-size="10.00"> </text>
<polyline fill="none" stroke="black" points="0,-223.5 132,-223.5 "/>
<text text-anchor="start" x="8" y="-211.5" font-family="Helvetica,sans-Serif" font-size="10.00">+ wrapper_interface()</text>
<text text-anchor="start" x="8" y="-200.5" font-family="Helvetica,sans-Serif" font-size="10.00">+ ~wrapper_interface()</text>
<text text-anchor="start" x="8" y="-189.5" font-family="Helvetica,sans-Serif" font-size="10.00">+ operator()()</text>
</a>
</g>
</g>
<!-- Node2&#45;&gt;Node1 -->
<g id="edge1" class="edge">
<title>Node2&#45;&gt;Node1</title>
<path fill="none" stroke="midnightblue" d="M85,-172.88C89.35,-160.62 94.02,-147.45 98.52,-134.74"/>
<polygon fill="none" stroke="midnightblue" points="81.64,-171.89 81.6,-182.49 88.24,-174.23 81.64,-171.89"/>
</g>
<!-- Node3 -->
<g id="node3" class="node">
<title>Node3</title>
<g id="a_node3"><a xlink:title=" ">
<polygon fill="white" stroke="#bfbfbf" points="150,-199 150,-256 206,-256 206,-199 150,-199"/>
<text text-anchor="middle" x="178" y="-244" font-family="Helvetica,sans-Serif" font-size="10.00">Callable</text>
<polyline fill="none" stroke="#bfbfbf" points="150,-237 206,-237 "/>
<text text-anchor="middle" x="178" y="-225" font-family="Helvetica,sans-Serif" font-size="10.00"> </text>
<polyline fill="none" stroke="#bfbfbf" points="150,-218 206,-218 "/>
<text text-anchor="middle" x="178" y="-206" font-family="Helvetica,sans-Serif" font-size="10.00"> </text>
</a>
</g>
</g>
<!-- Node3&#45;&gt;Node1 -->
<g id="edge2" class="edge">
<title>Node3&#45;&gt;Node1</title>
<path fill="none" stroke="#404040" d="M168.25,-198.98C163,-184.19 156.25,-165.14 149.54,-146.2"/>
<polygon fill="none" stroke="#404040" points="149.5,-146.08 143.72,-141.76 145.49,-134.77 151.26,-139.09 149.5,-146.08"/>
<text text-anchor="middle" x="172" y="-156" font-family="Helvetica,sans-Serif" font-size="10.00"> &#45;func_</text>
</g>
</g>
</svg>
