<?xml version="1.0" encoding="UTF-8" standalone="no"?>
<!DOCTYPE svg PUBLIC "-//W3C//DTD SVG 1.1//EN"
 "http://www.w3.org/Graphics/SVG/1.1/DTD/svg11.dtd">
<!-- Generated by graphviz version 2.43.0 (0)
 -->
<!-- Title: mkr::is_lesser&lt; T &gt; Pages: 1 -->
<svg width="115pt" height="198pt"
 viewBox="0.00 0.00 115.00 198.00" xmlns="http://www.w3.org/2000/svg" xmlns:xlink="http://www.w3.org/1999/xlink">

<svg id="main" version="1.1" xmlns="http://www.w3.org/2000/svg" xmlns:xlink="http://www.w3.org/1999/xlink" xml:space="preserve" onload="init(evt)">
<style type="text/css"><![CDATA[
.node, .edge {opacity: 0.7;}
.node.selected, .edge.selected {opacity: 1;}
.edge:hover path { stroke: red; }
.edge:hover polygon { stroke: red; fill: red; }
]]></style>
<script type="application/ecmascript" xlink:href="svg.min.js"/>
<svg id="graph" class="graph">
<g id="graph0" class="graph" transform="scale(1 1) rotate(0) translate(4 194)">
<title>mkr::is_lesser&lt; T &gt;</title>
<!-- Node1 -->
<g id="Node000001" class="node">
<title>Node1</title>
<g id="a_Node000001"><a xlink:title=" ">
<polygon fill="#999999" stroke="transparent" points="107,-94 0,-94 0,0 107,0 107,-94"/>
<text text-anchor="start" x="5.5" y="-82" font-family="Helvetica,sans-Serif" font-size="10.00">mkr::is_lesser&lt; T &gt;</text>
<text text-anchor="start" x="52" y="-67" font-family="Helvetica,sans-Serif" font-size="10.00"> </text>
<text text-anchor="start" x="11.5" y="-52" font-family="Helvetica,sans-Serif" font-size="10.00">+</text>
<text text-anchor="start" x="31.5" y="-52" font-family="Helvetica,sans-Serif" font-size="10.00">is_lesser()</text>
<text text-anchor="start" x="11.5" y="-37" font-family="Helvetica,sans-Serif" font-size="10.00">+</text>
<text text-anchor="start" x="31.5" y="-37" font-family="Helvetica,sans-Serif" font-size="10.00">is_lesser()</text>
<text text-anchor="start" x="11.5" y="-22" font-family="Helvetica,sans-Serif" font-size="10.00">+</text>
<text text-anchor="start" x="31.5" y="-22" font-family="Helvetica,sans-Serif" font-size="10.00">operator()()</text>
<text text-anchor="start" x="11.5" y="-7" font-family="Helvetica,sans-Serif" font-size="10.00">+</text>
<text text-anchor="start" x="31.5" y="-7" font-family="Helvetica,sans-Serif" font-size="10.00">operator()()</text>
<polygon fill="#666666" stroke="#666666" points="0.5,-77 0.5,-77 107.5,-77 107.5,-77 0.5,-77"/>
<polygon fill="#666666" stroke="#666666" points="0.5,-62 0.5,-62 107.5,-62 107.5,-62 0.5,-62"/>
<polygon fill="none" stroke="#666666" points="0,0 0,-94 107,-94 107,0 0,0"/>
</a>
</g>
</g>
<!-- Node2 -->
<g id="Node000002" class="node">
<title>Node2</title>
<g id="a_Node000002"><a xlink:title=" ">
<polygon fill="white" stroke="transparent" points="76.5,-190 30.5,-190 30.5,-141 76.5,-141 76.5,-190"/>
<text text-anchor="start" x="35.5" y="-177.5" font-family="Helvetica,sans-Serif" font-size="10.00">const T</text>
<text text-anchor="start" x="51.5" y="-162.5" font-family="Helvetica,sans-Serif" font-size="10.00"> </text>
<text text-anchor="start" x="51.5" y="-147.5" font-family="Helvetica,sans-Serif" font-size="10.00"> </text>
<polygon fill="#666666" stroke="#666666" points="30.5,-172.5 30.5,-172.5 76.5,-172.5 76.5,-172.5 30.5,-172.5"/>
<polygon fill="#666666" stroke="#666666" points="30.5,-157.5 30.5,-157.5 76.5,-157.5 76.5,-157.5 30.5,-157.5"/>
<polygon fill="none" stroke="#666666" points="30.5,-141 30.5,-190 76.5,-190 76.5,-141 30.5,-141"/>
</a>
</g>
</g>
<!-- Node2&#45;&gt;Node1 -->
<g id="edge1_Node000001_Node000002" class="edge">
<title>Node2&#45;&gt;Node1</title>
<g id="a_edge1_Node000001_Node000002"><a xlink:title=" ">
<path fill="none" stroke="#63b8ff" d="M53.5,-140.92C53.5,-130.85 53.5,-118.6 53.5,-106.35"/>
<polygon fill="none" stroke="#63b8ff" points="53.5,-106.17 49.5,-100.17 53.5,-94.17 57.5,-100.17 53.5,-106.17"/>
</a>
</g>
<text text-anchor="middle" x="73" y="-115" font-family="Helvetica,sans-Serif" font-size="10.00" fill="grey"> &#45;value_</text>
</g>
</g>
</svg>
</svg>

<style type='text/css'>
<![CDATA[
[data-mouse-over-selected='false'] { opacity: 0.7; }
[data-mouse-over-selected='true']  { opacity: 1.0; }
]]>
</style>
<script type="application/ecmascript"><![CDATA[
document.addEventListener('DOMContentLoaded', (event) => {
  highlightEdges();
  highlightAdjacentNodes();
});
]]></script>
</svg>
