<?xml version="1.0" encoding="UTF-8" standalone="no"?>
<!DOCTYPE svg PUBLIC "-//W3C//DTD SVG 1.1//EN"
 "http://www.w3.org/Graphics/SVG/1.1/DTD/svg11.dtd">
<!-- Generated by graphviz version 2.43.0 (0)
 -->
<!-- Title: mkr::task::templated_wrapper&lt; Callable &gt; Pages: 1 -->
<svg width="202pt" height="295pt"
 viewBox="0.00 0.00 202.00 295.00" xmlns="http://www.w3.org/2000/svg" xmlns:xlink="http://www.w3.org/1999/xlink">

<svg id="main" version="1.1" xmlns="http://www.w3.org/2000/svg" xmlns:xlink="http://www.w3.org/1999/xlink" xml:space="preserve" onload="init(evt)">
<style type="text/css"><![CDATA[
.node, .edge {opacity: 0.7;}
.node.selected, .edge.selected {opacity: 1;}
.edge:hover path { stroke: red; }
.edge:hover polygon { stroke: red; fill: red; }
]]></style>
<script type="application/ecmascript" xlink:href="svg.min.js"/>
<svg id="graph" class="graph">
<g id="graph0" class="graph" transform="scale(1 1) rotate(0) translate(4 291)">
<title>mkr::task::templated_wrapper&lt; Callable &gt;</title>
<!-- Node1 -->
<g id="Node000001" class="node">
<title>Node1</title>
<g id="a_Node000001"><a xlink:title=" ">
<polygon fill="#999999" stroke="transparent" points="182.5,-150 49.5,-150 49.5,0 182.5,0 182.5,-150"/>
<text text-anchor="start" x="62.5" y="-138" font-family="Helvetica,sans-Serif" font-size="10.00">mkr::task::templated</text>
<text text-anchor="start" x="62.5" y="-127" font-family="Helvetica,sans-Serif" font-size="10.00">_wrapper&lt; Callable &gt;</text>
<text text-anchor="start" x="114.5" y="-112" font-family="Helvetica,sans-Serif" font-size="10.00"> </text>
<text text-anchor="start" x="54" y="-97" font-family="Helvetica,sans-Serif" font-size="10.00">+</text>
<text text-anchor="start" x="67" y="-97" font-family="Helvetica,sans-Serif" font-size="10.00">templated_wrapper()</text>
<text text-anchor="start" x="54" y="-82" font-family="Helvetica,sans-Serif" font-size="10.00">+</text>
<text text-anchor="start" x="67" y="-82" font-family="Helvetica,sans-Serif" font-size="10.00">~templated_wrapper()</text>
<text text-anchor="start" x="54" y="-67" font-family="Helvetica,sans-Serif" font-size="10.00">+</text>
<text text-anchor="start" x="67" y="-67" font-family="Helvetica,sans-Serif" font-size="10.00">operator()()</text>
<text text-anchor="start" x="54" y="-52" font-family="Helvetica,sans-Serif" font-size="10.00">+</text>
<text text-anchor="start" x="67" y="-52" font-family="Helvetica,sans-Serif" font-size="10.00">templated_wrapper()</text>
<text text-anchor="start" x="54" y="-37" font-family="Helvetica,sans-Serif" font-size="10.00">+</text>
<text text-anchor="start" x="67" y="-37" font-family="Helvetica,sans-Serif" font-size="10.00">operator=()</text>
<text text-anchor="start" x="54" y="-22" font-family="Helvetica,sans-Serif" font-size="10.00">+</text>
<text text-anchor="start" x="67" y="-22" font-family="Helvetica,sans-Serif" font-size="10.00">templated_wrapper()</text>
<text text-anchor="start" x="54" y="-7" font-family="Helvetica,sans-Serif" font-size="10.00">+</text>
<text text-anchor="start" x="67" y="-7" font-family="Helvetica,sans-Serif" font-size="10.00">operator=()</text>
<polygon fill="#666666" stroke="#666666" points="50,-122 50,-122 183,-122 183,-122 50,-122"/>
<polygon fill="#666666" stroke="#666666" points="50,-107 50,-107 183,-107 183,-107 50,-107"/>
<polygon fill="none" stroke="#666666" points="49.5,0 49.5,-150 182.5,-150 182.5,0 49.5,0"/>
</a>
</g>
</g>
<!-- Node2 -->
<g id="Node000002" class="node">
<title>Node2</title>
<g id="a_Node000002"><a xlink:href="classmkr_1_1task_1_1wrapper__interface.html" target="_top" xlink:title=" ">
<polygon fill="white" stroke="transparent" points="126,-287 0,-287 0,-197 126,-197 126,-287"/>
<text text-anchor="start" x="16.5" y="-275" font-family="Helvetica,sans-Serif" font-size="10.00">mkr::task::wrapper</text>
<text text-anchor="start" x="38.5" y="-264" font-family="Helvetica,sans-Serif" font-size="10.00">_interface</text>
<text text-anchor="start" x="61" y="-249" font-family="Helvetica,sans-Serif" font-size="10.00"> </text>
<text text-anchor="start" x="4" y="-234" font-family="Helvetica,sans-Serif" font-size="10.00">+</text>
<text text-anchor="start" x="17" y="-234" font-family="Helvetica,sans-Serif" font-size="10.00">wrapper_interface()</text>
<text text-anchor="start" x="4" y="-219" font-family="Helvetica,sans-Serif" font-size="10.00">+</text>
<text text-anchor="start" x="17" y="-219" font-family="Helvetica,sans-Serif" font-size="10.00">~wrapper_interface()</text>
<text text-anchor="start" x="4" y="-204" font-family="Helvetica,sans-Serif" font-size="10.00">+</text>
<text text-anchor="start" x="17" y="-204" font-family="Helvetica,sans-Serif" font-size="10.00">operator()()</text>
<polygon fill="#666666" stroke="#666666" points="0,-259 0,-259 126,-259 126,-259 0,-259"/>
<polygon fill="#666666" stroke="#666666" points="0,-244 0,-244 126,-244 126,-244 0,-244"/>
<polygon fill="none" stroke="#666666" points="0,-197 0,-287 126,-287 126,-197 0,-197"/>
</a>
</g>
</g>
<!-- Node2&#45;&gt;Node1 -->
<g id="edge1_Node000001_Node000002" class="edge">
<title>Node2&#45;&gt;Node1</title>
<g id="a_edge1_Node000001_Node000002"><a xlink:title=" ">
<path fill="none" stroke="#63b8ff" d="M80.3,-187.13C84.09,-175.35 88.15,-162.69 92.14,-150.28"/>
<polygon fill="none" stroke="#63b8ff" points="76.93,-186.19 77.2,-196.78 83.59,-188.33 76.93,-186.19"/>
</a>
</g>
</g>
<!-- Node3 -->
<g id="Node000003" class="node">
<title>Node3</title>
<g id="a_Node000003"><a xlink:title=" ">
<polygon fill="white" stroke="transparent" points="194,-266.5 144,-266.5 144,-217.5 194,-217.5 194,-266.5"/>
<text text-anchor="start" x="149" y="-254" font-family="Helvetica,sans-Serif" font-size="10.00">Callable</text>
<text text-anchor="start" x="167" y="-239" font-family="Helvetica,sans-Serif" font-size="10.00"> </text>
<text text-anchor="start" x="167" y="-224" font-family="Helvetica,sans-Serif" font-size="10.00"> </text>
<polygon fill="#666666" stroke="#666666" points="144,-249 144,-249 194,-249 194,-249 144,-249"/>
<polygon fill="#666666" stroke="#666666" points="144,-234 144,-234 194,-234 194,-234 144,-234"/>
<polygon fill="none" stroke="#666666" points="144,-217.5 144,-266.5 194,-266.5 194,-217.5 144,-217.5"/>
</a>
</g>
</g>
<!-- Node3&#45;&gt;Node1 -->
<g id="edge2_Node000001_Node000003" class="edge">
<title>Node3&#45;&gt;Node1</title>
<g id="a_edge2_Node000001_Node000003"><a xlink:title=" ">
<path fill="none" stroke="#63b8ff" d="M161.41,-217.36C156.6,-202.4 150.06,-182.05 143.45,-161.45"/>
<polygon fill="none" stroke="#63b8ff" points="143.44,-161.44 137.8,-156.95 139.77,-150.01 145.42,-154.5 143.44,-161.44"/>
</a>
</g>
<text text-anchor="middle" x="165" y="-171" font-family="Helvetica,sans-Serif" font-size="10.00" fill="grey"> &#45;func_</text>
</g>
</g>
</svg>
</svg>

<style type='text/css'>
<![CDATA[
[data-mouse-over-selected='false'] { opacity: 0.7; }
[data-mouse-over-selected='true']  { opacity: 1.0; }
]]>
</style>
<script type="application/ecmascript"><![CDATA[
document.addEventListener('DOMContentLoaded', (event) => {
  highlightEdges();
  highlightAdjacentNodes();
});
]]></script>
</svg>
