<?xml version="1.0" encoding="UTF-8" standalone="no"?>
<!DOCTYPE svg PUBLIC "-//W3C//DTD SVG 1.1//EN"
 "http://www.w3.org/Graphics/SVG/1.1/DTD/svg11.dtd">
<!-- Generated by graphviz version 2.43.0 (0)
 -->
<!-- Title: mkr::threadsafe_list&lt; T &gt; Pages: 1 -->
<svg width="402pt" height="665pt"
 viewBox="0.00 0.00 402.00 665.00" xmlns="http://www.w3.org/2000/svg" xmlns:xlink="http://www.w3.org/1999/xlink">
<g id="graph0" class="graph" transform="scale(1 1) rotate(0) translate(4 661)">
<title>mkr::threadsafe_list&lt; T &gt;</title>
<!-- Node1 -->
<g id="Node000001" class="node">
<title>Node1</title>
<g id="a_Node000001"><a xlink:title=" ">
<polygon fill="#999999" stroke="transparent" points="248,-439 108,-439 108,0 248,0 248,-439"/>
<text text-anchor="start" x="114.5" y="-426.5" font-family="Helvetica,sans-Serif" font-size="10.00">mkr::threadsafe_list&lt; T &gt;</text>
<text text-anchor="start" x="176" y="-411.5" font-family="Helvetica,sans-Serif" font-size="10.00"> </text>
<text text-anchor="start" x="112" y="-396.5" font-family="Helvetica,sans-Serif" font-size="10.00">+</text>
<text text-anchor="start" x="125" y="-396.5" font-family="Helvetica,sans-Serif" font-size="10.00">threadsafe_list()</text>
<text text-anchor="start" x="112" y="-381.5" font-family="Helvetica,sans-Serif" font-size="10.00">+</text>
<text text-anchor="start" x="125" y="-381.5" font-family="Helvetica,sans-Serif" font-size="10.00">threadsafe_list()</text>
<text text-anchor="start" x="112" y="-366.5" font-family="Helvetica,sans-Serif" font-size="10.00">+</text>
<text text-anchor="start" x="125" y="-366.5" font-family="Helvetica,sans-Serif" font-size="10.00">threadsafe_list()</text>
<text text-anchor="start" x="112" y="-351.5" font-family="Helvetica,sans-Serif" font-size="10.00">+</text>
<text text-anchor="start" x="125" y="-351.5" font-family="Helvetica,sans-Serif" font-size="10.00">~threadsafe_list()</text>
<text text-anchor="start" x="112" y="-336.5" font-family="Helvetica,sans-Serif" font-size="10.00">+</text>
<text text-anchor="start" x="125" y="-336.5" font-family="Helvetica,sans-Serif" font-size="10.00">operator=()</text>
<text text-anchor="start" x="112" y="-321.5" font-family="Helvetica,sans-Serif" font-size="10.00">+</text>
<text text-anchor="start" x="125" y="-321.5" font-family="Helvetica,sans-Serif" font-size="10.00">operator=()</text>
<text text-anchor="start" x="112" y="-306.5" font-family="Helvetica,sans-Serif" font-size="10.00">+</text>
<text text-anchor="start" x="125" y="-306.5" font-family="Helvetica,sans-Serif" font-size="10.00">match_any()</text>
<text text-anchor="start" x="112" y="-291.5" font-family="Helvetica,sans-Serif" font-size="10.00">+</text>
<text text-anchor="start" x="125" y="-291.5" font-family="Helvetica,sans-Serif" font-size="10.00">match_none()</text>
<text text-anchor="start" x="112" y="-276.5" font-family="Helvetica,sans-Serif" font-size="10.00">+</text>
<text text-anchor="start" x="125" y="-276.5" font-family="Helvetica,sans-Serif" font-size="10.00">push_front()</text>
<text text-anchor="start" x="112" y="-261.5" font-family="Helvetica,sans-Serif" font-size="10.00">+</text>
<text text-anchor="start" x="125" y="-261.5" font-family="Helvetica,sans-Serif" font-size="10.00">push_front()</text>
<text text-anchor="start" x="112" y="-246.5" font-family="Helvetica,sans-Serif" font-size="10.00">+</text>
<text text-anchor="start" x="125" y="-246.5" font-family="Helvetica,sans-Serif" font-size="10.00">remove_if()</text>
<text text-anchor="start" x="112" y="-231.5" font-family="Helvetica,sans-Serif" font-size="10.00">+</text>
<text text-anchor="start" x="125" y="-231.5" font-family="Helvetica,sans-Serif" font-size="10.00">replace_if()</text>
<text text-anchor="start" x="112" y="-216.5" font-family="Helvetica,sans-Serif" font-size="10.00">+</text>
<text text-anchor="start" x="125" y="-216.5" font-family="Helvetica,sans-Serif" font-size="10.00">write_each()</text>
<text text-anchor="start" x="112" y="-201.5" font-family="Helvetica,sans-Serif" font-size="10.00">+</text>
<text text-anchor="start" x="125" y="-201.5" font-family="Helvetica,sans-Serif" font-size="10.00">read_each()</text>
<text text-anchor="start" x="112" y="-186.5" font-family="Helvetica,sans-Serif" font-size="10.00">+</text>
<text text-anchor="start" x="125" y="-186.5" font-family="Helvetica,sans-Serif" font-size="10.00">find_first_if()</text>
<text text-anchor="start" x="112" y="-171.5" font-family="Helvetica,sans-Serif" font-size="10.00">+</text>
<text text-anchor="start" x="125" y="-171.5" font-family="Helvetica,sans-Serif" font-size="10.00">find_first_if()</text>
<text text-anchor="start" x="112" y="-156.5" font-family="Helvetica,sans-Serif" font-size="10.00">+</text>
<text text-anchor="start" x="125" y="-156.5" font-family="Helvetica,sans-Serif" font-size="10.00">write_and_map_first_if()</text>
<text text-anchor="start" x="112" y="-141.5" font-family="Helvetica,sans-Serif" font-size="10.00">+</text>
<text text-anchor="start" x="125" y="-141.5" font-family="Helvetica,sans-Serif" font-size="10.00">read_and_map_first_if()</text>
<text text-anchor="start" x="112" y="-126.5" font-family="Helvetica,sans-Serif" font-size="10.00">+</text>
<text text-anchor="start" x="125" y="-126.5" font-family="Helvetica,sans-Serif" font-size="10.00">write_and_map_if()</text>
<text text-anchor="start" x="112" y="-111.5" font-family="Helvetica,sans-Serif" font-size="10.00">+</text>
<text text-anchor="start" x="125" y="-111.5" font-family="Helvetica,sans-Serif" font-size="10.00">read_and_map_if()</text>
<text text-anchor="start" x="112" y="-96.5" font-family="Helvetica,sans-Serif" font-size="10.00">+</text>
<text text-anchor="start" x="125" y="-96.5" font-family="Helvetica,sans-Serif" font-size="10.00">write_and_map_each()</text>
<text text-anchor="start" x="112" y="-81.5" font-family="Helvetica,sans-Serif" font-size="10.00">+</text>
<text text-anchor="start" x="125" y="-81.5" font-family="Helvetica,sans-Serif" font-size="10.00">read_and_map_each()</text>
<text text-anchor="start" x="112" y="-66.5" font-family="Helvetica,sans-Serif" font-size="10.00">+</text>
<text text-anchor="start" x="125" y="-66.5" font-family="Helvetica,sans-Serif" font-size="10.00">clear()</text>
<text text-anchor="start" x="112" y="-51.5" font-family="Helvetica,sans-Serif" font-size="10.00">+</text>
<text text-anchor="start" x="125" y="-51.5" font-family="Helvetica,sans-Serif" font-size="10.00">empty()</text>
<text text-anchor="start" x="112" y="-36.5" font-family="Helvetica,sans-Serif" font-size="10.00">+</text>
<text text-anchor="start" x="125" y="-36.5" font-family="Helvetica,sans-Serif" font-size="10.00">size()</text>
<text text-anchor="start" x="114.5" y="-21.5" font-family="Helvetica,sans-Serif" font-size="10.00">&#45;</text>
<text text-anchor="start" x="125" y="-21.5" font-family="Helvetica,sans-Serif" font-size="10.00">do_push_front()</text>
<text text-anchor="start" x="114.5" y="-6.5" font-family="Helvetica,sans-Serif" font-size="10.00">&#45;</text>
<text text-anchor="start" x="125" y="-6.5" font-family="Helvetica,sans-Serif" font-size="10.00">do_copy_constructor()</text>
<polygon fill="#666666" stroke="#666666" points="108,-421.5 108,-421.5 248,-421.5 248,-421.5 108,-421.5"/>
<polygon fill="#666666" stroke="#666666" points="108,-406.5 108,-406.5 248,-406.5 248,-406.5 108,-406.5"/>
<polygon fill="none" stroke="#666666" points="108,0 108,-439 248,-439 248,0 108,0"/>
</a>
</g>
</g>
<!-- Node2 -->
<g id="Node000002" class="node">
<title>Node2</title>
<g id="a_Node000002"><a xlink:href="classmkr_1_1container.html" target="_top" xlink:title=" ">
<polygon fill="white" stroke="transparent" points="105.5,-550 22.5,-550 22.5,-486 105.5,-486 105.5,-550"/>
<text text-anchor="start" x="28.5" y="-538" font-family="Helvetica,sans-Serif" font-size="10.00">mkr::container</text>
<text text-anchor="start" x="62.5" y="-523" font-family="Helvetica,sans-Serif" font-size="10.00"> </text>
<text text-anchor="start" x="27" y="-508" font-family="Helvetica,sans-Serif" font-size="10.00">+</text>
<text text-anchor="start" x="40" y="-508" font-family="Helvetica,sans-Serif" font-size="10.00">container()</text>
<text text-anchor="start" x="27" y="-493" font-family="Helvetica,sans-Serif" font-size="10.00">+</text>
<text text-anchor="start" x="40" y="-493" font-family="Helvetica,sans-Serif" font-size="10.00">~container()</text>
<polygon fill="#666666" stroke="#666666" points="23,-533 23,-533 106,-533 106,-533 23,-533"/>
<polygon fill="#666666" stroke="#666666" points="23,-518 23,-518 106,-518 106,-518 23,-518"/>
<polygon fill="none" stroke="#666666" points="22.5,-486 22.5,-550 105.5,-550 105.5,-486 22.5,-486"/>
</a>
</g>
</g>
<!-- Node2&#45;&gt;Node1 -->
<g id="edge1_Node000001_Node000002" class="edge">
<title>Node2&#45;&gt;Node1</title>
<g id="a_edge1_Node000001_Node000002"><a xlink:title=" ">
<path fill="none" stroke="#63b8ff" d="M79.6,-476.42C87.34,-456.29 97.3,-430.4 107.89,-402.85"/>
<polygon fill="none" stroke="#63b8ff" points="76.31,-475.24 75.98,-485.83 82.84,-477.75 76.31,-475.24"/>
</a>
</g>
</g>
<!-- Node3 -->
<g id="Node000003" class="node">
<title>Node3</title>
<g id="a_Node000003"><a xlink:href="structmkr_1_1threadsafe__list_1_1node.html" target="_top" xlink:title=" ">
<polygon fill="white" stroke="transparent" points="232.5,-548 123.5,-548 123.5,-488 232.5,-488 232.5,-548"/>
<text text-anchor="start" x="129" y="-536" font-family="Helvetica,sans-Serif" font-size="10.00">mkr::threadsafe_list</text>
<text text-anchor="start" x="149" y="-525" font-family="Helvetica,sans-Serif" font-size="10.00">&lt; T &gt;::node</text>
<text text-anchor="start" x="176.5" y="-510" font-family="Helvetica,sans-Serif" font-size="10.00"> </text>
<text text-anchor="start" x="176.5" y="-495" font-family="Helvetica,sans-Serif" font-size="10.00"> </text>
<polygon fill="#666666" stroke="#666666" points="124,-520 124,-520 233,-520 233,-520 124,-520"/>
<polygon fill="#666666" stroke="#666666" points="124,-505 124,-505 233,-505 233,-505 124,-505"/>
<polygon fill="none" stroke="#666666" points="123.5,-488 123.5,-548 232.5,-548 232.5,-488 123.5,-488"/>
</a>
</g>
</g>
<!-- Node3&#45;&gt;Node1 -->
<g id="edge2_Node000001_Node000003" class="edge">
<title>Node3&#45;&gt;Node1</title>
<g id="a_edge2_Node000001_Node000003"><a xlink:title=" ">
<path fill="none" stroke="#63b8ff" d="M178,-487.76C178,-477.59 178,-465.24 178,-451.5"/>
<polygon fill="none" stroke="#63b8ff" points="178,-451.09 174,-445.09 178,-439.09 182,-445.09 178,-451.09"/>
</a>
</g>
<text text-anchor="middle" x="196.5" y="-460" font-family="Helvetica,sans-Serif" font-size="10.00" fill="grey"> &#45;head_</text>
</g>
<!-- Node4 -->
<g id="Node000004" class="node">
<title>Node4</title>
<g id="a_Node000004"><a xlink:title=" ">
<polygon fill="white" stroke="transparent" points="114,-651.5 0,-651.5 0,-602.5 114,-602.5 114,-651.5"/>
<text text-anchor="start" x="5" y="-639" font-family="Helvetica,sans-Serif" font-size="10.00">shared_timed_mutex</text>
<text text-anchor="start" x="55" y="-624" font-family="Helvetica,sans-Serif" font-size="10.00"> </text>
<text text-anchor="start" x="55" y="-609" font-family="Helvetica,sans-Serif" font-size="10.00"> </text>
<polygon fill="#666666" stroke="#666666" points="0,-634 0,-634 114,-634 114,-634 0,-634"/>
<polygon fill="#666666" stroke="#666666" points="0,-619 0,-619 114,-619 114,-619 0,-619"/>
<polygon fill="none" stroke="#666666" points="0,-602.5 0,-651.5 114,-651.5 114,-602.5 0,-602.5"/>
</a>
</g>
</g>
<!-- Node4&#45;&gt;Node3 -->
<g id="edge3_Node000003_Node000004" class="edge">
<title>Node4&#45;&gt;Node3</title>
<g id="a_edge3_Node000003_Node000004"><a xlink:title=" ">
<path fill="none" stroke="#63b8ff" d="M83.85,-602.25C99.13,-588.75 118.6,-571.53 135.86,-556.26"/>
<polygon fill="none" stroke="#63b8ff" points="136.2,-555.97 138.04,-549 145.19,-548.02 143.34,-554.99 136.2,-555.97"/>
</a>
</g>
<text text-anchor="middle" x="146.5" y="-571" font-family="Helvetica,sans-Serif" font-size="10.00" fill="grey"> +mutex_</text>
</g>
<!-- Node5 -->
<g id="Node000005" class="node">
<title>Node5</title>
<g id="a_Node000005"><a xlink:title=" ">
<polygon fill="white" stroke="transparent" points="223.5,-651.5 132.5,-651.5 132.5,-602.5 223.5,-602.5 223.5,-651.5"/>
<text text-anchor="start" x="138" y="-639" font-family="Helvetica,sans-Serif" font-size="10.00">shared_ptr&lt; T &gt;</text>
<text text-anchor="start" x="176.5" y="-624" font-family="Helvetica,sans-Serif" font-size="10.00"> </text>
<text text-anchor="start" x="176.5" y="-609" font-family="Helvetica,sans-Serif" font-size="10.00"> </text>
<polygon fill="#666666" stroke="#666666" points="133,-634 133,-634 224,-634 224,-634 133,-634"/>
<polygon fill="#666666" stroke="#666666" points="133,-619 133,-619 224,-619 224,-619 133,-619"/>
<polygon fill="none" stroke="#666666" points="132.5,-602.5 132.5,-651.5 223.5,-651.5 223.5,-602.5 132.5,-602.5"/>
</a>
</g>
</g>
<!-- Node5&#45;&gt;Node3 -->
<g id="edge4_Node000003_Node000005" class="edge">
<title>Node5&#45;&gt;Node3</title>
<g id="a_edge4_Node000003_Node000005"><a xlink:title=" ">
<path fill="none" stroke="#63b8ff" d="M178,-602.25C178,-589.87 178,-574.37 178,-560.12"/>
<polygon fill="none" stroke="#63b8ff" points="178,-560.02 174,-554.02 178,-548.02 182,-554.02 178,-560.02"/>
</a>
</g>
<text text-anchor="middle" x="200" y="-571" font-family="Helvetica,sans-Serif" font-size="10.00" fill="grey"> +value_</text>
</g>
<!-- Node6 -->
<g id="Node000006" class="node">
<title>Node6</title>
<g id="a_Node000006"><a xlink:title=" ">
<polygon fill="white" stroke="transparent" points="394,-657 242,-657 242,-597 394,-597 394,-657"/>
<text text-anchor="start" x="247" y="-645" font-family="Helvetica,sans-Serif" font-size="10.00">unique_ptr&lt; mkr::threadsafe</text>
<text text-anchor="start" x="287" y="-634" font-family="Helvetica,sans-Serif" font-size="10.00">_list::node &gt;</text>
<text text-anchor="start" x="316" y="-619" font-family="Helvetica,sans-Serif" font-size="10.00"> </text>
<text text-anchor="start" x="316" y="-604" font-family="Helvetica,sans-Serif" font-size="10.00"> </text>
<polygon fill="#666666" stroke="#666666" points="242,-629 242,-629 394,-629 394,-629 242,-629"/>
<polygon fill="#666666" stroke="#666666" points="242,-614 242,-614 394,-614 394,-614 242,-614"/>
<polygon fill="none" stroke="#666666" points="242,-597 242,-657 394,-657 394,-597 242,-597"/>
</a>
</g>
</g>
<!-- Node6&#45;&gt;Node3 -->
<g id="edge5_Node000003_Node000006" class="edge">
<title>Node6&#45;&gt;Node3</title>
<g id="a_edge5_Node000003_Node000006"><a xlink:title=" ">
<path fill="none" stroke="#63b8ff" d="M279.74,-596.76C263.08,-584.02 243.36,-568.96 225.75,-555.49"/>
<polygon fill="none" stroke="#63b8ff" points="225.74,-555.49 218.55,-555.02 216.21,-548.2 223.41,-548.67 225.74,-555.49"/>
</a>
</g>
<text text-anchor="middle" x="275.5" y="-571" font-family="Helvetica,sans-Serif" font-size="10.00" fill="grey"> +next_</text>
</g>
<!-- Node7 -->
<g id="Node000007" class="node">
<title>Node7</title>
<g id="a_Node000007"><a xlink:title=" ">
<polygon fill="white" stroke="transparent" points="329,-542.5 251,-542.5 251,-493.5 329,-493.5 329,-542.5"/>
<text text-anchor="start" x="256" y="-530" font-family="Helvetica,sans-Serif" font-size="10.00">atomic_size_t</text>
<text text-anchor="start" x="288" y="-515" font-family="Helvetica,sans-Serif" font-size="10.00"> </text>
<text text-anchor="start" x="288" y="-500" font-family="Helvetica,sans-Serif" font-size="10.00"> </text>
<polygon fill="#666666" stroke="#666666" points="251,-525 251,-525 329,-525 329,-525 251,-525"/>
<polygon fill="#666666" stroke="#666666" points="251,-510 251,-510 329,-510 329,-510 251,-510"/>
<polygon fill="none" stroke="#666666" points="251,-493.5 251,-542.5 329,-542.5 329,-493.5 251,-493.5"/>
</a>
</g>
</g>
<!-- Node7&#45;&gt;Node1 -->
<g id="edge6_Node000001_Node000007" class="edge">
<title>Node7&#45;&gt;Node1</title>
<g id="a_edge6_Node000001_Node000007"><a xlink:title=" ">
<path fill="none" stroke="#63b8ff" d="M281.12,-493.49C274.21,-475.19 263.88,-447.85 252.39,-417.44"/>
<polygon fill="none" stroke="#63b8ff" points="252.35,-417.34 246.49,-413.14 248.11,-406.11 253.98,-410.31 252.35,-417.34"/>
</a>
</g>
<text text-anchor="middle" x="313.5" y="-460" font-family="Helvetica,sans-Serif" font-size="10.00" fill="grey"> &#45;num_elements_</text>
</g>
</g>
</svg>
