<?xml version="1.0" encoding="UTF-8" standalone="no"?>
<!DOCTYPE svg PUBLIC "-//W3C//DTD SVG 1.1//EN"
 "http://www.w3.org/Graphics/SVG/1.1/DTD/svg11.dtd">
<!-- Generated by graphviz version 2.43.0 (0)
 -->
<!-- Title: mkr::threadsafe_queue&lt; T &gt; Pages: 1 -->
<svg width="569pt" height="474pt"
 viewBox="0.00 0.00 568.50 474.00" xmlns="http://www.w3.org/2000/svg" xmlns:xlink="http://www.w3.org/1999/xlink">
<g id="graph0" class="graph" transform="scale(1 1) rotate(0) translate(4 470)">
<title>mkr::threadsafe_queue&lt; T &gt;</title>
<polygon fill="white" stroke="transparent" points="-4,4 -4,-470 564.5,-470 564.5,4 -4,4"/>
<!-- Node1 -->
<g id="node1" class="node">
<title>Node1</title>
<g id="a_node1"><a xlink:title=" ">
<polygon fill="#bfbfbf" stroke="black" points="194.5,-0.5 194.5,-233.5 352.5,-233.5 352.5,-0.5 194.5,-0.5"/>
<text text-anchor="middle" x="273.5" y="-221.5" font-family="Helvetica,sans-Serif" font-size="10.00">mkr::threadsafe_queue&lt; T &gt;</text>
<polyline fill="none" stroke="black" points="194.5,-214.5 352.5,-214.5 "/>
<text text-anchor="middle" x="273.5" y="-202.5" font-family="Helvetica,sans-Serif" font-size="10.00"> </text>
<polyline fill="none" stroke="black" points="194.5,-195.5 352.5,-195.5 "/>
<text text-anchor="start" x="202.5" y="-183.5" font-family="Helvetica,sans-Serif" font-size="10.00">+ threadsafe_queue()</text>
<text text-anchor="start" x="202.5" y="-172.5" font-family="Helvetica,sans-Serif" font-size="10.00">+ threadsafe_queue()</text>
<text text-anchor="start" x="202.5" y="-161.5" font-family="Helvetica,sans-Serif" font-size="10.00">+ threadsafe_queue()</text>
<text text-anchor="start" x="202.5" y="-150.5" font-family="Helvetica,sans-Serif" font-size="10.00">+ ~threadsafe_queue()</text>
<text text-anchor="start" x="202.5" y="-139.5" font-family="Helvetica,sans-Serif" font-size="10.00">+ operator=()</text>
<text text-anchor="start" x="202.5" y="-128.5" font-family="Helvetica,sans-Serif" font-size="10.00">+ operator=()</text>
<text text-anchor="start" x="202.5" y="-117.5" font-family="Helvetica,sans-Serif" font-size="10.00">+ push()</text>
<text text-anchor="start" x="202.5" y="-106.5" font-family="Helvetica,sans-Serif" font-size="10.00">+ push()</text>
<text text-anchor="start" x="202.5" y="-95.5" font-family="Helvetica,sans-Serif" font-size="10.00">+ try_pop()</text>
<text text-anchor="start" x="202.5" y="-84.5" font-family="Helvetica,sans-Serif" font-size="10.00">+ wait_and_pop()</text>
<text text-anchor="start" x="202.5" y="-73.5" font-family="Helvetica,sans-Serif" font-size="10.00">+ clear()</text>
<text text-anchor="start" x="202.5" y="-62.5" font-family="Helvetica,sans-Serif" font-size="10.00">+ empty()</text>
<text text-anchor="start" x="202.5" y="-51.5" font-family="Helvetica,sans-Serif" font-size="10.00">+ size()</text>
<text text-anchor="start" x="202.5" y="-40.5" font-family="Helvetica,sans-Serif" font-size="10.00">&#45; get_tail()</text>
<text text-anchor="start" x="202.5" y="-29.5" font-family="Helvetica,sans-Serif" font-size="10.00">&#45; get_tail()</text>
<text text-anchor="start" x="202.5" y="-18.5" font-family="Helvetica,sans-Serif" font-size="10.00">&#45; do_push()</text>
<text text-anchor="start" x="202.5" y="-7.5" font-family="Helvetica,sans-Serif" font-size="10.00">&#45; do_pop()</text>
</a>
</g>
</g>
<!-- Node1&#45;&gt;Node1 -->
<g id="edge2" class="edge">
<title>Node1&#45;&gt;Node1</title>
<path fill="none" stroke="#404040" d="M352.66,-140.29C363.37,-136.38 370.5,-128.62 370.5,-117 370.5,-109.92 367.85,-104.27 363.36,-100.05"/>
<polygon fill="none" stroke="#404040" points="362.99,-99.83 355.79,-100.21 352.66,-93.71 359.86,-93.33 362.99,-99.83"/>
<text text-anchor="middle" x="403" y="-114.5" font-family="Helvetica,sans-Serif" font-size="10.00"> &#45;tail_mutex_</text>
</g>
<!-- Node2 -->
<g id="node2" class="node">
<title>Node2</title>
<g id="a_node2"><a xlink:href="classmkr_1_1container.html" target="_top" xlink:title=" ">
<polygon fill="white" stroke="black" points="0,-281.5 0,-349.5 89,-349.5 89,-281.5 0,-281.5"/>
<text text-anchor="middle" x="44.5" y="-337.5" font-family="Helvetica,sans-Serif" font-size="10.00">mkr::container</text>
<polyline fill="none" stroke="black" points="0,-330.5 89,-330.5 "/>
<text text-anchor="middle" x="44.5" y="-318.5" font-family="Helvetica,sans-Serif" font-size="10.00"> </text>
<polyline fill="none" stroke="black" points="0,-311.5 89,-311.5 "/>
<text text-anchor="start" x="8" y="-299.5" font-family="Helvetica,sans-Serif" font-size="10.00">+ container()</text>
<text text-anchor="start" x="8" y="-288.5" font-family="Helvetica,sans-Serif" font-size="10.00">+ ~container()</text>
</a>
</g>
</g>
<!-- Node2&#45;&gt;Node1 -->
<g id="edge1" class="edge">
<title>Node2&#45;&gt;Node1</title>
<path fill="none" stroke="midnightblue" d="M90.8,-274.77C120.49,-249.3 159.79,-215.57 194.33,-185.93"/>
<polygon fill="none" stroke="midnightblue" points="88.4,-272.22 83.09,-281.39 92.96,-277.53 88.4,-272.22"/>
</g>
<!-- Node3 -->
<g id="node3" class="node">
<title>Node3</title>
<g id="a_node3"><a xlink:href="structmkr_1_1threadsafe__queue_1_1node.html" target="_top" xlink:title=" ">
<polygon fill="white" stroke="black" points="107.5,-281.5 107.5,-349.5 237.5,-349.5 237.5,-281.5 107.5,-281.5"/>
<text text-anchor="start" x="115.5" y="-337.5" font-family="Helvetica,sans-Serif" font-size="10.00">mkr::threadsafe_queue</text>
<text text-anchor="middle" x="172.5" y="-326.5" font-family="Helvetica,sans-Serif" font-size="10.00">&lt; T &gt;::node</text>
<polyline fill="none" stroke="black" points="107.5,-319.5 237.5,-319.5 "/>
<text text-anchor="middle" x="172.5" y="-307.5" font-family="Helvetica,sans-Serif" font-size="10.00"> </text>
<polyline fill="none" stroke="black" points="107.5,-300.5 237.5,-300.5 "/>
<text text-anchor="start" x="115.5" y="-288.5" font-family="Helvetica,sans-Serif" font-size="10.00">+ copy()</text>
</a>
</g>
</g>
<!-- Node3&#45;&gt;Node1 -->
<g id="edge3" class="edge">
<title>Node3&#45;&gt;Node1</title>
<path fill="none" stroke="#404040" d="M189.63,-281.17C195.14,-270.45 201.6,-257.88 208.46,-244.54"/>
<polygon fill="none" stroke="#404040" points="208.55,-244.37 207.73,-237.21 214.03,-233.7 214.85,-240.86 208.55,-244.37"/>
<text text-anchor="middle" x="216.5" y="-255" font-family="Helvetica,sans-Serif" font-size="10.00"> &#45;tail_</text>
</g>
<!-- Node4 -->
<g id="node4" class="node">
<title>Node4</title>
<g id="a_node4"><a xlink:title=" ">
<polygon fill="white" stroke="#bfbfbf" points="79,-403 79,-460 176,-460 176,-403 79,-403"/>
<text text-anchor="middle" x="127.5" y="-448" font-family="Helvetica,sans-Serif" font-size="10.00">shared_ptr&lt; T &gt;</text>
<polyline fill="none" stroke="#bfbfbf" points="79,-441 176,-441 "/>
<text text-anchor="middle" x="127.5" y="-429" font-family="Helvetica,sans-Serif" font-size="10.00"> </text>
<polyline fill="none" stroke="#bfbfbf" points="79,-422 176,-422 "/>
<text text-anchor="middle" x="127.5" y="-410" font-family="Helvetica,sans-Serif" font-size="10.00"> </text>
</a>
</g>
</g>
<!-- Node4&#45;&gt;Node3 -->
<g id="edge4" class="edge">
<title>Node4&#45;&gt;Node3</title>
<path fill="none" stroke="#404040" d="M131.11,-402.82C133.1,-391.74 136.1,-379.01 140.5,-368 141.5,-365.5 142.62,-362.98 143.83,-360.48"/>
<polygon fill="none" stroke="#404040" points="143.93,-360.28 143.21,-353.1 149.56,-349.68 150.28,-356.85 143.93,-360.28"/>
<text text-anchor="middle" x="162.5" y="-371" font-family="Helvetica,sans-Serif" font-size="10.00"> +value_</text>
</g>
<!-- Node5 -->
<g id="node5" class="node">
<title>Node5</title>
<g id="a_node5"><a xlink:title=" ">
<polygon fill="white" stroke="#bfbfbf" points="194.5,-397.5 194.5,-465.5 352.5,-465.5 352.5,-397.5 194.5,-397.5"/>
<text text-anchor="start" x="202.5" y="-453.5" font-family="Helvetica,sans-Serif" font-size="10.00">unique_ptr&lt; mkr::threadsafe</text>
<text text-anchor="middle" x="273.5" y="-442.5" font-family="Helvetica,sans-Serif" font-size="10.00">_queue::node &gt;</text>
<polyline fill="none" stroke="#bfbfbf" points="194.5,-435.5 352.5,-435.5 "/>
<text text-anchor="middle" x="273.5" y="-423.5" font-family="Helvetica,sans-Serif" font-size="10.00"> </text>
<polyline fill="none" stroke="#bfbfbf" points="194.5,-416.5 352.5,-416.5 "/>
<text text-anchor="middle" x="273.5" y="-404.5" font-family="Helvetica,sans-Serif" font-size="10.00"> </text>
</a>
</g>
</g>
<!-- Node5&#45;&gt;Node1 -->
<g id="edge7" class="edge">
<title>Node5&#45;&gt;Node1</title>
<path fill="none" stroke="#404040" d="M273.5,-397.35C273.5,-361.13 273.5,-300.88 273.5,-245.58"/>
<polygon fill="none" stroke="#404040" points="273.5,-245.5 269.5,-239.5 273.5,-233.5 277.5,-239.5 273.5,-245.5"/>
<text text-anchor="middle" x="292" y="-313" font-family="Helvetica,sans-Serif" font-size="10.00"> &#45;head_</text>
</g>
<!-- Node5&#45;&gt;Node3 -->
<g id="edge5" class="edge">
<title>Node5&#45;&gt;Node3</title>
<path fill="none" stroke="#404040" d="M237.99,-397.4C232,-391.42 225.96,-385.13 220.5,-379 215,-372.82 209.42,-366.07 204.1,-359.37"/>
<polygon fill="none" stroke="#404040" points="203.91,-359.13 197.07,-356.85 196.55,-349.66 203.39,-351.94 203.91,-359.13"/>
<text text-anchor="middle" x="240" y="-371" font-family="Helvetica,sans-Serif" font-size="10.00"> +next_</text>
</g>
<!-- Node6 -->
<g id="node6" class="node">
<title>Node6</title>
<g id="a_node6"><a xlink:title=" ">
<polygon fill="white" stroke="#bfbfbf" points="328.5,-287 328.5,-344 412.5,-344 412.5,-287 328.5,-287"/>
<text text-anchor="middle" x="370.5" y="-332" font-family="Helvetica,sans-Serif" font-size="10.00">atomic_size_t</text>
<polyline fill="none" stroke="#bfbfbf" points="328.5,-325 412.5,-325 "/>
<text text-anchor="middle" x="370.5" y="-313" font-family="Helvetica,sans-Serif" font-size="10.00"> </text>
<polyline fill="none" stroke="#bfbfbf" points="328.5,-306 412.5,-306 "/>
<text text-anchor="middle" x="370.5" y="-294" font-family="Helvetica,sans-Serif" font-size="10.00"> </text>
</a>
</g>
</g>
<!-- Node6&#45;&gt;Node1 -->
<g id="edge6" class="edge">
<title>Node6&#45;&gt;Node1</title>
<path fill="none" stroke="#404040" d="M356.81,-286.76C350.99,-274.99 343.77,-260.35 336.03,-244.66"/>
<polygon fill="none" stroke="#404040" points="335.9,-244.42 329.66,-240.81 330.59,-233.66 336.83,-237.27 335.9,-244.42"/>
<text text-anchor="middle" x="386" y="-255" font-family="Helvetica,sans-Serif" font-size="10.00"> &#45;num_elements_</text>
</g>
<!-- Node7 -->
<g id="node7" class="node">
<title>Node7</title>
<g id="a_node7"><a xlink:title=" ">
<polygon fill="white" stroke="#bfbfbf" points="430.5,-287 430.5,-344 560.5,-344 560.5,-287 430.5,-287"/>
<text text-anchor="middle" x="495.5" y="-332" font-family="Helvetica,sans-Serif" font-size="10.00">condition_variable_any</text>
<polyline fill="none" stroke="#bfbfbf" points="430.5,-325 560.5,-325 "/>
<text text-anchor="middle" x="495.5" y="-313" font-family="Helvetica,sans-Serif" font-size="10.00"> </text>
<polyline fill="none" stroke="#bfbfbf" points="430.5,-306 560.5,-306 "/>
<text text-anchor="middle" x="495.5" y="-294" font-family="Helvetica,sans-Serif" font-size="10.00"> </text>
</a>
</g>
</g>
<!-- Node7&#45;&gt;Node1 -->
<g id="edge8" class="edge">
<title>Node7&#45;&gt;Node1</title>
<path fill="none" stroke="#404040" d="M468.68,-286.94C457.67,-275.87 444.66,-263.13 432.5,-252 410.04,-231.46 385.13,-209.91 361.82,-190.25"/>
<polygon fill="none" stroke="#404040" points="361.82,-190.25 354.65,-189.45 352.63,-182.53 359.8,-183.33 361.82,-190.25"/>
<text text-anchor="middle" x="460.5" y="-255" font-family="Helvetica,sans-Serif" font-size="10.00"> &#45;cond_</text>
</g>
</g>
</svg>
