<?xml version="1.0" encoding="UTF-8" standalone="no"?>
<!DOCTYPE svg PUBLIC "-//W3C//DTD SVG 1.1//EN"
 "http://www.w3.org/Graphics/SVG/1.1/DTD/svg11.dtd">
<!-- Generated by graphviz version 2.43.0 (0)
 -->
<!-- Title: mkr::threadsafe_list&lt; T &gt; Pages: 1 -->
<svg width="234pt" height="618pt"
 viewBox="0.00 0.00 233.50 618.00" xmlns="http://www.w3.org/2000/svg" xmlns:xlink="http://www.w3.org/1999/xlink">
<g id="graph0" class="graph" transform="scale(1 1) rotate(0) translate(4 614)">
<title>mkr::threadsafe_list&lt; T &gt;</title>
<polygon fill="white" stroke="transparent" points="-4,4 -4,-614 229.5,-614 229.5,4 -4,4"/>
<!-- Node1 -->
<g id="node1" class="node">
<title>Node1</title>
<g id="a_node1"><a xlink:title=" ">
<polygon fill="#bfbfbf" stroke="black" points="8,-292.5 8,-503.5 151,-503.5 151,-292.5 8,-292.5"/>
<text text-anchor="middle" x="79.5" y="-491.5" font-family="Helvetica,sans-Serif" font-size="10.00">mkr::threadsafe_list&lt; T &gt;</text>
<polyline fill="none" stroke="black" points="8,-484.5 151,-484.5 "/>
<text text-anchor="start" x="16" y="-472.5" font-family="Helvetica,sans-Serif" font-size="10.00">&#45; num_elements_</text>
<polyline fill="none" stroke="black" points="8,-465.5 151,-465.5 "/>
<text text-anchor="start" x="16" y="-453.5" font-family="Helvetica,sans-Serif" font-size="10.00">+ threadsafe_list()</text>
<text text-anchor="start" x="16" y="-442.5" font-family="Helvetica,sans-Serif" font-size="10.00">+ threadsafe_list()</text>
<text text-anchor="start" x="16" y="-431.5" font-family="Helvetica,sans-Serif" font-size="10.00">+ threadsafe_list()</text>
<text text-anchor="start" x="16" y="-420.5" font-family="Helvetica,sans-Serif" font-size="10.00">+ ~threadsafe_list()</text>
<text text-anchor="start" x="16" y="-409.5" font-family="Helvetica,sans-Serif" font-size="10.00">+ operator=()</text>
<text text-anchor="start" x="16" y="-398.5" font-family="Helvetica,sans-Serif" font-size="10.00">+ operator=()</text>
<text text-anchor="start" x="16" y="-387.5" font-family="Helvetica,sans-Serif" font-size="10.00">+ match_any()</text>
<text text-anchor="start" x="16" y="-376.5" font-family="Helvetica,sans-Serif" font-size="10.00">+ push_front()</text>
<text text-anchor="start" x="16" y="-365.5" font-family="Helvetica,sans-Serif" font-size="10.00">+ remove_if()</text>
<text text-anchor="start" x="16" y="-354.5" font-family="Helvetica,sans-Serif" font-size="10.00">+ write_each()</text>
<text text-anchor="start" x="16" y="-343.5" font-family="Helvetica,sans-Serif" font-size="10.00">+ read_and_map_first_if()</text>
<text text-anchor="start" x="16" y="-332.5" font-family="Helvetica,sans-Serif" font-size="10.00">+ write_and_map_if()</text>
<text text-anchor="start" x="16" y="-321.5" font-family="Helvetica,sans-Serif" font-size="10.00">+ empty()</text>
<text text-anchor="start" x="16" y="-310.5" font-family="Helvetica,sans-Serif" font-size="10.00">+ size()</text>
<text text-anchor="start" x="16" y="-299.5" font-family="Helvetica,sans-Serif" font-size="10.00">&#45; do_push_front()</text>
</a>
</g>
</g>
<!-- Node3 -->
<g id="node3" class="node">
<title>Node3</title>
<g id="a_node3"><a xlink:href="classmkr_1_1threadsafe__list.html" target="_top" xlink:title=" ">
<polygon fill="white" stroke="black" points="0,-0.5 0,-233.5 159,-233.5 159,-0.5 0,-0.5"/>
<text text-anchor="start" x="8" y="-221.5" font-family="Helvetica,sans-Serif" font-size="10.00">mkr::threadsafe_list</text>
<text text-anchor="start" x="8" y="-210.5" font-family="Helvetica,sans-Serif" font-size="10.00">&lt; mkr::threadsafe_hashtable</text>
<text text-anchor="middle" x="79.5" y="-199.5" font-family="Helvetica,sans-Serif" font-size="10.00">::pair &gt;</text>
<polyline fill="none" stroke="black" points="0,-192.5 159,-192.5 "/>
<text text-anchor="start" x="8" y="-180.5" font-family="Helvetica,sans-Serif" font-size="10.00">&#45; num_elements_</text>
<polyline fill="none" stroke="black" points="0,-173.5 159,-173.5 "/>
<text text-anchor="start" x="8" y="-161.5" font-family="Helvetica,sans-Serif" font-size="10.00">+ threadsafe_list()</text>
<text text-anchor="start" x="8" y="-150.5" font-family="Helvetica,sans-Serif" font-size="10.00">+ threadsafe_list()</text>
<text text-anchor="start" x="8" y="-139.5" font-family="Helvetica,sans-Serif" font-size="10.00">+ threadsafe_list()</text>
<text text-anchor="start" x="8" y="-128.5" font-family="Helvetica,sans-Serif" font-size="10.00">+ ~threadsafe_list()</text>
<text text-anchor="start" x="8" y="-117.5" font-family="Helvetica,sans-Serif" font-size="10.00">+ operator=()</text>
<text text-anchor="start" x="8" y="-106.5" font-family="Helvetica,sans-Serif" font-size="10.00">+ operator=()</text>
<text text-anchor="start" x="8" y="-95.5" font-family="Helvetica,sans-Serif" font-size="10.00">+ match_any()</text>
<text text-anchor="start" x="8" y="-84.5" font-family="Helvetica,sans-Serif" font-size="10.00">+ push_front()</text>
<text text-anchor="start" x="8" y="-73.5" font-family="Helvetica,sans-Serif" font-size="10.00">+ remove_if()</text>
<text text-anchor="start" x="8" y="-62.5" font-family="Helvetica,sans-Serif" font-size="10.00">+ write_each()</text>
<text text-anchor="start" x="8" y="-51.5" font-family="Helvetica,sans-Serif" font-size="10.00">+ read_and_map_first_if()</text>
<text text-anchor="start" x="8" y="-40.5" font-family="Helvetica,sans-Serif" font-size="10.00">+ write_and_map_if()</text>
<text text-anchor="start" x="8" y="-29.5" font-family="Helvetica,sans-Serif" font-size="10.00">+ empty()</text>
<text text-anchor="start" x="8" y="-18.5" font-family="Helvetica,sans-Serif" font-size="10.00">+ size()</text>
<text text-anchor="start" x="8" y="-7.5" font-family="Helvetica,sans-Serif" font-size="10.00">&#45; do_push_front()</text>
</a>
</g>
</g>
<!-- Node1&#45;&gt;Node3 -->
<g id="edge2" class="edge">
<title>Node1&#45;&gt;Node3</title>
<path fill="none" stroke="orange" d="M79.5,-281.9C79.5,-265.94 79.5,-249.53 79.5,-233.56"/>
<polygon fill="orange" stroke="orange" points="76,-282.32 79.5,-292.32 83,-282.32 76,-282.32"/>
<text text-anchor="start" x="79.5" y="-266" font-family="Helvetica,sans-Serif" font-size="10.00"> &lt; mkr::threadsafe_hashtable</text>
<text text-anchor="middle" x="152.5" y="-255" font-family="Helvetica,sans-Serif" font-size="10.00">::pair &gt;</text>
</g>
<!-- Node2 -->
<g id="node2" class="node">
<title>Node2</title>
<g id="a_node2"><a xlink:href="classmkr_1_1container.html" target="_top" xlink:title=" ">
<polygon fill="white" stroke="black" points="35,-541.5 35,-609.5 124,-609.5 124,-541.5 35,-541.5"/>
<text text-anchor="middle" x="79.5" y="-597.5" font-family="Helvetica,sans-Serif" font-size="10.00">mkr::container</text>
<polyline fill="none" stroke="black" points="35,-590.5 124,-590.5 "/>
<text text-anchor="middle" x="79.5" y="-578.5" font-family="Helvetica,sans-Serif" font-size="10.00"> </text>
<polyline fill="none" stroke="black" points="35,-571.5 124,-571.5 "/>
<text text-anchor="start" x="43" y="-559.5" font-family="Helvetica,sans-Serif" font-size="10.00">+ container()</text>
<text text-anchor="start" x="43" y="-548.5" font-family="Helvetica,sans-Serif" font-size="10.00">+ ~container()</text>
</a>
</g>
</g>
<!-- Node2&#45;&gt;Node1 -->
<g id="edge1" class="edge">
<title>Node2&#45;&gt;Node1</title>
<path fill="none" stroke="midnightblue" d="M79.5,-531.39C79.5,-522.76 79.5,-513.35 79.5,-503.65"/>
<polygon fill="none" stroke="midnightblue" points="76,-531.49 79.5,-541.49 83,-531.49 76,-531.49"/>
</g>
</g>
</svg>
