<?xml version="1.0" encoding="UTF-8" standalone="no"?>
<!DOCTYPE svg PUBLIC "-//W3C//DTD SVG 1.1//EN"
 "http://www.w3.org/Graphics/SVG/1.1/DTD/svg11.dtd">
<!-- Generated by graphviz version 2.43.0 (0)
 -->
<!-- Title: mkr::threadsafe_stack&lt; T &gt; Pages: 1 -->
<svg width="594pt" height="393pt"
 viewBox="0.00 0.00 593.50 393.00" xmlns="http://www.w3.org/2000/svg" xmlns:xlink="http://www.w3.org/1999/xlink">
<g id="graph0" class="graph" transform="scale(1 1) rotate(0) translate(4 389)">
<title>mkr::threadsafe_stack&lt; T &gt;</title>
<!-- Node1 -->
<g id="Node000001" class="node">
<title>Node1</title>
<g id="a_Node000001"><a xlink:title=" ">
<polygon fill="#999999" stroke="transparent" points="332,-274 183,-274 183,0 332,0 332,-274"/>
<text text-anchor="start" x="188.5" y="-262" font-family="Helvetica,sans-Serif" font-size="10.00">mkr::threadsafe_stack&lt; T &gt;</text>
<text text-anchor="start" x="256" y="-247" font-family="Helvetica,sans-Serif" font-size="10.00"> </text>
<text text-anchor="start" x="194.5" y="-232" font-family="Helvetica,sans-Serif" font-size="10.00">+</text>
<text text-anchor="start" x="214.5" y="-232" font-family="Helvetica,sans-Serif" font-size="10.00">threadsafe_stack()</text>
<text text-anchor="start" x="194.5" y="-217" font-family="Helvetica,sans-Serif" font-size="10.00">+</text>
<text text-anchor="start" x="214.5" y="-217" font-family="Helvetica,sans-Serif" font-size="10.00">threadsafe_stack()</text>
<text text-anchor="start" x="194.5" y="-202" font-family="Helvetica,sans-Serif" font-size="10.00">+</text>
<text text-anchor="start" x="214.5" y="-202" font-family="Helvetica,sans-Serif" font-size="10.00">threadsafe_stack()</text>
<text text-anchor="start" x="194.5" y="-187" font-family="Helvetica,sans-Serif" font-size="10.00">+</text>
<text text-anchor="start" x="214.5" y="-187" font-family="Helvetica,sans-Serif" font-size="10.00">~threadsafe_stack()</text>
<text text-anchor="start" x="194.5" y="-172" font-family="Helvetica,sans-Serif" font-size="10.00">+</text>
<text text-anchor="start" x="214.5" y="-172" font-family="Helvetica,sans-Serif" font-size="10.00">operator=()</text>
<text text-anchor="start" x="194.5" y="-157" font-family="Helvetica,sans-Serif" font-size="10.00">+</text>
<text text-anchor="start" x="214.5" y="-157" font-family="Helvetica,sans-Serif" font-size="10.00">operator=()</text>
<text text-anchor="start" x="194.5" y="-142" font-family="Helvetica,sans-Serif" font-size="10.00">+</text>
<text text-anchor="start" x="214.5" y="-142" font-family="Helvetica,sans-Serif" font-size="10.00">push()</text>
<text text-anchor="start" x="194.5" y="-127" font-family="Helvetica,sans-Serif" font-size="10.00">+</text>
<text text-anchor="start" x="214.5" y="-127" font-family="Helvetica,sans-Serif" font-size="10.00">push()</text>
<text text-anchor="start" x="194.5" y="-112" font-family="Helvetica,sans-Serif" font-size="10.00">+</text>
<text text-anchor="start" x="214.5" y="-112" font-family="Helvetica,sans-Serif" font-size="10.00">wait_and_pop()</text>
<text text-anchor="start" x="194.5" y="-97" font-family="Helvetica,sans-Serif" font-size="10.00">+</text>
<text text-anchor="start" x="214.5" y="-97" font-family="Helvetica,sans-Serif" font-size="10.00">try_pop()</text>
<text text-anchor="start" x="194.5" y="-82" font-family="Helvetica,sans-Serif" font-size="10.00">+</text>
<text text-anchor="start" x="214.5" y="-82" font-family="Helvetica,sans-Serif" font-size="10.00">clear()</text>
<text text-anchor="start" x="194.5" y="-67" font-family="Helvetica,sans-Serif" font-size="10.00">+</text>
<text text-anchor="start" x="214.5" y="-67" font-family="Helvetica,sans-Serif" font-size="10.00">empty()</text>
<text text-anchor="start" x="194.5" y="-52" font-family="Helvetica,sans-Serif" font-size="10.00">+</text>
<text text-anchor="start" x="214.5" y="-52" font-family="Helvetica,sans-Serif" font-size="10.00">size()</text>
<text text-anchor="start" x="197" y="-37" font-family="Helvetica,sans-Serif" font-size="10.00">&#45;</text>
<text text-anchor="start" x="214.5" y="-37" font-family="Helvetica,sans-Serif" font-size="10.00">do_push()</text>
<text text-anchor="start" x="197" y="-22" font-family="Helvetica,sans-Serif" font-size="10.00">&#45;</text>
<text text-anchor="start" x="214.5" y="-22" font-family="Helvetica,sans-Serif" font-size="10.00">do_pop()</text>
<text text-anchor="start" x="197" y="-7" font-family="Helvetica,sans-Serif" font-size="10.00">&#45;</text>
<text text-anchor="start" x="214.5" y="-7" font-family="Helvetica,sans-Serif" font-size="10.00">do_copy_construct()</text>
<polygon fill="#666666" stroke="#666666" points="183.5,-257 183.5,-257 332.5,-257 332.5,-257 183.5,-257"/>
<polygon fill="#666666" stroke="#666666" points="183.5,-242 183.5,-242 332.5,-242 332.5,-242 183.5,-242"/>
<polygon fill="none" stroke="#666666" points="183,0 183,-274 332,-274 332,0 183,0"/>
</a>
</g>
</g>
<!-- Node2 -->
<g id="Node000002" class="node">
<title>Node2</title>
<g id="a_Node000002"><a xlink:href="classmkr_1_1container.html" target="_top" xlink:title=" ">
<polygon fill="white" stroke="transparent" points="83,-385 0,-385 0,-321 83,-321 83,-385"/>
<text text-anchor="start" x="6" y="-373" font-family="Helvetica,sans-Serif" font-size="10.00">mkr::container</text>
<text text-anchor="start" x="40" y="-358" font-family="Helvetica,sans-Serif" font-size="10.00"> </text>
<text text-anchor="start" x="4.5" y="-343" font-family="Helvetica,sans-Serif" font-size="10.00">+</text>
<text text-anchor="start" x="17.5" y="-343" font-family="Helvetica,sans-Serif" font-size="10.00">container()</text>
<text text-anchor="start" x="4.5" y="-328" font-family="Helvetica,sans-Serif" font-size="10.00">+</text>
<text text-anchor="start" x="17.5" y="-328" font-family="Helvetica,sans-Serif" font-size="10.00">~container()</text>
<polygon fill="#666666" stroke="#666666" points="0.5,-368 0.5,-368 83.5,-368 83.5,-368 0.5,-368"/>
<polygon fill="#666666" stroke="#666666" points="0.5,-353 0.5,-353 83.5,-353 83.5,-353 0.5,-353"/>
<polygon fill="none" stroke="#666666" points="0,-321 0,-385 83,-385 83,-321 0,-321"/>
</a>
</g>
</g>
<!-- Node2&#45;&gt;Node1 -->
<g id="edge1_Node000001_Node000002" class="edge">
<title>Node2&#45;&gt;Node1</title>
<g id="a_edge1_Node000001_Node000002"><a xlink:title=" ">
<path fill="none" stroke="#63b8ff" d="M80.25,-313.61C108.67,-285.45 148.16,-246.33 182.65,-212.16"/>
<polygon fill="none" stroke="#63b8ff" points="77.55,-311.36 72.91,-320.88 82.48,-316.33 77.55,-311.36"/>
</a>
</g>
</g>
<!-- Node3 -->
<g id="Node000003" class="node">
<title>Node3</title>
<g id="a_Node000003"><a xlink:title=" ">
<polygon fill="white" stroke="transparent" points="177.5,-377.5 101.5,-377.5 101.5,-328.5 177.5,-328.5 177.5,-377.5"/>
<text text-anchor="start" x="106.5" y="-365" font-family="Helvetica,sans-Serif" font-size="10.00">timed_mutex</text>
<text text-anchor="start" x="137.5" y="-350" font-family="Helvetica,sans-Serif" font-size="10.00"> </text>
<text text-anchor="start" x="137.5" y="-335" font-family="Helvetica,sans-Serif" font-size="10.00"> </text>
<polygon fill="#666666" stroke="#666666" points="101.5,-360 101.5,-360 177.5,-360 177.5,-360 101.5,-360"/>
<polygon fill="#666666" stroke="#666666" points="101.5,-345 101.5,-345 177.5,-345 177.5,-345 101.5,-345"/>
<polygon fill="none" stroke="#666666" points="101.5,-328.5 101.5,-377.5 177.5,-377.5 177.5,-328.5 101.5,-328.5"/>
</a>
</g>
</g>
<!-- Node3&#45;&gt;Node1 -->
<g id="edge2_Node000001_Node000003" class="edge">
<title>Node3&#45;&gt;Node1</title>
<g id="a_edge2_Node000001_Node000003"><a xlink:title=" ">
<path fill="none" stroke="#63b8ff" d="M152.58,-328.28C159.14,-316.38 167.68,-300.9 177.06,-283.89"/>
<polygon fill="none" stroke="#63b8ff" points="177.2,-283.63 176.59,-276.44 182.99,-273.12 183.6,-280.31 177.2,-283.63"/>
</a>
</g>
<text text-anchor="middle" x="204" y="-295" font-family="Helvetica,sans-Serif" font-size="10.00" fill="grey"> &#45;top_mutex_</text>
</g>
<!-- Node4 -->
<g id="Node000004" class="node">
<title>Node4</title>
<g id="a_Node000004"><a xlink:title=" ">
<polygon fill="white" stroke="transparent" points="319.5,-377.5 195.5,-377.5 195.5,-328.5 319.5,-328.5 319.5,-377.5"/>
<text text-anchor="start" x="200.5" y="-365" font-family="Helvetica,sans-Serif" font-size="10.00">condition_variable_any</text>
<text text-anchor="start" x="255.5" y="-350" font-family="Helvetica,sans-Serif" font-size="10.00"> </text>
<text text-anchor="start" x="255.5" y="-335" font-family="Helvetica,sans-Serif" font-size="10.00"> </text>
<polygon fill="#666666" stroke="#666666" points="195.5,-360 195.5,-360 319.5,-360 319.5,-360 195.5,-360"/>
<polygon fill="#666666" stroke="#666666" points="195.5,-345 195.5,-345 319.5,-345 319.5,-345 195.5,-345"/>
<polygon fill="none" stroke="#666666" points="195.5,-328.5 195.5,-377.5 319.5,-377.5 319.5,-328.5 195.5,-328.5"/>
</a>
</g>
</g>
<!-- Node4&#45;&gt;Node1 -->
<g id="edge3_Node000001_Node000004" class="edge">
<title>Node4&#45;&gt;Node1</title>
<g id="a_edge3_Node000001_Node000004"><a xlink:title=" ">
<path fill="none" stroke="#63b8ff" d="M257.5,-328.28C257.5,-317.01 257.5,-302.51 257.5,-286.54"/>
<polygon fill="none" stroke="#63b8ff" points="257.5,-286.08 253.5,-280.08 257.5,-274.08 261.5,-280.08 257.5,-286.08"/>
</a>
</g>
<text text-anchor="middle" x="275.5" y="-295" font-family="Helvetica,sans-Serif" font-size="10.00" fill="grey"> &#45;cond_</text>
</g>
<!-- Node5 -->
<g id="Node000005" class="node">
<title>Node5</title>
<g id="a_Node000005"><a xlink:title=" ">
<polygon fill="white" stroke="transparent" points="489.5,-383 337.5,-383 337.5,-323 489.5,-323 489.5,-383"/>
<text text-anchor="start" x="342.5" y="-371" font-family="Helvetica,sans-Serif" font-size="10.00">unique_ptr&lt; mkr::threadsafe</text>
<text text-anchor="start" x="377" y="-360" font-family="Helvetica,sans-Serif" font-size="10.00">_stack::node &gt;</text>
<text text-anchor="start" x="411.5" y="-345" font-family="Helvetica,sans-Serif" font-size="10.00"> </text>
<text text-anchor="start" x="411.5" y="-330" font-family="Helvetica,sans-Serif" font-size="10.00"> </text>
<polygon fill="#666666" stroke="#666666" points="337.5,-355 337.5,-355 489.5,-355 489.5,-355 337.5,-355"/>
<polygon fill="#666666" stroke="#666666" points="337.5,-340 337.5,-340 489.5,-340 489.5,-340 337.5,-340"/>
<polygon fill="none" stroke="#666666" points="337.5,-323 337.5,-383 489.5,-383 489.5,-323 337.5,-323"/>
</a>
</g>
</g>
<!-- Node5&#45;&gt;Node1 -->
<g id="edge4_Node000001_Node000005" class="edge">
<title>Node5&#45;&gt;Node1</title>
<g id="a_edge4_Node000001_Node000005"><a xlink:title=" ">
<path fill="none" stroke="#63b8ff" d="M392.14,-322.69C378.16,-303.53 358.93,-277.14 339.37,-250.31"/>
<polygon fill="none" stroke="#63b8ff" points="339.23,-250.12 332.46,-247.63 332.16,-240.42 338.93,-242.91 339.23,-250.12"/>
</a>
</g>
<text text-anchor="middle" x="389.5" y="-295" font-family="Helvetica,sans-Serif" font-size="10.00" fill="grey"> &#45;top_</text>
</g>
<!-- Node6 -->
<g id="Node000006" class="node">
<title>Node6</title>
<g id="a_Node000006"><a xlink:title=" ">
<polygon fill="white" stroke="transparent" points="585.5,-377.5 507.5,-377.5 507.5,-328.5 585.5,-328.5 585.5,-377.5"/>
<text text-anchor="start" x="512.5" y="-365" font-family="Helvetica,sans-Serif" font-size="10.00">atomic_size_t</text>
<text text-anchor="start" x="544.5" y="-350" font-family="Helvetica,sans-Serif" font-size="10.00"> </text>
<text text-anchor="start" x="544.5" y="-335" font-family="Helvetica,sans-Serif" font-size="10.00"> </text>
<polygon fill="#666666" stroke="#666666" points="507.5,-360 507.5,-360 585.5,-360 585.5,-360 507.5,-360"/>
<polygon fill="#666666" stroke="#666666" points="507.5,-345 507.5,-345 585.5,-345 585.5,-345 507.5,-345"/>
<polygon fill="none" stroke="#666666" points="507.5,-328.5 507.5,-377.5 585.5,-377.5 585.5,-328.5 507.5,-328.5"/>
</a>
</g>
</g>
<!-- Node6&#45;&gt;Node1 -->
<g id="edge5_Node000001_Node000006" class="edge">
<title>Node6&#45;&gt;Node1</title>
<g id="a_edge5_Node000001_Node000006"><a xlink:title=" ">
<path fill="none" stroke="#63b8ff" d="M514.75,-328.49C473.51,-297.95 399.96,-243.49 342.04,-200.6"/>
<polygon fill="none" stroke="#63b8ff" points="341.79,-200.42 334.59,-200.06 332.15,-193.28 339.35,-193.63 341.79,-200.42"/>
</a>
</g>
<text text-anchor="middle" x="519" y="-295" font-family="Helvetica,sans-Serif" font-size="10.00" fill="grey"> &#45;num_elements_</text>
</g>
</g>
</svg>
