<?xml version="1.0" encoding="UTF-8" standalone="no"?>
<!DOCTYPE svg PUBLIC "-//W3C//DTD SVG 1.1//EN"
 "http://www.w3.org/Graphics/SVG/1.1/DTD/svg11.dtd">
<!-- Generated by graphviz version 2.43.0 (0)
 -->
<!-- Title: src/mt/util/concepts.h Pages: 1 -->
<svg width="434pt" height="296pt"
 viewBox="0.00 0.00 434.00 296.00" xmlns="http://www.w3.org/2000/svg" xmlns:xlink="http://www.w3.org/1999/xlink">
<g id="graph0" class="graph" transform="scale(1 1) rotate(0) translate(4 292)">
<title>src/mt/util/concepts.h</title>
<polygon fill="white" stroke="transparent" points="-4,4 -4,-292 430,-292 430,4 -4,4"/>
<!-- Node1 -->
<g id="node1" class="node">
<title>Node1</title>
<g id="a_node1"><a xlink:title=" ">
<polygon fill="#bfbfbf" stroke="black" points="185,-268.5 185,-287.5 307,-287.5 307,-268.5 185,-268.5"/>
<text text-anchor="middle" x="246" y="-275.5" font-family="Helvetica,sans-Serif" font-size="10.00">src/mt/util/concepts.h</text>
</a>
</g>
</g>
<!-- Node2 -->
<g id="node2" class="node">
<title>Node2</title>
<g id="a_node2"><a xlink:href="threadsafe__list_8h.html" target="_top" xlink:title=" ">
<polygon fill="white" stroke="black" points="33,-201.5 33,-231.5 185,-231.5 185,-201.5 33,-201.5"/>
<text text-anchor="start" x="41" y="-219.5" font-family="Helvetica,sans-Serif" font-size="10.00">src/mt/container/threadsafe</text>
<text text-anchor="middle" x="109" y="-208.5" font-family="Helvetica,sans-Serif" font-size="10.00">_list.h</text>
</a>
</g>
</g>
<!-- Node1&#45;&gt;Node2 -->
<g id="edge1" class="edge">
<title>Node1&#45;&gt;Node2</title>
<path fill="none" stroke="midnightblue" d="M217.13,-264.46C194.94,-254.82 164.29,-241.51 141.29,-231.52"/>
<polygon fill="midnightblue" stroke="midnightblue" points="215.8,-267.7 226.37,-268.48 218.59,-261.28 215.8,-267.7"/>
</g>
<!-- Node6 -->
<g id="node6" class="node">
<title>Node6</title>
<g id="a_node6"><a xlink:href="threadsafe__queue_8h.html" target="_top" xlink:title=" ">
<polygon fill="white" stroke="black" points="170,-134.5 170,-164.5 322,-164.5 322,-134.5 170,-134.5"/>
<text text-anchor="start" x="178" y="-152.5" font-family="Helvetica,sans-Serif" font-size="10.00">src/mt/container/threadsafe</text>
<text text-anchor="middle" x="246" y="-141.5" font-family="Helvetica,sans-Serif" font-size="10.00">_queue.h</text>
</a>
</g>
</g>
<!-- Node1&#45;&gt;Node6 -->
<g id="edge5" class="edge">
<title>Node1&#45;&gt;Node6</title>
<path fill="none" stroke="midnightblue" d="M246,-258.11C246,-232.63 246,-187.81 246,-164.89"/>
<polygon fill="midnightblue" stroke="midnightblue" points="242.5,-258.31 246,-268.31 249.5,-258.31 242.5,-258.31"/>
</g>
<!-- Node7 -->
<g id="node7" class="node">
<title>Node7</title>
<g id="a_node7"><a xlink:href="threadsafe__stack_8h.html" target="_top" xlink:title=" ">
<polygon fill="white" stroke="black" points="274,-201.5 274,-231.5 426,-231.5 426,-201.5 274,-201.5"/>
<text text-anchor="start" x="282" y="-219.5" font-family="Helvetica,sans-Serif" font-size="10.00">src/mt/container/threadsafe</text>
<text text-anchor="middle" x="350" y="-208.5" font-family="Helvetica,sans-Serif" font-size="10.00">_stack.h</text>
</a>
</g>
</g>
<!-- Node1&#45;&gt;Node7 -->
<g id="edge7" class="edge">
<title>Node1&#45;&gt;Node7</title>
<path fill="none" stroke="midnightblue" d="M269.99,-263.28C286.63,-253.75 308.73,-241.11 325.49,-231.52"/>
<polygon fill="midnightblue" stroke="midnightblue" points="267.84,-260.47 260.9,-268.48 271.32,-266.55 267.84,-260.47"/>
</g>
<!-- Node3 -->
<g id="node3" class="node">
<title>Node3</title>
<g id="a_node3"><a xlink:href="threadsafe__hashtable_8h.html" target="_top" xlink:title=" ">
<polygon fill="white" stroke="black" points="0,-134.5 0,-164.5 152,-164.5 152,-134.5 0,-134.5"/>
<text text-anchor="start" x="8" y="-152.5" font-family="Helvetica,sans-Serif" font-size="10.00">src/mt/container/threadsafe</text>
<text text-anchor="middle" x="76" y="-141.5" font-family="Helvetica,sans-Serif" font-size="10.00">_hashtable.h</text>
</a>
</g>
</g>
<!-- Node2&#45;&gt;Node3 -->
<g id="edge2" class="edge">
<title>Node2&#45;&gt;Node3</title>
<path fill="none" stroke="midnightblue" d="M97.21,-192.28C92.51,-183.02 87.25,-172.66 83.15,-164.58"/>
<polygon fill="midnightblue" stroke="midnightblue" points="94.19,-194.06 101.84,-201.4 100.43,-190.89 94.19,-194.06"/>
</g>
<!-- Node4 -->
<g id="node4" class="node">
<title>Node4</title>
<g id="a_node4"><a xlink:href="thread__pool_8h.html" target="_top" xlink:title=" ">
<polygon fill="white" stroke="black" points="192,-67.5 192,-97.5 300,-97.5 300,-67.5 192,-67.5"/>
<text text-anchor="start" x="200" y="-85.5" font-family="Helvetica,sans-Serif" font-size="10.00">src/mt/thread_pool</text>
<text text-anchor="middle" x="246" y="-74.5" font-family="Helvetica,sans-Serif" font-size="10.00">/thread_pool.h</text>
</a>
</g>
</g>
<!-- Node3&#45;&gt;Node4 -->
<g id="edge3" class="edge">
<title>Node3&#45;&gt;Node4</title>
<path fill="none" stroke="midnightblue" d="M122.24,-130.82C149.57,-120.37 183.69,-107.32 209.18,-97.58"/>
<polygon fill="midnightblue" stroke="midnightblue" points="120.98,-127.56 112.89,-134.4 123.48,-134.09 120.98,-127.56"/>
</g>
<!-- Node5 -->
<g id="node5" class="node">
<title>Node5</title>
<g id="a_node5"><a xlink:href="thread__pool_8cpp.html" target="_top" xlink:title=" ">
<polygon fill="white" stroke="black" points="192,-0.5 192,-30.5 300,-30.5 300,-0.5 192,-0.5"/>
<text text-anchor="start" x="200" y="-18.5" font-family="Helvetica,sans-Serif" font-size="10.00">src/mt/thread_pool</text>
<text text-anchor="middle" x="246" y="-7.5" font-family="Helvetica,sans-Serif" font-size="10.00">/thread_pool.cpp</text>
</a>
</g>
</g>
<!-- Node4&#45;&gt;Node5 -->
<g id="edge4" class="edge">
<title>Node4&#45;&gt;Node5</title>
<path fill="none" stroke="midnightblue" d="M246,-57.11C246,-48.15 246,-38.32 246,-30.58"/>
<polygon fill="midnightblue" stroke="midnightblue" points="242.5,-57.4 246,-67.4 249.5,-57.4 242.5,-57.4"/>
</g>
<!-- Node6&#45;&gt;Node4 -->
<g id="edge6" class="edge">
<title>Node6&#45;&gt;Node4</title>
<path fill="none" stroke="midnightblue" d="M246,-124.11C246,-115.15 246,-105.32 246,-97.58"/>
<polygon fill="midnightblue" stroke="midnightblue" points="242.5,-124.4 246,-134.4 249.5,-124.4 242.5,-124.4"/>
</g>
<!-- Node7&#45;&gt;Node4 -->
<g id="edge8" class="edge">
<title>Node7&#45;&gt;Node4</title>
<path fill="none" stroke="midnightblue" d="M349.27,-190.98C347.64,-173.61 343.11,-150.54 331,-134 319.14,-117.79 300.36,-105.85 283.47,-97.66"/>
<polygon fill="midnightblue" stroke="midnightblue" points="345.81,-191.7 349.97,-201.45 352.8,-191.24 345.81,-191.7"/>
</g>
</g>
</svg>
