<?xml version="1.0" encoding="UTF-8" standalone="no"?>
<!DOCTYPE svg PUBLIC "-//W3C//DTD SVG 1.1//EN"
 "http://www.w3.org/Graphics/SVG/1.1/DTD/svg11.dtd">
<!-- Generated by graphviz version 2.43.0 (0)
 -->
<!-- Title: src/mt/util/concepts.h Pages: 1 -->
<svg width="434pt" height="291pt"
 viewBox="0.00 0.00 434.00 291.00" xmlns="http://www.w3.org/2000/svg" xmlns:xlink="http://www.w3.org/1999/xlink">

<svg id="main" version="1.1" xmlns="http://www.w3.org/2000/svg" xmlns:xlink="http://www.w3.org/1999/xlink" xml:space="preserve" onload="init(evt)">
<style type="text/css"><![CDATA[
.node, .edge {opacity: 0.7;}
.node.selected, .edge.selected {opacity: 1;}
.edge:hover path { stroke: red; }
.edge:hover polygon { stroke: red; fill: red; }
]]></style>
<script type="application/ecmascript" xlink:href="svg.min.js"/>
<svg id="graph" class="graph">
<g id="graph0" class="graph" transform="scale(1 1) rotate(0) translate(4 287)">
<title>src/mt/util/concepts.h</title>
<!-- Node1 -->
<g id="Node000001" class="node">
<title>Node1</title>
<g id="a_Node000001"><a xlink:title=" ">
<polygon fill="#999999" stroke="#666666" points="307,-283 185,-283 185,-264 307,-264 307,-283"/>
<text text-anchor="middle" x="246" y="-271" font-family="Helvetica,sans-Serif" font-size="10.00">src/mt/util/concepts.h</text>
</a>
</g>
</g>
<!-- Node2 -->
<g id="Node000002" class="node">
<title>Node2</title>
<g id="a_Node000002"><a xlink:href="threadsafe__list_8h.html" target="_top" xlink:title=" ">
<polygon fill="white" stroke="#666666" points="185,-228 33,-228 33,-198 185,-198 185,-228"/>
<text text-anchor="start" x="41" y="-216" font-family="Helvetica,sans-Serif" font-size="10.00">src/mt/container/threadsafe</text>
<text text-anchor="middle" x="109" y="-205" font-family="Helvetica,sans-Serif" font-size="10.00">_list.h</text>
</a>
</g>
</g>
<!-- Node1&#45;&gt;Node2 -->
<g id="edge1_Node000001_Node000002" class="edge">
<title>Node1&#45;&gt;Node2</title>
<g id="a_edge1_Node000001_Node000002"><a xlink:title=" ">
<path fill="none" stroke="#63b8ff" d="M216.62,-259.95C194.68,-250.59 164.69,-237.78 141.94,-228.06"/>
<polygon fill="#63b8ff" stroke="#63b8ff" points="215.51,-263.29 226.08,-263.99 218.26,-256.85 215.51,-263.29"/>
</a>
</g>
</g>
<!-- Node6 -->
<g id="Node000006" class="node">
<title>Node6</title>
<g id="a_Node000006"><a xlink:href="threadsafe__queue_8h.html" target="_top" xlink:title=" ">
<polygon fill="white" stroke="#666666" points="322,-162 170,-162 170,-132 322,-132 322,-162"/>
<text text-anchor="start" x="178" y="-150" font-family="Helvetica,sans-Serif" font-size="10.00">src/mt/container/threadsafe</text>
<text text-anchor="middle" x="246" y="-139" font-family="Helvetica,sans-Serif" font-size="10.00">_queue.h</text>
</a>
</g>
</g>
<!-- Node1&#45;&gt;Node6 -->
<g id="edge5_Node000001_Node000006" class="edge">
<title>Node1&#45;&gt;Node6</title>
<g id="a_edge5_Node000001_Node000006"><a xlink:title=" ">
<path fill="none" stroke="#63b8ff" d="M246,-253.91C246,-228.83 246,-184.72 246,-162.16"/>
<polygon fill="#63b8ff" stroke="#63b8ff" points="242.5,-253.94 246,-263.94 249.5,-253.94 242.5,-253.94"/>
</a>
</g>
</g>
<!-- Node7 -->
<g id="Node000007" class="node">
<title>Node7</title>
<g id="a_Node000007"><a xlink:href="threadsafe__stack_8h.html" target="_top" xlink:title=" ">
<polygon fill="white" stroke="#666666" points="426,-228 274,-228 274,-198 426,-198 426,-228"/>
<text text-anchor="start" x="282" y="-216" font-family="Helvetica,sans-Serif" font-size="10.00">src/mt/container/threadsafe</text>
<text text-anchor="middle" x="350" y="-205" font-family="Helvetica,sans-Serif" font-size="10.00">_stack.h</text>
</a>
</g>
</g>
<!-- Node1&#45;&gt;Node7 -->
<g id="edge7_Node000001_Node000007" class="edge">
<title>Node1&#45;&gt;Node7</title>
<g id="a_edge7_Node000001_Node000007"><a xlink:title=" ">
<path fill="none" stroke="#63b8ff" d="M270.33,-258.81C286.74,-249.58 308.34,-237.43 324.91,-228.11"/>
<polygon fill="#63b8ff" stroke="#63b8ff" points="268.35,-255.91 261.35,-263.87 271.78,-262.02 268.35,-255.91"/>
</a>
</g>
</g>
<!-- Node3 -->
<g id="Node000003" class="node">
<title>Node3</title>
<g id="a_Node000003"><a xlink:href="threadsafe__hashtable_8h.html" target="_top" xlink:title=" ">
<polygon fill="white" stroke="#666666" points="152,-162 0,-162 0,-132 152,-132 152,-162"/>
<text text-anchor="start" x="8" y="-150" font-family="Helvetica,sans-Serif" font-size="10.00">src/mt/container/threadsafe</text>
<text text-anchor="middle" x="76" y="-139" font-family="Helvetica,sans-Serif" font-size="10.00">_hashtable.h</text>
</a>
</g>
</g>
<!-- Node2&#45;&gt;Node3 -->
<g id="edge2_Node000002_Node000003" class="edge">
<title>Node2&#45;&gt;Node3</title>
<g id="a_edge2_Node000002_Node000003"><a xlink:title=" ">
<path fill="none" stroke="#63b8ff" d="M96.98,-188.68C92.39,-179.79 87.32,-169.95 83.3,-162.16"/>
<polygon fill="#63b8ff" stroke="#63b8ff" points="93.98,-190.51 101.68,-197.8 100.2,-187.3 93.98,-190.51"/>
</a>
</g>
</g>
<!-- Node4 -->
<g id="Node000004" class="node">
<title>Node4</title>
<g id="a_Node000004"><a xlink:href="thread__pool_8h.html" target="_top" xlink:title=" ">
<polygon fill="white" stroke="#666666" points="300,-96 192,-96 192,-66 300,-66 300,-96"/>
<text text-anchor="start" x="200" y="-84" font-family="Helvetica,sans-Serif" font-size="10.00">src/mt/thread_pool</text>
<text text-anchor="middle" x="246" y="-73" font-family="Helvetica,sans-Serif" font-size="10.00">/thread_pool.h</text>
</a>
</g>
</g>
<!-- Node3&#45;&gt;Node4 -->
<g id="edge3_Node000003_Node000004" class="edge">
<title>Node3&#45;&gt;Node4</title>
<g id="a_edge3_Node000003_Node000004"><a xlink:title=" ">
<path fill="none" stroke="#63b8ff" d="M122.96,-128.32C150.01,-118.14 183.55,-105.51 208.78,-96.01"/>
<polygon fill="#63b8ff" stroke="#63b8ff" points="121.43,-125.16 113.31,-131.95 123.9,-131.71 121.43,-125.16"/>
</a>
</g>
</g>
<!-- Node5 -->
<g id="Node000005" class="node">
<title>Node5</title>
<g id="a_Node000005"><a xlink:href="thread__pool_8cpp.html" target="_top" xlink:title=" ">
<polygon fill="white" stroke="#666666" points="300,-30 192,-30 192,0 300,0 300,-30"/>
<text text-anchor="start" x="200" y="-18" font-family="Helvetica,sans-Serif" font-size="10.00">src/mt/thread_pool</text>
<text text-anchor="middle" x="246" y="-7" font-family="Helvetica,sans-Serif" font-size="10.00">/thread_pool.cpp</text>
</a>
</g>
</g>
<!-- Node4&#45;&gt;Node5 -->
<g id="edge4_Node000004_Node000005" class="edge">
<title>Node4&#45;&gt;Node5</title>
<g id="a_edge4_Node000004_Node000005"><a xlink:title=" ">
<path fill="none" stroke="#63b8ff" d="M246,-55.54C246,-46.96 246,-37.61 246,-30.16"/>
<polygon fill="#63b8ff" stroke="#63b8ff" points="242.5,-55.8 246,-65.8 249.5,-55.8 242.5,-55.8"/>
</a>
</g>
</g>
<!-- Node6&#45;&gt;Node4 -->
<g id="edge6_Node000006_Node000004" class="edge">
<title>Node6&#45;&gt;Node4</title>
<g id="a_edge6_Node000006_Node000004"><a xlink:title=" ">
<path fill="none" stroke="#63b8ff" d="M246,-121.54C246,-112.96 246,-103.61 246,-96.16"/>
<polygon fill="#63b8ff" stroke="#63b8ff" points="242.5,-121.8 246,-131.8 249.5,-121.8 242.5,-121.8"/>
</a>
</g>
</g>
<!-- Node7&#45;&gt;Node4 -->
<g id="edge8_Node000007_Node000004" class="edge">
<title>Node7&#45;&gt;Node4</title>
<g id="a_edge8_Node000007_Node000004"><a xlink:title=" ">
<path fill="none" stroke="#63b8ff" d="M349.16,-187.61C347.46,-170.58 342.9,-148.11 331,-132 319.2,-116.02 300.64,-104.26 283.87,-96.17"/>
<polygon fill="#63b8ff" stroke="#63b8ff" points="345.69,-188.17 349.9,-197.89 352.67,-187.66 345.69,-188.17"/>
</a>
</g>
</g>
</g>
</svg>
</svg>

<style type='text/css'>
<![CDATA[
[data-mouse-over-selected='false'] { opacity: 0.7; }
[data-mouse-over-selected='true']  { opacity: 1.0; }
]]>
</style>
<script type="application/ecmascript"><![CDATA[
document.addEventListener('DOMContentLoaded', (event) => {
  highlightEdges();
  highlightAdjacentNodes();
});
]]></script>
</svg>
