<?xml version="1.0" encoding="UTF-8" standalone="no"?>
<!DOCTYPE svg PUBLIC "-//W3C//DTD SVG 1.1//EN"
 "http://www.w3.org/Graphics/SVG/1.1/DTD/svg11.dtd">
<!-- Generated by graphviz version 2.43.0 (0)
 -->
<!-- Title: src/mt/container Pages: 1 -->
<svg width="102pt" height="167pt"
 viewBox="0.00 0.00 102.00 167.00" xmlns="http://www.w3.org/2000/svg" xmlns:xlink="http://www.w3.org/1999/xlink">
<g id="graph0" class="graph" transform="scale(1 1) rotate(0) translate(4 163)">
<title>src/mt/container</title>
<polygon fill="white" stroke="transparent" points="-4,4 -4,-163 98,-163 98,4 -4,4"/>
<g id="clust1" class="cluster">
<title>clusterdir_b7924c0ba1f0ab98391869fdd826d2f9</title>
<g id="a_clust1"><a xlink:href="dir_b7924c0ba1f0ab98391869fdd826d2f9.html" target="_top" xlink:title="mt">
<polygon fill="#ddddee" stroke="black" points="8,-8 8,-151 86,-151 86,-8 8,-8"/>
<text text-anchor="middle" x="47" y="-139" font-family="Helvetica,sans-Serif" font-size="10.00">mt</text>
</a>
</g>
</g>
<!-- dir_1e5da3190d905f653a8150b5d3c7a1d2 -->
<g id="node1" class="node">
<title>dir_1e5da3190d905f653a8150b5d3c7a1d2</title>
<g id="a_node1"><a xlink:href="dir_1e5da3190d905f653a8150b5d3c7a1d2.html" target="_top" xlink:title="util">
<polygon fill="none" stroke="black" points="74,-52 20,-52 20,-16 74,-16 74,-52"/>
<text text-anchor="middle" x="47" y="-31.5" font-family="Helvetica,sans-Serif" font-size="10.00">util</text>
</a>
</g>
</g>
<!-- dir_d2f185e48076934a6da07dbf52e2f821 -->
<g id="node2" class="node">
<title>dir_d2f185e48076934a6da07dbf52e2f821</title>
<g id="a_node2"><a xlink:href="dir_d2f185e48076934a6da07dbf52e2f821.html" target="_top" xlink:title="container">
<polygon fill="#eeeeff" stroke="black" points="78,-124 16,-124 16,-88 78,-88 78,-124"/>
<text text-anchor="middle" x="47" y="-103.5" font-family="Helvetica,sans-Serif" font-size="10.00">container</text>
</a>
</g>
</g>
<!-- dir_d2f185e48076934a6da07dbf52e2f821&#45;&gt;dir_1e5da3190d905f653a8150b5d3c7a1d2 -->
<g id="edge1" class="edge">
<title>dir_d2f185e48076934a6da07dbf52e2f821&#45;&gt;dir_1e5da3190d905f653a8150b5d3c7a1d2</title>
<path fill="none" stroke="black" d="M47,-87.7C47,-79.98 47,-70.71 47,-62.11"/>
<polygon fill="black" stroke="black" points="50.5,-62.1 47,-52.1 43.5,-62.1 50.5,-62.1"/>
<g id="a_edge1&#45;headlabel"><a xlink:href="dir_000002_000004.html" target="_top" xlink:title="3">
<text text-anchor="middle" x="53.34" y="-63.2" font-family="Helvetica,sans-Serif" font-size="10.00">3</text>
</a>
</g>
</g>
</g>
</svg>
