<?xml version="1.0" encoding="UTF-8" standalone="no"?>
<!DOCTYPE svg PUBLIC "-//W3C//DTD SVG 1.1//EN"
 "http://www.w3.org/Graphics/SVG/1.1/DTD/svg11.dtd">
<!-- Generated by graphviz version 2.43.0 (0)
 -->
<!-- Title: src/mt Pages: 1 -->
<svg width="202pt" height="255pt"
 viewBox="0.00 0.00 202.00 255.00" xmlns="http://www.w3.org/2000/svg" xmlns:xlink="http://www.w3.org/1999/xlink">
<g id="graph0" class="graph" transform="scale(1 1) rotate(0) translate(4 251)">
<title>src/mt</title>
<polygon fill="white" stroke="transparent" points="-4,4 -4,-251 198,-251 198,4 -4,4"/>
<g id="clust1" class="cluster">
<title>clusterdir_68267d1309a1af8e8297ef4c3efbcdba</title>
<g id="a_clust1"><a xlink:href="dir_68267d1309a1af8e8297ef4c3efbcdba.html" target="_top" xlink:title="src">
<polygon fill="#ddddee" stroke="black" points="8,-8 8,-239 186,-239 186,-8 8,-8"/>
<text text-anchor="middle" x="97" y="-227" font-family="Helvetica,sans-Serif" font-size="10.00">src</text>
</a>
</g>
</g>
<g id="clust2" class="cluster">
<title>clusterdir_b7924c0ba1f0ab98391869fdd826d2f9</title>
<g id="a_clust2"><a xlink:href="dir_b7924c0ba1f0ab98391869fdd826d2f9.html" target="_top">
<polygon fill="#eeeeff" stroke="black" points="16,-16 16,-212 178,-212 178,-16 16,-16"/>
</a>
</g>
</g>
<!-- dir_b7924c0ba1f0ab98391869fdd826d2f9 -->
<g id="node1" class="node">
<title>dir_b7924c0ba1f0ab98391869fdd826d2f9</title>
<text text-anchor="middle" x="143" y="-183.5" font-family="Helvetica,sans-Serif" font-size="10.00">mt</text>
</g>
<!-- dir_d2f185e48076934a6da07dbf52e2f821 -->
<g id="node2" class="node">
<title>dir_d2f185e48076934a6da07dbf52e2f821</title>
<g id="a_node2"><a xlink:href="dir_d2f185e48076934a6da07dbf52e2f821.html" target="_top" xlink:title="container">
<polygon fill="white" stroke="black" points="92,-132 30,-132 30,-96 92,-96 92,-132"/>
<text text-anchor="middle" x="61" y="-111.5" font-family="Helvetica,sans-Serif" font-size="10.00">container</text>
</a>
</g>
</g>
<!-- dir_1e5da3190d905f653a8150b5d3c7a1d2 -->
<g id="node4" class="node">
<title>dir_1e5da3190d905f653a8150b5d3c7a1d2</title>
<g id="a_node4"><a xlink:href="dir_1e5da3190d905f653a8150b5d3c7a1d2.html" target="_top" xlink:title="util">
<polygon fill="white" stroke="black" points="88,-60 34,-60 34,-24 88,-24 88,-60"/>
<text text-anchor="middle" x="61" y="-39.5" font-family="Helvetica,sans-Serif" font-size="10.00">util</text>
</a>
</g>
</g>
<!-- dir_d2f185e48076934a6da07dbf52e2f821&#45;&gt;dir_1e5da3190d905f653a8150b5d3c7a1d2 -->
<g id="edge1" class="edge">
<title>dir_d2f185e48076934a6da07dbf52e2f821&#45;&gt;dir_1e5da3190d905f653a8150b5d3c7a1d2</title>
<path fill="none" stroke="black" d="M61,-95.7C61,-87.98 61,-78.71 61,-70.11"/>
<polygon fill="black" stroke="black" points="64.5,-70.1 61,-60.1 57.5,-70.1 64.5,-70.1"/>
<g id="a_edge1&#45;headlabel"><a xlink:href="dir_000002_000004.html" target="_top" xlink:title="3">
<text text-anchor="middle" x="67.34" y="-71.2" font-family="Helvetica,sans-Serif" font-size="10.00">3</text>
</a>
</g>
</g>
<!-- dir_933f7ad133000ffd219733e098a2f1da -->
<g id="node3" class="node">
<title>dir_933f7ad133000ffd219733e098a2f1da</title>
<g id="a_node3"><a xlink:href="dir_933f7ad133000ffd219733e098a2f1da.html" target="_top" xlink:title="thread_pool">
<polygon fill="white" stroke="black" points="98,-204 24,-204 24,-168 98,-168 98,-204"/>
<text text-anchor="middle" x="61" y="-183.5" font-family="Helvetica,sans-Serif" font-size="10.00">thread_pool</text>
</a>
</g>
</g>
<!-- dir_933f7ad133000ffd219733e098a2f1da&#45;&gt;dir_d2f185e48076934a6da07dbf52e2f821 -->
<g id="edge2" class="edge">
<title>dir_933f7ad133000ffd219733e098a2f1da&#45;&gt;dir_d2f185e48076934a6da07dbf52e2f821</title>
<path fill="none" stroke="black" d="M61,-167.7C61,-159.98 61,-150.71 61,-142.11"/>
<polygon fill="black" stroke="black" points="64.5,-142.1 61,-132.1 57.5,-142.1 64.5,-142.1"/>
<g id="a_edge2&#45;headlabel"><a xlink:href="dir_000003_000002.html" target="_top" xlink:title="3">
<text text-anchor="middle" x="67.34" y="-143.2" font-family="Helvetica,sans-Serif" font-size="10.00">3</text>
</a>
</g>
</g>
</g>
</svg>
