<?xml version="1.0" encoding="UTF-8" standalone="no"?>
<!DOCTYPE svg PUBLIC "-//W3C//DTD SVG 1.1//EN"
 "http://www.w3.org/Graphics/SVG/1.1/DTD/svg11.dtd">
<!-- Generated by graphviz version 2.43.0 (0)
 -->
<!-- Title: Graphical Class Hierarchy Pages: 1 -->
<svg width="291pt" height="313pt"
 viewBox="0.00 0.00 291.00 312.50" xmlns="http://www.w3.org/2000/svg" xmlns:xlink="http://www.w3.org/1999/xlink">
<g id="graph0" class="graph" transform="scale(1 1) rotate(0) translate(4 308.5)">
<title>Graphical Class Hierarchy</title>
<polygon fill="white" stroke="transparent" points="-4,4 -4,-308.5 287,-308.5 287,4 -4,4"/>
<!-- Node0 -->
<g id="node1" class="node">
<title>Node0</title>
<g id="a_node1"><a xlink:href="classmkr_1_1container.html" target="_top" xlink:title=" ">
<polygon fill="white" stroke="black" points="0,-120.5 0,-139.5 88,-139.5 88,-120.5 0,-120.5"/>
<text text-anchor="middle" x="44" y="-127.5" font-family="Helvetica,sans-Serif" font-size="10.00">mkr::container</text>
</a>
</g>
</g>
<!-- Node1 -->
<g id="node2" class="node">
<title>Node1</title>
<g id="a_node2"><a xlink:href="classmkr_1_1threadsafe__hashtable.html" target="_top" xlink:title=" ">
<polygon fill="white" stroke="black" points="129.5,-274 129.5,-304 277.5,-304 277.5,-274 129.5,-274"/>
<text text-anchor="start" x="137.5" y="-292" font-family="Helvetica,sans-Serif" font-size="10.00">mkr::threadsafe_hashtable</text>
<text text-anchor="middle" x="203.5" y="-281" font-family="Helvetica,sans-Serif" font-size="10.00">&lt; std::thread::id, size_t &gt;</text>
</a>
</g>
</g>
<!-- Node0&#45;&gt;Node1 -->
<g id="edge1" class="edge">
<title>Node0&#45;&gt;Node1</title>
<path fill="none" stroke="midnightblue" d="M51.39,-149.54C61.91,-178.69 85.62,-233.39 124,-264 128.81,-267.83 134.22,-271.09 139.89,-273.84"/>
<polygon fill="midnightblue" stroke="midnightblue" points="54.58,-148.04 48,-139.73 47.96,-150.32 54.58,-148.04"/>
</g>
<!-- Node2 -->
<g id="node3" class="node">
<title>Node2</title>
<g id="a_node3"><a xlink:href="classmkr_1_1threadsafe__list.html" target="_top" xlink:title=" ">
<polygon fill="white" stroke="black" points="124,-213.5 124,-254.5 283,-254.5 283,-213.5 124,-213.5"/>
<text text-anchor="start" x="132" y="-242.5" font-family="Helvetica,sans-Serif" font-size="10.00">mkr::threadsafe_list</text>
<text text-anchor="start" x="132" y="-231.5" font-family="Helvetica,sans-Serif" font-size="10.00">&lt; mkr::threadsafe_hashtable</text>
<text text-anchor="middle" x="203.5" y="-220.5" font-family="Helvetica,sans-Serif" font-size="10.00">::pair &gt;</text>
</a>
</g>
</g>
<!-- Node0&#45;&gt;Node2 -->
<g id="edge2" class="edge">
<title>Node0&#45;&gt;Node2</title>
<path fill="none" stroke="midnightblue" d="M60.17,-147.72C75.04,-164.16 99.03,-188.39 124,-204 129.44,-207.4 135.33,-210.52 141.36,-213.36"/>
<polygon fill="midnightblue" stroke="midnightblue" points="62.52,-145.09 53.27,-139.92 57.27,-149.73 62.52,-145.09"/>
</g>
<!-- Node3 -->
<g id="node4" class="node">
<title>Node3</title>
<g id="a_node4"><a xlink:href="classmkr_1_1threadsafe__queue.html" target="_top" xlink:title=" ">
<polygon fill="white" stroke="black" points="138.5,-164 138.5,-194 268.5,-194 268.5,-164 138.5,-164"/>
<text text-anchor="start" x="146.5" y="-182" font-family="Helvetica,sans-Serif" font-size="10.00">mkr::threadsafe_queue</text>
<text text-anchor="middle" x="203.5" y="-171" font-family="Helvetica,sans-Serif" font-size="10.00">&lt; mkr::task &gt;</text>
</a>
</g>
</g>
<!-- Node0&#45;&gt;Node3 -->
<g id="edge3" class="edge">
<title>Node0&#45;&gt;Node3</title>
<path fill="none" stroke="midnightblue" d="M84.72,-142.65C97.27,-146.63 111.21,-151.02 124,-155 133.39,-157.92 143.42,-161.01 153.06,-163.97"/>
<polygon fill="midnightblue" stroke="midnightblue" points="85.58,-139.25 74.99,-139.57 83.46,-145.93 85.58,-139.25"/>
</g>
<!-- Node4 -->
<g id="node5" class="node">
<title>Node4</title>
<g id="a_node5"><a xlink:href="classmkr_1_1threadsafe__hashtable.html" target="_top" xlink:title=" ">
<polygon fill="white" stroke="black" points="129.5,-115 129.5,-145 277.5,-145 277.5,-115 129.5,-115"/>
<text text-anchor="start" x="137.5" y="-133" font-family="Helvetica,sans-Serif" font-size="10.00">mkr::threadsafe_hashtable</text>
<text text-anchor="middle" x="203.5" y="-122" font-family="Helvetica,sans-Serif" font-size="10.00">&lt; K, V, N &gt;</text>
</a>
</g>
</g>
<!-- Node0&#45;&gt;Node4 -->
<g id="edge4" class="edge">
<title>Node0&#45;&gt;Node4</title>
<path fill="none" stroke="midnightblue" d="M98.18,-130C108.17,-130 118.76,-130 129.23,-130"/>
<polygon fill="midnightblue" stroke="midnightblue" points="98.04,-126.5 88.04,-130 98.04,-133.5 98.04,-126.5"/>
</g>
<!-- Node5 -->
<g id="node6" class="node">
<title>Node5</title>
<g id="a_node6"><a xlink:href="classmkr_1_1threadsafe__list.html" target="_top" xlink:title=" ">
<polygon fill="white" stroke="black" points="132,-76.5 132,-95.5 275,-95.5 275,-76.5 132,-76.5"/>
<text text-anchor="middle" x="203.5" y="-83.5" font-family="Helvetica,sans-Serif" font-size="10.00">mkr::threadsafe_list&lt; T &gt;</text>
</a>
</g>
</g>
<!-- Node0&#45;&gt;Node5 -->
<g id="edge5" class="edge">
<title>Node0&#45;&gt;Node5</title>
<path fill="none" stroke="midnightblue" d="M84.96,-117.48C97.43,-113.67 111.25,-109.56 124,-106 136.87,-102.41 151,-98.73 163.68,-95.52"/>
<polygon fill="midnightblue" stroke="midnightblue" points="83.82,-114.16 75.29,-120.44 85.88,-120.85 83.82,-114.16"/>
</g>
<!-- Node6 -->
<g id="node7" class="node">
<title>Node6</title>
<g id="a_node7"><a xlink:href="classmkr_1_1threadsafe__queue.html" target="_top" xlink:title=" ">
<polygon fill="white" stroke="black" points="124.5,-38.5 124.5,-57.5 282.5,-57.5 282.5,-38.5 124.5,-38.5"/>
<text text-anchor="middle" x="203.5" y="-45.5" font-family="Helvetica,sans-Serif" font-size="10.00">mkr::threadsafe_queue&lt; T &gt;</text>
</a>
</g>
</g>
<!-- Node0&#45;&gt;Node6 -->
<g id="edge6" class="edge">
<title>Node0&#45;&gt;Node6</title>
<path fill="none" stroke="midnightblue" d="M61.7,-113.03C76.73,-98.7 100.07,-78.72 124,-67 131.81,-63.18 140.44,-60.09 149.03,-57.61"/>
<polygon fill="midnightblue" stroke="midnightblue" points="58.96,-110.82 54.26,-120.31 63.85,-115.82 58.96,-110.82"/>
</g>
<!-- Node7 -->
<g id="node8" class="node">
<title>Node7</title>
<g id="a_node8"><a xlink:href="classmkr_1_1threadsafe__stack.html" target="_top" xlink:title=" ">
<polygon fill="white" stroke="black" points="126,-0.5 126,-19.5 281,-19.5 281,-0.5 126,-0.5"/>
<text text-anchor="middle" x="203.5" y="-7.5" font-family="Helvetica,sans-Serif" font-size="10.00">mkr::threadsafe_stack&lt; T &gt;</text>
</a>
</g>
</g>
<!-- Node0&#45;&gt;Node7 -->
<g id="edge7" class="edge">
<title>Node0&#45;&gt;Node7</title>
<path fill="none" stroke="midnightblue" d="M54.43,-111.4C67.08,-88.41 91.72,-49.79 124,-29 130.01,-25.13 136.74,-22.04 143.67,-19.59"/>
<polygon fill="midnightblue" stroke="midnightblue" points="51.22,-110 49.62,-120.47 57.4,-113.28 51.22,-110"/>
</g>
</g>
</svg>
