<?xml version="1.0" encoding="UTF-8" standalone="no"?>
<!DOCTYPE svg PUBLIC "-//W3C//DTD SVG 1.1//EN"
 "http://www.w3.org/Graphics/SVG/1.1/DTD/svg11.dtd">
<!-- Generated by graphviz version 2.43.0 (0)
 -->
<!-- Title: Graphical Class Hierarchy Pages: 1 -->
<svg width="291pt" height="306pt"
 viewBox="0.00 0.00 291.00 305.50" xmlns="http://www.w3.org/2000/svg" xmlns:xlink="http://www.w3.org/1999/xlink">
<g id="graph0" class="graph" transform="scale(1 1) rotate(0) translate(4 301.5)">
<title>Graphical Class Hierarchy</title>
<!-- Node0 -->
<g id="Node000000" class="node">
<title>Node0</title>
<g id="a_Node000000"><a xlink:href="classmkr_1_1container.html" target="_top" xlink:title=" ">
<polygon fill="white" stroke="#666666" points="88,-136 0,-136 0,-117 88,-117 88,-136"/>
<text text-anchor="middle" x="44" y="-124" font-family="Helvetica,sans-Serif" font-size="10.00">mkr::container</text>
</a>
</g>
</g>
<!-- Node1 -->
<g id="Node000001" class="node">
<title>Node1</title>
<g id="a_Node000001"><a xlink:href="classmkr_1_1threadsafe__hashtable.html" target="_top" xlink:title=" ">
<polygon fill="white" stroke="#666666" points="277.5,-297.5 129.5,-297.5 129.5,-267.5 277.5,-267.5 277.5,-297.5"/>
<text text-anchor="start" x="137.5" y="-285.5" font-family="Helvetica,sans-Serif" font-size="10.00">mkr::threadsafe_hashtable</text>
<text text-anchor="middle" x="203.5" y="-274.5" font-family="Helvetica,sans-Serif" font-size="10.00">&lt; std::thread::id, size_t &gt;</text>
</a>
</g>
</g>
<!-- Node0&#45;&gt;Node1 -->
<g id="edge1_Node000000_Node000001" class="edge">
<title>Node0&#45;&gt;Node1</title>
<g id="a_edge1_Node000000_Node000001"><a xlink:title=" ">
<path fill="none" stroke="#63b8ff" d="M51.43,-145.81C62,-174.6 85.77,-228.58 124,-258.5 128.38,-261.93 133.24,-264.86 138.34,-267.39"/>
<polygon fill="#63b8ff" stroke="#63b8ff" points="54.64,-144.39 48.02,-136.11 48.04,-146.71 54.64,-144.39"/>
</a>
</g>
</g>
<!-- Node2 -->
<g id="Node000002" class="node">
<title>Node2</title>
<g id="a_Node000002"><a xlink:href="classmkr_1_1threadsafe__list.html" target="_top" xlink:title=" ">
<polygon fill="white" stroke="#666666" points="283,-249 124,-249 124,-208 283,-208 283,-249"/>
<text text-anchor="start" x="132" y="-237" font-family="Helvetica,sans-Serif" font-size="10.00">mkr::threadsafe_list</text>
<text text-anchor="start" x="132" y="-226" font-family="Helvetica,sans-Serif" font-size="10.00">&lt; mkr::threadsafe_hashtable</text>
<text text-anchor="middle" x="203.5" y="-215" font-family="Helvetica,sans-Serif" font-size="10.00">::pair &gt;</text>
</a>
</g>
</g>
<!-- Node0&#45;&gt;Node2 -->
<g id="edge2_Node000000_Node000002" class="edge">
<title>Node0&#45;&gt;Node2</title>
<g id="a_edge2_Node000000_Node000002"><a xlink:title=" ">
<path fill="none" stroke="#63b8ff" d="M60.27,-143.72C75.2,-159.7 99.24,-183.25 124,-198.5 129.59,-201.94 135.64,-205.1 141.82,-207.97"/>
<polygon fill="#63b8ff" stroke="#63b8ff" points="62.66,-141.15 53.33,-136.13 57.5,-145.87 62.66,-141.15"/>
</a>
</g>
</g>
<!-- Node3 -->
<g id="Node000003" class="node">
<title>Node3</title>
<g id="a_Node000003"><a xlink:href="classmkr_1_1threadsafe__queue.html" target="_top" xlink:title=" ">
<polygon fill="white" stroke="#666666" points="268.5,-189.5 138.5,-189.5 138.5,-159.5 268.5,-159.5 268.5,-189.5"/>
<text text-anchor="start" x="146.5" y="-177.5" font-family="Helvetica,sans-Serif" font-size="10.00">mkr::threadsafe_queue</text>
<text text-anchor="middle" x="203.5" y="-166.5" font-family="Helvetica,sans-Serif" font-size="10.00">&lt; mkr::task &gt;</text>
</a>
</g>
</g>
<!-- Node0&#45;&gt;Node3 -->
<g id="edge3_Node000000_Node000003" class="edge">
<title>Node0&#45;&gt;Node3</title>
<g id="a_edge3_Node000000_Node000003"><a xlink:title=" ">
<path fill="none" stroke="#63b8ff" d="M86.16,-139.04C106.64,-145.29 131.56,-152.88 153.07,-159.44"/>
<polygon fill="#63b8ff" stroke="#63b8ff" points="87.08,-135.67 76.49,-136.1 85.04,-142.36 87.08,-135.67"/>
</a>
</g>
</g>
<!-- Node4 -->
<g id="Node000004" class="node">
<title>Node4</title>
<g id="a_Node000004"><a xlink:href="classmkr_1_1threadsafe__hashtable.html" target="_top" xlink:title=" ">
<polygon fill="white" stroke="#666666" points="277.5,-141.5 129.5,-141.5 129.5,-111.5 277.5,-111.5 277.5,-141.5"/>
<text text-anchor="start" x="137.5" y="-129.5" font-family="Helvetica,sans-Serif" font-size="10.00">mkr::threadsafe_hashtable</text>
<text text-anchor="middle" x="203.5" y="-118.5" font-family="Helvetica,sans-Serif" font-size="10.00">&lt; K, V, N &gt;</text>
</a>
</g>
</g>
<!-- Node0&#45;&gt;Node4 -->
<g id="edge4_Node000000_Node000004" class="edge">
<title>Node0&#45;&gt;Node4</title>
<g id="a_edge4_Node000000_Node000004"><a xlink:title=" ">
<path fill="none" stroke="#63b8ff" d="M98.18,-126.5C108.17,-126.5 118.76,-126.5 129.23,-126.5"/>
<polygon fill="#63b8ff" stroke="#63b8ff" points="98.04,-123 88.04,-126.5 98.04,-130 98.04,-123"/>
</a>
</g>
</g>
<!-- Node5 -->
<g id="Node000005" class="node">
<title>Node5</title>
<g id="a_Node000005"><a xlink:href="classmkr_1_1threadsafe__list.html" target="_top" xlink:title=" ">
<polygon fill="white" stroke="#666666" points="275,-93 132,-93 132,-74 275,-74 275,-93"/>
<text text-anchor="middle" x="203.5" y="-81" font-family="Helvetica,sans-Serif" font-size="10.00">mkr::threadsafe_list&lt; T &gt;</text>
</a>
</g>
</g>
<!-- Node0&#45;&gt;Node5 -->
<g id="edge5_Node000000_Node000005" class="edge">
<title>Node0&#45;&gt;Node5</title>
<g id="a_edge5_Node000000_Node000005"><a xlink:title=" ">
<path fill="none" stroke="#63b8ff" d="M84.61,-113.98C97.16,-110.14 111.12,-106.01 124,-102.5 136.04,-99.22 149.2,-95.92 161.24,-93.02"/>
<polygon fill="#63b8ff" stroke="#63b8ff" points="83.42,-110.68 74.89,-116.98 85.48,-117.37 83.42,-110.68"/>
</a>
</g>
</g>
<!-- Node6 -->
<g id="Node000006" class="node">
<title>Node6</title>
<g id="a_Node000006"><a xlink:href="classmkr_1_1threadsafe__queue.html" target="_top" xlink:title=" ">
<polygon fill="white" stroke="#666666" points="282.5,-56 124.5,-56 124.5,-37 282.5,-37 282.5,-56"/>
<text text-anchor="middle" x="203.5" y="-44" font-family="Helvetica,sans-Serif" font-size="10.00">mkr::threadsafe_queue&lt; T &gt;</text>
</a>
</g>
</g>
<!-- Node0&#45;&gt;Node6 -->
<g id="edge6_Node000000_Node000006" class="edge">
<title>Node0&#45;&gt;Node6</title>
<g id="a_edge6_Node000000_Node000006"><a xlink:title=" ">
<path fill="none" stroke="#63b8ff" d="M62.31,-109.62C77.41,-95.8 100.54,-76.76 124,-65.5 131.96,-61.68 140.76,-58.59 149.5,-56.1"/>
<polygon fill="#63b8ff" stroke="#63b8ff" points="59.69,-107.28 54.79,-116.68 64.48,-112.39 59.69,-107.28"/>
</a>
</g>
</g>
<!-- Node7 -->
<g id="Node000007" class="node">
<title>Node7</title>
<g id="a_Node000007"><a xlink:href="classmkr_1_1threadsafe__stack.html" target="_top" xlink:title=" ">
<polygon fill="white" stroke="#666666" points="281,-19 126,-19 126,0 281,0 281,-19"/>
<text text-anchor="middle" x="203.5" y="-7" font-family="Helvetica,sans-Serif" font-size="10.00">mkr::threadsafe_stack&lt; T &gt;</text>
</a>
</g>
</g>
<!-- Node0&#45;&gt;Node7 -->
<g id="edge7_Node000000_Node000007" class="edge">
<title>Node0&#45;&gt;Node7</title>
<g id="a_edge7_Node000000_Node000007"><a xlink:title=" ">
<path fill="none" stroke="#63b8ff" d="M54.77,-108.12C67.62,-85.77 92.32,-48.58 124,-28.5 130.16,-24.6 137.05,-21.5 144.13,-19.03"/>
<polygon fill="#63b8ff" stroke="#63b8ff" points="51.65,-106.51 49.86,-116.96 57.77,-109.91 51.65,-106.51"/>
</a>
</g>
</g>
</g>
</svg>
