<?xml version="1.0" encoding="UTF-8" standalone="no"?>
<!DOCTYPE svg PUBLIC "-//W3C//DTD SVG 1.1//EN"
 "http://www.w3.org/Graphics/SVG/1.1/DTD/svg11.dtd">
<!-- Generated by graphviz version 2.43.0 (0)
 -->
<!-- Title: mkr::threadsafe_queue&lt; T &gt;::node Pages: 1 -->
<svg width="270pt" height="175pt"
 viewBox="0.00 0.00 269.50 175.00" xmlns="http://www.w3.org/2000/svg" xmlns:xlink="http://www.w3.org/1999/xlink">
<g id="graph0" class="graph" transform="scale(1 1) rotate(0) translate(4 171)">
<title>mkr::threadsafe_queue&lt; T &gt;::node</title>
<!-- Node1 -->
<g id="Node000001" class="node">
<title>Node1</title>
<g id="a_Node000001"><a xlink:title=" ">
<polygon fill="#999999" stroke="transparent" points="177.5,-60 53.5,-60 53.5,0 177.5,0 177.5,-60"/>
<text text-anchor="start" x="58.5" y="-48" font-family="Helvetica,sans-Serif" font-size="10.00">mkr::threadsafe_queue</text>
<text text-anchor="start" x="86" y="-37" font-family="Helvetica,sans-Serif" font-size="10.00">&lt; T &gt;::node</text>
<text text-anchor="start" x="113.5" y="-22" font-family="Helvetica,sans-Serif" font-size="10.00"> </text>
<text text-anchor="start" x="75.5" y="-7" font-family="Helvetica,sans-Serif" font-size="10.00">+</text>
<text text-anchor="start" x="106.5" y="-7" font-family="Helvetica,sans-Serif" font-size="10.00">copy()</text>
<polygon fill="#666666" stroke="#666666" points="53.5,-32 53.5,-32 177.5,-32 177.5,-32 53.5,-32"/>
<polygon fill="#666666" stroke="#666666" points="53.5,-17 53.5,-17 177.5,-17 177.5,-17 53.5,-17"/>
<polygon fill="none" stroke="#666666" points="53.5,0 53.5,-60 177.5,-60 177.5,0 53.5,0"/>
</a>
</g>
</g>
<!-- Node2 -->
<g id="Node000002" class="node">
<title>Node2</title>
<g id="a_Node000002"><a xlink:title=" ">
<polygon fill="white" stroke="transparent" points="91,-161.5 0,-161.5 0,-112.5 91,-112.5 91,-161.5"/>
<text text-anchor="start" x="5.5" y="-149" font-family="Helvetica,sans-Serif" font-size="10.00">shared_ptr&lt; T &gt;</text>
<text text-anchor="start" x="44" y="-134" font-family="Helvetica,sans-Serif" font-size="10.00"> </text>
<text text-anchor="start" x="44" y="-119" font-family="Helvetica,sans-Serif" font-size="10.00"> </text>
<polygon fill="#666666" stroke="#666666" points="0.5,-144 0.5,-144 91.5,-144 91.5,-144 0.5,-144"/>
<polygon fill="#666666" stroke="#666666" points="0.5,-129 0.5,-129 91.5,-129 91.5,-129 0.5,-129"/>
<polygon fill="none" stroke="#666666" points="0,-112.5 0,-161.5 91,-161.5 91,-112.5 0,-112.5"/>
</a>
</g>
</g>
<!-- Node2&#45;&gt;Node1 -->
<g id="edge1_Node000001_Node000002" class="edge">
<title>Node2&#45;&gt;Node1</title>
<g id="a_edge1_Node000001_Node000002"><a xlink:title=" ">
<path fill="none" stroke="#63b8ff" d="M61.21,-112.44C69.51,-99.98 79.92,-84.36 89.4,-70.15"/>
<polygon fill="none" stroke="#63b8ff" points="89.44,-70.09 89.44,-62.88 96.09,-60.11 96.09,-67.32 89.44,-70.09"/>
</a>
</g>
<text text-anchor="middle" x="105.5" y="-81" font-family="Helvetica,sans-Serif" font-size="10.00" fill="grey"> +value_</text>
</g>
<!-- Node3 -->
<g id="Node000003" class="node">
<title>Node3</title>
<g id="a_Node000003"><a xlink:title=" ">
<polygon fill="white" stroke="transparent" points="261.5,-167 109.5,-167 109.5,-107 261.5,-107 261.5,-167"/>
<text text-anchor="start" x="114.5" y="-155" font-family="Helvetica,sans-Serif" font-size="10.00">unique_ptr&lt; mkr::threadsafe</text>
<text text-anchor="start" x="147" y="-144" font-family="Helvetica,sans-Serif" font-size="10.00">_queue::node &gt;</text>
<text text-anchor="start" x="183.5" y="-129" font-family="Helvetica,sans-Serif" font-size="10.00"> </text>
<text text-anchor="start" x="183.5" y="-114" font-family="Helvetica,sans-Serif" font-size="10.00"> </text>
<polygon fill="#666666" stroke="#666666" points="109.5,-139 109.5,-139 261.5,-139 261.5,-139 109.5,-139"/>
<polygon fill="#666666" stroke="#666666" points="109.5,-124 109.5,-124 261.5,-124 261.5,-124 109.5,-124"/>
<polygon fill="none" stroke="#666666" points="109.5,-107 109.5,-167 261.5,-167 261.5,-107 109.5,-107"/>
</a>
</g>
</g>
<!-- Node3&#45;&gt;Node1 -->
<g id="edge2_Node000001_Node000003" class="edge">
<title>Node3&#45;&gt;Node1</title>
<g id="a_edge2_Node000001_Node000003"><a xlink:title=" ">
<path fill="none" stroke="#63b8ff" d="M166,-106.75C158.49,-95.49 149.79,-82.43 141.75,-70.37"/>
<polygon fill="none" stroke="#63b8ff" points="141.55,-70.08 134.89,-67.3 134.89,-60.09 141.55,-62.86 141.55,-70.08"/>
</a>
</g>
<text text-anchor="middle" x="172" y="-81" font-family="Helvetica,sans-Serif" font-size="10.00" fill="grey"> +next_</text>
</g>
</g>
</svg>
