<?xml version="1.0" encoding="UTF-8" standalone="no"?>
<!DOCTYPE svg PUBLIC "-//W3C//DTD SVG 1.1//EN"
 "http://www.w3.org/Graphics/SVG/1.1/DTD/svg11.dtd">
<!-- Generated by graphviz version 2.43.0 (0)
 -->
<!-- Title: mkr::threadsafe_hashtable&lt; K, V, N &gt;::pair Pages: 1 -->
<svg width="169pt" height="224pt"
 viewBox="0.00 0.00 169.00 224.00" xmlns="http://www.w3.org/2000/svg" xmlns:xlink="http://www.w3.org/1999/xlink">
<g id="graph0" class="graph" transform="scale(1 1) rotate(0) translate(4 220)">
<title>mkr::threadsafe_hashtable&lt; K, V, N &gt;::pair</title>
<!-- Node1 -->
<g id="Node000001" class="node">
<title>Node1</title>
<g id="a_Node000001"><a xlink:title=" ">
<polygon fill="#999999" stroke="transparent" points="142,-120 0,-120 0,0 142,0 142,-120"/>
<text text-anchor="start" x="5" y="-108" font-family="Helvetica,sans-Serif" font-size="10.00">mkr::threadsafe_hashtable</text>
<text text-anchor="start" x="30.5" y="-97" font-family="Helvetica,sans-Serif" font-size="10.00">&lt; K, V, N &gt;::pair</text>
<text text-anchor="start" x="69" y="-82" font-family="Helvetica,sans-Serif" font-size="10.00"> </text>
<text text-anchor="start" x="19" y="-67" font-family="Helvetica,sans-Serif" font-size="10.00">+</text>
<text text-anchor="start" x="47" y="-67" font-family="Helvetica,sans-Serif" font-size="10.00">pair()</text>
<text text-anchor="start" x="19" y="-52" font-family="Helvetica,sans-Serif" font-size="10.00">+</text>
<text text-anchor="start" x="47" y="-52" font-family="Helvetica,sans-Serif" font-size="10.00">match_key()</text>
<text text-anchor="start" x="19" y="-37" font-family="Helvetica,sans-Serif" font-size="10.00">+</text>
<text text-anchor="start" x="47" y="-37" font-family="Helvetica,sans-Serif" font-size="10.00">get_key()</text>
<text text-anchor="start" x="19" y="-22" font-family="Helvetica,sans-Serif" font-size="10.00">+</text>
<text text-anchor="start" x="47" y="-22" font-family="Helvetica,sans-Serif" font-size="10.00">get_value()</text>
<text text-anchor="start" x="19" y="-7" font-family="Helvetica,sans-Serif" font-size="10.00">+</text>
<text text-anchor="start" x="47" y="-7" font-family="Helvetica,sans-Serif" font-size="10.00">get_value()</text>
<polygon fill="#666666" stroke="#666666" points="0,-92 0,-92 142,-92 142,-92 0,-92"/>
<polygon fill="#666666" stroke="#666666" points="0,-77 0,-77 142,-77 142,-77 0,-77"/>
<polygon fill="none" stroke="#666666" points="0,0 0,-120 142,-120 142,0 0,0"/>
</a>
</g>
</g>
<!-- Node2 -->
<g id="Node000002" class="node">
<title>Node2</title>
<g id="a_Node000002"><a xlink:title=" ">
<polygon fill="white" stroke="transparent" points="50.5,-216 3.5,-216 3.5,-167 50.5,-167 50.5,-216"/>
<text text-anchor="start" x="9" y="-203.5" font-family="Helvetica,sans-Serif" font-size="10.00">const K</text>
<text text-anchor="start" x="25.5" y="-188.5" font-family="Helvetica,sans-Serif" font-size="10.00"> </text>
<text text-anchor="start" x="25.5" y="-173.5" font-family="Helvetica,sans-Serif" font-size="10.00"> </text>
<polygon fill="#666666" stroke="#666666" points="4,-198.5 4,-198.5 51,-198.5 51,-198.5 4,-198.5"/>
<polygon fill="#666666" stroke="#666666" points="4,-183.5 4,-183.5 51,-183.5 51,-183.5 4,-183.5"/>
<polygon fill="none" stroke="#666666" points="3.5,-167 3.5,-216 50.5,-216 50.5,-167 3.5,-167"/>
</a>
</g>
</g>
<!-- Node2&#45;&gt;Node1 -->
<g id="edge1_Node000001_Node000002" class="edge">
<title>Node2&#45;&gt;Node1</title>
<g id="a_edge1_Node000001_Node000002"><a xlink:title=" ">
<path fill="none" stroke="#63b8ff" d="M35.07,-166.75C38.49,-156.68 42.67,-144.38 46.96,-131.76"/>
<polygon fill="none" stroke="#63b8ff" points="47.04,-131.51 45.19,-124.54 50.9,-120.15 52.76,-127.12 47.04,-131.51"/>
</a>
</g>
<text text-anchor="middle" x="59" y="-141" font-family="Helvetica,sans-Serif" font-size="10.00" fill="grey"> &#45;key_</text>
</g>
<!-- Node3 -->
<g id="Node000003" class="node">
<title>Node3</title>
<g id="a_Node000003"><a xlink:title=" ">
<polygon fill="white" stroke="transparent" points="161,-216 69,-216 69,-167 161,-167 161,-216"/>
<text text-anchor="start" x="74" y="-203.5" font-family="Helvetica,sans-Serif" font-size="10.00">shared_ptr&lt; V &gt;</text>
<text text-anchor="start" x="113" y="-188.5" font-family="Helvetica,sans-Serif" font-size="10.00"> </text>
<text text-anchor="start" x="113" y="-173.5" font-family="Helvetica,sans-Serif" font-size="10.00"> </text>
<polygon fill="#666666" stroke="#666666" points="69,-198.5 69,-198.5 161,-198.5 161,-198.5 69,-198.5"/>
<polygon fill="#666666" stroke="#666666" points="69,-183.5 69,-183.5 161,-183.5 161,-183.5 69,-183.5"/>
<polygon fill="none" stroke="#666666" points="69,-167 69,-216 161,-216 161,-167 69,-167"/>
</a>
</g>
</g>
<!-- Node3&#45;&gt;Node1 -->
<g id="edge2_Node000001_Node000003" class="edge">
<title>Node3&#45;&gt;Node1</title>
<g id="a_edge2_Node000001_Node000003"><a xlink:title=" ">
<path fill="none" stroke="#63b8ff" d="M106.93,-166.75C103.51,-156.68 99.33,-144.38 95.04,-131.76"/>
<polygon fill="none" stroke="#63b8ff" points="94.96,-131.51 89.24,-127.12 91.1,-120.15 96.81,-124.54 94.96,-131.51"/>
</a>
</g>
<text text-anchor="middle" x="119.5" y="-141" font-family="Helvetica,sans-Serif" font-size="10.00" fill="grey"> &#45;value_</text>
</g>
</g>
</svg>
