<?xml version="1.0" encoding="UTF-8" standalone="no"?>
<!DOCTYPE svg PUBLIC "-//W3C//DTD SVG 1.1//EN"
 "http://www.w3.org/Graphics/SVG/1.1/DTD/svg11.dtd">
<!-- Generated by graphviz version 2.43.0 (0)
 -->
<!-- Title: mkr::threadsafe_stack&lt; T &gt;::node Pages: 1 -->
<svg width="281pt" height="193pt"
 viewBox="0.00 0.00 280.50 193.00" xmlns="http://www.w3.org/2000/svg" xmlns:xlink="http://www.w3.org/1999/xlink">
<g id="graph0" class="graph" transform="scale(1 1) rotate(0) translate(4 189)">
<title>mkr::threadsafe_stack&lt; T &gt;::node</title>
<polygon fill="white" stroke="transparent" points="-4,4 -4,-189 276.5,-189 276.5,4 -4,4"/>
<!-- Node1 -->
<g id="node1" class="node">
<title>Node1</title>
<g id="a_node1"><a xlink:title=" ">
<polygon fill="#bfbfbf" stroke="black" points="88,-0.5 88,-68.5 214,-68.5 214,-0.5 88,-0.5"/>
<text text-anchor="start" x="96" y="-56.5" font-family="Helvetica,sans-Serif" font-size="10.00">mkr::threadsafe_stack</text>
<text text-anchor="middle" x="151" y="-45.5" font-family="Helvetica,sans-Serif" font-size="10.00">&lt; T &gt;::node</text>
<polyline fill="none" stroke="black" points="88,-38.5 214,-38.5 "/>
<text text-anchor="middle" x="151" y="-26.5" font-family="Helvetica,sans-Serif" font-size="10.00"> </text>
<polyline fill="none" stroke="black" points="88,-19.5 214,-19.5 "/>
<text text-anchor="start" x="96" y="-7.5" font-family="Helvetica,sans-Serif" font-size="10.00">+ copy()</text>
</a>
</g>
</g>
<!-- Node2 -->
<g id="node2" class="node">
<title>Node2</title>
<g id="a_node2"><a xlink:title=" ">
<polygon fill="white" stroke="#bfbfbf" points="0,-116.5 0,-184.5 158,-184.5 158,-116.5 0,-116.5"/>
<text text-anchor="start" x="8" y="-172.5" font-family="Helvetica,sans-Serif" font-size="10.00">unique_ptr&lt; mkr::threadsafe</text>
<text text-anchor="middle" x="79" y="-161.5" font-family="Helvetica,sans-Serif" font-size="10.00">_stack::node &gt;</text>
<polyline fill="none" stroke="#bfbfbf" points="0,-154.5 158,-154.5 "/>
<text text-anchor="middle" x="79" y="-142.5" font-family="Helvetica,sans-Serif" font-size="10.00"> </text>
<polyline fill="none" stroke="#bfbfbf" points="0,-135.5 158,-135.5 "/>
<text text-anchor="middle" x="79" y="-123.5" font-family="Helvetica,sans-Serif" font-size="10.00"> </text>
</a>
</g>
</g>
<!-- Node2&#45;&gt;Node1 -->
<g id="edge1" class="edge">
<title>Node2&#45;&gt;Node1</title>
<path fill="none" stroke="#404040" d="M100.02,-116.22C107.41,-104.51 115.83,-91.18 123.67,-78.77"/>
<polygon fill="none" stroke="#404040" points="123.67,-78.77 123.49,-71.56 130.08,-68.62 130.26,-75.83 123.67,-78.77"/>
<text text-anchor="middle" x="137.5" y="-90" font-family="Helvetica,sans-Serif" font-size="10.00"> +next_</text>
</g>
<!-- Node3 -->
<g id="node3" class="node">
<title>Node3</title>
<g id="a_node3"><a xlink:title=" ">
<polygon fill="white" stroke="#bfbfbf" points="175.5,-122 175.5,-179 272.5,-179 272.5,-122 175.5,-122"/>
<text text-anchor="middle" x="224" y="-167" font-family="Helvetica,sans-Serif" font-size="10.00">shared_ptr&lt; T &gt;</text>
<polyline fill="none" stroke="#bfbfbf" points="175.5,-160 272.5,-160 "/>
<text text-anchor="middle" x="224" y="-148" font-family="Helvetica,sans-Serif" font-size="10.00"> </text>
<polyline fill="none" stroke="#bfbfbf" points="175.5,-141 272.5,-141 "/>
<text text-anchor="middle" x="224" y="-129" font-family="Helvetica,sans-Serif" font-size="10.00"> </text>
</a>
</g>
</g>
<!-- Node3&#45;&gt;Node1 -->
<g id="edge2" class="edge">
<title>Node3&#45;&gt;Node1</title>
<path fill="none" stroke="#404040" d="M206.33,-121.9C198.04,-108.97 187.98,-93.24 178.71,-78.78"/>
<polygon fill="none" stroke="#404040" points="178.62,-78.63 172.01,-75.73 172.15,-68.52 178.75,-71.42 178.62,-78.63"/>
<text text-anchor="middle" x="211" y="-90" font-family="Helvetica,sans-Serif" font-size="10.00"> +value_</text>
</g>
</g>
</svg>
