<?xml version="1.0" encoding="UTF-8" standalone="no"?>
<!DOCTYPE svg PUBLIC "-//W3C//DTD SVG 1.1//EN"
 "http://www.w3.org/Graphics/SVG/1.1/DTD/svg11.dtd">
<!-- Generated by graphviz version 2.43.0 (0)
 -->
<!-- Title: mkr::threadsafe_hashtable&lt; K, V, N &gt;::pair_supplier Pages: 1 -->
<svg width="176pt" height="179pt"
 viewBox="0.00 0.00 175.50 179.00" xmlns="http://www.w3.org/2000/svg" xmlns:xlink="http://www.w3.org/1999/xlink">
<g id="graph0" class="graph" transform="scale(1 1) rotate(0) translate(4 175)">
<title>mkr::threadsafe_hashtable&lt; K, V, N &gt;::pair_supplier</title>
<!-- Node1 -->
<g id="Node000001" class="node">
<title>Node1</title>
<g id="a_Node000001"><a xlink:title=" ">
<polygon fill="#999999" stroke="transparent" points="145.5,-75 3.5,-75 3.5,0 145.5,0 145.5,-75"/>
<text text-anchor="start" x="8.5" y="-62.5" font-family="Helvetica,sans-Serif" font-size="10.00">mkr::threadsafe_hashtable</text>
<text text-anchor="start" x="12" y="-51.5" font-family="Helvetica,sans-Serif" font-size="10.00">&lt; K, V, N &gt;::pair_supplier</text>
<text text-anchor="start" x="72.5" y="-36.5" font-family="Helvetica,sans-Serif" font-size="10.00"> </text>
<text text-anchor="start" x="20" y="-21.5" font-family="Helvetica,sans-Serif" font-size="10.00">+</text>
<text text-anchor="start" x="45.5" y="-21.5" font-family="Helvetica,sans-Serif" font-size="10.00">pair_supplier()</text>
<text text-anchor="start" x="20" y="-6.5" font-family="Helvetica,sans-Serif" font-size="10.00">+</text>
<text text-anchor="start" x="45.5" y="-6.5" font-family="Helvetica,sans-Serif" font-size="10.00">operator()()</text>
<polygon fill="#666666" stroke="#666666" points="3.5,-46.5 3.5,-46.5 145.5,-46.5 145.5,-46.5 3.5,-46.5"/>
<polygon fill="#666666" stroke="#666666" points="3.5,-31.5 3.5,-31.5 145.5,-31.5 145.5,-31.5 3.5,-31.5"/>
<polygon fill="none" stroke="#666666" points="3.5,0 3.5,-75 145.5,-75 145.5,0 3.5,0"/>
</a>
</g>
</g>
<!-- Node2 -->
<g id="Node000002" class="node">
<title>Node2</title>
<g id="a_Node000002"><a xlink:title=" ">
<polygon fill="white" stroke="transparent" points="57,-171 0,-171 0,-122 57,-122 57,-171"/>
<text text-anchor="start" x="5.5" y="-158.5" font-family="Helvetica,sans-Serif" font-size="10.00">const K &amp;</text>
<text text-anchor="start" x="27" y="-143.5" font-family="Helvetica,sans-Serif" font-size="10.00"> </text>
<text text-anchor="start" x="27" y="-128.5" font-family="Helvetica,sans-Serif" font-size="10.00"> </text>
<polygon fill="#666666" stroke="#666666" points="0.5,-153.5 0.5,-153.5 57.5,-153.5 57.5,-153.5 0.5,-153.5"/>
<polygon fill="#666666" stroke="#666666" points="0.5,-138.5 0.5,-138.5 57.5,-138.5 57.5,-138.5 0.5,-138.5"/>
<polygon fill="none" stroke="#666666" points="0,-122 0,-171 57,-171 57,-122 0,-122"/>
</a>
</g>
</g>
<!-- Node2&#45;&gt;Node1 -->
<g id="edge1_Node000001_Node000002" class="edge">
<title>Node2&#45;&gt;Node1</title>
<g id="a_edge1_Node000001_Node000002"><a xlink:title=" ">
<path fill="none" stroke="#63b8ff" d="M38.71,-121.75C43.21,-111.29 48.66,-98.6 53.95,-86.31"/>
<polygon fill="none" stroke="#63b8ff" points="53.98,-86.24 52.67,-79.15 58.72,-75.22 60.02,-82.31 53.98,-86.24"/>
</a>
</g>
<text text-anchor="middle" x="65.5" y="-96" font-family="Helvetica,sans-Serif" font-size="10.00" fill="grey"> &#45;key_</text>
</g>
<!-- Node3 -->
<g id="Node000003" class="node">
<title>Node3</title>
<g id="a_Node000003"><a xlink:title=" ">
<polygon fill="white" stroke="transparent" points="167.5,-171 75.5,-171 75.5,-122 167.5,-122 167.5,-171"/>
<text text-anchor="start" x="80.5" y="-158.5" font-family="Helvetica,sans-Serif" font-size="10.00">shared_ptr&lt; V &gt;</text>
<text text-anchor="start" x="119.5" y="-143.5" font-family="Helvetica,sans-Serif" font-size="10.00"> </text>
<text text-anchor="start" x="119.5" y="-128.5" font-family="Helvetica,sans-Serif" font-size="10.00"> </text>
<polygon fill="#666666" stroke="#666666" points="75.5,-153.5 75.5,-153.5 167.5,-153.5 167.5,-153.5 75.5,-153.5"/>
<polygon fill="#666666" stroke="#666666" points="75.5,-138.5 75.5,-138.5 167.5,-138.5 167.5,-138.5 75.5,-138.5"/>
<polygon fill="none" stroke="#666666" points="75.5,-122 75.5,-171 167.5,-171 167.5,-122 75.5,-122"/>
</a>
</g>
</g>
<!-- Node3&#45;&gt;Node1 -->
<g id="edge2_Node000001_Node000003" class="edge">
<title>Node3&#45;&gt;Node1</title>
<g id="a_edge2_Node000001_Node000003"><a xlink:title=" ">
<path fill="none" stroke="#63b8ff" d="M111.07,-121.75C106.47,-111.29 100.9,-98.6 95.5,-86.31"/>
<polygon fill="none" stroke="#63b8ff" points="95.45,-86.2 89.38,-82.32 90.63,-75.22 96.7,-79.1 95.45,-86.2"/>
</a>
</g>
<text text-anchor="middle" x="121" y="-96" font-family="Helvetica,sans-Serif" font-size="10.00" fill="grey"> &#45;value_</text>
</g>
</g>
</svg>
