<?xml version="1.0" encoding="UTF-8" standalone="no"?>
<!DOCTYPE svg PUBLIC "-//W3C//DTD SVG 1.1//EN"
 "http://www.w3.org/Graphics/SVG/1.1/DTD/svg11.dtd">
<!-- Generated by graphviz version 2.43.0 (0)
 -->
<!-- Title: mkr::threadsafe_hashtable&lt; K, V, N &gt;::pair_supplier Pages: 1 -->
<svg width="188pt" height="193pt"
 viewBox="0.00 0.00 187.50 193.00" xmlns="http://www.w3.org/2000/svg" xmlns:xlink="http://www.w3.org/1999/xlink">
<g id="graph0" class="graph" transform="scale(1 1) rotate(0) translate(4 189)">
<title>mkr::threadsafe_hashtable&lt; K, V, N &gt;::pair_supplier</title>
<polygon fill="white" stroke="transparent" points="-4,4 -4,-189 183.5,-189 183.5,4 -4,4"/>
<!-- Node1 -->
<g id="node1" class="node">
<title>Node1</title>
<g id="a_node1"><a xlink:title=" ">
<polygon fill="#bfbfbf" stroke="black" points="6.5,-0.5 6.5,-79.5 154.5,-79.5 154.5,-0.5 6.5,-0.5"/>
<text text-anchor="start" x="14.5" y="-67.5" font-family="Helvetica,sans-Serif" font-size="10.00">mkr::threadsafe_hashtable</text>
<text text-anchor="middle" x="80.5" y="-56.5" font-family="Helvetica,sans-Serif" font-size="10.00">&lt; K, V, N &gt;::pair_supplier</text>
<polyline fill="none" stroke="black" points="6.5,-49.5 154.5,-49.5 "/>
<text text-anchor="middle" x="80.5" y="-37.5" font-family="Helvetica,sans-Serif" font-size="10.00"> </text>
<polyline fill="none" stroke="black" points="6.5,-30.5 154.5,-30.5 "/>
<text text-anchor="start" x="14.5" y="-18.5" font-family="Helvetica,sans-Serif" font-size="10.00">+ pair_supplier()</text>
<text text-anchor="start" x="14.5" y="-7.5" font-family="Helvetica,sans-Serif" font-size="10.00">+ operator()()</text>
</a>
</g>
</g>
<!-- Node2 -->
<g id="node2" class="node">
<title>Node2</title>
<g id="a_node2"><a xlink:title=" ">
<polygon fill="white" stroke="#bfbfbf" points="0,-127.5 0,-184.5 63,-184.5 63,-127.5 0,-127.5"/>
<text text-anchor="middle" x="31.5" y="-172.5" font-family="Helvetica,sans-Serif" font-size="10.00">const K &amp;</text>
<polyline fill="none" stroke="#bfbfbf" points="0,-165.5 63,-165.5 "/>
<text text-anchor="middle" x="31.5" y="-153.5" font-family="Helvetica,sans-Serif" font-size="10.00"> </text>
<polyline fill="none" stroke="#bfbfbf" points="0,-146.5 63,-146.5 "/>
<text text-anchor="middle" x="31.5" y="-134.5" font-family="Helvetica,sans-Serif" font-size="10.00"> </text>
</a>
</g>
</g>
<!-- Node2&#45;&gt;Node1 -->
<g id="edge1" class="edge">
<title>Node2&#45;&gt;Node1</title>
<path fill="none" stroke="#404040" d="M43.36,-127.4C48.09,-116.41 53.68,-103.4 59.07,-90.85"/>
<polygon fill="none" stroke="#404040" points="59.2,-90.57 57.89,-83.47 63.93,-79.54 65.24,-86.63 59.2,-90.57"/>
<text text-anchor="middle" x="71.5" y="-101" font-family="Helvetica,sans-Serif" font-size="10.00"> &#45;key_</text>
</g>
<!-- Node3 -->
<g id="node3" class="node">
<title>Node3</title>
<g id="a_node3"><a xlink:title=" ">
<polygon fill="white" stroke="#bfbfbf" points="81.5,-127.5 81.5,-184.5 179.5,-184.5 179.5,-127.5 81.5,-127.5"/>
<text text-anchor="middle" x="130.5" y="-172.5" font-family="Helvetica,sans-Serif" font-size="10.00">shared_ptr&lt; V &gt;</text>
<polyline fill="none" stroke="#bfbfbf" points="81.5,-165.5 179.5,-165.5 "/>
<text text-anchor="middle" x="130.5" y="-153.5" font-family="Helvetica,sans-Serif" font-size="10.00"> </text>
<polyline fill="none" stroke="#bfbfbf" points="81.5,-146.5 179.5,-146.5 "/>
<text text-anchor="middle" x="130.5" y="-134.5" font-family="Helvetica,sans-Serif" font-size="10.00"> </text>
</a>
</g>
</g>
<!-- Node3&#45;&gt;Node1 -->
<g id="edge2" class="edge">
<title>Node3&#45;&gt;Node1</title>
<path fill="none" stroke="#404040" d="M118.4,-127.4C113.57,-116.41 107.87,-103.4 102.37,-90.85"/>
<polygon fill="none" stroke="#404040" points="102.22,-90.53 96.15,-86.64 97.4,-79.54 103.48,-83.43 102.22,-90.53"/>
<text text-anchor="middle" x="129" y="-101" font-family="Helvetica,sans-Serif" font-size="10.00"> &#45;value_</text>
</g>
</g>
</svg>
