<?xml version="1.0" encoding="UTF-8" standalone="no"?>
<!DOCTYPE svg PUBLIC "-//W3C//DTD SVG 1.1//EN"
 "http://www.w3.org/Graphics/SVG/1.1/DTD/svg11.dtd">
<!-- Generated by graphviz version 2.43.0 (0)
 -->
<!-- Title: mkr::threadsafe_hashtable&lt; K, V, N &gt;::match_key Pages: 1 -->
<svg width="150pt" height="179pt"
 viewBox="0.00 0.00 150.00 179.00" xmlns="http://www.w3.org/2000/svg" xmlns:xlink="http://www.w3.org/1999/xlink">

<svg id="main" version="1.1" xmlns="http://www.w3.org/2000/svg" xmlns:xlink="http://www.w3.org/1999/xlink" xml:space="preserve" onload="init(evt)">
<style type="text/css"><![CDATA[
.node, .edge {opacity: 0.7;}
.node.selected, .edge.selected {opacity: 1;}
.edge:hover path { stroke: red; }
.edge:hover polygon { stroke: red; fill: red; }
]]></style>
<script type="application/ecmascript" xlink:href="svg.min.js"/>
<svg id="graph" class="graph">
<g id="graph0" class="graph" transform="scale(1 1) rotate(0) translate(4 175)">
<title>mkr::threadsafe_hashtable&lt; K, V, N &gt;::match_key</title>
<!-- Node1 -->
<g id="Node000001" class="node">
<title>Node1</title>
<g id="a_Node000001"><a xlink:title=" ">
<polygon fill="#999999" stroke="transparent" points="142,-75 0,-75 0,0 142,0 142,-75"/>
<text text-anchor="start" x="5" y="-62.5" font-family="Helvetica,sans-Serif" font-size="10.00">mkr::threadsafe_hashtable</text>
<text text-anchor="start" x="13.5" y="-51.5" font-family="Helvetica,sans-Serif" font-size="10.00">&lt; K, V, N &gt;::match_key</text>
<text text-anchor="start" x="69" y="-36.5" font-family="Helvetica,sans-Serif" font-size="10.00"> </text>
<text text-anchor="start" x="19" y="-21.5" font-family="Helvetica,sans-Serif" font-size="10.00">+</text>
<text text-anchor="start" x="47" y="-21.5" font-family="Helvetica,sans-Serif" font-size="10.00">match_key()</text>
<text text-anchor="start" x="19" y="-6.5" font-family="Helvetica,sans-Serif" font-size="10.00">+</text>
<text text-anchor="start" x="47" y="-6.5" font-family="Helvetica,sans-Serif" font-size="10.00">operator()()</text>
<polygon fill="#666666" stroke="#666666" points="0,-46.5 0,-46.5 142,-46.5 142,-46.5 0,-46.5"/>
<polygon fill="#666666" stroke="#666666" points="0,-31.5 0,-31.5 142,-31.5 142,-31.5 0,-31.5"/>
<polygon fill="none" stroke="#666666" points="0,0 0,-75 142,-75 142,0 0,0"/>
</a>
</g>
</g>
<!-- Node2 -->
<g id="Node000002" class="node">
<title>Node2</title>
<g id="a_Node000002"><a xlink:title=" ">
<polygon fill="white" stroke="transparent" points="99.5,-171 42.5,-171 42.5,-122 99.5,-122 99.5,-171"/>
<text text-anchor="start" x="48" y="-158.5" font-family="Helvetica,sans-Serif" font-size="10.00">const K &amp;</text>
<text text-anchor="start" x="69.5" y="-143.5" font-family="Helvetica,sans-Serif" font-size="10.00"> </text>
<text text-anchor="start" x="69.5" y="-128.5" font-family="Helvetica,sans-Serif" font-size="10.00"> </text>
<polygon fill="#666666" stroke="#666666" points="43,-153.5 43,-153.5 100,-153.5 100,-153.5 43,-153.5"/>
<polygon fill="#666666" stroke="#666666" points="43,-138.5 43,-138.5 100,-138.5 100,-138.5 43,-138.5"/>
<polygon fill="none" stroke="#666666" points="42.5,-122 42.5,-171 99.5,-171 99.5,-122 42.5,-122"/>
</a>
</g>
</g>
<!-- Node2&#45;&gt;Node1 -->
<g id="edge1_Node000001_Node000002" class="edge">
<title>Node2&#45;&gt;Node1</title>
<g id="a_edge1_Node000001_Node000002"><a xlink:title=" ">
<path fill="none" stroke="#63b8ff" d="M71,-121.75C71,-111.61 71,-99.37 71,-87.44"/>
<polygon fill="none" stroke="#63b8ff" points="71,-87.22 67,-81.22 71,-75.22 75,-81.22 71,-87.22"/>
</a>
</g>
<text text-anchor="middle" x="86" y="-96" font-family="Helvetica,sans-Serif" font-size="10.00" fill="grey"> &#45;key_</text>
</g>
</g>
</svg>
</svg>

<style type='text/css'>
<![CDATA[
[data-mouse-over-selected='false'] { opacity: 0.7; }
[data-mouse-over-selected='true']  { opacity: 1.0; }
]]>
</style>
<script type="application/ecmascript"><![CDATA[
document.addEventListener('DOMContentLoaded', (event) => {
  highlightEdges();
  highlightAdjacentNodes();
});
]]></script>
</svg>
