<?xml version="1.0" encoding="UTF-8" standalone="no"?>
<!DOCTYPE svg PUBLIC "-//W3C//DTD SVG 1.1//EN"
 "http://www.w3.org/Graphics/SVG/1.1/DTD/svg11.dtd">
<!-- Generated by graphviz version 2.43.0 (0)
 -->
<!-- Title: mkr::threadsafe_queue&lt; T &gt;::node Pages: 1 -->
<svg width="282pt" height="193pt"
 viewBox="0.00 0.00 281.50 193.00" xmlns="http://www.w3.org/2000/svg" xmlns:xlink="http://www.w3.org/1999/xlink">
<g id="graph0" class="graph" transform="scale(1 1) rotate(0) translate(4 189)">
<title>mkr::threadsafe_queue&lt; T &gt;::node</title>
<polygon fill="white" stroke="transparent" points="-4,4 -4,-189 277.5,-189 277.5,4 -4,4"/>
<!-- Node1 -->
<g id="node1" class="node">
<title>Node1</title>
<g id="a_node1"><a xlink:title=" ">
<polygon fill="#bfbfbf" stroke="black" points="56.5,-0.5 56.5,-68.5 186.5,-68.5 186.5,-0.5 56.5,-0.5"/>
<text text-anchor="start" x="64.5" y="-56.5" font-family="Helvetica,sans-Serif" font-size="10.00">mkr::threadsafe_queue</text>
<text text-anchor="middle" x="121.5" y="-45.5" font-family="Helvetica,sans-Serif" font-size="10.00">&lt; T &gt;::node</text>
<polyline fill="none" stroke="black" points="56.5,-38.5 186.5,-38.5 "/>
<text text-anchor="middle" x="121.5" y="-26.5" font-family="Helvetica,sans-Serif" font-size="10.00"> </text>
<polyline fill="none" stroke="black" points="56.5,-19.5 186.5,-19.5 "/>
<text text-anchor="start" x="64.5" y="-7.5" font-family="Helvetica,sans-Serif" font-size="10.00">+ copy()</text>
</a>
</g>
</g>
<!-- Node2 -->
<g id="node2" class="node">
<title>Node2</title>
<g id="a_node2"><a xlink:title=" ">
<polygon fill="white" stroke="#bfbfbf" points="0,-122 0,-179 97,-179 97,-122 0,-122"/>
<text text-anchor="middle" x="48.5" y="-167" font-family="Helvetica,sans-Serif" font-size="10.00">shared_ptr&lt; T &gt;</text>
<polyline fill="none" stroke="#bfbfbf" points="0,-160 97,-160 "/>
<text text-anchor="middle" x="48.5" y="-148" font-family="Helvetica,sans-Serif" font-size="10.00"> </text>
<polyline fill="none" stroke="#bfbfbf" points="0,-141 97,-141 "/>
<text text-anchor="middle" x="48.5" y="-129" font-family="Helvetica,sans-Serif" font-size="10.00"> </text>
</a>
</g>
</g>
<!-- Node2&#45;&gt;Node1 -->
<g id="edge1" class="edge">
<title>Node2&#45;&gt;Node1</title>
<path fill="none" stroke="#404040" d="M66.17,-121.9C74.46,-108.97 84.52,-93.24 93.79,-78.78"/>
<polygon fill="none" stroke="#404040" points="93.88,-78.63 93.75,-71.42 100.35,-68.52 100.49,-75.73 93.88,-78.63"/>
<text text-anchor="middle" x="109.5" y="-90" font-family="Helvetica,sans-Serif" font-size="10.00"> +value_</text>
</g>
<!-- Node3 -->
<g id="node3" class="node">
<title>Node3</title>
<g id="a_node3"><a xlink:title=" ">
<polygon fill="white" stroke="#bfbfbf" points="115.5,-116.5 115.5,-184.5 273.5,-184.5 273.5,-116.5 115.5,-116.5"/>
<text text-anchor="start" x="123.5" y="-172.5" font-family="Helvetica,sans-Serif" font-size="10.00">unique_ptr&lt; mkr::threadsafe</text>
<text text-anchor="middle" x="194.5" y="-161.5" font-family="Helvetica,sans-Serif" font-size="10.00">_queue::node &gt;</text>
<polyline fill="none" stroke="#bfbfbf" points="115.5,-154.5 273.5,-154.5 "/>
<text text-anchor="middle" x="194.5" y="-142.5" font-family="Helvetica,sans-Serif" font-size="10.00"> </text>
<polyline fill="none" stroke="#bfbfbf" points="115.5,-135.5 273.5,-135.5 "/>
<text text-anchor="middle" x="194.5" y="-123.5" font-family="Helvetica,sans-Serif" font-size="10.00"> </text>
</a>
</g>
</g>
<!-- Node3&#45;&gt;Node1 -->
<g id="edge2" class="edge">
<title>Node3&#45;&gt;Node1</title>
<path fill="none" stroke="#404040" d="M173.19,-116.22C165.69,-104.51 157.16,-91.18 149.21,-78.77"/>
<polygon fill="none" stroke="#404040" points="149.18,-78.73 142.58,-75.83 142.71,-68.62 149.32,-71.52 149.18,-78.73"/>
<text text-anchor="middle" x="179" y="-90" font-family="Helvetica,sans-Serif" font-size="10.00"> +next_</text>
</g>
</g>
</svg>
