<?xml version="1.0" encoding="UTF-8" standalone="no"?>
<!DOCTYPE svg PUBLIC "-//W3C//DTD SVG 1.1//EN"
 "http://www.w3.org/Graphics/SVG/1.1/DTD/svg11.dtd">
<!-- Generated by graphviz version 2.43.0 (0)
 -->
<!-- Title: mkr::threadsafe_list&lt; T &gt;::node Pages: 1 -->
<svg width="420pt" height="193pt"
 viewBox="0.00 0.00 419.50 193.00" xmlns="http://www.w3.org/2000/svg" xmlns:xlink="http://www.w3.org/1999/xlink">
<g id="graph0" class="graph" transform="scale(1 1) rotate(0) translate(4 189)">
<title>mkr::threadsafe_list&lt; T &gt;::node</title>
<polygon fill="white" stroke="transparent" points="-4,4 -4,-189 415.5,-189 415.5,4 -4,4"/>
<!-- Node1 -->
<g id="node1" class="node">
<title>Node1</title>
<g id="a_node1"><a xlink:title=" ">
<polygon fill="#bfbfbf" stroke="black" points="178.5,-0.5 178.5,-68.5 293.5,-68.5 293.5,-0.5 178.5,-0.5"/>
<text text-anchor="start" x="186.5" y="-56.5" font-family="Helvetica,sans-Serif" font-size="10.00">mkr::threadsafe_list</text>
<text text-anchor="middle" x="236" y="-45.5" font-family="Helvetica,sans-Serif" font-size="10.00">&lt; T &gt;::node</text>
<polyline fill="none" stroke="black" points="178.5,-38.5 293.5,-38.5 "/>
<text text-anchor="middle" x="236" y="-26.5" font-family="Helvetica,sans-Serif" font-size="10.00"> </text>
<polyline fill="none" stroke="black" points="178.5,-19.5 293.5,-19.5 "/>
<text text-anchor="middle" x="236" y="-7.5" font-family="Helvetica,sans-Serif" font-size="10.00"> </text>
</a>
</g>
</g>
<!-- Node2 -->
<g id="node2" class="node">
<title>Node2</title>
<g id="a_node2"><a xlink:title=" ">
<polygon fill="white" stroke="#bfbfbf" points="0,-116.5 0,-184.5 158,-184.5 158,-116.5 0,-116.5"/>
<text text-anchor="start" x="8" y="-172.5" font-family="Helvetica,sans-Serif" font-size="10.00">unique_ptr&lt; mkr::threadsafe</text>
<text text-anchor="middle" x="79" y="-161.5" font-family="Helvetica,sans-Serif" font-size="10.00">_list::node &gt;</text>
<polyline fill="none" stroke="#bfbfbf" points="0,-154.5 158,-154.5 "/>
<text text-anchor="middle" x="79" y="-142.5" font-family="Helvetica,sans-Serif" font-size="10.00"> </text>
<polyline fill="none" stroke="#bfbfbf" points="0,-135.5 158,-135.5 "/>
<text text-anchor="middle" x="79" y="-123.5" font-family="Helvetica,sans-Serif" font-size="10.00"> </text>
</a>
</g>
</g>
<!-- Node2&#45;&gt;Node1 -->
<g id="edge1" class="edge">
<title>Node2&#45;&gt;Node1</title>
<path fill="none" stroke="#404040" d="M124.83,-116.22C142.24,-103.58 162.27,-89.04 180.48,-75.82"/>
<polygon fill="none" stroke="#404040" points="180.67,-75.68 183.18,-68.91 190.38,-68.62 187.88,-75.39 180.67,-75.68"/>
<text text-anchor="middle" x="182.5" y="-90" font-family="Helvetica,sans-Serif" font-size="10.00"> +next_</text>
</g>
<!-- Node3 -->
<g id="node3" class="node">
<title>Node3</title>
<g id="a_node3"><a xlink:title=" ">
<polygon fill="white" stroke="#bfbfbf" points="176,-122 176,-179 296,-179 296,-122 176,-122"/>
<text text-anchor="middle" x="236" y="-167" font-family="Helvetica,sans-Serif" font-size="10.00">shared_timed_mutex</text>
<polyline fill="none" stroke="#bfbfbf" points="176,-160 296,-160 "/>
<text text-anchor="middle" x="236" y="-148" font-family="Helvetica,sans-Serif" font-size="10.00"> </text>
<polyline fill="none" stroke="#bfbfbf" points="176,-141 296,-141 "/>
<text text-anchor="middle" x="236" y="-129" font-family="Helvetica,sans-Serif" font-size="10.00"> </text>
</a>
</g>
</g>
<!-- Node3&#45;&gt;Node1 -->
<g id="edge2" class="edge">
<title>Node3&#45;&gt;Node1</title>
<path fill="none" stroke="#404040" d="M236,-121.9C236,-109.59 236,-94.76 236,-80.89"/>
<polygon fill="none" stroke="#404040" points="236,-80.52 232,-74.52 236,-68.52 240,-74.52 236,-80.52"/>
<text text-anchor="middle" x="260.5" y="-90" font-family="Helvetica,sans-Serif" font-size="10.00"> +mutex_</text>
</g>
<!-- Node4 -->
<g id="node4" class="node">
<title>Node4</title>
<g id="a_node4"><a xlink:title=" ">
<polygon fill="white" stroke="#bfbfbf" points="314.5,-122 314.5,-179 411.5,-179 411.5,-122 314.5,-122"/>
<text text-anchor="middle" x="363" y="-167" font-family="Helvetica,sans-Serif" font-size="10.00">shared_ptr&lt; T &gt;</text>
<polyline fill="none" stroke="#bfbfbf" points="314.5,-160 411.5,-160 "/>
<text text-anchor="middle" x="363" y="-148" font-family="Helvetica,sans-Serif" font-size="10.00"> </text>
<polyline fill="none" stroke="#bfbfbf" points="314.5,-141 411.5,-141 "/>
<text text-anchor="middle" x="363" y="-129" font-family="Helvetica,sans-Serif" font-size="10.00"> </text>
</a>
</g>
</g>
<!-- Node4&#45;&gt;Node1 -->
<g id="edge3" class="edge">
<title>Node4&#45;&gt;Node1</title>
<path fill="none" stroke="#404040" d="M332.26,-121.9C317.14,-108.34 298.62,-91.71 281.87,-76.68"/>
<polygon fill="none" stroke="#404040" points="281.72,-76.54 274.58,-75.51 272.79,-68.52 279.92,-69.55 281.72,-76.54"/>
<text text-anchor="middle" x="325" y="-90" font-family="Helvetica,sans-Serif" font-size="10.00"> +value_</text>
</g>
</g>
</svg>
