<?xml version="1.0" encoding="UTF-8" standalone="no"?>
<!DOCTYPE svg PUBLIC "-//W3C//DTD SVG 1.1//EN"
 "http://www.w3.org/Graphics/SVG/1.1/DTD/svg11.dtd">
<!-- Generated by graphviz version 2.43.0 (0)
 -->
<!-- Title: mkr::threadsafe_hashtable&lt; K, V, N &gt;::pair Pages: 1 -->
<svg width="178pt" height="226pt"
 viewBox="0.00 0.00 178.00 226.00" xmlns="http://www.w3.org/2000/svg" xmlns:xlink="http://www.w3.org/1999/xlink">
<g id="graph0" class="graph" transform="scale(1 1) rotate(0) translate(4 222)">
<title>mkr::threadsafe_hashtable&lt; K, V, N &gt;::pair</title>
<polygon fill="white" stroke="transparent" points="-4,4 -4,-222 174,-222 174,4 -4,4"/>
<!-- Node1 -->
<g id="node1" class="node">
<title>Node1</title>
<g id="a_node1"><a xlink:title=" ">
<polygon fill="#bfbfbf" stroke="black" points="22,-0.5 22,-112.5 170,-112.5 170,-0.5 22,-0.5"/>
<text text-anchor="start" x="30" y="-100.5" font-family="Helvetica,sans-Serif" font-size="10.00">mkr::threadsafe_hashtable</text>
<text text-anchor="middle" x="96" y="-89.5" font-family="Helvetica,sans-Serif" font-size="10.00">&lt; K, V, N &gt;::pair</text>
<polyline fill="none" stroke="black" points="22,-82.5 170,-82.5 "/>
<text text-anchor="middle" x="96" y="-70.5" font-family="Helvetica,sans-Serif" font-size="10.00"> </text>
<polyline fill="none" stroke="black" points="22,-63.5 170,-63.5 "/>
<text text-anchor="start" x="30" y="-51.5" font-family="Helvetica,sans-Serif" font-size="10.00">+ pair()</text>
<text text-anchor="start" x="30" y="-40.5" font-family="Helvetica,sans-Serif" font-size="10.00">+ match_key()</text>
<text text-anchor="start" x="30" y="-29.5" font-family="Helvetica,sans-Serif" font-size="10.00">+ get_key()</text>
<text text-anchor="start" x="30" y="-18.5" font-family="Helvetica,sans-Serif" font-size="10.00">+ get_value()</text>
<text text-anchor="start" x="30" y="-7.5" font-family="Helvetica,sans-Serif" font-size="10.00">+ get_value()</text>
</a>
</g>
</g>
<!-- Node2 -->
<g id="node2" class="node">
<title>Node2</title>
<g id="a_node2"><a xlink:title=" ">
<polygon fill="white" stroke="#bfbfbf" points="0,-160.5 0,-217.5 98,-217.5 98,-160.5 0,-160.5"/>
<text text-anchor="middle" x="49" y="-205.5" font-family="Helvetica,sans-Serif" font-size="10.00">shared_ptr&lt; V &gt;</text>
<polyline fill="none" stroke="#bfbfbf" points="0,-198.5 98,-198.5 "/>
<text text-anchor="middle" x="49" y="-186.5" font-family="Helvetica,sans-Serif" font-size="10.00"> </text>
<polyline fill="none" stroke="#bfbfbf" points="0,-179.5 98,-179.5 "/>
<text text-anchor="middle" x="49" y="-167.5" font-family="Helvetica,sans-Serif" font-size="10.00"> </text>
</a>
</g>
</g>
<!-- Node2&#45;&gt;Node1 -->
<g id="edge1" class="edge">
<title>Node2&#45;&gt;Node1</title>
<path fill="none" stroke="#404040" d="M58.97,-160.32C62.84,-149.56 67.47,-136.73 72.11,-123.84"/>
<polygon fill="none" stroke="#404040" points="72.11,-123.84 70.38,-116.84 76.17,-112.55 77.9,-119.55 72.11,-123.84"/>
<text text-anchor="middle" x="88.5" y="-134" font-family="Helvetica,sans-Serif" font-size="10.00"> &#45;value_</text>
</g>
<!-- Node3 -->
<g id="node3" class="node">
<title>Node3</title>
<g id="a_node3"><a xlink:title=" ">
<polygon fill="white" stroke="#bfbfbf" points="116.5,-160.5 116.5,-217.5 169.5,-217.5 169.5,-160.5 116.5,-160.5"/>
<text text-anchor="middle" x="143" y="-205.5" font-family="Helvetica,sans-Serif" font-size="10.00">const K</text>
<polyline fill="none" stroke="#bfbfbf" points="116.5,-198.5 169.5,-198.5 "/>
<text text-anchor="middle" x="143" y="-186.5" font-family="Helvetica,sans-Serif" font-size="10.00"> </text>
<polyline fill="none" stroke="#bfbfbf" points="116.5,-179.5 169.5,-179.5 "/>
<text text-anchor="middle" x="143" y="-167.5" font-family="Helvetica,sans-Serif" font-size="10.00"> </text>
</a>
</g>
</g>
<!-- Node3&#45;&gt;Node1 -->
<g id="edge2" class="edge">
<title>Node3&#45;&gt;Node1</title>
<path fill="none" stroke="#404040" d="M133.03,-160.32C129.16,-149.56 124.53,-136.73 119.89,-123.84"/>
<polygon fill="none" stroke="#404040" points="119.89,-123.84 114.1,-119.55 115.83,-112.55 121.62,-116.84 119.89,-123.84"/>
<text text-anchor="middle" x="140" y="-134" font-family="Helvetica,sans-Serif" font-size="10.00"> &#45;key_</text>
</g>
</g>
</svg>
