<?xml version="1.0" encoding="UTF-8" standalone="no"?>
<!DOCTYPE svg PUBLIC "-//W3C//DTD SVG 1.1//EN"
 "http://www.w3.org/Graphics/SVG/1.1/DTD/svg11.dtd">
<!-- Generated by graphviz version 2.43.0 (0)
 -->
<!-- Title: mkr::threadsafe_hashtable&lt; K, V, N &gt;::bucket Pages: 1 -->
<!--zoomable 734 -->
<svg id="main" version="1.1" xmlns="http://www.w3.org/2000/svg" xmlns:xlink="http://www.w3.org/1999/xlink" xml:space="preserve" onload="init(evt)">
<style type="text/css"><![CDATA[
.edge:hover path { stroke: red; }
.edge:hover polygon { stroke: red; fill: red; }
]]></style>
<script type="text/javascript"><![CDATA[
var edges = document.getElementsByTagName('g');
if (edges && edges.length) {
  for (var i=0;i<edges.length;i++) {
    if (edges[i].id.substr(0,4)=='edge') {
      edges[i].setAttribute('class','edge');
    }
  }
}
]]></script>
        <defs>
                <circle id="rim" cx="0" cy="0" r="7"/>
                <circle id="rim2" cx="0" cy="0" r="3.5"/>
                <g id="zoomPlus">
                        <use xlink:href="#rim" fill="#404040">
                                <set attributeName="fill" to="#808080" begin="zoomplus.mouseover" end="zoomplus.mouseout"/>
                        </use>
                        <path d="M-4,0h8M0,-4v8" fill="none" stroke="white" stroke-width="1.5" pointer-events="none"/>
                </g>
                <g id="zoomMin">
                        <use xlink:href="#rim" fill="#404040">
                                <set attributeName="fill" to="#808080" begin="zoomminus.mouseover" end="zoomminus.mouseout"/>
                        </use>
                        <path d="M-4,0h8" fill="none" stroke="white" stroke-width="1.5" pointer-events="none"/>
                </g>
                <g id="dirArrow">
                        <path fill="none" stroke="white" stroke-width="1.5" d="M0,-3.0v7 M-2.5,-0.5L0,-3.0L2.5,-0.5"/>
                </g>
               <g id="resetDef">
                       <use xlink:href="#rim2" fill="#404040">
                               <set attributeName="fill" to="#808080" begin="reset.mouseover" end="reset.mouseout"/>
                       </use>
               </g>
        </defs>

<script type="text/javascript">
var viewWidth = 468;
var viewHeight = 734;
var sectionId = 'dynsection-0';
</script>
<script xlink:href="svgpan.js"/>
<svg id="graph" class="graph">
<g id="viewport">
<title>mkr::threadsafe_hashtable&lt; K, V, N &gt;::bucket</title>
<polygon fill="white" stroke="transparent" points="-4,4 -4,-730 463.5,-730 463.5,4 -4,4"/>
<!-- Node1 -->
<g id="node1" class="node">
<title>Node1</title>
<g id="a_node1"><a xlink:title=" ">
<polygon fill="#bfbfbf" stroke="black" points="22,-0.5 22,-68.5 170,-68.5 170,-0.5 22,-0.5"/>
<text text-anchor="start" x="30" y="-56.5" font-family="Helvetica,sans-Serif" font-size="10.00">mkr::threadsafe_hashtable</text>
<text text-anchor="middle" x="96" y="-45.5" font-family="Helvetica,sans-Serif" font-size="10.00">&lt; K, V, N &gt;::bucket</text>
<polyline fill="none" stroke="black" points="22,-38.5 170,-38.5 "/>
<text text-anchor="middle" x="96" y="-26.5" font-family="Helvetica,sans-Serif" font-size="10.00"> </text>
<polyline fill="none" stroke="black" points="22,-19.5 170,-19.5 "/>
<text text-anchor="middle" x="96" y="-7.5" font-family="Helvetica,sans-Serif" font-size="10.00"> </text>
</a>
</g>
</g>
<!-- Node2 -->
<g id="node2" class="node">
<title>Node2</title>
<g id="a_node2"><a xlink:title=" ">
<polygon fill="white" stroke="#bfbfbf" points="0,-204.5 0,-261.5 120,-261.5 120,-204.5 0,-204.5"/>
<text text-anchor="middle" x="60" y="-249.5" font-family="Helvetica,sans-Serif" font-size="10.00">shared_timed_mutex</text>
<polyline fill="none" stroke="#bfbfbf" points="0,-242.5 120,-242.5 "/>
<text text-anchor="middle" x="60" y="-230.5" font-family="Helvetica,sans-Serif" font-size="10.00"> </text>
<polyline fill="none" stroke="#bfbfbf" points="0,-223.5 120,-223.5 "/>
<text text-anchor="middle" x="60" y="-211.5" font-family="Helvetica,sans-Serif" font-size="10.00"> </text>
</a>
</g>
</g>
<!-- Node2&#45;&gt;Node1 -->
<g id="edge1" class="edge">
<title>Node2&#45;&gt;Node1</title>
<path fill="none" stroke="#404040" d="M65.08,-204.26C70.95,-172.23 80.69,-119.07 87.67,-80.97"/>
<polygon fill="none" stroke="#404040" points="87.76,-80.48 84.91,-73.86 89.92,-68.67 92.78,-75.3 87.76,-80.48"/>
<text text-anchor="middle" x="111.5" y="-90" font-family="Helvetica,sans-Serif" font-size="10.00"> +mutex_</text>
</g>
<!-- Node3 -->
<g id="node3" class="node">
<title>Node3</title>
<g id="a_node3"><a xlink:href="classmkr_1_1threadsafe__list.html" target="_top" xlink:title=" ">
<polygon fill="white" stroke="black" points="138.5,-116.5 138.5,-349.5 297.5,-349.5 297.5,-116.5 138.5,-116.5"/>
<text text-anchor="start" x="146.5" y="-337.5" font-family="Helvetica,sans-Serif" font-size="10.00">mkr::threadsafe_list</text>
<text text-anchor="start" x="146.5" y="-326.5" font-family="Helvetica,sans-Serif" font-size="10.00">&lt; mkr::threadsafe_hashtable</text>
<text text-anchor="middle" x="218" y="-315.5" font-family="Helvetica,sans-Serif" font-size="10.00">::pair &gt;</text>
<polyline fill="none" stroke="black" points="138.5,-308.5 297.5,-308.5 "/>
<text text-anchor="middle" x="218" y="-296.5" font-family="Helvetica,sans-Serif" font-size="10.00"> </text>
<polyline fill="none" stroke="black" points="138.5,-289.5 297.5,-289.5 "/>
<text text-anchor="start" x="146.5" y="-277.5" font-family="Helvetica,sans-Serif" font-size="10.00">+ threadsafe_list()</text>
<text text-anchor="start" x="146.5" y="-266.5" font-family="Helvetica,sans-Serif" font-size="10.00">+ threadsafe_list()</text>
<text text-anchor="start" x="146.5" y="-255.5" font-family="Helvetica,sans-Serif" font-size="10.00">+ threadsafe_list()</text>
<text text-anchor="start" x="146.5" y="-244.5" font-family="Helvetica,sans-Serif" font-size="10.00">+ ~threadsafe_list()</text>
<text text-anchor="start" x="146.5" y="-233.5" font-family="Helvetica,sans-Serif" font-size="10.00">+ operator=()</text>
<text text-anchor="start" x="146.5" y="-222.5" font-family="Helvetica,sans-Serif" font-size="10.00">+ operator=()</text>
<text text-anchor="start" x="146.5" y="-211.5" font-family="Helvetica,sans-Serif" font-size="10.00">+ match_any()</text>
<text text-anchor="start" x="146.5" y="-200.5" font-family="Helvetica,sans-Serif" font-size="10.00">+ push_front()</text>
<text text-anchor="start" x="146.5" y="-189.5" font-family="Helvetica,sans-Serif" font-size="10.00">+ remove_if()</text>
<text text-anchor="start" x="146.5" y="-178.5" font-family="Helvetica,sans-Serif" font-size="10.00">+ write_each()</text>
<text text-anchor="start" x="146.5" y="-167.5" font-family="Helvetica,sans-Serif" font-size="10.00">+ read_and_map_first_if()</text>
<text text-anchor="start" x="146.5" y="-156.5" font-family="Helvetica,sans-Serif" font-size="10.00">+ write_and_map_if()</text>
<text text-anchor="start" x="146.5" y="-145.5" font-family="Helvetica,sans-Serif" font-size="10.00">+ empty()</text>
<text text-anchor="start" x="146.5" y="-134.5" font-family="Helvetica,sans-Serif" font-size="10.00">+ size()</text>
<text text-anchor="start" x="146.5" y="-123.5" font-family="Helvetica,sans-Serif" font-size="10.00">&#45; do_push_front()</text>
</a>
</g>
</g>
<!-- Node3&#45;&gt;Node1 -->
<g id="edge2" class="edge">
<title>Node3&#45;&gt;Node1</title>
<path fill="none" stroke="#404040" d="M158.68,-116.28C152.64,-106.21 146.38,-96.32 140,-87 138.04,-84.13 135.94,-81.24 133.77,-78.37"/>
<polygon fill="none" stroke="#404040" points="133.62,-78.17 126.76,-75.94 126.18,-68.75 133.04,-70.99 133.62,-78.17"/>
<text text-anchor="middle" x="160" y="-90" font-family="Helvetica,sans-Serif" font-size="10.00"> +list_</text>
</g>
<!-- Node4 -->
<g id="node4" class="node">
<title>Node4</title>
<g id="a_node4"><a xlink:href="classmkr_1_1container.html" target="_top" xlink:title=" ">
<polygon fill="white" stroke="black" points="152.5,-657.5 152.5,-725.5 241.5,-725.5 241.5,-657.5 152.5,-657.5"/>
<text text-anchor="middle" x="197" y="-713.5" font-family="Helvetica,sans-Serif" font-size="10.00">mkr::container</text>
<polyline fill="none" stroke="black" points="152.5,-706.5 241.5,-706.5 "/>
<text text-anchor="middle" x="197" y="-694.5" font-family="Helvetica,sans-Serif" font-size="10.00"> </text>
<polyline fill="none" stroke="black" points="152.5,-687.5 241.5,-687.5 "/>
<text text-anchor="start" x="160.5" y="-675.5" font-family="Helvetica,sans-Serif" font-size="10.00">+ container()</text>
<text text-anchor="start" x="160.5" y="-664.5" font-family="Helvetica,sans-Serif" font-size="10.00">+ ~container()</text>
</a>
</g>
</g>
<!-- Node4&#45;&gt;Node3 -->
<g id="edge3" class="edge">
<title>Node4&#45;&gt;Node3</title>
<path fill="none" stroke="midnightblue" d="M197.6,-647.27C198.52,-591.82 200.64,-492.7 205,-408 205.97,-389.09 207.25,-369.05 208.61,-349.54"/>
<polygon fill="none" stroke="midnightblue" points="194.1,-647.37 197.44,-657.43 201.1,-647.48 194.1,-647.37"/>
</g>
<!-- Node5 -->
<g id="node5" class="node">
<title>Node5</title>
<g id="a_node5"><a xlink:href="classmkr_1_1threadsafe__list.html" target="_top" xlink:title=" ">
<polygon fill="white" stroke="black" points="213.5,-408.5 213.5,-619.5 356.5,-619.5 356.5,-408.5 213.5,-408.5"/>
<text text-anchor="middle" x="285" y="-607.5" font-family="Helvetica,sans-Serif" font-size="10.00">mkr::threadsafe_list&lt; T &gt;</text>
<polyline fill="none" stroke="black" points="213.5,-600.5 356.5,-600.5 "/>
<text text-anchor="middle" x="285" y="-588.5" font-family="Helvetica,sans-Serif" font-size="10.00"> </text>
<polyline fill="none" stroke="black" points="213.5,-581.5 356.5,-581.5 "/>
<text text-anchor="start" x="221.5" y="-569.5" font-family="Helvetica,sans-Serif" font-size="10.00">+ threadsafe_list()</text>
<text text-anchor="start" x="221.5" y="-558.5" font-family="Helvetica,sans-Serif" font-size="10.00">+ threadsafe_list()</text>
<text text-anchor="start" x="221.5" y="-547.5" font-family="Helvetica,sans-Serif" font-size="10.00">+ threadsafe_list()</text>
<text text-anchor="start" x="221.5" y="-536.5" font-family="Helvetica,sans-Serif" font-size="10.00">+ ~threadsafe_list()</text>
<text text-anchor="start" x="221.5" y="-525.5" font-family="Helvetica,sans-Serif" font-size="10.00">+ operator=()</text>
<text text-anchor="start" x="221.5" y="-514.5" font-family="Helvetica,sans-Serif" font-size="10.00">+ operator=()</text>
<text text-anchor="start" x="221.5" y="-503.5" font-family="Helvetica,sans-Serif" font-size="10.00">+ match_any()</text>
<text text-anchor="start" x="221.5" y="-492.5" font-family="Helvetica,sans-Serif" font-size="10.00">+ push_front()</text>
<text text-anchor="start" x="221.5" y="-481.5" font-family="Helvetica,sans-Serif" font-size="10.00">+ remove_if()</text>
<text text-anchor="start" x="221.5" y="-470.5" font-family="Helvetica,sans-Serif" font-size="10.00">+ write_each()</text>
<text text-anchor="start" x="221.5" y="-459.5" font-family="Helvetica,sans-Serif" font-size="10.00">+ read_and_map_first_if()</text>
<text text-anchor="start" x="221.5" y="-448.5" font-family="Helvetica,sans-Serif" font-size="10.00">+ write_and_map_if()</text>
<text text-anchor="start" x="221.5" y="-437.5" font-family="Helvetica,sans-Serif" font-size="10.00">+ empty()</text>
<text text-anchor="start" x="221.5" y="-426.5" font-family="Helvetica,sans-Serif" font-size="10.00">+ size()</text>
<text text-anchor="start" x="221.5" y="-415.5" font-family="Helvetica,sans-Serif" font-size="10.00">&#45; do_push_front()</text>
</a>
</g>
</g>
<!-- Node4&#45;&gt;Node5 -->
<g id="edge5" class="edge">
<title>Node4&#45;&gt;Node5</title>
<path fill="none" stroke="midnightblue" d="M218.05,-648.52C222.53,-639.59 227.45,-629.78 232.52,-619.65"/>
<polygon fill="none" stroke="midnightblue" points="214.91,-646.98 213.55,-657.49 221.16,-650.12 214.91,-646.98"/>
</g>
<!-- Node5&#45;&gt;Node3 -->
<g id="edge4" class="edge">
<title>Node5&#45;&gt;Node3</title>
<path fill="none" stroke="#404040" d="M224.67,-408.33C222.48,-402.24 220.56,-396.11 219,-390 216.7,-380.96 214.99,-371.52 213.77,-361.97"/>
<polygon fill="none" stroke="#404040" points="213.75,-361.75 209.14,-356.21 212.48,-349.82 217.09,-355.36 213.75,-361.75"/>
<text text-anchor="middle" x="261.5" y="-376.5" font-family="Helvetica,sans-Serif" font-size="10.00"> &#45;num_elements_</text>
</g>
<!-- Node5&#45;&gt;Node3 -->
<g id="edge7" class="edge">
<title>Node5&#45;&gt;Node3</title>
<path fill="none" stroke="orange" d="M308.85,-398.13C308.34,-387.86 306.84,-377.68 304,-368 302.21,-361.9 300.05,-355.81 297.6,-349.79"/>
<polygon fill="orange" stroke="orange" points="305.35,-398.5 309.04,-408.43 312.35,-398.37 305.35,-398.5"/>
<text text-anchor="start" x="307" y="-382" font-family="Helvetica,sans-Serif" font-size="10.00"> &lt; mkr::threadsafe_hashtable</text>
<text text-anchor="middle" x="380" y="-371" font-family="Helvetica,sans-Serif" font-size="10.00">::pair &gt;</text>
</g>
<!-- Node5&#45;&gt;Node5 -->
<g id="edge6" class="edge">
<title>Node5&#45;&gt;Node5</title>
<path fill="none" stroke="#404040" d="M356.63,-535.09C367.29,-531.81 374.5,-524.78 374.5,-514 374.5,-507.43 371.82,-502.26 367.32,-498.47"/>
<polygon fill="none" stroke="#404040" points="367.27,-498.45 360.1,-499.23 356.63,-492.91 363.79,-492.13 367.27,-498.45"/>
<text text-anchor="middle" x="417" y="-511.5" font-family="Helvetica,sans-Serif" font-size="10.00"> &#45;num_elements_</text>
</g>
</g>
</svg>
        <g id="navigator" transform="translate(0 0)" fill="#404254">
                <rect fill="#f2f5e9" fill-opacity="0.5" stroke="#606060" stroke-width=".5" x="0" y="0" width="60" height="60"/>
                <use id="zoomplus" xlink:href="#zoomPlus" x="17" y="9" onmousedown="handleZoom(evt,'in')"/>
                <use id="zoomminus" xlink:href="#zoomMin" x="42" y="9" onmousedown="handleZoom(evt,'out')"/>
                <use id="reset" xlink:href="#resetDef" x="30" y="36" onmousedown="handleReset()"/>
                <g id="arrowUp" xlink:href="#dirArrow" transform="translate(30 24)" onmousedown="handlePan(0,-1)">
                  <use xlink:href="#rim" fill="#404040">
                        <set attributeName="fill" to="#808080" begin="arrowUp.mouseover" end="arrowUp.mouseout"/>
                  </use>
                  <path fill="none" stroke="white" stroke-width="1.5" d="M0,-3.0v7 M-2.5,-0.5L0,-3.0L2.5,-0.5"/>
                </g>
                <g id="arrowRight" xlink:href="#dirArrow" transform="rotate(90) translate(36 -43)" onmousedown="handlePan(1,0)">
                  <use xlink:href="#rim" fill="#404040">
                        <set attributeName="fill" to="#808080" begin="arrowRight.mouseover" end="arrowRight.mouseout"/>
                  </use>
                  <path fill="none" stroke="white" stroke-width="1.5" d="M0,-3.0v7 M-2.5,-0.5L0,-3.0L2.5,-0.5"/>
                </g>
                <g id="arrowDown" xlink:href="#dirArrow" transform="rotate(180) translate(-30 -48)" onmousedown="handlePan(0,1)">
                  <use xlink:href="#rim" fill="#404040">
                        <set attributeName="fill" to="#808080" begin="arrowDown.mouseover" end="arrowDown.mouseout"/>
                  </use>
                  <path fill="none" stroke="white" stroke-width="1.5" d="M0,-3.0v7 M-2.5,-0.5L0,-3.0L2.5,-0.5"/>
                </g>
                <g id="arrowLeft" xlink:href="#dirArrow" transform="rotate(270) translate(-36 17)" onmousedown="handlePan(-1,0)">
                  <use xlink:href="#rim" fill="#404040">
                        <set attributeName="fill" to="#808080" begin="arrowLeft.mouseover" end="arrowLeft.mouseout"/>
                  </use>
                  <path fill="none" stroke="white" stroke-width="1.5" d="M0,-3.0v7 M-2.5,-0.5L0,-3.0L2.5,-0.5"/>
                </g>
        </g>
        <svg viewBox="0 0 15 15" width="100%" height="30px" preserveAspectRatio="xMaxYMin meet">
         <g id="arrow_out" transform="scale(0.3 0.3)">
          <a xlink:href="structmkr_1_1threadsafe__hashtable_1_1bucket__coll__graph_org.svg" target="_base">
           <rect id="button" ry="5" rx="5" y="6" x="6" height="38" width="38"
                fill="#f2f5e9" fill-opacity="0.5" stroke="#606060" stroke-width="1.0"/>
           <path id="arrow"
             d="M 11.500037,31.436501 C 11.940474,20.09759 22.043105,11.32322 32.158766,21.979434 L 37.068811,17.246167 C 37.068811,17.246167 37.088388,32 37.088388,32 L 22.160133,31.978069 C 22.160133,31.978069 26.997745,27.140456 26.997745,27.140456 C 18.528582,18.264221 13.291696,25.230495 11.500037,31.436501 z"
             style="fill:#404040;"/>
          </a>
         </g>
        </svg>
</svg>
