<?xml version="1.0" encoding="UTF-8" standalone="no"?>
<!DOCTYPE svg PUBLIC "-//W3C//DTD SVG 1.1//EN"
 "http://www.w3.org/Graphics/SVG/1.1/DTD/svg11.dtd">
<!-- Generated by graphviz version 2.43.0 (0)
 -->
<!-- Title: mkr::threadsafe_hashtable&lt; K, V, N &gt;::bucket Pages: 1 -->
<!--zoomable 1291 -->

<svg id="main" version="1.1" xmlns="http://www.w3.org/2000/svg" xmlns:xlink="http://www.w3.org/1999/xlink" xml:space="preserve" onload="init(evt)">
<style type="text/css"><![CDATA[
.node, .edge {opacity: 0.7;}
.node.selected, .edge.selected {opacity: 1;}
.edge:hover path { stroke: red; }
.edge:hover polygon { stroke: red; fill: red; }
]]></style>

<defs>
  <circle id="rim" cx="0" cy="0" r="7"/>
  <circle id="rim2" cx="0" cy="0" r="3.5"/>
  <g id="zoomPlus">
    <use xlink:href="#rim" fill="#404040"><set attributeName="fill" to="#808080" begin="zoomplus.mouseover" end="zoomplus.mouseout"/></use>
    <path d="M-4,0h8M0,-4v8" fill="none" stroke="white" stroke-width="1.5" pointer-events="none"/>
  </g>
  <g id="zoomMin">
    <use xlink:href="#rim" fill="#404040"><set attributeName="fill" to="#808080" begin="zoomminus.mouseover" end="zoomminus.mouseout"/></use>
    <path d="M-4,0h8" fill="none" stroke="white" stroke-width="1.5" pointer-events="none"/>
  </g>
  <g id="arrowUp" transform="translate(30 24)">
    <use xlink:href="#rim"/>
    <path pointer-events="none" fill="none" stroke="white" stroke-width="1.5" d="M0,-3.0v7 M-2.5,-0.5L0,-3.0L2.5,-0.5"/>
  </g>
  <g id="arrowRight" transform="rotate(90) translate(36 -43)">
    <use xlink:href="#rim"/>
    <path pointer-events="none" fill="none" stroke="white" stroke-width="1.5" d="M0,-3.0v7 M-2.5,-0.5L0,-3.0L2.5,-0.5"/>
  </g>
  <g id="arrowDown" transform="rotate(180) translate(-30 -48)">
    <use xlink:href="#rim"/>
    <path pointer-events="none" fill="none" stroke="white" stroke-width="1.5" d="M0,-3.0v7 M-2.5,-0.5L0,-3.0L2.5,-0.5"/>
  </g>
  <g id="arrowLeft" transform="rotate(270) translate(-36 17)">
    <use xlink:href="#rim"/>
    <path pointer-events="none" fill="none" stroke="white" stroke-width="1.5" d="M0,-3.0v7 M-2.5,-0.5L0,-3.0L2.5,-0.5"/>
  </g>
  <g id="resetDef">
    <use xlink:href="#rim2" fill="#404040"><set attributeName="fill" to="#808080" begin="reset.mouseover" end="reset.mouseout"/></use>
  </g>
</defs>
<script type="application/ecmascript">
var viewWidth = 547;
var viewHeight = 1291;
var sectionId = 'dynsection-0';
</script>
<script type="application/ecmascript" xlink:href="svg.min.js"/>
<svg id="graph" class="graph">
<g id="viewport">
<title>mkr::threadsafe_hashtable&lt; K, V, N &gt;::bucket</title>
<!-- Node1 -->
<g id="Node000001" class="node">
<title>Node1</title>
<g id="a_Node000001"><a xlink:title=" ">
<polygon fill="#999999" stroke="transparent" points="142,-60 0,-60 0,0 142,0 142,-60"/>
<text text-anchor="start" x="5" y="-48" font-family="Helvetica,sans-Serif" font-size="10.00">mkr::threadsafe_hashtable</text>
<text text-anchor="start" x="24" y="-37" font-family="Helvetica,sans-Serif" font-size="10.00">&lt; K, V, N &gt;::bucket</text>
<text text-anchor="start" x="69" y="-22" font-family="Helvetica,sans-Serif" font-size="10.00"> </text>
<text text-anchor="start" x="69" y="-7" font-family="Helvetica,sans-Serif" font-size="10.00"> </text>
<polygon fill="#666666" stroke="#666666" points="0,-32 0,-32 142,-32 142,-32 0,-32"/>
<polygon fill="#666666" stroke="#666666" points="0,-17 0,-17 142,-17 142,-17 0,-17"/>
<polygon fill="none" stroke="#666666" points="0,0 0,-60 142,-60 142,0 0,0"/>
</a>
</g>
</g>
<!-- Node2 -->
<g id="Node000002" class="node">
<title>Node2</title>
<g id="a_Node000002"><a xlink:title=" ">
<polygon fill="white" stroke="transparent" points="196,-1277.5 82,-1277.5 82,-1228.5 196,-1228.5 196,-1277.5"/>
<text text-anchor="start" x="87" y="-1265" font-family="Helvetica,sans-Serif" font-size="10.00">shared_timed_mutex</text>
<text text-anchor="start" x="137" y="-1250" font-family="Helvetica,sans-Serif" font-size="10.00"> </text>
<text text-anchor="start" x="137" y="-1235" font-family="Helvetica,sans-Serif" font-size="10.00"> </text>
<polygon fill="#666666" stroke="#666666" points="82,-1260 82,-1260 196,-1260 196,-1260 82,-1260"/>
<polygon fill="#666666" stroke="#666666" points="82,-1245 82,-1245 196,-1245 196,-1245 82,-1245"/>
<polygon fill="none" stroke="#666666" points="82,-1228.5 82,-1277.5 196,-1277.5 196,-1228.5 82,-1228.5"/>
</a>
</g>
</g>
<!-- Node2&#45;&gt;Node1 -->
<g id="edge1_Node000001_Node000002" class="edge">
<title>Node2&#45;&gt;Node1</title>
<g id="a_edge1_Node000001_Node000002"><a xlink:title=" ">
<path fill="none" stroke="#63b8ff" d="M105.32,-1228.41C81.95,-1209.02 55,-1179.24 55,-1145 55,-1145 55,-1145 55,-336.5 55,-241.75 62.77,-130.69 67.48,-72.07"/>
<polygon fill="none" stroke="#63b8ff" points="67.49,-72 63.99,-65.69 68.46,-60.04 71.96,-66.34 67.49,-72"/>
</a>
</g>
<text text-anchor="middle" x="79.5" y="-843" font-family="Helvetica,sans-Serif" font-size="10.00" fill="grey"> +mutex_</text>
</g>
<!-- Node5 -->
<g id="Node000005" class="node">
<title>Node5</title>
<g id="a_Node000005"><a xlink:href="structmkr_1_1threadsafe__list_1_1node.html" target="_top" xlink:title=" ">
<polygon fill="white" stroke="transparent" points="397.5,-1174 288.5,-1174 288.5,-1114 397.5,-1114 397.5,-1174"/>
<text text-anchor="start" x="294" y="-1162" font-family="Helvetica,sans-Serif" font-size="10.00">mkr::threadsafe_list</text>
<text text-anchor="start" x="314" y="-1151" font-family="Helvetica,sans-Serif" font-size="10.00">&lt; T &gt;::node</text>
<text text-anchor="start" x="341.5" y="-1136" font-family="Helvetica,sans-Serif" font-size="10.00"> </text>
<text text-anchor="start" x="341.5" y="-1121" font-family="Helvetica,sans-Serif" font-size="10.00"> </text>
<polygon fill="#666666" stroke="#666666" points="289,-1146 289,-1146 398,-1146 398,-1146 289,-1146"/>
<polygon fill="#666666" stroke="#666666" points="289,-1131 289,-1131 398,-1131 398,-1131 289,-1131"/>
<polygon fill="none" stroke="#666666" points="288.5,-1114 288.5,-1174 397.5,-1174 397.5,-1114 288.5,-1114"/>
</a>
</g>
</g>
<!-- Node2&#45;&gt;Node5 -->
<g id="edge5_Node000005_Node000002" class="edge">
<title>Node2&#45;&gt;Node5</title>
<g id="a_edge5_Node000005_Node000002"><a xlink:title=" ">
<path fill="none" stroke="#63b8ff" d="M184.02,-1228.39C211.4,-1214.03 246.84,-1195.43 277.32,-1179.45"/>
<polygon fill="none" stroke="#63b8ff" points="277.67,-1179.27 281.12,-1172.94 288.29,-1173.69 284.84,-1180.02 277.67,-1179.27"/>
</a>
</g>
<text text-anchor="middle" x="272.5" y="-1197" font-family="Helvetica,sans-Serif" font-size="10.00" fill="grey"> +mutex_</text>
</g>
<!-- Node3 -->
<g id="Node000003" class="node">
<title>Node3</title>
<g id="a_Node000003"><a xlink:href="classmkr_1_1threadsafe__list.html" target="_top" xlink:title=" ">
<polygon fill="white" stroke="transparent" points="265.5,-568 112.5,-568 112.5,-107 265.5,-107 265.5,-568"/>
<text text-anchor="start" x="118" y="-555.5" font-family="Helvetica,sans-Serif" font-size="10.00">mkr::threadsafe_list</text>
<text text-anchor="start" x="118" y="-544.5" font-family="Helvetica,sans-Serif" font-size="10.00">&lt; mkr::threadsafe_hashtable</text>
<text text-anchor="start" x="171" y="-533.5" font-family="Helvetica,sans-Serif" font-size="10.00">::pair &gt;</text>
<text text-anchor="start" x="187.5" y="-518.5" font-family="Helvetica,sans-Serif" font-size="10.00"> </text>
<text text-anchor="start" x="120" y="-503.5" font-family="Helvetica,sans-Serif" font-size="10.00">+</text>
<text text-anchor="start" x="136" y="-503.5" font-family="Helvetica,sans-Serif" font-size="10.00">threadsafe_list()</text>
<text text-anchor="start" x="120" y="-488.5" font-family="Helvetica,sans-Serif" font-size="10.00">+</text>
<text text-anchor="start" x="136" y="-488.5" font-family="Helvetica,sans-Serif" font-size="10.00">threadsafe_list()</text>
<text text-anchor="start" x="120" y="-473.5" font-family="Helvetica,sans-Serif" font-size="10.00">+</text>
<text text-anchor="start" x="136" y="-473.5" font-family="Helvetica,sans-Serif" font-size="10.00">threadsafe_list()</text>
<text text-anchor="start" x="120" y="-458.5" font-family="Helvetica,sans-Serif" font-size="10.00">+</text>
<text text-anchor="start" x="136" y="-458.5" font-family="Helvetica,sans-Serif" font-size="10.00">~threadsafe_list()</text>
<text text-anchor="start" x="120" y="-443.5" font-family="Helvetica,sans-Serif" font-size="10.00">+</text>
<text text-anchor="start" x="136" y="-443.5" font-family="Helvetica,sans-Serif" font-size="10.00">operator=()</text>
<text text-anchor="start" x="120" y="-428.5" font-family="Helvetica,sans-Serif" font-size="10.00">+</text>
<text text-anchor="start" x="136" y="-428.5" font-family="Helvetica,sans-Serif" font-size="10.00">operator=()</text>
<text text-anchor="start" x="120" y="-413.5" font-family="Helvetica,sans-Serif" font-size="10.00">+</text>
<text text-anchor="start" x="136" y="-413.5" font-family="Helvetica,sans-Serif" font-size="10.00">match_any()</text>
<text text-anchor="start" x="120" y="-398.5" font-family="Helvetica,sans-Serif" font-size="10.00">+</text>
<text text-anchor="start" x="136" y="-398.5" font-family="Helvetica,sans-Serif" font-size="10.00">match_none()</text>
<text text-anchor="start" x="120" y="-383.5" font-family="Helvetica,sans-Serif" font-size="10.00">+</text>
<text text-anchor="start" x="136" y="-383.5" font-family="Helvetica,sans-Serif" font-size="10.00">push_front()</text>
<text text-anchor="start" x="120" y="-368.5" font-family="Helvetica,sans-Serif" font-size="10.00">+</text>
<text text-anchor="start" x="136" y="-368.5" font-family="Helvetica,sans-Serif" font-size="10.00">push_front()</text>
<text text-anchor="start" x="120" y="-353.5" font-family="Helvetica,sans-Serif" font-size="10.00">+</text>
<text text-anchor="start" x="136" y="-353.5" font-family="Helvetica,sans-Serif" font-size="10.00">remove_if()</text>
<text text-anchor="start" x="120" y="-338.5" font-family="Helvetica,sans-Serif" font-size="10.00">+</text>
<text text-anchor="start" x="136" y="-338.5" font-family="Helvetica,sans-Serif" font-size="10.00">replace_if()</text>
<text text-anchor="start" x="120" y="-323.5" font-family="Helvetica,sans-Serif" font-size="10.00">+</text>
<text text-anchor="start" x="136" y="-323.5" font-family="Helvetica,sans-Serif" font-size="10.00">write_each()</text>
<text text-anchor="start" x="120" y="-308.5" font-family="Helvetica,sans-Serif" font-size="10.00">+</text>
<text text-anchor="start" x="136" y="-308.5" font-family="Helvetica,sans-Serif" font-size="10.00">read_each()</text>
<text text-anchor="start" x="120" y="-293.5" font-family="Helvetica,sans-Serif" font-size="10.00">+</text>
<text text-anchor="start" x="136" y="-293.5" font-family="Helvetica,sans-Serif" font-size="10.00">find_first_if()</text>
<text text-anchor="start" x="120" y="-278.5" font-family="Helvetica,sans-Serif" font-size="10.00">+</text>
<text text-anchor="start" x="136" y="-278.5" font-family="Helvetica,sans-Serif" font-size="10.00">find_first_if()</text>
<text text-anchor="start" x="120" y="-263.5" font-family="Helvetica,sans-Serif" font-size="10.00">+</text>
<text text-anchor="start" x="136" y="-263.5" font-family="Helvetica,sans-Serif" font-size="10.00">write_and_map_first_if()</text>
<text text-anchor="start" x="120" y="-248.5" font-family="Helvetica,sans-Serif" font-size="10.00">+</text>
<text text-anchor="start" x="136" y="-248.5" font-family="Helvetica,sans-Serif" font-size="10.00">read_and_map_first_if()</text>
<text text-anchor="start" x="120" y="-233.5" font-family="Helvetica,sans-Serif" font-size="10.00">+</text>
<text text-anchor="start" x="136" y="-233.5" font-family="Helvetica,sans-Serif" font-size="10.00">write_and_map_if()</text>
<text text-anchor="start" x="120" y="-218.5" font-family="Helvetica,sans-Serif" font-size="10.00">+</text>
<text text-anchor="start" x="136" y="-218.5" font-family="Helvetica,sans-Serif" font-size="10.00">read_and_map_if()</text>
<text text-anchor="start" x="120" y="-203.5" font-family="Helvetica,sans-Serif" font-size="10.00">+</text>
<text text-anchor="start" x="136" y="-203.5" font-family="Helvetica,sans-Serif" font-size="10.00">write_and_map_each()</text>
<text text-anchor="start" x="120" y="-188.5" font-family="Helvetica,sans-Serif" font-size="10.00">+</text>
<text text-anchor="start" x="136" y="-188.5" font-family="Helvetica,sans-Serif" font-size="10.00">read_and_map_each()</text>
<text text-anchor="start" x="120" y="-173.5" font-family="Helvetica,sans-Serif" font-size="10.00">+</text>
<text text-anchor="start" x="136" y="-173.5" font-family="Helvetica,sans-Serif" font-size="10.00">clear()</text>
<text text-anchor="start" x="120" y="-158.5" font-family="Helvetica,sans-Serif" font-size="10.00">+</text>
<text text-anchor="start" x="136" y="-158.5" font-family="Helvetica,sans-Serif" font-size="10.00">empty()</text>
<text text-anchor="start" x="120" y="-143.5" font-family="Helvetica,sans-Serif" font-size="10.00">+</text>
<text text-anchor="start" x="136" y="-143.5" font-family="Helvetica,sans-Serif" font-size="10.00">size()</text>
<text text-anchor="start" x="122.5" y="-128.5" font-family="Helvetica,sans-Serif" font-size="10.00">&#45;</text>
<text text-anchor="start" x="136" y="-128.5" font-family="Helvetica,sans-Serif" font-size="10.00">do_push_front()</text>
<text text-anchor="start" x="122.5" y="-113.5" font-family="Helvetica,sans-Serif" font-size="10.00">&#45;</text>
<text text-anchor="start" x="136" y="-113.5" font-family="Helvetica,sans-Serif" font-size="10.00">do_copy_constructor()</text>
<polygon fill="#666666" stroke="#666666" points="113,-528.5 113,-528.5 266,-528.5 266,-528.5 113,-528.5"/>
<polygon fill="#666666" stroke="#666666" points="113,-513.5 113,-513.5 266,-513.5 266,-513.5 113,-513.5"/>
<polygon fill="none" stroke="#666666" points="112.5,-107 112.5,-568 265.5,-568 265.5,-107 112.5,-107"/>
</a>
</g>
</g>
<!-- Node3&#45;&gt;Node1 -->
<g id="edge2_Node000001_Node000003" class="edge">
<title>Node3&#45;&gt;Node1</title>
<g id="a_edge2_Node000001_Node000003"><a xlink:title=" ">
<path fill="none" stroke="#63b8ff" d="M112.44,-138.28C102.8,-113.33 93.85,-90.16 86.75,-71.79"/>
<polygon fill="none" stroke="#63b8ff" points="86.69,-71.63 80.8,-67.47 82.37,-60.43 88.26,-64.59 86.69,-71.63"/>
</a>
</g>
<text text-anchor="middle" x="107" y="-81" font-family="Helvetica,sans-Serif" font-size="10.00" fill="grey"> +list_</text>
</g>
<!-- Node4 -->
<g id="Node000004" class="node">
<title>Node4</title>
<g id="a_Node000004"><a xlink:href="classmkr_1_1container.html" target="_top" xlink:title=" ">
<polygon fill="white" stroke="transparent" points="173.5,-1176 90.5,-1176 90.5,-1112 173.5,-1112 173.5,-1176"/>
<text text-anchor="start" x="96.5" y="-1164" font-family="Helvetica,sans-Serif" font-size="10.00">mkr::container</text>
<text text-anchor="start" x="130.5" y="-1149" font-family="Helvetica,sans-Serif" font-size="10.00"> </text>
<text text-anchor="start" x="95" y="-1134" font-family="Helvetica,sans-Serif" font-size="10.00">+</text>
<text text-anchor="start" x="108" y="-1134" font-family="Helvetica,sans-Serif" font-size="10.00">container()</text>
<text text-anchor="start" x="95" y="-1119" font-family="Helvetica,sans-Serif" font-size="10.00">+</text>
<text text-anchor="start" x="108" y="-1119" font-family="Helvetica,sans-Serif" font-size="10.00">~container()</text>
<polygon fill="#666666" stroke="#666666" points="91,-1159 91,-1159 174,-1159 174,-1159 91,-1159"/>
<polygon fill="#666666" stroke="#666666" points="91,-1144 91,-1144 174,-1144 174,-1144 91,-1144"/>
<polygon fill="none" stroke="#666666" points="90.5,-1112 90.5,-1176 173.5,-1176 173.5,-1112 90.5,-1112"/>
</a>
</g>
</g>
<!-- Node4&#45;&gt;Node3 -->
<g id="edge3_Node000003_Node000004" class="edge">
<title>Node4&#45;&gt;Node3</title>
<g id="a_edge3_Node000003_Node000004"><a xlink:title=" ">
<path fill="none" stroke="#63b8ff" d="M132.19,-1101.68C132.89,-1013.92 136.12,-802.52 151,-626 152.59,-607.19 154.52,-587.72 156.67,-568.18"/>
<polygon fill="none" stroke="#63b8ff" points="128.69,-1101.73 132.12,-1111.76 135.69,-1101.79 128.69,-1101.73"/>
</a>
</g>
</g>
<!-- Node9 -->
<g id="Node000009" class="node">
<title>Node9</title>
<g id="a_Node000009"><a xlink:href="classmkr_1_1threadsafe__list.html" target="_top" xlink:title=" ">
<polygon fill="white" stroke="transparent" points="300,-1065 160,-1065 160,-626 300,-626 300,-1065"/>
<text text-anchor="start" x="166.5" y="-1052.5" font-family="Helvetica,sans-Serif" font-size="10.00">mkr::threadsafe_list&lt; T &gt;</text>
<text text-anchor="start" x="228" y="-1037.5" font-family="Helvetica,sans-Serif" font-size="10.00"> </text>
<text text-anchor="start" x="164" y="-1022.5" font-family="Helvetica,sans-Serif" font-size="10.00">+</text>
<text text-anchor="start" x="177" y="-1022.5" font-family="Helvetica,sans-Serif" font-size="10.00">threadsafe_list()</text>
<text text-anchor="start" x="164" y="-1007.5" font-family="Helvetica,sans-Serif" font-size="10.00">+</text>
<text text-anchor="start" x="177" y="-1007.5" font-family="Helvetica,sans-Serif" font-size="10.00">threadsafe_list()</text>
<text text-anchor="start" x="164" y="-992.5" font-family="Helvetica,sans-Serif" font-size="10.00">+</text>
<text text-anchor="start" x="177" y="-992.5" font-family="Helvetica,sans-Serif" font-size="10.00">threadsafe_list()</text>
<text text-anchor="start" x="164" y="-977.5" font-family="Helvetica,sans-Serif" font-size="10.00">+</text>
<text text-anchor="start" x="177" y="-977.5" font-family="Helvetica,sans-Serif" font-size="10.00">~threadsafe_list()</text>
<text text-anchor="start" x="164" y="-962.5" font-family="Helvetica,sans-Serif" font-size="10.00">+</text>
<text text-anchor="start" x="177" y="-962.5" font-family="Helvetica,sans-Serif" font-size="10.00">operator=()</text>
<text text-anchor="start" x="164" y="-947.5" font-family="Helvetica,sans-Serif" font-size="10.00">+</text>
<text text-anchor="start" x="177" y="-947.5" font-family="Helvetica,sans-Serif" font-size="10.00">operator=()</text>
<text text-anchor="start" x="164" y="-932.5" font-family="Helvetica,sans-Serif" font-size="10.00">+</text>
<text text-anchor="start" x="177" y="-932.5" font-family="Helvetica,sans-Serif" font-size="10.00">match_any()</text>
<text text-anchor="start" x="164" y="-917.5" font-family="Helvetica,sans-Serif" font-size="10.00">+</text>
<text text-anchor="start" x="177" y="-917.5" font-family="Helvetica,sans-Serif" font-size="10.00">match_none()</text>
<text text-anchor="start" x="164" y="-902.5" font-family="Helvetica,sans-Serif" font-size="10.00">+</text>
<text text-anchor="start" x="177" y="-902.5" font-family="Helvetica,sans-Serif" font-size="10.00">push_front()</text>
<text text-anchor="start" x="164" y="-887.5" font-family="Helvetica,sans-Serif" font-size="10.00">+</text>
<text text-anchor="start" x="177" y="-887.5" font-family="Helvetica,sans-Serif" font-size="10.00">push_front()</text>
<text text-anchor="start" x="164" y="-872.5" font-family="Helvetica,sans-Serif" font-size="10.00">+</text>
<text text-anchor="start" x="177" y="-872.5" font-family="Helvetica,sans-Serif" font-size="10.00">remove_if()</text>
<text text-anchor="start" x="164" y="-857.5" font-family="Helvetica,sans-Serif" font-size="10.00">+</text>
<text text-anchor="start" x="177" y="-857.5" font-family="Helvetica,sans-Serif" font-size="10.00">replace_if()</text>
<text text-anchor="start" x="164" y="-842.5" font-family="Helvetica,sans-Serif" font-size="10.00">+</text>
<text text-anchor="start" x="177" y="-842.5" font-family="Helvetica,sans-Serif" font-size="10.00">write_each()</text>
<text text-anchor="start" x="164" y="-827.5" font-family="Helvetica,sans-Serif" font-size="10.00">+</text>
<text text-anchor="start" x="177" y="-827.5" font-family="Helvetica,sans-Serif" font-size="10.00">read_each()</text>
<text text-anchor="start" x="164" y="-812.5" font-family="Helvetica,sans-Serif" font-size="10.00">+</text>
<text text-anchor="start" x="177" y="-812.5" font-family="Helvetica,sans-Serif" font-size="10.00">find_first_if()</text>
<text text-anchor="start" x="164" y="-797.5" font-family="Helvetica,sans-Serif" font-size="10.00">+</text>
<text text-anchor="start" x="177" y="-797.5" font-family="Helvetica,sans-Serif" font-size="10.00">find_first_if()</text>
<text text-anchor="start" x="164" y="-782.5" font-family="Helvetica,sans-Serif" font-size="10.00">+</text>
<text text-anchor="start" x="177" y="-782.5" font-family="Helvetica,sans-Serif" font-size="10.00">write_and_map_first_if()</text>
<text text-anchor="start" x="164" y="-767.5" font-family="Helvetica,sans-Serif" font-size="10.00">+</text>
<text text-anchor="start" x="177" y="-767.5" font-family="Helvetica,sans-Serif" font-size="10.00">read_and_map_first_if()</text>
<text text-anchor="start" x="164" y="-752.5" font-family="Helvetica,sans-Serif" font-size="10.00">+</text>
<text text-anchor="start" x="177" y="-752.5" font-family="Helvetica,sans-Serif" font-size="10.00">write_and_map_if()</text>
<text text-anchor="start" x="164" y="-737.5" font-family="Helvetica,sans-Serif" font-size="10.00">+</text>
<text text-anchor="start" x="177" y="-737.5" font-family="Helvetica,sans-Serif" font-size="10.00">read_and_map_if()</text>
<text text-anchor="start" x="164" y="-722.5" font-family="Helvetica,sans-Serif" font-size="10.00">+</text>
<text text-anchor="start" x="177" y="-722.5" font-family="Helvetica,sans-Serif" font-size="10.00">write_and_map_each()</text>
<text text-anchor="start" x="164" y="-707.5" font-family="Helvetica,sans-Serif" font-size="10.00">+</text>
<text text-anchor="start" x="177" y="-707.5" font-family="Helvetica,sans-Serif" font-size="10.00">read_and_map_each()</text>
<text text-anchor="start" x="164" y="-692.5" font-family="Helvetica,sans-Serif" font-size="10.00">+</text>
<text text-anchor="start" x="177" y="-692.5" font-family="Helvetica,sans-Serif" font-size="10.00">clear()</text>
<text text-anchor="start" x="164" y="-677.5" font-family="Helvetica,sans-Serif" font-size="10.00">+</text>
<text text-anchor="start" x="177" y="-677.5" font-family="Helvetica,sans-Serif" font-size="10.00">empty()</text>
<text text-anchor="start" x="164" y="-662.5" font-family="Helvetica,sans-Serif" font-size="10.00">+</text>
<text text-anchor="start" x="177" y="-662.5" font-family="Helvetica,sans-Serif" font-size="10.00">size()</text>
<text text-anchor="start" x="166.5" y="-647.5" font-family="Helvetica,sans-Serif" font-size="10.00">&#45;</text>
<text text-anchor="start" x="177" y="-647.5" font-family="Helvetica,sans-Serif" font-size="10.00">do_push_front()</text>
<text text-anchor="start" x="166.5" y="-632.5" font-family="Helvetica,sans-Serif" font-size="10.00">&#45;</text>
<text text-anchor="start" x="177" y="-632.5" font-family="Helvetica,sans-Serif" font-size="10.00">do_copy_constructor()</text>
<polygon fill="#666666" stroke="#666666" points="160,-1047.5 160,-1047.5 300,-1047.5 300,-1047.5 160,-1047.5"/>
<polygon fill="#666666" stroke="#666666" points="160,-1032.5 160,-1032.5 300,-1032.5 300,-1032.5 160,-1032.5"/>
<polygon fill="none" stroke="#666666" points="160,-626 160,-1065 300,-1065 300,-626 160,-626"/>
</a>
</g>
</g>
<!-- Node4&#45;&gt;Node9 -->
<g id="edge10_Node000009_Node000004" class="edge">
<title>Node4&#45;&gt;Node9</title>
<g id="a_edge10_Node000009_Node000004"><a xlink:title=" ">
<path fill="none" stroke="#63b8ff" d="M145.49,-1102.18C149.68,-1089.52 154.61,-1074.61 159.95,-1058.44"/>
<polygon fill="none" stroke="#63b8ff" points="142.12,-1101.24 142.3,-1111.83 148.76,-1103.43 142.12,-1101.24"/>
</a>
</g>
</g>
<!-- Node5&#45;&gt;Node3 -->
<g id="edge4_Node000003_Node000005" class="edge">
<title>Node5&#45;&gt;Node3</title>
<g id="a_edge4_Node000003_Node000005"><a xlink:title=" ">
<path fill="none" stroke="#63b8ff" d="M397.59,-1114.48C415.8,-1101.95 433.99,-1085.38 444,-1065 530.02,-889.88 513.24,-808.41 444,-626 410.22,-537.01 334.89,-457.91 274.81,-405.32"/>
<polygon fill="none" stroke="#63b8ff" points="274.76,-405.28 267.61,-404.38 265.69,-397.43 272.84,-398.33 274.76,-405.28"/>
</a>
</g>
<text text-anchor="middle" x="520.5" y="-843" font-family="Helvetica,sans-Serif" font-size="10.00" fill="grey"> &#45;head_</text>
</g>
<!-- Node5&#45;&gt;Node9 -->
<g id="edge11_Node000009_Node000005" class="edge">
<title>Node5&#45;&gt;Node9</title>
<g id="a_edge11_Node000009_Node000005"><a xlink:title=" ">
<path fill="none" stroke="#63b8ff" d="M331.86,-1113.76C324.83,-1095.32 315.07,-1069.72 304.36,-1041.62"/>
<polygon fill="none" stroke="#63b8ff" points="304.32,-1041.52 298.45,-1037.34 300.05,-1030.31 305.93,-1034.49 304.32,-1041.52"/>
</a>
</g>
<text text-anchor="middle" x="343.5" y="-1086" font-family="Helvetica,sans-Serif" font-size="10.00" fill="grey"> &#45;head_</text>
</g>
<!-- Node6 -->
<g id="Node000006" class="node">
<title>Node6</title>
<g id="a_Node000006"><a xlink:title=" ">
<polygon fill="white" stroke="transparent" points="318.5,-1277.5 227.5,-1277.5 227.5,-1228.5 318.5,-1228.5 318.5,-1277.5"/>
<text text-anchor="start" x="233" y="-1265" font-family="Helvetica,sans-Serif" font-size="10.00">shared_ptr&lt; T &gt;</text>
<text text-anchor="start" x="271.5" y="-1250" font-family="Helvetica,sans-Serif" font-size="10.00"> </text>
<text text-anchor="start" x="271.5" y="-1235" font-family="Helvetica,sans-Serif" font-size="10.00"> </text>
<polygon fill="#666666" stroke="#666666" points="228,-1260 228,-1260 319,-1260 319,-1260 228,-1260"/>
<polygon fill="#666666" stroke="#666666" points="228,-1245 228,-1245 319,-1245 319,-1245 228,-1245"/>
<polygon fill="none" stroke="#666666" points="227.5,-1228.5 227.5,-1277.5 318.5,-1277.5 318.5,-1228.5 227.5,-1228.5"/>
</a>
</g>
</g>
<!-- Node6&#45;&gt;Node5 -->
<g id="edge6_Node000005_Node000006" class="edge">
<title>Node6&#45;&gt;Node5</title>
<g id="a_edge6_Node000005_Node000006"><a xlink:title=" ">
<path fill="none" stroke="#63b8ff" d="M288.54,-1228.25C296.96,-1215.37 307.6,-1199.12 317.23,-1184.4"/>
<polygon fill="none" stroke="#63b8ff" points="317.45,-1184.06 317.38,-1176.85 324.02,-1174.02 324.08,-1181.23 317.45,-1184.06"/>
</a>
</g>
<text text-anchor="middle" x="333" y="-1197" font-family="Helvetica,sans-Serif" font-size="10.00" fill="grey"> +value_</text>
</g>
<!-- Node7 -->
<g id="Node000007" class="node">
<title>Node7</title>
<g id="a_Node000007"><a xlink:title=" ">
<polygon fill="white" stroke="transparent" points="489,-1283 337,-1283 337,-1223 489,-1223 489,-1283"/>
<text text-anchor="start" x="342" y="-1271" font-family="Helvetica,sans-Serif" font-size="10.00">unique_ptr&lt; mkr::threadsafe</text>
<text text-anchor="start" x="382" y="-1260" font-family="Helvetica,sans-Serif" font-size="10.00">_list::node &gt;</text>
<text text-anchor="start" x="411" y="-1245" font-family="Helvetica,sans-Serif" font-size="10.00"> </text>
<text text-anchor="start" x="411" y="-1230" font-family="Helvetica,sans-Serif" font-size="10.00"> </text>
<polygon fill="#666666" stroke="#666666" points="337,-1255 337,-1255 489,-1255 489,-1255 337,-1255"/>
<polygon fill="#666666" stroke="#666666" points="337,-1240 337,-1240 489,-1240 489,-1240 337,-1240"/>
<polygon fill="none" stroke="#666666" points="337,-1223 337,-1283 489,-1283 489,-1223 337,-1223"/>
</a>
</g>
</g>
<!-- Node7&#45;&gt;Node5 -->
<g id="edge7_Node000005_Node000007" class="edge">
<title>Node7&#45;&gt;Node5</title>
<g id="a_edge7_Node000005_Node000007"><a xlink:title=" ">
<path fill="none" stroke="#63b8ff" d="M393.87,-1222.76C386.16,-1210.97 377.13,-1197.18 368.85,-1184.51"/>
<polygon fill="none" stroke="#63b8ff" points="368.67,-1184.24 362.04,-1181.41 362.1,-1174.2 368.74,-1177.03 368.67,-1184.24"/>
</a>
</g>
<text text-anchor="middle" x="402.5" y="-1197" font-family="Helvetica,sans-Serif" font-size="10.00" fill="grey"> +next_</text>
</g>
<!-- Node8 -->
<g id="Node000008" class="node">
<title>Node8</title>
<g id="a_Node000008"><a xlink:title=" ">
<polygon fill="white" stroke="transparent" points="270,-1168.5 192,-1168.5 192,-1119.5 270,-1119.5 270,-1168.5"/>
<text text-anchor="start" x="197" y="-1156" font-family="Helvetica,sans-Serif" font-size="10.00">atomic_size_t</text>
<text text-anchor="start" x="229" y="-1141" font-family="Helvetica,sans-Serif" font-size="10.00"> </text>
<text text-anchor="start" x="229" y="-1126" font-family="Helvetica,sans-Serif" font-size="10.00"> </text>
<polygon fill="#666666" stroke="#666666" points="192,-1151 192,-1151 270,-1151 270,-1151 192,-1151"/>
<polygon fill="#666666" stroke="#666666" points="192,-1136 192,-1136 270,-1136 270,-1136 192,-1136"/>
<polygon fill="none" stroke="#666666" points="192,-1119.5 192,-1168.5 270,-1168.5 270,-1119.5 192,-1119.5"/>
</a>
</g>
</g>
<!-- Node8&#45;&gt;Node3 -->
<g id="edge8_Node000003_Node000008" class="edge">
<title>Node8&#45;&gt;Node3</title>
<g id="a_edge8_Node000003_Node000008"><a xlink:title=" ">
<path fill="none" stroke="#63b8ff" d="M265.24,-1119.34C269.76,-1116.68 274.42,-1114.15 279,-1112 303.04,-1100.69 320.3,-1115.43 336,-1094 369.37,-1048.47 350.95,-640.43 336,-586 322.89,-538.24 297.9,-490.37 272.19,-449.63"/>
<polygon fill="none" stroke="#63b8ff" points="272.13,-449.53 265.52,-446.64 265.65,-439.43 272.25,-442.32 272.13,-449.53"/>
</a>
</g>
<text text-anchor="middle" x="397.5" y="-843" font-family="Helvetica,sans-Serif" font-size="10.00" fill="grey"> &#45;num_elements_</text>
</g>
<!-- Node8&#45;&gt;Node9 -->
<g id="edge12_Node000009_Node000008" class="edge">
<title>Node8&#45;&gt;Node9</title>
<g id="a_edge12_Node000009_Node000008"><a xlink:title=" ">
<path fill="none" stroke="#63b8ff" d="M206.12,-1119.15C199.98,-1111.74 194.24,-1103.1 191,-1094 189.36,-1089.39 190.6,-1087.87 191,-1083 191.16,-1081.06 191.32,-1079.11 191.5,-1077.16"/>
<polygon fill="none" stroke="#63b8ff" points="191.51,-1077.02 188.1,-1070.67 192.64,-1065.07 196.06,-1071.42 191.51,-1077.02"/>
</a>
</g>
<text text-anchor="middle" x="233.5" y="-1086" font-family="Helvetica,sans-Serif" font-size="10.00" fill="grey"> &#45;num_elements_</text>
</g>
<!-- Node9&#45;&gt;Node3 -->
<g id="edge9_Node000003_Node000009" class="edge">
<title>Node9&#45;&gt;Node3</title>
<g id="a_edge9_Node000003_Node000009"><a xlink:title=" ">
<path fill="none" stroke="orange" d="M190.7,-615.8C190.46,-613.19 190.22,-610.59 190,-608 188.89,-595.06 188.01,-581.77 187.32,-568.34"/>
<polygon fill="orange" stroke="orange" points="187.24,-616.33 191.72,-625.93 194.2,-615.64 187.24,-616.33"/>
</a>
</g>
<text text-anchor="start" x="190" y="-600" font-family="Helvetica,sans-Serif" font-size="10.00" fill="grey"> &lt; mkr::threadsafe_hashtable</text>
<text text-anchor="middle" x="263" y="-589" font-family="Helvetica,sans-Serif" font-size="10.00" fill="grey">::pair &gt;</text>
</g>
</g>
</svg>

<g id="navigator" transform="translate(0 0)" fill="#404254">
  <rect fill="#f2f5e9" fill-opacity="0.5" stroke="#606060" stroke-width=".5" x="0" y="0" width="60" height="60"/>
  <use id="zoomplus" xlink:href="#zoomPlus" x="17" y="9" onmousedown="handleZoom(evt,'in')"/>
  <use id="zoomminus" xlink:href="#zoomMin" x="42" y="9" onmousedown="handleZoom(evt,'out')"/>
  <use id="reset" xlink:href="#resetDef" x="30" y="36" onmousedown="handleReset()"/>
   <use id="arrowup" xlink:href="#arrowUp" x="0" y="0" onmousedown="handlePan(0,-1)"/>
  <use id="arrowright" xlink:href="#arrowRight" x="0" y="0" onmousedown="handlePan(1,0)"/>
  <use id="arrowdown" xlink:href="#arrowDown" x="0" y="0" onmousedown="handlePan(0,1)"/>
  <use id="arrowleft" xlink:href="#arrowLeft" x="0" y="0" onmousedown="handlePan(-1,0)"/>
</g>
<svg viewBox="0 0 15 15" width="100%" height="30px" preserveAspectRatio="xMaxYMin meet">
 <g id="arrow_out" transform="scale(0.3 0.3)">
  <a xlink:href="structmkr_1_1threadsafe__hashtable_1_1bucket__coll__graph_org.svg" target="_base">
   <rect id="button" ry="5" rx="5" y="6" x="6" height="38" width="38"
        fill="#f2f5e9" fill-opacity="0.5" stroke="#606060" stroke-width="1.0"/>
   <path id="arrow"
     d="M 11.500037,31.436501 C 11.940474,20.09759 22.043105,11.32322 32.158766,21.979434 L 37.068811,17.246167 C 37.068811,17.246167 37.088388,32 37.088388,32 L 22.160133,31.978069 C 22.160133,31.978069 26.997745,27.140456 26.997745,27.140456 C 18.528582,18.264221 13.291696,25.230495 11.500037,31.436501 z"
     style="fill:#404040;"/>
  </a>
 </g>
</svg>

<style type='text/css'>
<![CDATA[
[data-mouse-over-selected='false'] { opacity: 0.7; }
[data-mouse-over-selected='true']  { opacity: 1.0; }
]]>
</style>
<script type="application/ecmascript"><![CDATA[
document.addEventListener('DOMContentLoaded', (event) => {
  highlightEdges();
  highlightAdjacentNodes();
});
]]></script>
</svg>
