<?xml version="1.0" encoding="UTF-8" standalone="no"?>
<!DOCTYPE svg PUBLIC "-//W3C//DTD SVG 1.1//EN"
 "http://www.w3.org/Graphics/SVG/1.1/DTD/svg11.dtd">
<!-- Generated by graphviz version 2.43.0 (0)
 -->
<!-- Title: mkr::threadsafe_list&lt; T &gt;::node Pages: 1 -->
<svg width="402pt" height="175pt"
 viewBox="0.00 0.00 402.00 175.00" xmlns="http://www.w3.org/2000/svg" xmlns:xlink="http://www.w3.org/1999/xlink">

<svg id="main" version="1.1" xmlns="http://www.w3.org/2000/svg" xmlns:xlink="http://www.w3.org/1999/xlink" xml:space="preserve" onload="init(evt)">
<style type="text/css"><![CDATA[
.node, .edge {opacity: 0.7;}
.node.selected, .edge.selected {opacity: 1;}
.edge:hover path { stroke: red; }
.edge:hover polygon { stroke: red; fill: red; }
]]></style>
<script type="application/ecmascript" xlink:href="svg.min.js"/>
<svg id="graph" class="graph">
<g id="graph0" class="graph" transform="scale(1 1) rotate(0) translate(4 171)">
<title>mkr::threadsafe_list&lt; T &gt;::node</title>
<!-- Node1 -->
<g id="Node000001" class="node">
<title>Node1</title>
<g id="a_Node000001"><a xlink:title=" ">
<polygon fill="#999999" stroke="transparent" points="232.5,-60 123.5,-60 123.5,0 232.5,0 232.5,-60"/>
<text text-anchor="start" x="129" y="-48" font-family="Helvetica,sans-Serif" font-size="10.00">mkr::threadsafe_list</text>
<text text-anchor="start" x="149" y="-37" font-family="Helvetica,sans-Serif" font-size="10.00">&lt; T &gt;::node</text>
<text text-anchor="start" x="176.5" y="-22" font-family="Helvetica,sans-Serif" font-size="10.00"> </text>
<text text-anchor="start" x="176.5" y="-7" font-family="Helvetica,sans-Serif" font-size="10.00"> </text>
<polygon fill="#666666" stroke="#666666" points="124,-32 124,-32 233,-32 233,-32 124,-32"/>
<polygon fill="#666666" stroke="#666666" points="124,-17 124,-17 233,-17 233,-17 124,-17"/>
<polygon fill="none" stroke="#666666" points="123.5,0 123.5,-60 232.5,-60 232.5,0 123.5,0"/>
</a>
</g>
</g>
<!-- Node2 -->
<g id="Node000002" class="node">
<title>Node2</title>
<g id="a_Node000002"><a xlink:title=" ">
<polygon fill="white" stroke="transparent" points="114,-161.5 0,-161.5 0,-112.5 114,-112.5 114,-161.5"/>
<text text-anchor="start" x="5" y="-149" font-family="Helvetica,sans-Serif" font-size="10.00">shared_timed_mutex</text>
<text text-anchor="start" x="55" y="-134" font-family="Helvetica,sans-Serif" font-size="10.00"> </text>
<text text-anchor="start" x="55" y="-119" font-family="Helvetica,sans-Serif" font-size="10.00"> </text>
<polygon fill="#666666" stroke="#666666" points="0,-144 0,-144 114,-144 114,-144 0,-144"/>
<polygon fill="#666666" stroke="#666666" points="0,-129 0,-129 114,-129 114,-129 0,-129"/>
<polygon fill="none" stroke="#666666" points="0,-112.5 0,-161.5 114,-161.5 114,-112.5 0,-112.5"/>
</a>
</g>
</g>
<!-- Node2&#45;&gt;Node1 -->
<g id="edge1_Node000001_Node000002" class="edge">
<title>Node2&#45;&gt;Node1</title>
<g id="a_edge1_Node000001_Node000002"><a xlink:title=" ">
<path fill="none" stroke="#63b8ff" d="M84.15,-112.44C99.21,-99.38 118.26,-82.84 135.26,-68.09"/>
<polygon fill="none" stroke="#63b8ff" points="135.39,-67.97 137.3,-61.02 144.46,-60.11 142.55,-67.06 135.39,-67.97"/>
</a>
</g>
<text text-anchor="middle" x="146.5" y="-81" font-family="Helvetica,sans-Serif" font-size="10.00" fill="grey"> +mutex_</text>
</g>
<!-- Node3 -->
<g id="Node000003" class="node">
<title>Node3</title>
<g id="a_Node000003"><a xlink:title=" ">
<polygon fill="white" stroke="transparent" points="223.5,-161.5 132.5,-161.5 132.5,-112.5 223.5,-112.5 223.5,-161.5"/>
<text text-anchor="start" x="138" y="-149" font-family="Helvetica,sans-Serif" font-size="10.00">shared_ptr&lt; T &gt;</text>
<text text-anchor="start" x="176.5" y="-134" font-family="Helvetica,sans-Serif" font-size="10.00"> </text>
<text text-anchor="start" x="176.5" y="-119" font-family="Helvetica,sans-Serif" font-size="10.00"> </text>
<polygon fill="#666666" stroke="#666666" points="133,-144 133,-144 224,-144 224,-144 133,-144"/>
<polygon fill="#666666" stroke="#666666" points="133,-129 133,-129 224,-129 224,-129 133,-129"/>
<polygon fill="none" stroke="#666666" points="132.5,-112.5 132.5,-161.5 223.5,-161.5 223.5,-112.5 132.5,-112.5"/>
</a>
</g>
</g>
<!-- Node3&#45;&gt;Node1 -->
<g id="edge2_Node000001_Node000003" class="edge">
<title>Node3&#45;&gt;Node1</title>
<g id="a_edge2_Node000001_Node000003"><a xlink:title=" ">
<path fill="none" stroke="#63b8ff" d="M178,-112.44C178,-100.59 178,-85.87 178,-72.23"/>
<polygon fill="none" stroke="#63b8ff" points="178,-72.11 174,-66.11 178,-60.11 182,-66.11 178,-72.11"/>
</a>
</g>
<text text-anchor="middle" x="200" y="-81" font-family="Helvetica,sans-Serif" font-size="10.00" fill="grey"> +value_</text>
</g>
<!-- Node4 -->
<g id="Node000004" class="node">
<title>Node4</title>
<g id="a_Node000004"><a xlink:title=" ">
<polygon fill="white" stroke="transparent" points="394,-167 242,-167 242,-107 394,-107 394,-167"/>
<text text-anchor="start" x="247" y="-155" font-family="Helvetica,sans-Serif" font-size="10.00">unique_ptr&lt; mkr::threadsafe</text>
<text text-anchor="start" x="287" y="-144" font-family="Helvetica,sans-Serif" font-size="10.00">_list::node &gt;</text>
<text text-anchor="start" x="316" y="-129" font-family="Helvetica,sans-Serif" font-size="10.00"> </text>
<text text-anchor="start" x="316" y="-114" font-family="Helvetica,sans-Serif" font-size="10.00"> </text>
<polygon fill="#666666" stroke="#666666" points="242,-139 242,-139 394,-139 394,-139 242,-139"/>
<polygon fill="#666666" stroke="#666666" points="242,-124 242,-124 394,-124 394,-124 242,-124"/>
<polygon fill="none" stroke="#666666" points="242,-107 242,-167 394,-167 394,-107 242,-107"/>
</a>
</g>
</g>
<!-- Node4&#45;&gt;Node1 -->
<g id="edge3_Node000001_Node000004" class="edge">
<title>Node4&#45;&gt;Node1</title>
<g id="a_edge3_Node000001_Node000004"><a xlink:title=" ">
<path fill="none" stroke="#63b8ff" d="M279,-106.75C262.77,-94.58 243.75,-80.31 226.62,-67.47"/>
<polygon fill="none" stroke="#63b8ff" points="226.39,-67.29 219.19,-66.89 216.79,-60.09 223.99,-60.49 226.39,-67.29"/>
</a>
</g>
<text text-anchor="middle" x="271.5" y="-81" font-family="Helvetica,sans-Serif" font-size="10.00" fill="grey"> +next_</text>
</g>
</g>
</svg>
</svg>

<style type='text/css'>
<![CDATA[
[data-mouse-over-selected='false'] { opacity: 0.7; }
[data-mouse-over-selected='true']  { opacity: 1.0; }
]]>
</style>
<script type="application/ecmascript"><![CDATA[
document.addEventListener('DOMContentLoaded', (event) => {
  highlightEdges();
  highlightAdjacentNodes();
});
]]></script>
</svg>
