<?xml version="1.0" encoding="UTF-8" standalone="no"?>
<!DOCTYPE svg PUBLIC "-//W3C//DTD SVG 1.1//EN"
 "http://www.w3.org/Graphics/SVG/1.1/DTD/svg11.dtd">
<!-- Generated by graphviz version 2.43.0 (0)
 -->
<!-- Title: src/mt/thread_pool/thread_pool.h Pages: 1 -->
<!--zoomable 285 -->
<svg id="main" version="1.1" xmlns="http://www.w3.org/2000/svg" xmlns:xlink="http://www.w3.org/1999/xlink" xml:space="preserve" onload="init(evt)">
<style type="text/css"><![CDATA[
.edge:hover path { stroke: red; }
.edge:hover polygon { stroke: red; fill: red; }
]]></style>
<script type="text/javascript"><![CDATA[
var edges = document.getElementsByTagName('g');
if (edges && edges.length) {
  for (var i=0;i<edges.length;i++) {
    if (edges[i].id.substr(0,4)=='edge') {
      edges[i].setAttribute('class','edge');
    }
  }
}
]]></script>
        <defs>
                <circle id="rim" cx="0" cy="0" r="7"/>
                <circle id="rim2" cx="0" cy="0" r="3.5"/>
                <g id="zoomPlus">
                        <use xlink:href="#rim" fill="#404040">
                                <set attributeName="fill" to="#808080" begin="zoomplus.mouseover" end="zoomplus.mouseout"/>
                        </use>
                        <path d="M-4,0h8M0,-4v8" fill="none" stroke="white" stroke-width="1.5" pointer-events="none"/>
                </g>
                <g id="zoomMin">
                        <use xlink:href="#rim" fill="#404040">
                                <set attributeName="fill" to="#808080" begin="zoomminus.mouseover" end="zoomminus.mouseout"/>
                        </use>
                        <path d="M-4,0h8" fill="none" stroke="white" stroke-width="1.5" pointer-events="none"/>
                </g>
                <g id="dirArrow">
                        <path fill="none" stroke="white" stroke-width="1.5" d="M0,-3.0v7 M-2.5,-0.5L0,-3.0L2.5,-0.5"/>
                </g>
               <g id="resetDef">
                       <use xlink:href="#rim2" fill="#404040">
                               <set attributeName="fill" to="#808080" begin="reset.mouseover" end="reset.mouseout"/>
                       </use>
               </g>
        </defs>

<script type="text/javascript">
var viewWidth = 808;
var viewHeight = 285;
var sectionId = 'dynsection-0';
</script>
<script xlink:href="svgpan.js"/>
<svg id="graph" class="graph">
<g id="viewport">
<title>src/mt/thread_pool/thread_pool.h</title>
<polygon fill="white" stroke="transparent" points="-4,4 -4,-281 804.18,-281 804.18,4 -4,4"/>
<!-- Node1 -->
<g id="node1" class="node">
<title>Node1</title>
<g id="a_node1"><a xlink:title=" ">
<polygon fill="#bfbfbf" stroke="black" points="375.68,-246.5 375.68,-276.5 483.68,-276.5 483.68,-246.5 375.68,-246.5"/>
<text text-anchor="start" x="383.68" y="-264.5" font-family="Helvetica,sans-Serif" font-size="10.00">src/mt/thread_pool</text>
<text text-anchor="middle" x="429.68" y="-253.5" font-family="Helvetica,sans-Serif" font-size="10.00">/thread_pool.h</text>
</a>
</g>
</g>
<!-- Node2 -->
<g id="node2" class="node">
<title>Node2</title>
<g id="a_node2"><a xlink:href="task_8h.html" target="_top" xlink:title=" ">
<polygon fill="white" stroke="black" points="18.18,-118 18.18,-137 65.18,-137 65.18,-118 18.18,-118"/>
<text text-anchor="middle" x="41.68" y="-125" font-family="Helvetica,sans-Serif" font-size="10.00">task.h</text>
</a>
</g>
</g>
<!-- Node1&#45;&gt;Node2 -->
<g id="edge1" class="edge">
<title>Node1&#45;&gt;Node2</title>
<path fill="none" stroke="midnightblue" d="M388.52,-246.5C311.38,-220.25 146.42,-164.13 75.37,-139.96"/>
<polygon fill="midnightblue" stroke="midnightblue" points="76.19,-136.54 65.59,-136.64 73.93,-143.17 76.19,-136.54"/>
</g>
<!-- Node5 -->
<g id="node5" class="node">
<title>Node5</title>
<g id="a_node5"><a xlink:href="threadsafe__hashtable_8h.html" target="_top" xlink:title=" ">
<polygon fill="white" stroke="black" points="366.18,-179.5 366.18,-209.5 493.18,-209.5 493.18,-179.5 366.18,-179.5"/>
<text text-anchor="start" x="374.18" y="-197.5" font-family="Helvetica,sans-Serif" font-size="10.00">../container/threadsafe</text>
<text text-anchor="middle" x="429.68" y="-186.5" font-family="Helvetica,sans-Serif" font-size="10.00">_hashtable.h</text>
</a>
</g>
</g>
<!-- Node1&#45;&gt;Node5 -->
<g id="edge4" class="edge">
<title>Node1&#45;&gt;Node5</title>
<path fill="none" stroke="midnightblue" d="M429.68,-246.4C429.68,-238.64 429.68,-228.81 429.68,-219.86"/>
<polygon fill="midnightblue" stroke="midnightblue" points="433.18,-219.58 429.68,-209.58 426.18,-219.58 433.18,-219.58"/>
</g>
<!-- Node15 -->
<g id="node15" class="node">
<title>Node15</title>
<g id="a_node15"><a xlink:href="threadsafe__queue_8h.html" target="_top" xlink:title=" ">
<polygon fill="white" stroke="black" points="156.18,-112.5 156.18,-142.5 283.18,-142.5 283.18,-112.5 156.18,-112.5"/>
<text text-anchor="start" x="164.18" y="-130.5" font-family="Helvetica,sans-Serif" font-size="10.00">../container/threadsafe</text>
<text text-anchor="middle" x="219.68" y="-119.5" font-family="Helvetica,sans-Serif" font-size="10.00">_queue.h</text>
</a>
</g>
</g>
<!-- Node1&#45;&gt;Node15 -->
<g id="edge16" class="edge">
<title>Node1&#45;&gt;Node15</title>
<path fill="none" stroke="midnightblue" d="M406.64,-246.44C390.18,-236.36 367.51,-222.42 347.68,-210 314.32,-189.11 276.31,-164.85 250.43,-148.26"/>
<polygon fill="midnightblue" stroke="midnightblue" points="252.12,-145.19 241.81,-142.74 248.34,-151.08 252.12,-145.19"/>
</g>
<!-- Node17 -->
<g id="node17" class="node">
<title>Node17</title>
<g id="a_node17"><a xlink:href="threadsafe__stack_8h.html" target="_top" xlink:title=" ">
<polygon fill="white" stroke="black" points="301.18,-112.5 301.18,-142.5 428.18,-142.5 428.18,-112.5 301.18,-112.5"/>
<text text-anchor="start" x="309.18" y="-130.5" font-family="Helvetica,sans-Serif" font-size="10.00">../container/threadsafe</text>
<text text-anchor="middle" x="364.68" y="-119.5" font-family="Helvetica,sans-Serif" font-size="10.00">_stack.h</text>
</a>
</g>
</g>
<!-- Node1&#45;&gt;Node17 -->
<g id="edge23" class="edge">
<title>Node1&#45;&gt;Node17</title>
<path fill="none" stroke="midnightblue" d="M397.09,-246.44C382.21,-238.16 366.06,-226.12 357.68,-210 348.45,-192.26 351.49,-169.39 356.09,-152.39"/>
<polygon fill="midnightblue" stroke="midnightblue" points="359.49,-153.25 359.07,-142.66 352.8,-151.2 359.49,-153.25"/>
</g>
<!-- Node18 -->
<g id="node18" class="node">
<title>Node18</title>
<g id="a_node18"><a xlink:title=" ">
<polygon fill="white" stroke="#bfbfbf" points="511.68,-185 511.68,-204 559.68,-204 559.68,-185 511.68,-185"/>
<text text-anchor="middle" x="535.68" y="-192" font-family="Helvetica,sans-Serif" font-size="10.00">thread</text>
</a>
</g>
</g>
<!-- Node1&#45;&gt;Node18 -->
<g id="edge30" class="edge">
<title>Node1&#45;&gt;Node18</title>
<path fill="none" stroke="midnightblue" d="M452.68,-246.4C470.62,-235.39 495.4,-220.2 513.2,-209.28"/>
<polygon fill="midnightblue" stroke="midnightblue" points="515.11,-212.22 521.8,-204.01 511.45,-206.25 515.11,-212.22"/>
</g>
<!-- Node19 -->
<g id="node19" class="node">
<title>Node19</title>
<g id="a_node19"><a xlink:title=" ">
<polygon fill="white" stroke="#bfbfbf" points="577.68,-185 577.68,-204 623.68,-204 623.68,-185 577.68,-185"/>
<text text-anchor="middle" x="600.68" y="-192" font-family="Helvetica,sans-Serif" font-size="10.00">future</text>
</a>
</g>
</g>
<!-- Node1&#45;&gt;Node19 -->
<g id="edge31" class="edge">
<title>Node1&#45;&gt;Node19</title>
<path fill="none" stroke="midnightblue" d="M471.05,-246.41C498.86,-236.71 536.22,-223.23 568.68,-210 570.09,-209.42 571.53,-208.82 572.98,-208.21"/>
<polygon fill="midnightblue" stroke="midnightblue" points="574.76,-211.25 582.51,-204.03 571.94,-204.84 574.76,-211.25"/>
</g>
<!-- Node20 -->
<g id="node20" class="node">
<title>Node20</title>
<g id="a_node20"><a xlink:title=" ">
<polygon fill="white" stroke="#bfbfbf" points="642.18,-185 642.18,-204 683.18,-204 683.18,-185 642.18,-185"/>
<text text-anchor="middle" x="662.68" y="-192" font-family="Helvetica,sans-Serif" font-size="10.00">latch</text>
</a>
</g>
</g>
<!-- Node1&#45;&gt;Node20 -->
<g id="edge32" class="edge">
<title>Node1&#45;&gt;Node20</title>
<path fill="none" stroke="midnightblue" d="M484,-250.17C525.41,-241.54 583.5,-227.79 632.68,-210 634.1,-209.48 635.55,-208.92 637.01,-208.33"/>
<polygon fill="midnightblue" stroke="midnightblue" points="638.74,-211.39 646.44,-204.1 635.88,-205 638.74,-211.39"/>
</g>
<!-- Node3 -->
<g id="node3" class="node">
<title>Node3</title>
<g id="a_node3"><a xlink:title=" ">
<polygon fill="white" stroke="#bfbfbf" points="51.18,-0.5 51.18,-19.5 116.18,-19.5 116.18,-0.5 51.18,-0.5"/>
<text text-anchor="middle" x="83.68" y="-7.5" font-family="Helvetica,sans-Serif" font-size="10.00">functional</text>
</a>
</g>
</g>
<!-- Node2&#45;&gt;Node3 -->
<g id="edge2" class="edge">
<title>Node2&#45;&gt;Node3</title>
<path fill="none" stroke="midnightblue" d="M31.04,-117.93C15.77,-104.55 -9.17,-77.96 3.68,-56 12.54,-40.85 28.58,-30.41 43.99,-23.42"/>
<polygon fill="midnightblue" stroke="midnightblue" points="45.53,-26.57 53.43,-19.51 42.85,-20.11 45.53,-26.57"/>
</g>
<!-- Node4 -->
<g id="node4" class="node">
<title>Node4</title>
<g id="a_node4"><a xlink:title=" ">
<polygon fill="white" stroke="#bfbfbf" points="12.68,-56.5 12.68,-75.5 70.68,-75.5 70.68,-56.5 12.68,-56.5"/>
<text text-anchor="middle" x="41.68" y="-63.5" font-family="Helvetica,sans-Serif" font-size="10.00">memory</text>
</a>
</g>
</g>
<!-- Node2&#45;&gt;Node4 -->
<g id="edge3" class="edge">
<title>Node2&#45;&gt;Node4</title>
<path fill="none" stroke="midnightblue" d="M41.68,-117.98C41.68,-109.58 41.68,-96.48 41.68,-85.66"/>
<polygon fill="midnightblue" stroke="midnightblue" points="45.18,-85.51 41.68,-75.51 38.18,-85.51 45.18,-85.51"/>
</g>
<!-- Node6 -->
<g id="node6" class="node">
<title>Node6</title>
<g id="a_node6"><a xlink:href="threadsafe__list_8h.html" target="_top" xlink:title=" ">
<polygon fill="white" stroke="black" points="446.68,-118 446.68,-137 544.68,-137 544.68,-118 446.68,-118"/>
<text text-anchor="middle" x="495.68" y="-125" font-family="Helvetica,sans-Serif" font-size="10.00">threadsafe_list.h</text>
</a>
</g>
</g>
<!-- Node5&#45;&gt;Node6 -->
<g id="edge5" class="edge">
<title>Node5&#45;&gt;Node6</title>
<path fill="none" stroke="midnightblue" d="M444,-179.4C454.49,-169.06 468.74,-155.02 479.62,-144.31"/>
<polygon fill="midnightblue" stroke="midnightblue" points="482.18,-146.71 486.85,-137.19 477.27,-141.72 482.18,-146.71"/>
</g>
<!-- Node6&#45;&gt;Node4 -->
<g id="edge10" class="edge">
<title>Node6&#45;&gt;Node4</title>
<path fill="none" stroke="midnightblue" d="M465.15,-117.99C456.34,-115.77 446.67,-113.57 437.68,-112 283.37,-85.1 239.18,-101.77 81.14,-76.04"/>
<polygon fill="midnightblue" stroke="midnightblue" points="81.49,-72.55 71.06,-74.36 80.35,-79.45 81.49,-72.55"/>
</g>
<!-- Node7 -->
<g id="node7" class="node">
<title>Node7</title>
<g id="a_node7"><a xlink:href="container_8h.html" target="_top" xlink:title=" ">
<polygon fill="white" stroke="black" points="329.18,-56.5 329.18,-75.5 400.18,-75.5 400.18,-56.5 329.18,-56.5"/>
<text text-anchor="middle" x="364.68" y="-63.5" font-family="Helvetica,sans-Serif" font-size="10.00">container.h</text>
</a>
</g>
</g>
<!-- Node6&#45;&gt;Node7 -->
<g id="edge6" class="edge">
<title>Node6&#45;&gt;Node7</title>
<path fill="none" stroke="midnightblue" d="M476.91,-117.98C454.83,-107.95 417.96,-91.2 392.54,-79.65"/>
<polygon fill="midnightblue" stroke="midnightblue" points="393.96,-76.46 383.41,-75.51 391.07,-82.83 393.96,-76.46"/>
</g>
<!-- Node8 -->
<g id="node8" class="node">
<title>Node8</title>
<g id="a_node8"><a xlink:href="concepts_8h.html" target="_top" xlink:title=" ">
<polygon fill="white" stroke="black" points="214.18,-56.5 214.18,-75.5 311.18,-75.5 311.18,-56.5 214.18,-56.5"/>
<text text-anchor="middle" x="262.68" y="-63.5" font-family="Helvetica,sans-Serif" font-size="10.00">../util/concepts.h</text>
</a>
</g>
</g>
<!-- Node6&#45;&gt;Node8 -->
<g id="edge7" class="edge">
<title>Node6&#45;&gt;Node8</title>
<path fill="none" stroke="midnightblue" d="M462.29,-117.98C421.11,-107.46 351.03,-89.56 305.81,-78.01"/>
<polygon fill="midnightblue" stroke="midnightblue" points="306.55,-74.59 296,-75.51 304.82,-81.37 306.55,-74.59"/>
</g>
<!-- Node10 -->
<g id="node10" class="node">
<title>Node10</title>
<g id="a_node10"><a xlink:title=" ">
<polygon fill="white" stroke="#bfbfbf" points="418.68,-56.5 418.68,-75.5 466.68,-75.5 466.68,-56.5 418.68,-56.5"/>
<text text-anchor="middle" x="442.68" y="-63.5" font-family="Helvetica,sans-Serif" font-size="10.00">mutex</text>
</a>
</g>
</g>
<!-- Node6&#45;&gt;Node10 -->
<g id="edge11" class="edge">
<title>Node6&#45;&gt;Node10</title>
<path fill="none" stroke="midnightblue" d="M488.08,-117.98C479.98,-108.87 466.94,-94.24 456.91,-82.98"/>
<polygon fill="midnightblue" stroke="midnightblue" points="459.52,-80.65 450.26,-75.51 454.29,-85.3 459.52,-80.65"/>
</g>
<!-- Node11 -->
<g id="node11" class="node">
<title>Node11</title>
<g id="a_node11"><a xlink:title=" ">
<polygon fill="white" stroke="#bfbfbf" points="552.68,-56.5 552.68,-75.5 638.68,-75.5 638.68,-56.5 552.68,-56.5"/>
<text text-anchor="middle" x="595.68" y="-63.5" font-family="Helvetica,sans-Serif" font-size="10.00">shared_mutex</text>
</a>
</g>
</g>
<!-- Node6&#45;&gt;Node11 -->
<g id="edge12" class="edge">
<title>Node6&#45;&gt;Node11</title>
<path fill="none" stroke="midnightblue" d="M510,-117.98C526.34,-108.25 553.28,-92.23 572.59,-80.74"/>
<polygon fill="midnightblue" stroke="midnightblue" points="574.57,-83.63 581.38,-75.51 570.99,-77.61 574.57,-83.63"/>
</g>
<!-- Node12 -->
<g id="node12" class="node">
<title>Node12</title>
<g id="a_node12"><a xlink:title=" ">
<polygon fill="white" stroke="#bfbfbf" points="484.68,-56.5 484.68,-75.5 534.68,-75.5 534.68,-56.5 484.68,-56.5"/>
<text text-anchor="middle" x="509.68" y="-63.5" font-family="Helvetica,sans-Serif" font-size="10.00">atomic</text>
</a>
</g>
</g>
<!-- Node6&#45;&gt;Node12 -->
<g id="edge13" class="edge">
<title>Node6&#45;&gt;Node12</title>
<path fill="none" stroke="midnightblue" d="M497.68,-117.98C499.68,-109.49 502.8,-96.2 505.37,-85.32"/>
<polygon fill="midnightblue" stroke="midnightblue" points="508.79,-86.04 507.67,-75.51 501.98,-84.44 508.79,-86.04"/>
</g>
<!-- Node13 -->
<g id="node13" class="node">
<title>Node13</title>
<g id="a_node13"><a xlink:title=" ">
<polygon fill="white" stroke="#bfbfbf" points="656.68,-56.5 656.68,-75.5 712.68,-75.5 712.68,-56.5 656.68,-56.5"/>
<text text-anchor="middle" x="684.68" y="-63.5" font-family="Helvetica,sans-Serif" font-size="10.00">optional</text>
</a>
</g>
</g>
<!-- Node6&#45;&gt;Node13 -->
<g id="edge14" class="edge">
<title>Node6&#45;&gt;Node13</title>
<path fill="none" stroke="midnightblue" d="M522.76,-117.98C555.6,-107.64 611.11,-90.16 647.82,-78.6"/>
<polygon fill="midnightblue" stroke="midnightblue" points="649.16,-81.85 657.65,-75.51 647.06,-75.17 649.16,-81.85"/>
</g>
<!-- Node14 -->
<g id="node14" class="node">
<title>Node14</title>
<g id="a_node14"><a xlink:title=" ">
<polygon fill="white" stroke="#bfbfbf" points="731.18,-56.5 731.18,-75.5 800.18,-75.5 800.18,-56.5 731.18,-56.5"/>
<text text-anchor="middle" x="765.68" y="-63.5" font-family="Helvetica,sans-Serif" font-size="10.00">type_traits</text>
</a>
</g>
</g>
<!-- Node6&#45;&gt;Node14 -->
<g id="edge15" class="edge">
<title>Node6&#45;&gt;Node14</title>
<path fill="none" stroke="midnightblue" d="M534.36,-117.98C583.71,-107.1 668.89,-88.33 720.97,-76.85"/>
<polygon fill="midnightblue" stroke="midnightblue" points="721.91,-80.23 730.92,-74.66 720.4,-73.39 721.91,-80.23"/>
</g>
<!-- Node8&#45;&gt;Node3 -->
<g id="edge8" class="edge">
<title>Node8&#45;&gt;Node3</title>
<path fill="none" stroke="midnightblue" d="M234.31,-56.44C203.94,-47.28 155.57,-32.69 121.86,-22.52"/>
<polygon fill="midnightblue" stroke="midnightblue" points="122.49,-19.05 111.91,-19.52 120.47,-25.76 122.49,-19.05"/>
</g>
<!-- Node9 -->
<g id="node9" class="node">
<title>Node9</title>
<g id="a_node9"><a xlink:title=" ">
<polygon fill="white" stroke="#bfbfbf" points="232.68,-0.5 232.68,-19.5 292.68,-19.5 292.68,-0.5 232.68,-0.5"/>
<text text-anchor="middle" x="262.68" y="-7.5" font-family="Helvetica,sans-Serif" font-size="10.00">concepts</text>
</a>
</g>
</g>
<!-- Node8&#45;&gt;Node9 -->
<g id="edge9" class="edge">
<title>Node8&#45;&gt;Node9</title>
<path fill="none" stroke="midnightblue" d="M262.68,-56.08C262.68,-49.01 262.68,-38.86 262.68,-29.99"/>
<polygon fill="midnightblue" stroke="midnightblue" points="266.18,-29.75 262.68,-19.75 259.18,-29.75 266.18,-29.75"/>
</g>
<!-- Node15&#45;&gt;Node4 -->
<g id="edge19" class="edge">
<title>Node15&#45;&gt;Node4</title>
<path fill="none" stroke="midnightblue" d="M177.49,-112.4C146.87,-102.16 105.91,-88.47 77,-78.81"/>
<polygon fill="midnightblue" stroke="midnightblue" points="77.91,-75.42 67.32,-75.57 75.69,-82.06 77.91,-75.42"/>
</g>
<!-- Node15&#45;&gt;Node7 -->
<g id="edge17" class="edge">
<title>Node15&#45;&gt;Node7</title>
<path fill="none" stroke="midnightblue" d="M254.04,-112.4C278.37,-102.42 310.71,-89.15 334.13,-79.53"/>
<polygon fill="midnightblue" stroke="midnightblue" points="335.65,-82.69 343.58,-75.66 333,-76.22 335.65,-82.69"/>
</g>
<!-- Node15&#45;&gt;Node8 -->
<g id="edge18" class="edge">
<title>Node15&#45;&gt;Node8</title>
<path fill="none" stroke="midnightblue" d="M229.87,-112.4C236.05,-103.84 243.98,-92.87 250.49,-83.86"/>
<polygon fill="midnightblue" stroke="midnightblue" points="253.4,-85.81 256.42,-75.66 247.73,-81.71 253.4,-85.81"/>
</g>
<!-- Node15&#45;&gt;Node10 -->
<g id="edge20" class="edge">
<title>Node15&#45;&gt;Node10</title>
<path fill="none" stroke="midnightblue" d="M272.94,-112.44C308.73,-102.97 357.23,-90.1 408.57,-76.29"/>
<polygon fill="midnightblue" stroke="midnightblue" points="409.78,-79.58 418.53,-73.6 407.96,-72.82 409.78,-79.58"/>
</g>
<!-- Node15&#45;&gt;Node12 -->
<g id="edge21" class="edge">
<title>Node15&#45;&gt;Node12</title>
<path fill="none" stroke="midnightblue" d="M283.28,-113.67C286.11,-113.11 288.92,-112.55 291.68,-112 370.22,-96.41 392.73,-94.78 474.23,-76.22"/>
<polygon fill="midnightblue" stroke="midnightblue" points="475.51,-79.52 484.47,-73.87 473.94,-72.69 475.51,-79.52"/>
</g>
<!-- Node16 -->
<g id="node16" class="node">
<title>Node16</title>
<g id="a_node16"><a xlink:title=" ">
<polygon fill="white" stroke="#bfbfbf" points="89.18,-56.5 89.18,-75.5 196.18,-75.5 196.18,-56.5 89.18,-56.5"/>
<text text-anchor="middle" x="142.68" y="-63.5" font-family="Helvetica,sans-Serif" font-size="10.00">condition_variable</text>
</a>
</g>
</g>
<!-- Node15&#45;&gt;Node16 -->
<g id="edge22" class="edge">
<title>Node15&#45;&gt;Node16</title>
<path fill="none" stroke="midnightblue" d="M201.43,-112.4C189.55,-103.22 174.07,-91.26 161.98,-81.92"/>
<polygon fill="midnightblue" stroke="midnightblue" points="163.93,-79 153.88,-75.66 159.65,-84.54 163.93,-79"/>
</g>
<!-- Node17&#45;&gt;Node4 -->
<g id="edge26" class="edge">
<title>Node17&#45;&gt;Node4</title>
<path fill="none" stroke="midnightblue" d="M301,-113.74C297.85,-113.15 294.73,-112.56 291.68,-112 200.81,-95.26 175.03,-95.02 80.65,-76.09"/>
<polygon fill="midnightblue" stroke="midnightblue" points="81.18,-72.63 70.68,-74.07 79.79,-79.49 81.18,-72.63"/>
</g>
<!-- Node17&#45;&gt;Node7 -->
<g id="edge24" class="edge">
<title>Node17&#45;&gt;Node7</title>
<path fill="none" stroke="midnightblue" d="M364.68,-112.4C364.68,-104.47 364.68,-94.46 364.68,-85.86"/>
<polygon fill="midnightblue" stroke="midnightblue" points="368.18,-85.66 364.68,-75.66 361.18,-85.66 368.18,-85.66"/>
</g>
<!-- Node17&#45;&gt;Node8 -->
<g id="edge25" class="edge">
<title>Node17&#45;&gt;Node8</title>
<path fill="none" stroke="midnightblue" d="M340.5,-112.4C324.15,-102.86 302.66,-90.32 286.41,-80.84"/>
<polygon fill="midnightblue" stroke="midnightblue" points="287.92,-77.67 277.52,-75.66 284.39,-83.72 287.92,-77.67"/>
</g>
<!-- Node17&#45;&gt;Node10 -->
<g id="edge27" class="edge">
<title>Node17&#45;&gt;Node10</title>
<path fill="none" stroke="midnightblue" d="M383.16,-112.4C395.2,-103.22 410.88,-91.26 423.12,-81.92"/>
<polygon fill="midnightblue" stroke="midnightblue" points="425.5,-84.51 431.33,-75.66 421.25,-78.94 425.5,-84.51"/>
</g>
<!-- Node17&#45;&gt;Node12 -->
<g id="edge28" class="edge">
<title>Node17&#45;&gt;Node12</title>
<path fill="none" stroke="midnightblue" d="M399.04,-112.4C423.37,-102.42 455.71,-89.15 479.13,-79.53"/>
<polygon fill="midnightblue" stroke="midnightblue" points="480.65,-82.69 488.58,-75.66 478,-76.22 480.65,-82.69"/>
</g>
<!-- Node17&#45;&gt;Node16 -->
<g id="edge29" class="edge">
<title>Node17&#45;&gt;Node16</title>
<path fill="none" stroke="midnightblue" d="M312.35,-112.47C273.21,-101.99 220.42,-87.84 184.17,-78.12"/>
<polygon fill="midnightblue" stroke="midnightblue" points="184.98,-74.71 174.41,-75.51 183.17,-81.48 184.98,-74.71"/>
</g>
</g>
</svg>
        <g id="navigator" transform="translate(0 0)" fill="#404254">
                <rect fill="#f2f5e9" fill-opacity="0.5" stroke="#606060" stroke-width=".5" x="0" y="0" width="60" height="60"/>
                <use id="zoomplus" xlink:href="#zoomPlus" x="17" y="9" onmousedown="handleZoom(evt,'in')"/>
                <use id="zoomminus" xlink:href="#zoomMin" x="42" y="9" onmousedown="handleZoom(evt,'out')"/>
                <use id="reset" xlink:href="#resetDef" x="30" y="36" onmousedown="handleReset()"/>
                <g id="arrowUp" xlink:href="#dirArrow" transform="translate(30 24)" onmousedown="handlePan(0,-1)">
                  <use xlink:href="#rim" fill="#404040">
                        <set attributeName="fill" to="#808080" begin="arrowUp.mouseover" end="arrowUp.mouseout"/>
                  </use>
                  <path fill="none" stroke="white" stroke-width="1.5" d="M0,-3.0v7 M-2.5,-0.5L0,-3.0L2.5,-0.5"/>
                </g>
                <g id="arrowRight" xlink:href="#dirArrow" transform="rotate(90) translate(36 -43)" onmousedown="handlePan(1,0)">
                  <use xlink:href="#rim" fill="#404040">
                        <set attributeName="fill" to="#808080" begin="arrowRight.mouseover" end="arrowRight.mouseout"/>
                  </use>
                  <path fill="none" stroke="white" stroke-width="1.5" d="M0,-3.0v7 M-2.5,-0.5L0,-3.0L2.5,-0.5"/>
                </g>
                <g id="arrowDown" xlink:href="#dirArrow" transform="rotate(180) translate(-30 -48)" onmousedown="handlePan(0,1)">
                  <use xlink:href="#rim" fill="#404040">
                        <set attributeName="fill" to="#808080" begin="arrowDown.mouseover" end="arrowDown.mouseout"/>
                  </use>
                  <path fill="none" stroke="white" stroke-width="1.5" d="M0,-3.0v7 M-2.5,-0.5L0,-3.0L2.5,-0.5"/>
                </g>
                <g id="arrowLeft" xlink:href="#dirArrow" transform="rotate(270) translate(-36 17)" onmousedown="handlePan(-1,0)">
                  <use xlink:href="#rim" fill="#404040">
                        <set attributeName="fill" to="#808080" begin="arrowLeft.mouseover" end="arrowLeft.mouseout"/>
                  </use>
                  <path fill="none" stroke="white" stroke-width="1.5" d="M0,-3.0v7 M-2.5,-0.5L0,-3.0L2.5,-0.5"/>
                </g>
        </g>
        <svg viewBox="0 0 15 15" width="100%" height="30px" preserveAspectRatio="xMaxYMin meet">
         <g id="arrow_out" transform="scale(0.3 0.3)">
          <a xlink:href="thread__pool_8h__incl_org.svg" target="_base">
           <rect id="button" ry="5" rx="5" y="6" x="6" height="38" width="38"
                fill="#f2f5e9" fill-opacity="0.5" stroke="#606060" stroke-width="1.0"/>
           <path id="arrow"
             d="M 11.500037,31.436501 C 11.940474,20.09759 22.043105,11.32322 32.158766,21.979434 L 37.068811,17.246167 C 37.068811,17.246167 37.088388,32 37.088388,32 L 22.160133,31.978069 C 22.160133,31.978069 26.997745,27.140456 26.997745,27.140456 C 18.528582,18.264221 13.291696,25.230495 11.500037,31.436501 z"
             style="fill:#404040;"/>
          </a>
         </g>
        </svg>
</svg>
