<?xml version="1.0" encoding="UTF-8" standalone="no"?>
<!DOCTYPE svg PUBLIC "-//W3C//DTD SVG 1.1//EN"
 "http://www.w3.org/Graphics/SVG/1.1/DTD/svg11.dtd">
<!-- Generated by graphviz version 2.43.0 (0)
 -->
<!-- Title: src/mt/container/threadsafe_list.h Pages: 1 -->
<svg width="160pt" height="240pt"
 viewBox="0.00 0.00 160.00 240.00" xmlns="http://www.w3.org/2000/svg" xmlns:xlink="http://www.w3.org/1999/xlink">
<g id="graph0" class="graph" transform="scale(1 1) rotate(0) translate(4 236)">
<title>src/mt/container/threadsafe_list.h</title>
<polygon fill="white" stroke="transparent" points="-4,4 -4,-236 156,-236 156,4 -4,4"/>
<!-- Node1 -->
<g id="node1" class="node">
<title>Node1</title>
<g id="a_node1"><a xlink:title=" ">
<polygon fill="#bfbfbf" stroke="black" points="0,-201.5 0,-231.5 152,-231.5 152,-201.5 0,-201.5"/>
<text text-anchor="start" x="8" y="-219.5" font-family="Helvetica,sans-Serif" font-size="10.00">src/mt/container/threadsafe</text>
<text text-anchor="middle" x="76" y="-208.5" font-family="Helvetica,sans-Serif" font-size="10.00">_list.h</text>
</a>
</g>
</g>
<!-- Node2 -->
<g id="node2" class="node">
<title>Node2</title>
<g id="a_node2"><a xlink:href="threadsafe__hashtable_8h.html" target="_top" xlink:title=" ">
<polygon fill="white" stroke="black" points="0,-134.5 0,-164.5 152,-164.5 152,-134.5 0,-134.5"/>
<text text-anchor="start" x="8" y="-152.5" font-family="Helvetica,sans-Serif" font-size="10.00">src/mt/container/threadsafe</text>
<text text-anchor="middle" x="76" y="-141.5" font-family="Helvetica,sans-Serif" font-size="10.00">_hashtable.h</text>
</a>
</g>
</g>
<!-- Node1&#45;&gt;Node2 -->
<g id="edge1" class="edge">
<title>Node1&#45;&gt;Node2</title>
<path fill="none" stroke="midnightblue" d="M76,-191.11C76,-182.15 76,-172.32 76,-164.58"/>
<polygon fill="midnightblue" stroke="midnightblue" points="72.5,-191.4 76,-201.4 79.5,-191.4 72.5,-191.4"/>
</g>
<!-- Node3 -->
<g id="node3" class="node">
<title>Node3</title>
<g id="a_node3"><a xlink:href="thread__pool_8h.html" target="_top" xlink:title=" ">
<polygon fill="white" stroke="black" points="22,-67.5 22,-97.5 130,-97.5 130,-67.5 22,-67.5"/>
<text text-anchor="start" x="30" y="-85.5" font-family="Helvetica,sans-Serif" font-size="10.00">src/mt/thread_pool</text>
<text text-anchor="middle" x="76" y="-74.5" font-family="Helvetica,sans-Serif" font-size="10.00">/thread_pool.h</text>
</a>
</g>
</g>
<!-- Node2&#45;&gt;Node3 -->
<g id="edge2" class="edge">
<title>Node2&#45;&gt;Node3</title>
<path fill="none" stroke="midnightblue" d="M76,-124.11C76,-115.15 76,-105.32 76,-97.58"/>
<polygon fill="midnightblue" stroke="midnightblue" points="72.5,-124.4 76,-134.4 79.5,-124.4 72.5,-124.4"/>
</g>
<!-- Node4 -->
<g id="node4" class="node">
<title>Node4</title>
<g id="a_node4"><a xlink:href="thread__pool_8cpp.html" target="_top" xlink:title=" ">
<polygon fill="white" stroke="black" points="22,-0.5 22,-30.5 130,-30.5 130,-0.5 22,-0.5"/>
<text text-anchor="start" x="30" y="-18.5" font-family="Helvetica,sans-Serif" font-size="10.00">src/mt/thread_pool</text>
<text text-anchor="middle" x="76" y="-7.5" font-family="Helvetica,sans-Serif" font-size="10.00">/thread_pool.cpp</text>
</a>
</g>
</g>
<!-- Node3&#45;&gt;Node4 -->
<g id="edge3" class="edge">
<title>Node3&#45;&gt;Node4</title>
<path fill="none" stroke="midnightblue" d="M76,-57.11C76,-48.15 76,-38.32 76,-30.58"/>
<polygon fill="midnightblue" stroke="midnightblue" points="72.5,-57.4 76,-67.4 79.5,-57.4 72.5,-57.4"/>
</g>
</g>
</svg>
