<?xml version="1.0" encoding="UTF-8" standalone="no"?>
<!DOCTYPE svg PUBLIC "-//W3C//DTD SVG 1.1//EN"
 "http://www.w3.org/Graphics/SVG/1.1/DTD/svg11.dtd">
<!-- Generated by graphviz version 2.43.0 (0)
 -->
<!-- Title: src/mt/thread_pool/thread_pool.h Pages: 1 -->
<svg width="808pt" height="280pt"
 viewBox="0.00 0.00 808.10 280.00" xmlns="http://www.w3.org/2000/svg" xmlns:xlink="http://www.w3.org/1999/xlink">
<g id="graph0" class="graph" transform="scale(1 1) rotate(0) translate(4 276)">
<title>src/mt/thread_pool/thread_pool.h</title>
<!-- Node1 -->
<g id="Node000001" class="node">
<title>Node1</title>
<g id="a_Node000001"><a xlink:title=" ">
<polygon fill="#999999" stroke="#666666" points="483.6,-272 375.6,-272 375.6,-242 483.6,-242 483.6,-272"/>
<text text-anchor="start" x="383.6" y="-260" font-family="Helvetica,sans-Serif" font-size="10.00">src/mt/thread_pool</text>
<text text-anchor="middle" x="429.6" y="-249" font-family="Helvetica,sans-Serif" font-size="10.00">/thread_pool.h</text>
</a>
</g>
</g>
<!-- Node2 -->
<g id="Node000002" class="node">
<title>Node2</title>
<g id="a_Node000002"><a xlink:href="task_8h.html" target="_top" xlink:title=" ">
<polygon fill="white" stroke="#666666" points="65.1,-134.5 18.1,-134.5 18.1,-115.5 65.1,-115.5 65.1,-134.5"/>
<text text-anchor="middle" x="41.6" y="-122.5" font-family="Helvetica,sans-Serif" font-size="10.00">task.h</text>
</a>
</g>
</g>
<!-- Node1&#45;&gt;Node2 -->
<g id="edge1_Node000001_Node000002" class="edge">
<title>Node1&#45;&gt;Node2</title>
<g id="a_edge1_Node000001_Node000002"><a xlink:title=" ">
<path fill="none" stroke="#63b8ff" d="M387.71,-241.96C310.2,-215.99 145.88,-160.94 75.15,-137.24"/>
<polygon fill="#63b8ff" stroke="#63b8ff" points="76,-133.83 65.41,-133.98 73.78,-140.47 76,-133.83"/>
</a>
</g>
</g>
<!-- Node5 -->
<g id="Node000005" class="node">
<title>Node5</title>
<g id="a_Node000005"><a xlink:href="threadsafe__hashtable_8h.html" target="_top" xlink:title=" ">
<polygon fill="white" stroke="#666666" points="493.1,-206 366.1,-206 366.1,-176 493.1,-176 493.1,-206"/>
<text text-anchor="start" x="374.1" y="-194" font-family="Helvetica,sans-Serif" font-size="10.00">../container/threadsafe</text>
<text text-anchor="middle" x="429.6" y="-183" font-family="Helvetica,sans-Serif" font-size="10.00">_hashtable.h</text>
</a>
</g>
</g>
<!-- Node1&#45;&gt;Node5 -->
<g id="edge4_Node000001_Node000005" class="edge">
<title>Node1&#45;&gt;Node5</title>
<g id="a_edge4_Node000001_Node000005"><a xlink:title=" ">
<path fill="none" stroke="#63b8ff" d="M429.6,-241.8C429.6,-234.34 429.6,-224.99 429.6,-216.41"/>
<polygon fill="#63b8ff" stroke="#63b8ff" points="433.11,-216.16 429.6,-206.16 426.11,-216.16 433.11,-216.16"/>
</a>
</g>
</g>
<!-- Node15 -->
<g id="Node000015" class="node">
<title>Node15</title>
<g id="a_Node000015"><a xlink:href="threadsafe__queue_8h.html" target="_top" xlink:title=" ">
<polygon fill="white" stroke="#666666" points="283.1,-140 156.1,-140 156.1,-110 283.1,-110 283.1,-140"/>
<text text-anchor="start" x="164.1" y="-128" font-family="Helvetica,sans-Serif" font-size="10.00">../container/threadsafe</text>
<text text-anchor="middle" x="219.6" y="-117" font-family="Helvetica,sans-Serif" font-size="10.00">_queue.h</text>
</a>
</g>
</g>
<!-- Node1&#45;&gt;Node15 -->
<g id="edge16_Node000001_Node000015" class="edge">
<title>Node1&#45;&gt;Node15</title>
<g id="a_edge16_Node000001_Node000015"><a xlink:title=" ">
<path fill="none" stroke="#63b8ff" d="M406.24,-241.84C389.81,-231.87 367.33,-218.17 347.6,-206 314.49,-185.56 276.73,-161.91 250.85,-145.66"/>
<polygon fill="#63b8ff" stroke="#63b8ff" points="252.55,-142.59 242.22,-140.24 248.82,-148.52 252.55,-142.59"/>
</a>
</g>
</g>
<!-- Node17 -->
<g id="Node000017" class="node">
<title>Node17</title>
<g id="a_Node000017"><a xlink:href="threadsafe__stack_8h.html" target="_top" xlink:title=" ">
<polygon fill="white" stroke="#666666" points="428.1,-140 301.1,-140 301.1,-110 428.1,-110 428.1,-140"/>
<text text-anchor="start" x="309.1" y="-128" font-family="Helvetica,sans-Serif" font-size="10.00">../container/threadsafe</text>
<text text-anchor="middle" x="364.6" y="-117" font-family="Helvetica,sans-Serif" font-size="10.00">_stack.h</text>
</a>
</g>
</g>
<!-- Node1&#45;&gt;Node17 -->
<g id="edge23_Node000001_Node000017" class="edge">
<title>Node1&#45;&gt;Node17</title>
<g id="a_edge23_Node000001_Node000017"><a xlink:title=" ">
<path fill="none" stroke="#63b8ff" d="M396.65,-241.95C381.88,-233.78 365.93,-221.91 357.6,-206 348.65,-188.87 351.44,-166.84 355.89,-150.23"/>
<polygon fill="#63b8ff" stroke="#63b8ff" points="359.38,-150.79 358.95,-140.2 352.68,-148.75 359.38,-150.79"/>
</a>
</g>
</g>
<!-- Node18 -->
<g id="Node000018" class="node">
<title>Node18</title>
<g id="a_Node000018"><a xlink:title=" ">
<polygon fill="#e0e0e0" stroke="#999999" points="559.6,-200.5 511.6,-200.5 511.6,-181.5 559.6,-181.5 559.6,-200.5"/>
<text text-anchor="middle" x="535.6" y="-188.5" font-family="Helvetica,sans-Serif" font-size="10.00">thread</text>
</a>
</g>
</g>
<!-- Node1&#45;&gt;Node18 -->
<g id="edge30_Node000001_Node000018" class="edge">
<title>Node1&#45;&gt;Node18</title>
<g id="a_edge30_Node000001_Node000018"><a xlink:title=" ">
<path fill="none" stroke="#63b8ff" d="M452.87,-241.95C470.72,-231.18 495.23,-216.38 512.93,-205.69"/>
<polygon fill="#63b8ff" stroke="#63b8ff" points="514.75,-208.68 521.5,-200.52 511.13,-202.69 514.75,-208.68"/>
</a>
</g>
</g>
<!-- Node19 -->
<g id="Node000019" class="node">
<title>Node19</title>
<g id="a_Node000019"><a xlink:title=" ">
<polygon fill="#e0e0e0" stroke="#999999" points="623.6,-200.5 577.6,-200.5 577.6,-181.5 623.6,-181.5 623.6,-200.5"/>
<text text-anchor="middle" x="600.6" y="-188.5" font-family="Helvetica,sans-Serif" font-size="10.00">future</text>
</a>
</g>
</g>
<!-- Node1&#45;&gt;Node19 -->
<g id="edge31_Node000001_Node000019" class="edge">
<title>Node1&#45;&gt;Node19</title>
<g id="a_edge31_Node000001_Node000019"><a xlink:title=" ">
<path fill="none" stroke="#63b8ff" d="M470.93,-241.95C498.72,-232.3 536.08,-218.95 568.6,-206 569.81,-205.52 571.04,-205.02 572.27,-204.52"/>
<polygon fill="#63b8ff" stroke="#63b8ff" points="573.9,-207.63 581.74,-200.5 571.17,-201.18 573.9,-207.63"/>
</a>
</g>
</g>
<!-- Node20 -->
<g id="Node000020" class="node">
<title>Node20</title>
<g id="a_Node000020"><a xlink:title=" ">
<polygon fill="#e0e0e0" stroke="#999999" points="683.1,-200.5 642.1,-200.5 642.1,-181.5 683.1,-181.5 683.1,-200.5"/>
<text text-anchor="middle" x="662.6" y="-188.5" font-family="Helvetica,sans-Serif" font-size="10.00">latch</text>
</a>
</g>
</g>
<!-- Node1&#45;&gt;Node20 -->
<g id="edge32_Node000001_Node000020" class="edge">
<title>Node1&#45;&gt;Node20</title>
<g id="a_edge32_Node000001_Node000020"><a xlink:title=" ">
<path fill="none" stroke="#63b8ff" d="M483.87,-245.65C525.24,-237.03 583.31,-223.38 632.6,-206 633.82,-205.57 635.06,-205.11 636.3,-204.62"/>
<polygon fill="#63b8ff" stroke="#63b8ff" points="637.9,-207.74 645.71,-200.58 635.14,-201.31 637.9,-207.74"/>
</a>
</g>
</g>
<!-- Node3 -->
<g id="Node000003" class="node">
<title>Node3</title>
<g id="a_Node000003"><a xlink:title=" ">
<polygon fill="#e0e0e0" stroke="#999999" points="116.1,-19 51.1,-19 51.1,0 116.1,0 116.1,-19"/>
<text text-anchor="middle" x="83.6" y="-7" font-family="Helvetica,sans-Serif" font-size="10.00">functional</text>
</a>
</g>
</g>
<!-- Node2&#45;&gt;Node3 -->
<g id="edge2_Node000002_Node000003" class="edge">
<title>Node2&#45;&gt;Node3</title>
<g id="a_edge2_Node000002_Node000003"><a xlink:title=" ">
<path fill="none" stroke="#63b8ff" d="M30.75,-115.41C15.52,-102.28 -9.01,-76.46 3.6,-55 12.34,-40.14 28.04,-29.88 43.23,-22.99"/>
<polygon fill="#63b8ff" stroke="#63b8ff" points="44.66,-26.19 52.56,-19.13 41.98,-19.72 44.66,-26.19"/>
</a>
</g>
</g>
<!-- Node4 -->
<g id="Node000004" class="node">
<title>Node4</title>
<g id="a_Node000004"><a xlink:title=" ">
<polygon fill="#e0e0e0" stroke="#999999" points="70.6,-74 12.6,-74 12.6,-55 70.6,-55 70.6,-74"/>
<text text-anchor="middle" x="41.6" y="-62" font-family="Helvetica,sans-Serif" font-size="10.00">memory</text>
</a>
</g>
</g>
<!-- Node2&#45;&gt;Node4 -->
<g id="edge3_Node000002_Node000004" class="edge">
<title>Node2&#45;&gt;Node4</title>
<g id="a_edge3_Node000002_Node000004"><a xlink:title=" ">
<path fill="none" stroke="#63b8ff" d="M41.6,-115.37C41.6,-107.25 41.6,-94.81 41.6,-84.39"/>
<polygon fill="#63b8ff" stroke="#63b8ff" points="45.11,-84.17 41.6,-74.17 38.11,-84.17 45.11,-84.17"/>
</a>
</g>
</g>
<!-- Node6 -->
<g id="Node000006" class="node">
<title>Node6</title>
<g id="a_Node000006"><a xlink:href="threadsafe__list_8h.html" target="_top" xlink:title=" ">
<polygon fill="white" stroke="#666666" points="544.6,-134.5 446.6,-134.5 446.6,-115.5 544.6,-115.5 544.6,-134.5"/>
<text text-anchor="middle" x="495.6" y="-122.5" font-family="Helvetica,sans-Serif" font-size="10.00">threadsafe_list.h</text>
</a>
</g>
</g>
<!-- Node5&#45;&gt;Node6 -->
<g id="edge5_Node000005_Node000006" class="edge">
<title>Node5&#45;&gt;Node6</title>
<g id="a_edge5_Node000005_Node000006"><a xlink:title=" ">
<path fill="none" stroke="#63b8ff" d="M444.25,-175.8C454.54,-165.82 468.32,-152.46 479.02,-142.09"/>
<polygon fill="#63b8ff" stroke="#63b8ff" points="481.74,-144.32 486.48,-134.84 476.87,-139.29 481.74,-144.32"/>
</a>
</g>
</g>
<!-- Node6&#45;&gt;Node4 -->
<g id="edge10_Node000006_Node000004" class="edge">
<title>Node6&#45;&gt;Node4</title>
<g id="a_edge10_Node000006_Node000004"><a xlink:title=" ">
<path fill="none" stroke="#63b8ff" d="M463.55,-115.44C455.16,-113.42 446.08,-111.44 437.6,-110 283.19,-83.73 239.26,-98.85 81.08,-74.05"/>
<polygon fill="#63b8ff" stroke="#63b8ff" points="81.42,-70.56 71,-72.44 80.32,-77.47 81.42,-70.56"/>
</a>
</g>
</g>
<!-- Node7 -->
<g id="Node000007" class="node">
<title>Node7</title>
<g id="a_Node000007"><a xlink:href="container_8h.html" target="_top" xlink:title=" ">
<polygon fill="white" stroke="#666666" points="400.1,-74 329.1,-74 329.1,-55 400.1,-55 400.1,-74"/>
<text text-anchor="middle" x="364.6" y="-62" font-family="Helvetica,sans-Serif" font-size="10.00">container.h</text>
</a>
</g>
</g>
<!-- Node6&#45;&gt;Node7 -->
<g id="edge6_Node000006_Node000007" class="edge">
<title>Node6&#45;&gt;Node7</title>
<g id="a_edge6_Node000006_Node000007"><a xlink:title=" ">
<path fill="none" stroke="#63b8ff" d="M476.56,-115.49C454.63,-105.7 418.4,-89.52 393.11,-78.23"/>
<polygon fill="#63b8ff" stroke="#63b8ff" points="394.23,-74.9 383.68,-74.02 391.38,-81.29 394.23,-74.9"/>
</a>
</g>
</g>
<!-- Node8 -->
<g id="Node000008" class="node">
<title>Node8</title>
<g id="a_Node000008"><a xlink:href="concepts_8h.html" target="_top" xlink:title=" ">
<polygon fill="white" stroke="#666666" points="311.1,-74 214.1,-74 214.1,-55 311.1,-55 311.1,-74"/>
<text text-anchor="middle" x="262.6" y="-62" font-family="Helvetica,sans-Serif" font-size="10.00">../util/concepts.h</text>
</a>
</g>
</g>
<!-- Node6&#45;&gt;Node8 -->
<g id="edge7_Node000006_Node000008" class="edge">
<title>Node6&#45;&gt;Node8</title>
<g id="a_edge7_Node000006_Node000008"><a xlink:title=" ">
<path fill="none" stroke="#63b8ff" d="M461.72,-115.49C420.66,-105.18 351.36,-87.78 306.31,-76.47"/>
<polygon fill="#63b8ff" stroke="#63b8ff" points="307.08,-73.06 296.53,-74.02 305.37,-79.85 307.08,-73.06"/>
</a>
</g>
</g>
<!-- Node10 -->
<g id="Node000010" class="node">
<title>Node10</title>
<g id="a_Node000010"><a xlink:title=" ">
<polygon fill="#e0e0e0" stroke="#999999" points="466.6,-74 418.6,-74 418.6,-55 466.6,-55 466.6,-74"/>
<text text-anchor="middle" x="442.6" y="-62" font-family="Helvetica,sans-Serif" font-size="10.00">mutex</text>
</a>
</g>
</g>
<!-- Node6&#45;&gt;Node10 -->
<g id="edge11_Node000006_Node000010" class="edge">
<title>Node6&#45;&gt;Node10</title>
<g id="a_edge11_Node000006_Node000010"><a xlink:title=" ">
<path fill="none" stroke="#63b8ff" d="M487.78,-115.37C479.8,-106.55 467.21,-92.66 457.35,-81.77"/>
<polygon fill="#63b8ff" stroke="#63b8ff" points="459.77,-79.23 450.46,-74.17 454.58,-83.93 459.77,-79.23"/>
</a>
</g>
</g>
<!-- Node11 -->
<g id="Node000011" class="node">
<title>Node11</title>
<g id="a_Node000011"><a xlink:title=" ">
<polygon fill="#e0e0e0" stroke="#999999" points="638.6,-74 552.6,-74 552.6,-55 638.6,-55 638.6,-74"/>
<text text-anchor="middle" x="595.6" y="-62" font-family="Helvetica,sans-Serif" font-size="10.00">shared_mutex</text>
</a>
</g>
</g>
<!-- Node6&#45;&gt;Node11 -->
<g id="edge12_Node000006_Node000011" class="edge">
<title>Node6&#45;&gt;Node11</title>
<g id="a_edge12_Node000006_Node000011"><a xlink:title=" ">
<path fill="none" stroke="#63b8ff" d="M510.36,-115.37C526.61,-105.86 552.96,-90.45 572.07,-79.27"/>
<polygon fill="#63b8ff" stroke="#63b8ff" points="573.92,-82.24 580.79,-74.17 570.39,-76.2 573.92,-82.24"/>
</a>
</g>
</g>
<!-- Node12 -->
<g id="Node000012" class="node">
<title>Node12</title>
<g id="a_Node000012"><a xlink:title=" ">
<polygon fill="#e0e0e0" stroke="#999999" points="534.6,-74 484.6,-74 484.6,-55 534.6,-55 534.6,-74"/>
<text text-anchor="middle" x="509.6" y="-62" font-family="Helvetica,sans-Serif" font-size="10.00">atomic</text>
</a>
</g>
</g>
<!-- Node6&#45;&gt;Node12 -->
<g id="edge13_Node000006_Node000012" class="edge">
<title>Node6&#45;&gt;Node12</title>
<g id="a_edge13_Node000006_Node000012"><a xlink:title=" ">
<path fill="none" stroke="#63b8ff" d="M497.67,-115.37C499.64,-107.16 502.65,-94.54 505.16,-84.05"/>
<polygon fill="#63b8ff" stroke="#63b8ff" points="508.61,-84.71 507.53,-74.17 501.8,-83.08 508.61,-84.71"/>
</a>
</g>
</g>
<!-- Node13 -->
<g id="Node000013" class="node">
<title>Node13</title>
<g id="a_Node000013"><a xlink:title=" ">
<polygon fill="#e0e0e0" stroke="#999999" points="712.6,-74 656.6,-74 656.6,-55 712.6,-55 712.6,-74"/>
<text text-anchor="middle" x="684.6" y="-62" font-family="Helvetica,sans-Serif" font-size="10.00">optional</text>
</a>
</g>
</g>
<!-- Node6&#45;&gt;Node13 -->
<g id="edge14_Node000006_Node000013" class="edge">
<title>Node6&#45;&gt;Node13</title>
<g id="a_edge14_Node000006_Node000013"><a xlink:title=" ">
<path fill="none" stroke="#63b8ff" d="M523.09,-115.49C555.84,-105.36 610.72,-88.37 647.29,-77.05"/>
<polygon fill="#63b8ff" stroke="#63b8ff" points="648.57,-80.32 657.09,-74.02 646.5,-73.63 648.57,-80.32"/>
</a>
</g>
</g>
<!-- Node14 -->
<g id="Node000014" class="node">
<title>Node14</title>
<g id="a_Node000014"><a xlink:title=" ">
<polygon fill="#e0e0e0" stroke="#999999" points="800.1,-74 731.1,-74 731.1,-55 800.1,-55 800.1,-74"/>
<text text-anchor="middle" x="765.6" y="-62" font-family="Helvetica,sans-Serif" font-size="10.00">type_traits</text>
</a>
</g>
</g>
<!-- Node6&#45;&gt;Node14 -->
<g id="edge15_Node000006_Node000014" class="edge">
<title>Node6&#45;&gt;Node14</title>
<g id="a_edge15_Node000006_Node000014"><a xlink:title=" ">
<path fill="none" stroke="#63b8ff" d="M534.87,-115.49C584.36,-104.77 669.24,-86.38 721.1,-75.14"/>
<polygon fill="#63b8ff" stroke="#63b8ff" points="721.98,-78.53 731.01,-73 720.5,-71.69 721.98,-78.53"/>
</a>
</g>
</g>
<!-- Node8&#45;&gt;Node3 -->
<g id="edge8_Node000008_Node000003" class="edge">
<title>Node8&#45;&gt;Node3</title>
<g id="a_edge8_Node000008_Node000003"><a xlink:title=" ">
<path fill="none" stroke="#63b8ff" d="M233.85,-54.98C203.66,-46.05 156.03,-31.94 122.51,-22.02"/>
<polygon fill="#63b8ff" stroke="#63b8ff" points="123.17,-18.57 112.59,-19.08 121.18,-25.28 123.17,-18.57"/>
</a>
</g>
</g>
<!-- Node9 -->
<g id="Node000009" class="node">
<title>Node9</title>
<g id="a_Node000009"><a xlink:title=" ">
<polygon fill="#e0e0e0" stroke="#999999" points="292.6,-19 232.6,-19 232.6,0 292.6,0 292.6,-19"/>
<text text-anchor="middle" x="262.6" y="-7" font-family="Helvetica,sans-Serif" font-size="10.00">concepts</text>
</a>
</g>
</g>
<!-- Node8&#45;&gt;Node9 -->
<g id="edge9_Node000008_Node000009" class="edge">
<title>Node8&#45;&gt;Node9</title>
<g id="a_edge9_Node000008_Node000009"><a xlink:title=" ">
<path fill="none" stroke="#63b8ff" d="M262.6,-54.75C262.6,-47.8 262.6,-37.85 262.6,-29.13"/>
<polygon fill="#63b8ff" stroke="#63b8ff" points="266.11,-29.09 262.6,-19.09 259.11,-29.09 266.11,-29.09"/>
</a>
</g>
</g>
<!-- Node15&#45;&gt;Node4 -->
<g id="edge19_Node000015_Node000004" class="edge">
<title>Node15&#45;&gt;Node4</title>
<g id="a_edge19_Node000015_Node000004"><a xlink:title=" ">
<path fill="none" stroke="#63b8ff" d="M176.97,-109.99C146.52,-99.98 106.02,-86.67 77.27,-77.22"/>
<polygon fill="#63b8ff" stroke="#63b8ff" points="78.22,-73.85 67.63,-74.05 76.04,-80.5 78.22,-73.85"/>
</a>
</g>
</g>
<!-- Node15&#45;&gt;Node7 -->
<g id="edge17_Node000015_Node000007" class="edge">
<title>Node15&#45;&gt;Node7</title>
<g id="a_edge17_Node000015_Node000007"><a xlink:title=" ">
<path fill="none" stroke="#63b8ff" d="M254.34,-109.99C278.53,-100.23 310.51,-87.33 333.79,-77.93"/>
<polygon fill="#63b8ff" stroke="#63b8ff" points="335.23,-81.13 343.19,-74.14 332.61,-74.63 335.23,-81.13"/>
</a>
</g>
</g>
<!-- Node15&#45;&gt;Node8 -->
<g id="edge18_Node000015_Node000008" class="edge">
<title>Node15&#45;&gt;Node8</title>
<g id="a_edge18_Node000015_Node000008"><a xlink:title=" ">
<path fill="none" stroke="#63b8ff" d="M230.01,-109.84C236.06,-101.61 243.73,-91.18 250.11,-82.51"/>
<polygon fill="#63b8ff" stroke="#63b8ff" points="253.06,-84.4 256.16,-74.27 247.42,-80.25 253.06,-84.4"/>
</a>
</g>
</g>
<!-- Node15&#45;&gt;Node10 -->
<g id="edge20_Node000015_Node000010" class="edge">
<title>Node15&#45;&gt;Node10</title>
<g id="a_edge20_Node000015_Node000010"><a xlink:title=" ">
<path fill="none" stroke="#63b8ff" d="M273.02,-109.99C315,-98.97 372.23,-83.96 408.3,-74.5"/>
<polygon fill="#63b8ff" stroke="#63b8ff" points="409.54,-77.79 418.33,-71.87 407.77,-71.02 409.54,-77.79"/>
</a>
</g>
</g>
<!-- Node15&#45;&gt;Node12 -->
<g id="edge21_Node000015_Node000012" class="edge">
<title>Node15&#45;&gt;Node12</title>
<g id="a_edge21_Node000015_Node000012"><a xlink:title=" ">
<path fill="none" stroke="#63b8ff" d="M283.32,-111.6C348.01,-99 442.31,-80.62 474.48,-74.05"/>
<polygon fill="#63b8ff" stroke="#63b8ff" points="475.32,-77.45 484.39,-71.96 473.88,-70.6 475.32,-77.45"/>
</a>
</g>
</g>
<!-- Node16 -->
<g id="Node000016" class="node">
<title>Node16</title>
<g id="a_Node000016"><a xlink:title=" ">
<polygon fill="#e0e0e0" stroke="#999999" points="196.1,-74 89.1,-74 89.1,-55 196.1,-55 196.1,-74"/>
<text text-anchor="middle" x="142.6" y="-62" font-family="Helvetica,sans-Serif" font-size="10.00">condition_variable</text>
</a>
</g>
</g>
<!-- Node15&#45;&gt;Node16 -->
<g id="edge22_Node000015_Node000016" class="edge">
<title>Node15&#45;&gt;Node16</title>
<g id="a_edge22_Node000015_Node000016"><a xlink:title=" ">
<path fill="none" stroke="#63b8ff" d="M200.97,-109.84C189.22,-100.91 174.07,-89.41 162.16,-80.35"/>
<polygon fill="#63b8ff" stroke="#63b8ff" points="164.22,-77.53 154.14,-74.27 159.99,-83.1 164.22,-77.53"/>
</a>
</g>
</g>
<!-- Node17&#45;&gt;Node4 -->
<g id="edge26_Node000017_Node000004" class="edge">
<title>Node17&#45;&gt;Node4</title>
<g id="a_edge26_Node000017_Node000004"><a xlink:title=" ">
<path fill="none" stroke="#63b8ff" d="M300.92,-111.7C297.77,-111.12 294.65,-110.55 291.6,-110 200.68,-93.56 175.06,-92.49 80.6,-74.11"/>
<polygon fill="#63b8ff" stroke="#63b8ff" points="81.1,-70.64 70.62,-72.15 79.76,-77.51 81.1,-70.64"/>
</a>
</g>
</g>
<!-- Node17&#45;&gt;Node7 -->
<g id="edge24_Node000017_Node000007" class="edge">
<title>Node17&#45;&gt;Node7</title>
<g id="a_edge24_Node000017_Node000007"><a xlink:title=" ">
<path fill="none" stroke="#63b8ff" d="M364.6,-109.84C364.6,-102.21 364.6,-92.7 364.6,-84.45"/>
<polygon fill="#63b8ff" stroke="#63b8ff" points="368.11,-84.27 364.6,-74.27 361.11,-84.27 368.11,-84.27"/>
</a>
</g>
</g>
<!-- Node17&#45;&gt;Node8 -->
<g id="edge25_Node000017_Node000008" class="edge">
<title>Node17&#45;&gt;Node8</title>
<g id="a_edge25_Node000017_Node000008"><a xlink:title=" ">
<path fill="none" stroke="#63b8ff" d="M340.17,-109.99C323.92,-100.66 302.66,-88.47 286.51,-79.21"/>
<polygon fill="#63b8ff" stroke="#63b8ff" points="288.08,-76.08 277.67,-74.14 284.6,-82.15 288.08,-76.08"/>
</a>
</g>
</g>
<!-- Node17&#45;&gt;Node10 -->
<g id="edge27_Node000017_Node000010" class="edge">
<title>Node17&#45;&gt;Node10</title>
<g id="a_edge27_Node000017_Node000010"><a xlink:title=" ">
<path fill="none" stroke="#63b8ff" d="M383.49,-109.84C395.39,-100.91 410.73,-89.41 422.8,-80.35"/>
<polygon fill="#63b8ff" stroke="#63b8ff" points="425.02,-83.07 430.92,-74.27 420.82,-77.47 425.02,-83.07"/>
</a>
</g>
</g>
<!-- Node17&#45;&gt;Node12 -->
<g id="edge28_Node000017_Node000012" class="edge">
<title>Node17&#45;&gt;Node12</title>
<g id="a_edge28_Node000017_Node000012"><a xlink:title=" ">
<path fill="none" stroke="#63b8ff" d="M399.34,-109.99C423.53,-100.23 455.51,-87.33 478.79,-77.93"/>
<polygon fill="#63b8ff" stroke="#63b8ff" points="480.23,-81.13 488.19,-74.14 477.61,-74.63 480.23,-81.13"/>
</a>
</g>
</g>
<!-- Node17&#45;&gt;Node16 -->
<g id="edge29_Node000017_Node000016" class="edge">
<title>Node17&#45;&gt;Node16</title>
<g id="a_edge29_Node000017_Node000016"><a xlink:title=" ">
<path fill="none" stroke="#63b8ff" d="M311.43,-109.99C272.62,-99.76 220.73,-86.09 184.76,-76.61"/>
<polygon fill="#63b8ff" stroke="#63b8ff" points="185.63,-73.22 175.06,-74.05 183.84,-79.99 185.63,-73.22"/>
</a>
</g>
</g>
</g>
</svg>
