<?xml version="1.0" encoding="UTF-8" standalone="no"?>
<!DOCTYPE svg PUBLIC "-//W3C//DTD SVG 1.1//EN"
 "http://www.w3.org/Graphics/SVG/1.1/DTD/svg11.dtd">
<!-- Generated by graphviz version 2.43.0 (0)
 -->
<!-- Title: src/mt/container/threadsafe_queue.h Pages: 1 -->
<svg width="530pt" height="148pt"
 viewBox="0.00 0.00 530.00 148.00" xmlns="http://www.w3.org/2000/svg" xmlns:xlink="http://www.w3.org/1999/xlink">
<g id="graph0" class="graph" transform="scale(1 1) rotate(0) translate(4 144)">
<title>src/mt/container/threadsafe_queue.h</title>
<!-- Node1 -->
<g id="Node000001" class="node">
<title>Node1</title>
<g id="a_Node000001"><a xlink:title=" ">
<polygon fill="#999999" stroke="#666666" points="344.5,-140 192.5,-140 192.5,-110 344.5,-110 344.5,-140"/>
<text text-anchor="start" x="200.5" y="-128" font-family="Helvetica,sans-Serif" font-size="10.00">src/mt/container/threadsafe</text>
<text text-anchor="middle" x="268.5" y="-117" font-family="Helvetica,sans-Serif" font-size="10.00">_queue.h</text>
</a>
</g>
</g>
<!-- Node2 -->
<g id="Node000002" class="node">
<title>Node2</title>
<g id="a_Node000002"><a xlink:href="container_8h.html" target="_top" xlink:title=" ">
<polygon fill="white" stroke="#666666" points="71,-74 0,-74 0,-55 71,-55 71,-74"/>
<text text-anchor="middle" x="35.5" y="-62" font-family="Helvetica,sans-Serif" font-size="10.00">container.h</text>
</a>
</g>
</g>
<!-- Node1&#45;&gt;Node2 -->
<g id="edge1_Node000001_Node000002" class="edge">
<title>Node1&#45;&gt;Node2</title>
<g id="a_edge1_Node000001_Node000002"><a xlink:title=" ">
<path fill="none" stroke="#63b8ff" d="M212.69,-109.99C171.96,-99.76 117.49,-86.09 79.75,-76.61"/>
<polygon fill="#63b8ff" stroke="#63b8ff" points="80.12,-73.09 69.57,-74.05 78.41,-79.88 80.12,-73.09"/>
</a>
</g>
</g>
<!-- Node3 -->
<g id="Node000003" class="node">
<title>Node3</title>
<g id="a_Node000003"><a xlink:href="concepts_8h.html" target="_top" xlink:title=" ">
<polygon fill="white" stroke="#666666" points="186,-74 89,-74 89,-55 186,-55 186,-74"/>
<text text-anchor="middle" x="137.5" y="-62" font-family="Helvetica,sans-Serif" font-size="10.00">../util/concepts.h</text>
</a>
</g>
</g>
<!-- Node1&#45;&gt;Node3 -->
<g id="edge2_Node000001_Node000003" class="edge">
<title>Node1&#45;&gt;Node3</title>
<g id="a_edge2_Node000001_Node000003"><a xlink:title=" ">
<path fill="none" stroke="#63b8ff" d="M237.12,-109.99C215.56,-100.36 187.15,-87.67 166.19,-78.31"/>
<polygon fill="#63b8ff" stroke="#63b8ff" points="167.4,-75.02 156.85,-74.14 164.55,-81.41 167.4,-75.02"/>
</a>
</g>
</g>
<!-- Node6 -->
<g id="Node000006" class="node">
<title>Node6</title>
<g id="a_Node000006"><a xlink:title=" ">
<polygon fill="#e0e0e0" stroke="#999999" points="262.5,-74 204.5,-74 204.5,-55 262.5,-55 262.5,-74"/>
<text text-anchor="middle" x="233.5" y="-62" font-family="Helvetica,sans-Serif" font-size="10.00">memory</text>
</a>
</g>
</g>
<!-- Node1&#45;&gt;Node6 -->
<g id="edge5_Node000001_Node000006" class="edge">
<title>Node1&#45;&gt;Node6</title>
<g id="a_edge5_Node000001_Node000006"><a xlink:title=" ">
<path fill="none" stroke="#63b8ff" d="M260.03,-109.84C255.21,-101.78 249.13,-91.62 244,-83.06"/>
<polygon fill="#63b8ff" stroke="#63b8ff" points="246.88,-81.05 238.74,-74.27 240.88,-84.64 246.88,-81.05"/>
</a>
</g>
</g>
<!-- Node7 -->
<g id="Node000007" class="node">
<title>Node7</title>
<g id="a_Node000007"><a xlink:title=" ">
<polygon fill="#e0e0e0" stroke="#999999" points="328.5,-74 280.5,-74 280.5,-55 328.5,-55 328.5,-74"/>
<text text-anchor="middle" x="304.5" y="-62" font-family="Helvetica,sans-Serif" font-size="10.00">mutex</text>
</a>
</g>
</g>
<!-- Node1&#45;&gt;Node7 -->
<g id="edge6_Node000001_Node000007" class="edge">
<title>Node1&#45;&gt;Node7</title>
<g id="a_edge6_Node000001_Node000007"><a xlink:title=" ">
<path fill="none" stroke="#63b8ff" d="M277.21,-109.84C282.17,-101.78 288.43,-91.62 293.7,-83.06"/>
<polygon fill="#63b8ff" stroke="#63b8ff" points="296.85,-84.62 299.11,-74.27 290.88,-80.95 296.85,-84.62"/>
</a>
</g>
</g>
<!-- Node8 -->
<g id="Node000008" class="node">
<title>Node8</title>
<g id="a_Node000008"><a xlink:title=" ">
<polygon fill="#e0e0e0" stroke="#999999" points="396.5,-74 346.5,-74 346.5,-55 396.5,-55 396.5,-74"/>
<text text-anchor="middle" x="371.5" y="-62" font-family="Helvetica,sans-Serif" font-size="10.00">atomic</text>
</a>
</g>
</g>
<!-- Node1&#45;&gt;Node8 -->
<g id="edge7_Node000001_Node000008" class="edge">
<title>Node1&#45;&gt;Node8</title>
<g id="a_edge7_Node000001_Node000008"><a xlink:title=" ">
<path fill="none" stroke="#63b8ff" d="M293.17,-109.99C309.59,-100.66 331.05,-88.47 347.36,-79.21"/>
<polygon fill="#63b8ff" stroke="#63b8ff" points="349.32,-82.12 356.29,-74.14 345.87,-76.03 349.32,-82.12"/>
</a>
</g>
</g>
<!-- Node9 -->
<g id="Node000009" class="node">
<title>Node9</title>
<g id="a_Node000009"><a xlink:title=" ">
<polygon fill="#e0e0e0" stroke="#999999" points="522,-74 415,-74 415,-55 522,-55 522,-74"/>
<text text-anchor="middle" x="468.5" y="-62" font-family="Helvetica,sans-Serif" font-size="10.00">condition_variable</text>
</a>
</g>
</g>
<!-- Node1&#45;&gt;Node9 -->
<g id="edge8_Node000001_Node000009" class="edge">
<title>Node1&#45;&gt;Node9</title>
<g id="a_edge8_Node000001_Node000009"><a xlink:title=" ">
<path fill="none" stroke="#63b8ff" d="M316.4,-109.99C350.92,-99.89 396.92,-86.44 429.27,-76.98"/>
<polygon fill="#63b8ff" stroke="#63b8ff" points="430.64,-80.22 439.26,-74.05 428.68,-73.5 430.64,-80.22"/>
</a>
</g>
</g>
<!-- Node4 -->
<g id="Node000004" class="node">
<title>Node4</title>
<g id="a_Node000004"><a xlink:title=" ">
<polygon fill="#e0e0e0" stroke="#999999" points="129,-19 64,-19 64,0 129,0 129,-19"/>
<text text-anchor="middle" x="96.5" y="-7" font-family="Helvetica,sans-Serif" font-size="10.00">functional</text>
</a>
</g>
</g>
<!-- Node3&#45;&gt;Node4 -->
<g id="edge3_Node000003_Node000004" class="edge">
<title>Node3&#45;&gt;Node4</title>
<g id="a_edge3_Node000003_Node000004"><a xlink:title=" ">
<path fill="none" stroke="#63b8ff" d="M130.73,-54.75C124.94,-47.26 116.44,-36.28 109.36,-27.13"/>
<polygon fill="#63b8ff" stroke="#63b8ff" points="112.03,-24.86 103.14,-19.09 106.49,-29.14 112.03,-24.86"/>
</a>
</g>
</g>
<!-- Node5 -->
<g id="Node000005" class="node">
<title>Node5</title>
<g id="a_Node000005"><a xlink:title=" ">
<polygon fill="#e0e0e0" stroke="#999999" points="207.5,-19 147.5,-19 147.5,0 207.5,0 207.5,-19"/>
<text text-anchor="middle" x="177.5" y="-7" font-family="Helvetica,sans-Serif" font-size="10.00">concepts</text>
</a>
</g>
</g>
<!-- Node3&#45;&gt;Node5 -->
<g id="edge4_Node000003_Node000005" class="edge">
<title>Node3&#45;&gt;Node5</title>
<g id="a_edge4_Node000003_Node000005"><a xlink:title=" ">
<path fill="none" stroke="#63b8ff" d="M144.11,-54.75C149.76,-47.26 158.04,-36.28 164.95,-27.13"/>
<polygon fill="#63b8ff" stroke="#63b8ff" points="167.79,-29.18 171.02,-19.09 162.2,-24.96 167.79,-29.18"/>
</a>
</g>
</g>
</g>
</svg>
